<svg xmlns="http://www.w3.org/2000/svg" viewBox="0 0 21 21"><path d="M10.5 21C4.71 21 0 16.29 0 10.5S4.71 0 10.5 0 21 4.71 21 10.5 16.29 21 10.5 21" style="stroke-width:0;fill:#006227"/><path d="M12.9 12.44c1.05-.79.73-2.98.73-2.98s-.09-.09-1.66.83c-.53.31-.83.77-.99 1.23V9.89c.28-.06 1.07-.26 1.92-.9 1.05-.79.73-2.98.73-2.98s-.09-.09-1.66.83c-.53.31-.83.77-.99 1.23V6.9c.37-.38.82-1 .82-1.74 0-1.26-1.3-2.42-1.3-2.42S9.2 3.91 9.2 5.16c0 .74.45 1.35.82 1.74v1.17a2.24 2.24 0 0 0-.99-1.23c-1.58-.92-1.66-.83-1.66-.83s-.32 2.19.73 2.98c.85.64 1.64.84 1.92.9v1.63a2.24 2.24 0 0 0-.99-1.23c-1.58-.92-1.66-.83-1.66-.83s-.32 2.19.73 2.98c.85.64 1.64.84 1.92.9v1.63a2.24 2.24 0 0 0-.99-1.23c-1.58-.92-1.66-.83-1.66-.83s-.32 2.19.73 2.98c.85.64 1.64.84 1.92.9v1.47h.96v-1.47c.28-.06 1.07-.26 1.92-.9 1.05-.79.73-2.98.73-2.98s-.09-.09-1.66.83c-.53.31-.83.77-.99 1.23v-1.63c.28-.06 1.07-.26 1.92-.9" style="fill:#fff;stroke-width:0"/></svg>