<svg xmlns="http://www.w3.org/2000/svg" id="Layer_1" viewBox="0 0 21 21"><path d="M10.5 21C4.71 21 0 16.29 0 10.5S4.71 0 10.5 0 21 4.71 21 10.5 16.29 21 10.5 21" style="fill:#006227;stroke-width:0"/><path fill="#fff" stroke-width="0" d="M15.97 12.19c.93-.42 1.57-1.36 1.57-2.44 0-1.16-.74-2.17-1.82-2.53a3.93 3.93 0 0 0-3.9-3.5c-1.14 0-2.19.48-2.93 1.32-.43-.35-.96-.53-1.52-.53-1.35 0-2.45 1.1-2.45 2.45v.1a3.285 3.285 0 0 0-1.91 2.97c0 1.81 1.47 3.28 3.28 3.28.22 0 .44-.02.66-.07a4.365 4.365 0 0 0 5.72.5 2.21 2.21 0 1 0 4.39.35c0-.81-.44-1.52-1.09-1.9m-2.73 1.9a1.609 1.609 0 0 1 2.35-1.43l-1.95 2.48c-.24-.28-.39-.65-.39-1.05m1.6 1.61c-.22 0-.44-.05-.63-.13l1.92-2.43a1.609 1.609 0 0 1-1.29 2.57"/><path d="M13.14 8.32c-.04.05-.1.13-.1.22 0 .2.15.29.34.29h1.46c.17 0 .31-.09.31-.29s-.15-.29-.34-.29h-.8c.37-.47 1.05-1.07 1.05-1.68 0-.56-.43-.91-.97-.91s-1.03.44-1.03.99c0 .17.11.32.32.32.42 0 .18-.71.68-.71.18 0 .32.16.32.34 0 .16-.07.29-.15.41-.33.48-.73.88-1.09 1.31m-2.57-.79c-1.37 0-2.32 1.08-2.32 2.48s.95 2.48 2.32 2.48 2.32-1.08 2.32-2.48-.96-2.48-2.32-2.48m0 4.02c-.85 0-1.27-.73-1.27-1.55s.42-1.55 1.27-1.55 1.27.73 1.27 1.55-.41 1.55-1.27 1.55m-3.04-.32c-.28 0-.51.28-1.07.28-.83 0-1.27-.69-1.27-1.49s.43-1.53 1.27-1.53c.57 0 .75.24 1.03.24.25 0 .42-.21.42-.45 0-.59-.96-.75-1.45-.75-1.37 0-2.31 1.08-2.31 2.48s.95 2.48 2.31 2.48c.5 0 1.52-.15 1.52-.79 0-.15-.14-.46-.44-.46" style="fill:#006227;stroke-width:0"/></svg>