<svg xmlns="http://www.w3.org/2000/svg" id="Layer_1" viewBox="0 0 21 21"><defs/><path d="M10.5 21C4.71 21 0 16.29 0 10.5S4.71 0 10.5 0 21 4.71 21 10.5 16.29 21 10.5 21" stroke-width="0" fill="#006227"/><path d="M11 14.16H5.42c-.08 0-.15.07-.15.15v.87c0 .08.07.15.15.15H11c.35 0 .63.28.63.63s-.28.63-.63.63-.63-.28-.63-.63c0-.08-.07-.15-.15-.15h-.87c-.08 0-.15.07-.15.15 0 1 .81 1.81 1.8 1.81s1.8-.81 1.8-1.81-.81-1.8-1.8-1.8M14.73 8.06c-.08 0-.15.07-.15.15v.87c0 .08.07.15.15.15.88 0 1.59.71 1.59 1.59s-.71 1.59-1.59 1.59H5.42c-.08 0-.15.07-.15.15v.87c0 .08.07.15.15.15h9.31a2.77 2.77 0 1 0 0-5.54" style="fill:#fff"/><path d="M8.12 11.56c1.56 0 2.82-1.16 2.82-3.14 0-1.14-.95-2.44-1.48-3.26C8.65 3.9 8.12 2.7 8.12 2.7S7.6 3.91 6.79 5.17C6.26 6 5.31 7.3 5.31 8.43c0 1.98 1.26 3.14 2.82 3.14M5.9 9.2a.959.959 0 0 1-.06-.37c-.03-.74.21-1.58.56-2.24.27-.51.44-.78.52-.91.05-.08.07-.07.05.03-.02.1-.07.25-.15.47-.16.43-.46 1.39-.5 1.82-.03.39-.02.83 0 1.06.02.18-.04.28-.16.31-.1.03-.21-.04-.26-.17" style="fill:#fff"/><path d="M6 9.2a.959.959 0 0 1-.06-.37c-.03-.74.21-1.58.56-2.24.27-.51.44-.78.52-.91.05-.08.07-.07.05.03-.02.1-.07.25-.15.47-.16.43-.46 1.39-.5 1.82-.03.39-.02.83 0 1.06.02.18-.04.28-.16.31-.1.03-.21-.04-.26-.17" fill="#006227" stroke="#006227" stroke-miterlimit="10" stroke-width=".2px"/></svg>