<svg xmlns="http://www.w3.org/2000/svg" viewBox="0 0 21 21"><path fill="#006227" d="M10.5 21C4.71 21 0 16.29 0 10.5S4.71 0 10.5 0 21 4.71 21 10.5 16.29 21 10.5 21"/><path fill="#fff" d="M15.1 4.15c-2.25-.4-3.38.33-3.94.98.16-.6.42-1.24.85-1.78l-.66-.53c-.65.8-.97 1.78-1.13 2.61-.43-.82-1.51-1.98-4.02-1 0 0 .63 2.24 3.9 1.74-.02.23-.04.43-.04.59-1.84-.09-7.2-.25-4.29 6.76 1.31 3.15 3.18 4.66 4.72 4.66 1.54 0 3.41-1.51 4.72-4.66 2.92-7.03-2.49-6.84-4.31-6.76 0-.18.02-.41.06-.66 3.56 1.12 4.13-1.95 4.13-1.95M6.6 11.02c0-.4.22-.6.49-.6s.49.2.49.6-.35.95-.49.95-.49-.55-.49-.95m4.37 4.29c-.04.39-.43.91-.58.9-.14-.01-.44-.59-.41-.99.04-.39.27-.58.55-.55.27.02.47.25.44.64M9.8 12.67c0 .4-.35.95-.49.95s-.49-.55-.49-.95c0-.4.22-.6.49-.6s.49.2.49.6M8.32 9.11c0-.4.22-.6.49-.6s.49.2.49.6c0 .4-.35.95-.49.95s-.49-.55-.49-.95m4.59 3.69c-.1.38-.57.83-.71.8-.14-.04-.34-.66-.25-1.04.1-.38.36-.53.62-.46s.43.32.33.7m-1.25-2.92c0 .4-.35.95-.49.95-.15 0-.49-.55-.49-.95s.22-.6.49-.6.49.2.49.6m2.04-1.18c.24-.04.46.11.52.45.06.35-.17.88-.29.9-.13.02-.51-.41-.57-.76-.06-.35.11-.56.34-.6"/></svg>