<svg xmlns="http://www.w3.org/2000/svg" viewBox="0 0 21 21"><path fill="#006227" d="M10.5 21C4.71 21 0 16.29 0 10.5S4.71 0 10.5 0 21 4.71 21 10.5 16.29 21 10.5 21"/><path fill="#fff" fill-rule="evenodd" d="M14.44 5.18c.43.43.65.95.65 1.55 0 .61-.22 1.12-.65 1.55-.02.03-.05.05-.07.08.36.13.68.34.97.63.53.53.79 1.17.8 1.92 0 .75-.27 1.39-.8 1.92s-1.17.79-1.91.8h-1.79l.24 5.13H9.21l.25-5.13H7.67c-.75 0-1.38-.27-1.91-.8s-.79-1.17-.79-1.92.26-1.39.79-1.92c.06-.06.12-.11.18-.17.12-.1.24-.19.37-.26.14-.08.28-.15.42-.2-.03-.02-.05-.05-.08-.08-.43-.43-.64-.95-.64-1.55v-.08c.02-.57.23-1.06.64-1.47.43-.43.95-.65 1.56-.65h.14v-.09c0-.61.22-1.13.65-1.56.43-.43.95-.64 1.55-.64.61 0 1.13.21 1.55.64.43.43.65.95.65 1.56v.09h.14c.61 0 1.12.22 1.55.65M8.22 7.59c-.09.03-.15.08-.2.16-.05.08-.06.17-.03.26s.08.16.16.2l2.06 1.14v2.19c0 .08.02.15.08.21.05.06.12.1.19.11.08.02.15 0 .22-.03l2.78-1.53c.08-.04.13-.11.16-.2a.36.36 0 0 0-.03-.25.295.295 0 0 0-.2-.16.277.277 0 0 0-.25.03l-2.29 1.26V7.26l1.32-.72c.08-.04.13-.11.16-.2.03-.09.02-.17-.03-.25a.295.295 0 0 0-.2-.16.302.302 0 0 0-.26.03l-.99.55V4.59c0-.09-.03-.17-.1-.24a.35.35 0 0 0-.24-.1c-.09 0-.17.03-.24.1-.06.07-.1.14-.09.24V8.6l-1.74-.96a.366.366 0 0 0-.25-.03"/></svg>