<svg xmlns="http://www.w3.org/2000/svg" viewBox="0 0 21 21"><path fill="#004c6c" stroke-width="0" d="M10.5 21C4.71 21 0 16.29 0 10.5S4.71 0 10.5 0 21 4.71 21 10.5 16.29 21 10.5 21"/><path d="M9.89 5.28h.08c.19 0 .37.07.52.19V4.26c0-.11-.07-.24-.2-.34a.766.766 0 0 0-.53-.17l-.14.02c-.27.04-.46.3-.43.59l.08.98.62-.06Zm-1.95.21v.06-.06l.91-.1-.1-1.12a.58.58 0 0 0-.19-.33.453.453 0 0 0-.35-.1h-.07a.54.54 0 0 0-.44.6l.1 1.07h.14Zm3.49 1.49h.05c.28 0 .51-.24.52-.53l.05-1.81v-.11c0-.18-.06-.35-.19-.48a.578.578 0 0 0-.4-.17h-.08c-.14.02-.24.07-.32.16-.1.12-.15.29-.14.48l-.02 1.93c.02.29.25.53.53.53m1.45-.04c.13.01.25-.02.35-.11.11-.09.18-.23.19-.39l.1-1.67a.663.663 0 0 0-.16-.49.539.539 0 0 0-.38-.19c-.13 0-.24.04-.33.12-.11.1-.18.26-.18.44l-.04 1.68c-.01.32.18.58.45.61" style="stroke-width:0;fill:#fff"/><path d="M18.94 13.28h-.43l-1.1-4.55v-.05s-.03-.05-.05-.07c.12-.11.22-.25.29-.41h.97c.07 0 .12-.05.12-.12v-.76c0-.07-.05-.12-.12-.12h-.99c-.18-.38-.55-.64-.97-.64s-.79.26-.97.64h-1.91v.24c0-.23 0-.4-.02-.5 0-.03-.01-.07-.02-.11a.96.96 0 0 1-.25.32c-.19.15-.41.23-.66.2a.92.92 0 0 1-.61-.34c-.18.24-.45.38-.74.39h-.04c-.28 0-.54-.12-.72-.33-.1.15-.23.26-.38.32 0 0-.63.35-.92.35-.12 0-.35-.11-.67-.3 0 .28.01.63.02.81.07.04.18.09.26.13.48.24 1.29.64 1.69 1.2a.2.2 0 0 1-.05.29c-.1.07-.23.05-.29-.05-.35-.47-1.09-.85-1.54-1.07-.37-.18-.49-.25-.49-.41 0-.1-.02-1.01-.03-1.23v-.05c0-.08.04-.15.11-.19.06-.04.15-.03.22.01.36.24.72.44.79.45.09 0 .43-.14.72-.31.2-.08.32-.29.3-.52l-.08-.45c-.06-.21-.25-.37-.45-.34l-2.14.22c-.14.01-.24.13-.37.45-.1.24-.21.54-.31.83h-1.8c-.18-.38-.55-.64-.97-.64s-.79.26-.97.64h-.92c-.07 0-.12.05-.12.12v.76c0 .07.05.12.12.12h.89c.07.16.17.3.29.41-.02.02-.03.04-.04.07v.05l-1.11 4.55h-.43c-.07 0-.12.05-.12.12 0 1.29 1.08 2.35 2.4 2.35s2.4-1.05 2.4-2.35c0-.07-.05-.12-.12-.12h-.43l-1.1-4.55v-.05s-.03-.05-.05-.07c.12-.11.22-.25.29-.41h1.5c-.03.16-.04.29-.03.36.08.36.69 1.37 1.09 2.04.32.52.51.85.57 1.01.15.4.2 2.11.17 5.54 1.25.26 2.53.25 3.77-.02.03-2.59.04-4.11.05-4.9v-.69c0-.23.24-.56.6-1.03.15-.2.3-.39.34-.48.13-.29.24-1.09.3-1.82h1.95c.07.16.17.3.29.41-.02.02-.03.04-.04.07v.05l-1.11 4.55h-.43c-.07 0-.12.05-.12.12 0 1.29 1.08 2.35 2.4 2.35s2.4-1.05 2.4-2.35c0-.07-.05-.12-.12-.12m-13.08-.02H2.86l1.05-4.35.03-.12c.13.05.26.08.4.08s.28-.03.4-.08l.03.12 1.05 4.35Zm9.36 0 1.05-4.35.03-.12c.13.05.26.08.4.08s.28-.03.4-.08l.03.12 1.05 4.35h-2.96Z" style="stroke-width:0;fill:#fff"/></svg>