<svg xmlns="http://www.w3.org/2000/svg" viewBox="0 0 21 21"><path fill="#004c6c" stroke-width="0" d="M10.5 21C4.71 21 0 16.29 0 10.5S4.71 0 10.5 0 21 4.71 21 10.5 16.29 21 10.5 21"/><path d="M10.22 13.33c-.05 0-.1-.01-.15-.04l-4.63-2.6v3.35c0 .05.01.1.04.14.04.08 1.04 1.9 4.75 1.9s4.71-1.82 4.75-1.9c.02-.04.04-.09.04-.14v-3.35l-4.63 2.6s-.1.04-.15.04" style="stroke-width:0;fill:#fff"/><path d="M18.52 12.9c-.09-.56-.28-1.16-.41-1.53.24-.12.41-.37.41-.67 0-.33-.22-.61-.52-.71v-.31l.06-1.71v-.06c0-.02 0-.03-.02-.05 0-.02-.01-.03-.02-.04v-.01c0-.01-.02-.03-.03-.04-.01-.01-.03-.02-.04-.03h-.02l-7.54-4.23a.319.319 0 0 0-.3 0l-7.57 4.2c-.1.05-.16.16-.16.27s.06.22.16.27l7.54 4.23s.1.04.15.04.1-.01.15-.04l7.08-3.97.06 1.12v.38c-.28.11-.49.38-.49.7 0 .28.16.53.4.66-.1.29-.24.79-.37 1.54-.17.95-.13 1.28-.13 1.28h1.71s.02-.45-.11-1.28" style="stroke-width:0;fill:#fff"/></svg>