<svg xmlns="http://www.w3.org/2000/svg" viewBox="0 0 21 21"><path fill="#004c6c" stroke-width="0" d="M10.5 21C4.71 21 0 16.29 0 10.5S4.71 0 10.5 0 21 4.71 21 10.5 16.29 21 10.5 21"/><path d="M10.64 4.54h2.9v1.75c0 .06.05.12.12.12h.75c.06 0 .12-.05.12-.12V2.75c0-.06-.05-.12-.12-.12h-3.76c-.06 0-.12.05-.12.12v1.68c0 .06.05.12.12.12" style="stroke-width:0;fill:#fff"/><path d="M17.29 15.82h-.66V6.87c0-.06-.05-.12-.12-.12h-3.67c-.06 0-.12.05-.12.12v8.95h-.39V6.4h.66c.06 0 .12-.05.12-.12V5.04c0-.06-.05-.12-.12-.12H7.01c-.06 0-.12.05-.12.12v5.09c0 .06.05.12.12.12h2.58v5.56h-.44V10.7c0-.06-.05-.12-.12-.12H4.39c-.06 0-.12.05-.12.12v5.11h-.66c-.06 0-.12.05-.12.12v.04c0 .06.05.12.12.12h13.66c.06 0 .12-.05.12-.12v-.04c0-.06-.05-.12-.12-.12m-1.68-6.39h-1.82v-.41h1.82v.41Zm0 1.27h-1.82v-.41h1.82v.41Zm0-2.54h-1.82v-.41h1.82v.41Zm-4.43 4.95h-.54v-.8h.54v.8Zm0-1.91h-.54v-.8h.54v.8Zm-.54-2.7h.54v.8h-.54v-.8Zm0-1.91h.54v.8h-.54v-.8ZM8.77 8.49h.54v.8h-.54v-.8Zm0-1.91h.54v.8h-.54v-.8Zm-.6 4.8v1.52h-.54v-1.52h.54Zm-1.18 0v1.52h-.54v-1.52h.54Zm.32 4.44H6.14v-2.05h1.17v2.05Zm-1.5-4.44v1.52h-.54v-1.52h.54Z" style="stroke-width:0;fill:#fff"/><path fill="#004c6c" stroke="#004c6c" stroke-miterlimit="10" stroke-width=".2" d="M10.62 12.3h.54v.8h-.54zm0-1.9h.54v.8h-.54zm0-1.91h.54v.8h-.54zm0-1.91h.54v.8h-.54zM8.77 8.49h.54v.8h-.54zm0-1.91h.54v.8h-.54z"/><path fill="#004c6c" stroke="#004c6c" stroke-miterlimit="10" stroke-width=".15" d="M13.77 9.01h1.82v.41h-1.82zm0 1.27h1.82v.41h-1.82zm0-2.54h1.82v.41h-1.82z"/></svg>