<svg xmlns="http://www.w3.org/2000/svg" viewBox="0 0 21 21"><path fill="#004c6c" stroke-width="0" d="M10.51 21a10.473 10.473 0 0 1-8.06-3.75C.65 15.1-.2 12.37.04 9.58a10.44 10.44 0 0 1 3.39-6.84C5.37.97 7.87 0 10.49 0a10.473 10.473 0 0 1 8.06 3.75c1.8 2.15 2.66 4.87 2.41 7.67a10.44 10.44 0 0 1-3.39 6.84A10.456 10.456 0 0 1 10.51 21"/><path d="M16.09 15.25v-.8H5.27v.8h-.76v1.31h12.34v-1.31h-.76zm-.58-7.82c0-2.3-1.6-4.22-3.75-4.71.86.81 1.45 2.58 1.47 4.71h2.29Z" style="stroke-width:0;fill:#fff"/><path d="M12.74 7.43c-.02-2.81-1.06-4.69-2.04-4.69S8.68 4.62 8.66 7.43h4.08Z" style="stroke-width:0;fill:#fff"/><path d="M9.67 2.71c-2.18.47-3.81 2.4-3.81 4.72h2.33c.02-2.13.61-3.92 1.48-4.72m-3.53 7.85h.58v2.61h-.58v.89h1.98v-.89h-.57v-2.61h.57v-.84h1.57v.84h.57v2.61h-.57v.89h1.98v-.89h-.57v-2.61h.57v-.84h1.57v.84h.57v2.61h-.57v.89h1.98v-.89h-.57v-2.61h.57v-.84h.82v-1.7H5.32v1.7h.82v.84z" style="stroke-width:0;fill:#fff"/></svg>