<svg xmlns="http://www.w3.org/2000/svg" viewBox="0 0 21 21"><path fill="#433c59" stroke-width="0" d="M10.51 21a10.514 10.514 0 0 1-8.06-3.75C.65 15.1-.2 12.37.04 9.58a10.44 10.44 0 0 1 3.39-6.84C5.37.97 7.87 0 10.49 0c.31 0 .62.01.93.04 5.77.51 10.05 5.61 9.54 11.38a10.44 10.44 0 0 1-3.39 6.84A10.456 10.456 0 0 1 10.51 21Z"/><path d="M8.26 4.23h.19c.06 0 .12-.05.12-.12V3.03c0-.06-.05-.12-.12-.12h-.19c-.06 0-.12.05-.12.12v1.08c0 .06.05.12.12.12m0 2.49h.19c.06 0 .12-.05.12-.12V5.52c0-.06-.05-.12-.12-.12h-.19c-.06 0-.12.05-.12.12V6.6c0 .06.05.12.12.12m.19 10.61h-.19c-.06 0-.12.05-.12.12v1.08c0 .06.05.12.12.12h.19c.06 0 .12-.05.12-.12v-1.08c0-.06-.05-.12-.12-.12m0-6.02h-.19c-.06 0-.12.05-.12.12v1.08c0 .06.05.12.12.12h.19c.06 0 .12-.05.12-.12v-1.08c0-.06-.05-.12-.12-.12m0 4.01h-.19c-.06 0-.12.05-.12.12v1.08c0 .06.05.12.12.12h.19c.06 0 .12-.05.12-.12v-1.08c0-.06-.05-.12-.12-.12m0-2h-.19c-.06 0-.12.05-.12.12v1.08c0 .06.05.12.12.12h.19c.06 0 .12-.05.12-.12v-1.08c0-.06-.05-.12-.12-.12" style="stroke-width:0;fill:#fff"/><path d="M19.04 8.37h-4.26v-.22c0-.06-.05-.12-.12-.12h-.25V6.81h.25c.06 0 .12-.05.12-.12V6.5c0-.06-.05-.12-.12-.12h-.25V5.16h.25c.06 0 .12-.05.12-.12v-.19c0-.06-.05-.12-.12-.12h-.25V3.51h.25c.06 0 .12-.05.12-.12V3.2c0-.06-.05-.12-.12-.12h-.25v-.43c0-.06-.05-.12-.12-.12h-.47c-.06 0-.12.05-.12.12v.43h-2.03v-.43c0-.06-.05-.12-.12-.12h-.47c-.06 0-.12.05-.12.12v.43h-.11c-.06 0-.12.05-.12.12v.19c0 .06.05.12.12.12h.11v1.22h-.11c-.06 0-.12.05-.12.12v.19c0 .06.05.12.12.12h.11v1.22h-.11c-.06 0-.12.05-.12.12v.19c0 .06.05.12.12.12h.11v1.22h-.11c-.06 0-.12.05-.12.12v.22h-.72v-5.7c0-.06-.05-.12-.12-.12h-.47c-.06 0-.12.05-.12.12v5.69h-.77v-.47c0-.06-.05-.12-.12-.12h-.19c-.06 0-.12.05-.12.12v.47h-.74V2.67c0-.06-.05-.12-.12-.12h-.47c-.06 0-.12.05-.12.12v5.69H2.04c-.06 0-.12.05-.12.12v1.88c0 .06.05.12.12.12h.87v1.37c0 .06.05.12.12.12H4.6c.05 0 .1-.03.11-.08l.47-1.62h1.53v8.25c0 .06.05.12.12.12h.47c.06 0 .12-.05.12-.12v-8.25h.74v.15c0 .06.05.12.12.12h.19c.06 0 .12-.05.12-.12v-.15h.77v8.25c0 .06.05.12.12.12h.47c.06 0 .12-.05.12-.12v-8.25h.94v1.05h-.11c-.06 0-.12.05-.12.12v.19c0 .06.05.12.12.12h.11v1.22h-.11c-.06 0-.12.05-.12.12v.19c0 .06.05.12.12.12h.11v1.22h-.11c-.06 0-.12.05-.12.12v.19c0 .06.05.12.12.12h.11v1.22h-.11c-.06 0-.12.05-.12.12v.19c0 .06.05.12.12.12h.11v1.22h-.11c-.06 0-.12.05-.12.12v.19c0 .06.05.12.12.12h.11v.22c0 .06.05.12.12.12h.47c.06 0 .12-.05.12-.12v-.22h2.03v.22c0 .06.05.12.12.12h.47c.06 0 .12-.05.12-.12v-.22h.25c.06 0 .12-.05.12-.12v-.19c0-.06-.05-.12-.12-.12h-.25V16.7h.25c.06 0 .12-.05.12-.12v-.19c0-.06-.05-.12-.12-.12h-.25v-1.22h.25c.06 0 .12-.05.12-.12v-.19c0-.06-.05-.12-.12-.12h-.25V13.4h.25c.06 0 .12-.05.12-.12v-.19c0-.06-.05-.12-.12-.12h-.25v-1.22h.25c.06 0 .12-.05.12-.12v-.19c0-.06-.05-.12-.12-.12h-.25v-1.05h1.45l.63 1.63s.06.08.11.08h1.62c.06 0 .12-.05.12-.12v-1.37h.7c.06 0 .12-.05.12-.12V8.49c0-.06-.05-.12-.12-.12m-5.38 9.5h-2.02v-1.22h2.02v1.22Zm0-1.64h-2.02v-1.22h2.02v1.22Zm0-1.64h-2.02v-1.22h2.02v1.22Zm0-1.64h-2.02v-1.22h2.02v1.22Zm0-1.64h-2.02v-1.05h2.02v1.05Zm-2.03-7.78h2.02v1.22h-2.02V3.53Zm0 1.64h2.02v1.22h-2.02V5.17Zm0 1.64h2.02v1.22h-2.02V6.81Z" style="stroke-width:0;fill:#fff"/></svg>