<svg xmlns="http://www.w3.org/2000/svg" viewBox="0 0 21 21"><path fill="#433c59" d="M10.51 21c-.31 0-.62-.01-.93-.04C3.81 20.45-.47 15.35.04 9.58.52 4.12 5.01 0 10.49 0a10.473 10.473 0 0 1 8.06 3.75c1.8 2.15 2.66 4.87 2.41 7.67C20.49 16.79 15.9 21 10.51 21Z"/><path fill="#fff" d="M16.52 3.47a.495.495 0 0 0-.67.15l-1.23 1.95c-.49-.43-1.1-.65-1.85-.65-.87 0-1.56.3-2.08.9-.52.6-.78 1.4-.78 2.41v2.64c0 .64.1 1.2.31 1.67l-3.15 5-2.05-3.41a.487.487 0 0 0-.66-.17c-.23.14-.3.43-.17.66l2.45 4.09c.09.14.24.23.41.23.17 0 .32-.09.41-.23l3.34-5.31c.51.51 1.16.76 1.96.76.87 0 1.57-.3 2.09-.89.52-.59.78-1.4.78-2.42V8.21c0-.72-.13-1.33-.4-1.84l1.42-2.25c.14-.23.07-.52-.15-.67m-5.36 4.52c0-.65.14-1.16.43-1.53.28-.37.69-.56 1.21-.56s.94.19 1.22.56c.01.02.03.04.04.06l-2.9 4.61V7.98Zm3.29 0v3.14c0 .65-.14 1.16-.43 1.54-.28.38-.69.57-1.22.57s-.92-.19-1.21-.57c-.05-.07-.1-.14-.14-.21l2.99-4.74v.27"/><path fill="none" stroke="#fff" stroke-linecap="round" stroke-linejoin="round" stroke-width=".51" d="M16.52 3.47a.495.495 0 0 0-.67.15l-1.23 1.95c-.49-.43-1.1-.65-1.85-.65-.87 0-1.56.3-2.08.9-.52.6-.78 1.4-.78 2.41v2.64c0 .64.1 1.2.31 1.67l-3.15 5-2.05-3.41a.487.487 0 0 0-.66-.17c-.23.14-.3.43-.17.66l2.45 4.09c.09.14.24.23.41.23h0c.17 0 .32-.09.41-.23l3.34-5.31c.51.51 1.16.76 1.96.76.87 0 1.57-.3 2.09-.89.52-.59.78-1.4.78-2.42V8.21c0-.72-.13-1.33-.4-1.84l1.42-2.25c.14-.23.07-.52-.15-.67Zm-5.38 4.5c0-.65.14-1.16.43-1.53.28-.37.69-.56 1.21-.56s.94.19 1.22.56c.01.02.03.04.04.06l-2.9 4.61V7.98Zm3.29 0v3.14c0 .65-.14 1.16-.43 1.54-.28.38-.69.57-1.22.57s-.92-.19-1.21-.57c-.05-.07-.1-.14-.14-.21l2.99-4.74v.27Z"/></svg>