<svg xmlns="http://www.w3.org/2000/svg" viewBox="0 0 21 21"><path d="M10.51 21c-.31 0-.62-.01-.93-.04C3.81 20.45-.47 15.35.04 9.58a10.44 10.44 0 0 1 3.39-6.84C5.37.97 7.87 0 10.49 0c.31 0 .62.01.93.04 5.77.51 10.05 5.61 9.54 11.38a10.44 10.44 0 0 1-3.39 6.84A10.456 10.456 0 0 1 10.51 21Z" style="stroke-width:0;fill:#433c59"/><path d="M6.44 7.68v-.02l.21-1.26c.02-.13 0-.25-.03-.36a.83.83 0 0 0-.18-.3c-.06-.05-.12-.1-.19-.14a.807.807 0 0 0-.43-.08c-.03 0-.06 0-.09.01a.763.763 0 0 0-.59.65v.22c0 .05.02.09.03.14.02.06.05.12.09.18.03.05.07.09.11.13l.62.6.3.29s.03.02.04.02h.06a.12.12 0 0 0 .07-.07m-.5-1.21c-.11.03-.22-.02-.25-.13-.04-.11.02-.22.13-.25s.22.02.25.13-.02.22-.13.25m5.03 5.79c-.23 0-.46-.05-.67-.16-.36-.18-.62-.48-.75-.86L8.13 6.91c-.03-.1-.1-.18-.19-.22s-.2-.05-.29-.02c-.2.07-.31.29-.25.49v.03c.13.35-.06.73-.41.84l-.47.16h-.11c-.03-.02-.06-.05-.07-.08s0-.07 0-.11c.02-.03.05-.06.08-.07l.47-.15c.1-.03.18-.1.22-.19.05-.09.05-.2.02-.3v-.03a.607.607 0 0 1 .03-.51c.08-.16.22-.28.39-.33.35-.12.73.07.84.42l1.44 4.33c.1.31.32.55.6.7.29.15.62.17.92.07l.33-.11c.07-.03.15.02.18.09.01.04 0 .07 0 .11-.02.03-.05.06-.08.07l-.33.11c-.15.05-.31.08-.47.08Zm-3.22-5.7c.07 0 .14.02.21.05.11.06.19.15.23.27l1.44 4.34c.12.36.37.65.71.82.34.17.72.2 1.08.08l.33-.11s.03-.02.04-.03 0-.03 0-.05c0-.02-.02-.03-.03-.04s-.03 0-.05 0l-.33.11c-.32.11-.67.08-.98-.07-.31-.15-.53-.42-.64-.74L8.34 6.87a.592.592 0 0 0-.75-.37c-.31.1-.48.44-.38.75v.03c.09.24-.04.5-.28.58l-.47.15s-.03.02-.04.03 0 .03 0 .05c0 .02.02.03.03.04h.05l.47-.16a.592.592 0 0 0 .37-.75v-.03c-.09-.24.04-.5.28-.58.05-.02.1-.02.14-.02Z" style="stroke-width:0;fill:#fff"/><path d="M7.64 6.63c.22-.07.46.05.53.27l1.44 4.34c.25.76 1.08 1.17 1.84.92l.33-.11a.12.12 0 0 0 .07-.13.12.12 0 0 0-.13-.07l-.33.11c-.65.22-1.36-.14-1.57-.79L8.38 6.83a.634.634 0 0 0-.8-.4c-.33.11-.51.47-.4.8v.03a.41.41 0 0 1-.26.53l-.47.16a.12.12 0 0 0-.07.13c.02.05.08.08.13.07l.47-.16c.33-.11.51-.47.4-.8v-.03a.41.41 0 0 1 .26-.53" style="stroke-width:0;fill:#fff"/><path d="M8.14 18.41c-.5 0-.82-.3-1.03-.92L3.16 5.58c-.28-.84-.03-1.34.81-1.62l5.73-1.9c.43-.14.74-.14.99 0 .23.14.4.39.55.84l1.5 4.52-.18.11c-.14-.13-.31-.22-.5-.26h-.1l-.04-.08-1.11-3.35c-.22-.67-.49-.81-1.1-.61L4.65 4.91c-.64.21-.8.53-.59 1.17l3.46 10.46c.21.64.53.8 1.17.59l4.98-1.65.05.07c.18.27.32.46.42.57.04.05.09.1.15.17l.12.12-5.7 1.89c-.22.07-.41.11-.59.11Zm2.13-16.24c-.14 0-.3.03-.49.1l-5.73 1.9c-.73.24-.92.62-.68 1.34l3.95 11.91c.24.73.62.92 1.34.68l5.37-1.78s-.03-.04-.05-.05c-.09-.11-.22-.28-.39-.52l-4.83 1.6c-.75.25-1.2.02-1.45-.73L3.86 6.15c-.13-.38-.13-.68-.01-.91.12-.23.36-.41.74-.53l5.06-1.68c.73-.24 1.12-.03 1.38.75l1.09 3.29c.11.02.22.06.32.11l-1.4-4.21c-.18-.56-.4-.8-.77-.8Z" style="stroke-width:0;fill:#fff"/><path d="m13.64 15.61-4.9 1.63c-.7.23-1.08.04-1.31-.66L3.96 6.12c-.23-.7-.04-1.08.66-1.31l5.06-1.68c.7-.23 1.01-.01 1.24.68l1.11 3.35h.05c.21.04.4.14.55.28l-1.5-4.52c-.26-.79-.61-1.03-1.4-.77L4 4.05c-.79.26-1 .69-.74 1.48l3.95 11.91c.26.79.69 1 1.48.74l5.53-1.83c-.06-.07-.12-.13-.16-.17-.12-.14-.28-.38-.42-.58" style="stroke-width:0;fill:#fff"/><path d="M19.75 15.13c-.14-.16-2.14-4.93-2.74-6.01a.744.744 0 0 0-.48-.37c-.67-.17-2.4-.6-3.5-.81.87 1.3 2.79 4.22 2.83 4.25.06.03 0 .15-.04.28-.01-.02-.08-.05-.1-.07l-3.06-4.65a.95.95 0 0 0-1.32-.26.95.95 0 0 0-.33 1.2l.36.67h-.02c-.02 0-.04-.01-.06-.02-.34-.08-.7.08-.87.4 0 .02-.02.03-.02.05-.07.18-.08.37-.02.54 0 .02.02.04.02.06.03.06.07.13.11.18 0 .01.02.02.03.03 0 .01.02.02.03.03l.92.89h.01c.03.02.06.02.09.01.02 0 .04-.03.06-.05 0-.01.01-.02.01-.04l.1-.63.09-.55.62 1.16c.19.36.31.75.35 1.15.06.68.24 1.81.68 2.52.04.07.45.7.68.97.27.33 1.24 1.19 1.4 1.32l2.18.9 2.11-2.35-.13-.82Zm-8.56-4.85c-.11.03-.22-.02-.25-.13s.02-.22.13-.25.22.02.25.13-.02.22-.13.25" style="stroke-width:0;fill:#fff"/><path d="m15.69 12.33-2.01-2.97-1-1.48c-.26-.51-.79-.79-1.28-.47l-.17-.25c.29-.19.67-.24.99-.11.34.11.55.44.69.67l.99 1.49 1.98 2.99-.2.12Z" style="stroke-width:0;fill:#433c59"/><path fill="none" stroke="#433c59" stroke-miterlimit="10" stroke-width=".3" d="M13.34 15.17c.04.07.45.7.68.97.27.33 1.24 1.19 1.4 1.32"/></svg>