<svg xmlns="http://www.w3.org/2000/svg" viewBox="0 0 21 21"><path fill="#433c59" stroke-width="0" d="M10.51 21a10.514 10.514 0 0 1-8.06-3.75C.65 15.1-.2 12.37.04 9.58a10.44 10.44 0 0 1 3.39-6.84C5.37.97 7.87 0 10.49 0a10.473 10.473 0 0 1 8.06 3.75c1.8 2.15 2.66 4.87 2.41 7.67a10.44 10.44 0 0 1-3.39 6.84A10.456 10.456 0 0 1 10.51 21Z"/><path d="M13.35 12.12h-.78l-.67-1.33a.785.785 0 0 0-.7-.44H8.05c-.3 0-.57.17-.7.44l-.67 1.33-1.34.45a.63.63 0 0 0-.43.59v.85c0 .26.21.47.47.47h1.3c0 .49.4.88.88.88s.88-.4.88-.88h3.24c0 .49.4.88.88.88s.88-.4.88-.88h.97c.28 0 .51-.23.51-.51v-.28c0-.87-.71-1.58-1.58-1.58m-4.31.01h-1.7l.53-1.07c.03-.07.1-.11.18-.11h.99v1.18Zm.59 0v-1.18h1.58a.2.2 0 0 1 .18.11l.54 1.07H9.63Z" style="stroke-width:0;fill:#fff"/><path d="M16.71 8.58h-2.67c-.37 0-.71.16-.95.43l-.97 1.1c.12.11.23.25.31.4l.5 1.01h.42c.4 0 .77.11 1.09.29.54.31.93.84 1.04 1.47h.94c.07.5.5.89 1.02.89s.95-.39 1.02-.89h.44c.42 0 .76-.34.76-.75v-1.02c0-1.63-1.32-2.94-2.94-2.94m-1.79 2.08h-2.09l.92-1.05c.07-.08.18-.13.29-.13h.88v1.18Zm.59 0V9.47h1.19c.82 0 1.53.48 1.86 1.18h-3.05Z" style="stroke-width:0;fill:#fff"/><path d="M5.01 11.83h.9c.05.02.15-.05.25-.15l.05-.02.07-.12c.05-.07.09-.15.11-.21l.43-.8c.24-.47.71-.76 1.23-.76h3.16c.14 0 .27.02.4.06l1.04-1.19c.08-.1.18-.18.28-.25.27-.15.62-.25.92-.25h.88s.07-.01.1-.04.04-.06.04-.1c-.02-.4-.12-.77-.31-1.11-.07-.12-.16-.25-.26-.38s-.01-.01-.02-.02-.02-.03-.03-.04c0 0-.02-.01-.03-.02-.45-.49-1.05-.78-1.77-.78H3.24c-.63 0-.69.33-.88.88H5.6V8.3H2.14v3.26c0 .15.12.28.28.28h.54c0 .57.46 1.03 1.03 1.03s1.03-.46 1.03-1.03m6.27-5.32 2.64-.02c.13.15.32.39.38.5.14.27.23.55.27.86h-.74c-.38 0-.94.22-1.27.43h-1.28V6.52Zm-2.64 0h2.37v1.77H8.65V6.52Zm-2.69 0h2.37v1.77H5.96V6.52Z" style="stroke-width:0;fill:#fff"/></svg>