<svg xmlns="http://www.w3.org/2000/svg" viewBox="0 0 21 21"><path d="M10.51 21c-.31 0-.62-.01-.93-.04C3.81 20.45-.47 15.35.04 9.58a10.44 10.44 0 0 1 3.39-6.84C5.37.97 7.87 0 10.49 0c.31 0 .62.01.93.04 5.77.51 10.05 5.61 9.54 11.38a10.44 10.44 0 0 1-3.39 6.84A10.456 10.456 0 0 1 10.51 21Z" style="stroke-width:0;fill:#433c59"/><path d="M16.88 6.3a.382.382 0 0 0-.3-.34c-3.75-.72-5.27-1.86-5.81-2.42a.38.38 0 0 0-.54 0c-.54.56-2.06 1.7-5.81 2.42-.17.03-.29.17-.3.34-.13 1.47-.34 8.88 6.11 11.47.17.07.37.07.54 0 6.45-2.6 6.24-10 6.11-11.47m-1.59 5c-.79 2.54-2.32 4.33-4.55 5.34-.15.07-.32.07-.47 0-2.23-1.01-3.76-2.8-4.55-5.34-.51-1.62-.59-3.17-.58-4.1 0-.18.12-.33.3-.37 2.5-.57 3.99-1.33 4.85-1.95.13-.09.31-.09.44 0 .86.62 2.35 1.38 4.85 1.95.17.04.3.19.3.37 0 .93-.07 2.48-.58 4.1" style="stroke-width:0;fill:#fff"/><path d="M12.81 9.45h-.03c0-.67-.01-1.3-.29-1.79-.16-.29-.41-.51-.73-.65-.33-.15-.75-.22-1.28-.22s-.94.07-1.28.22c-.32.14-.56.36-.73.65-.27.49-.29 1.12-.29 1.79h-.03c-.3 0-.55.24-.55.55v3.33c0 .3.25.55.55.55h4.63c.3 0 .55-.24.55-.55V10c0-.3-.25-.55-.55-.55m-1.8 3.31h-.95l.27-1.13a.54.54 0 1 1 .75-.5c0 .22-.13.41-.32.49l.26 1.13ZM8.76 9.59c0-.62.01-1.15.22-1.52.14-.25.45-.58 1.52-.58s1.38.33 1.52.58c.21.37.22.9.22 1.52H8.77Z" style="stroke-width:0;fill:#fff"/><path d="M11.05 12.92h-1.1l.31-1.3a.616.616 0 0 1-.38-.57c0-.34.28-.62.62-.62s.62.28.62.62c0 .25-.15.47-.37.57l.29 1.3Z" style="stroke-width:0;fill:#433c59"/></svg>