<svg xmlns="http://www.w3.org/2000/svg" viewBox="0 0 21 21"><path fill="#721e52" d="M10.51 21h-.3c-2.8-.08-5.41-1.24-7.34-3.28A10.471 10.471 0 0 1 0 10.21c.08-2.75 1.21-5.32 3.18-7.24C5.16 1.05 7.75 0 10.49 0h.3c5.79.16 10.36 5 10.2 10.79-.08 2.75-1.21 5.32-3.18 7.24A10.463 10.463 0 0 1 10.5 21"/><path fill="#fff" d="M14.73 10.01c0-2.33-1.9-4.23-4.23-4.23s-4.23 1.9-4.23 4.23c0 .71.17 1.37.53 2.05l.02.04c.03.06.07.13.11.19.01.02.02.03.03.05.08.12.18.26.3.42.08.1.16.21.25.32.31.38.69.85.8 1.14.23.6.28 1.05.29 1.12v.07c.4.29 1.14.71 2.05.64l-.16.85c0 .01-.61-.06-.65-.07-.28-.05-.55-.13-.82-.21-.14-.04-.28-.13-.41-.23v.24c0 .11.06.22.16.28.03.02.84.5 1.73.5s1.69-.48 1.73-.5c.1-.06.16-.17.16-.28v-1.29c0-.07.06-.53.29-1.13.11-.29.49-.76.8-1.14.09-.11.17-.22.25-.32a4.443 4.443 0 0 0 .44-.66c0-.01.01-.03.02-.03.36-.68.54-1.33.54-2.05m-3.36 3.26c0 .28-.19.47-.47.47h-.81c-.27 0-.47-.19-.47-.47v-.81c0-.28.19-.47.47-.47h.81c.28 0 .47.18.47.47v.81Zm0-2.41c-.01.28-.19.45-.47.45h-.81c-.27 0-.45-.18-.47-.45l-.14-3.04c0-.17.06-.28.12-.34s.17-.14.35-.14h1.1c.18 0 .29.07.35.14.06.06.12.17.12.34l-.14 3.04Zm-.87-6.15c.17 0 .31-.14.31-.31V2.91c0-.17-.14-.31-.31-.31s-.31.14-.31.31V4.4c0 .17.14.31.31.31M6.3 6.27c.06.06.14.09.22.09s.16-.03.22-.09c.12-.12.12-.31 0-.43L5.68 4.78a.302.302 0 0 0-.43 0c-.12.12-.12.31 0 .43l1.06 1.06ZM4.87 9.73H3.38c-.17 0-.31.14-.31.31s.14.31.31.31h1.49c.17 0 .31-.14.31-.31s-.14-.31-.31-.31M6.3 13.8l-1.06 1.06c-.12.12-.12.31 0 .43.06.06.14.09.22.09s.16-.03.22-.09l1.06-1.06c.12-.12.12-.31 0-.43a.302.302 0 0 0-.43 0m8.39 0a.302.302 0 0 0-.43 0c-.12.12-.12.31 0 .43l1.06 1.06c.06.06.14.09.22.09s.16-.03.22-.09c.12-.12.12-.31 0-.43l-1.06-1.06Zm2.93-4.07h-1.49c-.17 0-.31.14-.31.31s.14.31.31.31h1.49c.17 0 .31-.14.31-.31s-.14-.31-.31-.31m-3.15-3.37c.08 0 .16-.03.22-.09l1.06-1.06c.12-.12.12-.31 0-.43a.302.302 0 0 0-.43 0l-1.06 1.06c-.12.12-.12.31 0 .43.06.06.14.09.22.09"/></svg>