<svg xmlns="http://www.w3.org/2000/svg" viewBox="0 0 21 21"><path d="M10.5 21C4.71 21 0 16.29 0 10.5S4.71 0 10.5 0 21 4.71 21 10.5 16.29 21 10.5 21" style="stroke-width:0;fill:#721e52"/><path d="M17.92 10.4s-.06 0-.09.01c-1.09.25-2.17.49-3.26.74a1 1 0 0 0-.74.61c-.04.08-.04.08-.12.06-.39-.11-.77-.23-1.14-.38-.26-.11-.52-.23-.78-.34-.48-.2-.98-.26-1.49-.13-.3.08-.57.21-.82.38-.07.05-.14.07-.22.08-.14 0-.28.01-.43.02-.33.02-.66.05-1 .08-.18.01-.37.03-.55.04H7.2c0-.02 0-.03-.01-.05-.04-.42-.38-.8-.81-.89-.98-.22-1.96-.45-2.94-.68a3.88 3.88 0 0 0-.33-.07c-.17-.03-.3.08-.33.25v5.12c0 .18.12.29.3.29h1.85c.32 0 .6-.11.82-.34.02-.02.04-.03.06-.05.02.01.03.02.04.03.48.34.97.68 1.43 1.04.67.52 1.36 1.01 2.06 1.5.32.22.67.36 1.06.4.23.02.45-.01.65-.12.05-.03.09-.03.15-.02.16.04.32.04.48 0 .26-.06.45-.22.6-.44.04-.05.07-.07.14-.07.43.02.78-.12 1.03-.49.02-.03.04-.03.07-.04.11-.02.22-.04.33-.07.3-.1.49-.31.56-.62.02-.08.03-.17.04-.26.22-.11.44-.23.67-.35.02.01.03.03.05.04.25.27.56.38.93.38h1.87c.14 0 .24-.11.25-.25v-5.14c0-.17-.14-.29-.3-.28m-4.38 6.04c-.05 0-.09-.03-.13-.06-.14-.13-.28-.25-.42-.38-.38-.36-.76-.73-1.15-1.09-.06-.06-.12-.11-.21-.12-.16-.02-.31.11-.3.27 0 .06.03.11.07.15.06.07.13.13.19.19l1.32 1.23c.06.05.09.08 0 .17a.55.55 0 0 1-.44.16c-.07 0-.14-.04-.19-.09-.21-.19-.43-.38-.64-.57-.22-.2-.43-.42-.64-.63a.325.325 0 0 0-.28-.11c-.1.01-.17.07-.21.16-.04.1-.02.19.05.26.11.11.22.23.34.34.29.28.59.55.88.82.05.05.05.05.03.12-.09.21-.35.29-.55.18-.05-.03-.09-.06-.14-.1-.39-.34-.76-.7-1.14-1.06l-.13-.13a.301.301 0 0 0-.34-.03c-.12.06-.19.26-.06.39l.34.34c.24.23.49.46.73.69.02.02.04.03.06.05 0 0 0 .01-.01.02-.11.02-.22 0-.34-.02-.2-.05-.39-.14-.56-.25-.77-.53-1.52-1.08-2.27-1.65-.39-.3-.8-.57-1.19-.86-.06-.04-.12-.09-.19-.13.34-.86.69-1.71 1.03-2.56l1.6-.12v.02c-.02.02-.03.04-.05.06-.16.17-.32.35-.44.55-.08.14-.15.29-.18.45-.08.42.17.81.59.9.18.04.37.04.55 0 .33-.07.63-.21.88-.45.03-.03.07-.05.11-.06.18-.03.35-.08.51-.15.04-.02.07-.01.1.01.6.52 1.25.98 1.87 1.48.33.26.66.53.96.82.08.08.15.16.21.24.05.07.09.15.09.24 0 .17-.17.33-.34.32m.71-.91c-.06-.07-.13-.14-.19-.2-.29-.3-.61-.57-.94-.83-.48-.38-.97-.75-1.46-1.13-.22-.18-.44-.36-.66-.55-.13-.11-.23-.13-.38-.05-.21.11-.44.19-.68.21-.1 0-.17.05-.23.13-.19.23-.44.35-.73.38-.06 0-.13.01-.19 0-.17-.03-.25-.16-.21-.33.03-.13.09-.25.17-.36a4.057 4.057 0 0 1 1.31-1.15c.28-.15.57-.23.88-.22.26.01.5.08.73.19.66.32 1.34.56 2.04.74.05.01.09.04.11.09.35.88.71 1.76 1.06 2.64 0 .02.02.05.03.08-.23.12-.45.23-.68.35m-1.89-8.77c-.22.43-.37.89-.44 1.37-.02.16-.03.32-.05.48 0 0 .02 0 .02.01l.12.09c.69.04 1.81-.2 2.59-1.02.7-.74.91-1.76.87-2.41h-.12c-.21.03-.43.07-.64.11-.29.05-.58.1-.86.17-.68.17-1.18.57-1.49 1.2M6.78 8.58c.27.27.6.43.97.51.35.07.7.08 1.05.05.46-.04.9-.17 1.32-.35.03-.01.05-.03.08-.05-.05-.1-.1-.19-.15-.28-.27-.46-.59-.88-1.02-1.21-.55-.43-1.18-.65-1.88-.65-.54 0-1.05.14-1.54.36-.01 0-.03.02-.05.03.29.4.57.81.87 1.2.1.13.22.25.34.37" style="stroke-width:0;fill:#fff"/><path d="M10.55 10.25s-.02.06-.03.08c.22 0 .42-.01.64-.02 0-.02.02-.05.02-.07.09-.32.12-.65.15-.98 0-.06.02-.12.01-.18-.02-.19-.03-.37-.07-.56-.04-.27-.13-.52-.27-.75a.746.746 0 0 0-.14-.17c-.11-.1-.24-.05-.28.09-.03.1-.02.21.02.31.23.49.27 1 .16 1.53-.05.25-.14.49-.23.73m-.32-3.14a2.59 2.59 0 1 0-.001-5.181 2.59 2.59 0 0 0 .001 5.181" style="stroke-width:0;fill:#fff"/><path d="M9.86 6.61s-.07 0-.07-.08V6.2c-.44-.18-.67-.48-.72-.97 0-.05.02-.08.07-.09l.53-.13.07.06c.02.21.09.42.42.42.21 0 .31-.08.35-.14.05-.06.07-.14.05-.22-.04-.19-.27-.27-.53-.36-.4-.14-.9-.31-.91-.96 0-.07-.01-.72.64-.9l.05-.38c0-.06.02-.08.08-.08h.56c.06 0 .08.02.08.08v.32c.55.21.68.61.71.92 0 .05 0 .08-.07.09l-.54.13-.08-.06c-.05-.24-.2-.37-.42-.37-.12 0-.21.04-.26.12-.04.06-.06.13-.04.19.04.17.25.25.51.35.43.16.96.35.97 1.02 0 0 0 .72-.78.91l-.05.38c0 .06-.02.08-.08.08h-.58Z" style="stroke-width:0;fill:#721e52"/></svg>