<svg xmlns="http://www.w3.org/2000/svg" viewBox="0 0 21 21"><path fill="#721e52" stroke-width="0" d="M10.5 21C4.71 21 0 16.29 0 10.5S4.71 0 10.5 0 21 4.71 21 10.5 16.29 21 10.5 21"/><path d="M5.63 12.43a1.24 1.24 0 1 0 0 2.48 1.24 1.24 0 0 0 0-2.48m0 1.84c-.33 0-.59-.26-.59-.59s.26-.59.59-.59.59.26.59.59-.26.59-.59.59m11.06-1.84a1.24 1.24 0 1 0 0 2.48 1.24 1.24 0 0 0 0-2.48m0 1.84c-.33 0-.59-.26-.59-.59s.26-.59.59-.59.59.26.59.59-.26.59-.59.59" style="stroke-width:0;fill:#fff"/><path d="m17.25 10.63-1.19-.17-1.52-1.96s-.07-.06-.12-.06h-2.29V6.62c0-.3-.24-.54-.54-.54H2.91c-.29 0-.53.24-.53.53v6.47c0 .27.22.48.48.48h1.31c0-.73.64-1.33 1.43-1.33s1.43.6 1.43 1.33h8.23c0-.73.64-1.33 1.43-1.33s1.43.6 1.43 1.33h.26c.13 0 .23-.1.23-.23V12.2c0-.79-.58-1.46-1.36-1.57M3.29 7.07h7.63l.35.67H2.99l.3-.67Zm7.85 4.66H3.09V8.06h8.04v3.67Zm1.31-1.2V9.19c0-.12.1-.23.23-.23h1.59c.07 0 .13.02.17.08l1.1 1.49h-3.09Z" style="stroke-width:0;fill:#fff"/><path d="M10.34 8.45h-.06c0 .4-.35.72-.79.72-.44 0-.79-.33-.79-.72h-.06c0 .39-.34.71-.77.72-.43-.01-.77-.33-.77-.72h-.06c0 .39-.34.71-.77.72-.43-.01-.77-.33-.77-.72h-.06c0 .39-.34.71-.77.72-.43-.01-.77-.33-.77-.72h-.06c0 .4-.36.73-.8.73l.03.02v.26c.32 0 .6-.13.8-.33.2.2.48.33.8.33s.6-.13.8-.33c.2.2.48.33.8.33s.6-.13.8-.33c.2.2.48.33.8.33s.6-.13.8-.33a1.14 1.14 0 0 0 1.63-.03c.2.22.5.36.83.36v-.28c-.44 0-.8-.32-.8-.73Z" style="stroke-width:0;fill:#fff"/><path fill="none" stroke="#721e52" stroke-miterlimit="10" stroke-width=".23" d="M16.69 12.24a1.43 1.43 0 1 0 0 2.86 1.43 1.43 0 0 0 0-2.86m-11.06 0a1.43 1.43 0 1 0 0 2.86 1.43 1.43 0 0 0 0-2.86"/></svg>