<svg xmlns="http://www.w3.org/2000/svg" viewBox="0 0 21 21"><path fill="#721e52" d="M10.5 21C4.71 21 0 16.29 0 10.5S4.71 0 10.5 0 21 4.71 21 10.5 16.29 21 10.5 21"/><path fill="#fff" d="m10.85 12.46 4.7-2.57a.88.88 0 0 1-.06-.33c0-.07 0-.14.02-.21L12.8 8.27c-.12.16-.32.27-.54.27-.04 0-.08 0-.12-.01l-1.69 3.56c.15.1.29.22.39.37m.02 3.3-.63-1.16a1.398 1.398 0 0 1-1.57-.37l-1.25.87c.03.07.04.15.04.23l3.12.81c.07-.15.17-.28.29-.38M8.08 6.64c-.08 0-.15 0-.22-.02l-1.41 3.44s.09.07.12.12l5.04-2.2v-.1c0-.05 0-.11.02-.16L8.89 6.25a.99.99 0 0 1-.8.39m-.89 8.18 1.25-.87c-.1-.2-.16-.42-.16-.66 0-.25.07-.49.18-.69l-2.01-1.48s-.1.07-.15.09l.53 3.46c.14.01.26.07.37.16m1.47-2.51c.26-.27.62-.44 1.03-.44.16 0 .31.03.45.07l1.69-3.56s-.07-.06-.09-.1l-5.04 2.2v.1c0 .09-.02.17-.05.25l2.01 1.48Zm3.97-5.01c.18.12.3.33.3.56v.08l2.71 1.08c.1-.17.25-.3.43-.39l-1.17-4.3a7.97 7.97 0 0 0-1.01-.61l-1.25 3.58ZM5.82 9.95c.07-.02.14-.04.22-.04h.09l1.41-3.44c-.15-.09-.27-.23-.36-.39l-2.94.94v.03c0 .14-.04.27-.12.38l1.69 2.5Zm4.65 6.6v-.08l-3.13-.81c-.09.16-.24.27-.41.32v1.2c.78.42 1.64.7 2.56.82l1.11-.94a.975.975 0 0 1-.14-.51M9.09 5.63c0 .11-.02.22-.05.32l2.74 1.47c.12-.13.3-.22.49-.22h.05l1.26-3.61c-.37-.16-.75-.3-1.14-.4L9.01 5.27c.04.11.07.24.07.37M6.5 14.71l-.53-3.46a.705.705 0 0 1-.39-.18l-2.36 1.49c.2.7.5 1.36.88 1.96l2.07.48c.07-.13.19-.24.33-.3m1.17-10c.12-.05.26-.09.41-.09.3 0 .58.14.76.35l3.13-1.89c-.47-.09-.96-.14-1.46-.14-1.24 0-2.42.3-3.45.83l.62.94ZM4.14 6.71l2.94-.94s-.01-.09-.01-.14c0-.29.12-.55.32-.73l-.64-.97a7.671 7.671 0 0 0-2.72 2.65c.04.04.08.09.11.14m1.26 4.07a.645.645 0 0 1-.03-.2c0-.17.06-.32.17-.44L3.87 7.68c-.09.04-.19.07-.29.07-.04 0-.08 0-.12-.01-.34.86-.52 1.79-.52 2.77 0 .59.07 1.17.2 1.72l2.27-1.43Zm10.2 5.13-3.11.61v.02a1.007 1.007 0 0 1-1.66.77l-.86.73c.18.01.35.02.53.02 2 0 3.81-.77 5.16-2.04-.02-.03-.05-.07-.06-.11m-9.01.06a.675.675 0 0 1-.5-.63l-1.71-.4c.59.82 1.35 1.51 2.21 2.03v-1.01Zm4.89-.44c.43 0 .8.27.94.65l3.12-.61-4.58-1.65c-.1.2-.25.38-.44.51l.63 1.16c.1-.03.21-.05.33-.05m5.76-5.29a1 1 0 0 1-.61.31L16.4 15s.1.04.14.06a7.55 7.55 0 0 0 1.52-4.24l-.82-.55Zm-1.18 4.72.23-4.43a.989.989 0 0 1-.57-.36l-4.7 2.57c.06.16.1.34.1.52 0 .11-.01.21-.04.31l4.58 1.65c.09-.13.24-.23.4-.27m.35-6.41h.1c.09 0 .17.01.25.03l.59-1.31a7.52 7.52 0 0 0-1.99-2.58l1.06 3.87Zm.66.17c.27.18.44.49.44.84 0 .15-.03.29-.09.41l.64.43a7.59 7.59 0 0 0-.53-2.7l-.46 1.03Z"/></svg>