<svg xmlns="http://www.w3.org/2000/svg" viewBox="0 0 21 21"><path d="M10.51 21c-.31 0-.62-.01-.93-.04C3.81 20.45-.47 15.35.04 9.58a10.44 10.44 0 0 1 3.39-6.84C5.37.97 7.87 0 10.49 0c.31 0 .62.01.93.04 5.77.51 10.05 5.61 9.54 11.38a10.44 10.44 0 0 1-3.39 6.84A10.456 10.456 0 0 1 10.51 21" style="stroke-width:0;fill:#721e52"/><path d="M19.31 9.01h-2.65c-.13 0-.23.1-.23.23v.66c0 .13.1.23.23.23h1c-3.75 3.54-9.2 4.64-14.06 2.78a.214.214 0 0 0-.29.13l-.24.62c-.02.06-.02.12 0 .17.02.06.07.1.13.12 1.66.63 3.41.96 5.19.96 3.72 0 7.34-1.44 10.03-3.96v.93c0 .13.1.23.23.23h.66c.13 0 .23-.1.23-.23V9.23c0-.13-.1-.23-.23-.23" style="stroke-width:0;fill:#fff"/><path d="m16.87 13.43-.5.31a15.358 15.358 0 0 1-12.79 1.47.246.246 0 0 0-.17.01c-.05.03-.1.07-.11.13l-.21.63c-.04.12.03.25.15.29a16.47 16.47 0 0 0 12.88-1.09v.69c0 .13.1.23.23.23h.66c.13 0 .23-.1.23-.23v-2.25a.22.22 0 0 0-.12-.2.235.235 0 0 0-.23 0m-7.86-1.23c2.58 0 4.67-2.09 4.67-4.67-.06-2.49-1.93-4.49-4.43-4.66h-.24c-2.58 0-4.67 2.09-4.67 4.66s2.09 4.67 4.67 4.67" style="stroke-width:0;fill:#fff"/><path d="M8.49 10.72c-.05 0-.11-.01-.11-.12v-.51c-.68-.28-1.03-.75-1.1-1.49 0-.08.03-.12.11-.14l.82-.19.11.09c.03.32.14.65.65.65.32 0 .47-.12.55-.21.07-.1.1-.22.08-.33-.07-.29-.41-.41-.81-.55-.62-.21-1.39-.48-1.41-1.49 0-.11-.02-1.11.99-1.39l.08-.58c0-.1.03-.13.13-.13h.87c.1 0 .13.03.13.13v.5c.84.32 1.05.94 1.1 1.42 0 .08-.01.12-.1.14l-.82.2-.12-.1c-.08-.37-.3-.57-.65-.57-.19 0-.32.07-.41.18a.33.33 0 0 0-.06.3c.06.27.38.39.79.54.66.24 1.48.54 1.5 1.57 0 .01 0 1.11-1.2 1.4l-.08.58c0 .1-.03.13-.13.13h-.89Z" style="stroke-width:0;fill:#721e52"/></svg>