<?xml version="1.0" encoding="UTF-8"?><svg id="a" xmlns="http://www.w3.org/2000/svg" viewBox="0 0 64 64"><path d="m19.47,17.18s.02,0,.03,0c2.28-.01,4.12-1.94,4.1-4.3,0-1.14-.44-2.2-1.21-3-.78-.8-1.81-1.25-2.91-1.25,0,0-.02,0-.03,0-2.28.01-4.12,1.94-4.1,4.3,0,1.14.44,2.2,1.21,3,.78.8,1.81,1.25,2.91,1.25Zm-.02-6.95h.02c.66,0,1.29.27,1.76.76.49.5.76,1.18.76,1.9,0,1.48-1.12,2.68-2.51,2.69h-.02c-.66,0-1.29-.27-1.76-.76-.49-.5-.76-1.18-.76-1.9,0-1.48,1.12-2.68,2.51-2.69Z" style="fill:currentColor;"/><path d="m10.34,42.54c-.15-.21-.39-.34-.65-.34h-3.43c-.28,0-.54.15-.68.39l-4.62,7.63c-.15.25-.15.55-.01.81.14.25.41.41.7.41h5.3c.34,0,.64-.21.75-.53l2.75-7.63c.09-.25.05-.52-.1-.73Zm-3.97,7.29h-3.32l3.65-6.03h1.84l-2.17,6.03Z" style="fill:currentColor;"/><path d="m34.55,42.65c-.13-.28-.41-.45-.72-.45h-3.72l-1.08-3.94s0-.02-.01-.03c-.04-.15-.1-.29-.17-.44,0-.02-.05-.11-.06-.13-.05-.1-.12-.2-.19-.31-.04-.07-.09-.13-.15-.2-.04-.04-.08-.09-.15-.16-.09-.1-.19-.19-.24-.22-.02-.03-.06-.06-.09-.08l-4.28-3.28-.03-5.1,4.15,3.06c.45.34.98.52,1.53.52.13,0,.26-.01.39-.03.69-.11,1.3-.49,1.71-1.07.82-1.17.58-2.83-.56-3.69l-7.28-5.46c-.06-1.04-.47-2.02-1.19-2.77-.78-.81-1.79-1.24-2.92-1.24-.57,0-1.12.13-1.61.36-.23.09-.42.2-.62.35-.05.03-.09.07-.17.13l-6.4,4.84c-.2.15-.37.33-.53.55-.04.06-.08.11-.14.2l-.06.11c-.05.08-.09.16-.13.25l-3.16,7.39c-.57,1.33.01,2.89,1.3,3.49.62.29,1.32.31,1.96.07.66-.25,1.18-.76,1.46-1.42l2.89-6.77,1.15-.87.04,7.78-5.49,13.12c-.64,1.5.02,3.28,1.47,3.96.38.18.79.27,1.19.27.34,0,.69-.06,1.02-.19.75-.29,1.33-.86,1.66-1.61l1.39-3.33-.32,4.26c-.02.22.06.44.21.6s.36.26.59.26h4.9c.23,0,.44-.1.59-.26.15-.17.23-.39.2-.62l-.79-7.63c-.04-.41-.39-.72-.8-.72h-2.86l1.68-4.03,3.57,2.73,2.29,8.34c.22.79.72,1.44,1.43,1.83.43.24.9.36,1.38.36.27,0,.54-.04.81-.12.52-.16.96-.46,1.31-.84l.1.37c.1.35.41.59.77.59h5.75c.28,0,.53-.14.68-.38s.16-.53.04-.77l-3.7-7.63Zm-13.97,1.15l.63,6.03h-3.15l.46-6.03h2.06Zm9.55-13.93c-.16.22-.38.37-.64.41-.25.04-.5-.03-.71-.19l-5.12-3.78v-2.65s6.26,4.71,6.26,4.71c.45.34.54,1.03.21,1.5Zm-11.33,7.3l-4.95,11.84c-.15.35-.42.61-.75.74-.32.12-.66.11-.96-.03-.67-.31-.97-1.17-.67-1.88l5.16-12.32.76.58,1.42,1.09Zm10.33,12.61c-.32.09-.66.06-.96-.11-.32-.18-.56-.48-.66-.85l-2.36-8.6c-.05-.17-.15-.32-.29-.42l-4.61-3.52s0,0,0,0l-1.8-1.37-1.39-1.06-.05-9.14c0-.3-.17-.58-.45-.71-.27-.13-.6-.1-.84.08l-2.6,1.97c-.11.08-.2.2-.25.32l-2.98,6.96c-.11.26-.31.46-.56.55-.23.09-.48.08-.71-.02-.5-.23-.73-.88-.5-1.41l3.19-7.45.05-.09-.67-.44.74.34c.07-.1.14-.17.2-.22l6.4-4.84s.1-.08.1-.08c.01,0,.09-.06.1-.07.05-.04.12-.08.26-.13.32-.15.65-.22.99-.23.65,0,1.28.26,1.76.76.49.5.76,1.17.76,1.88l.06,11.89s0,.03,0,.04c0,.25.12.48.31.64l4.53,3.46s.05.05.08.07c.05.04.09.08.13.12,0,0,.07.08.08.08l.61-.51-.54.62s.06.08.11.2c.03.07.06.13.08.2,0,0,0,.01.01.03l2.55,9.32c.2.74-.21,1.55-.91,1.75Zm3.25.05l-1.65-6.03h2.59l2.92,6.03h-3.86Z" style="fill:currentColor;"/><path d="m43.98,42.62c-.15-.19-.37-.3-.61-.3l-4.21-.09c-.28,0-.56.15-.71.4-.15.25-.14.56,0,.81l4.5,7.51c.14.24.41.39.69.39h5.58c.31,0,.59-.17.72-.45s.1-.6-.09-.84l-5.86-7.42Zm.11,7.12l-3.52-5.88,2.38.05,4.61,5.83h-3.47Z" style="fill:currentColor;"/><path d="m62.93,49.96l-8.04-7.52c-.15-.14-.34-.22-.55-.22h-4.6c-.31,0-.6.18-.73.47-.13.28-.08.62.12.85l6.45,7.52c.15.18.37.28.61.28h6.19c.33,0,.62-.2.74-.51.12-.31.04-.65-.2-.88Zm-6.37-.22l-5.08-5.92h2.54l6.33,5.92h-3.8Z" style="fill:currentColor;"/><path d="m36.24,41.86c2.97,0,5.38-2.4,5.39-5.37v.27c.08,1.03.76,2.13,2.11,2.13.7,0,1.9-.26,2.11-2.02.09-.72.21-2.31.29-3.63l3.22-3.39c.11.02.21.04.33.04h0l.3-.02.54,1.74c-1.81.87-3.07,2.71-3.07,4.85,0,2.98,2.42,5.4,5.4,5.4s5.4-2.42,5.4-5.4-2.42-5.4-5.4-5.4c-.27,0-.54.04-.8.08l-.43-1.39,3.12-.22c.59-.02,1.69-.61,1.67-1.95-.01-1.09-.82-1.91-1.86-1.91l-3.14-.06c-.21-.65-.5-1.53-.76-2.27.44.5,1.02.88,1.71,1.07.31.09.62.13.93.13,1.56,0,2.99-1.04,3.42-2.61,0-.01,0-.03,0-.04.41-.12.73-.4.89-.81.41-1.06-.32-2.63-1.26-3.54-.56-.53-1.26-.92-2.09-1.14-1.39-.38-2.96-.23-3.54.14-.32.21-.41.48-.43.63-.03.22-.03.44,0,.65-.3.43-.61,1.03-.51,1.64.03.15.08.29.15.42-.02.06-.05.11-.07.17-.12.45-.15.91-.1,1.35-.69-.86-1.79-1.25-2.74-1.25-2.97,0-6.8,2.08-8.09,3.15-1.34,1.1-1.37,2.6-.98,3.56.02.05.06.12.08.17-.43.02-.77.36-.77.79s.36.8.8.8h.92c.17.24.34.49.52.73l-1.27,2.12c-.63-.26-1.33-.41-2.05-.41-2.98,0-5.4,2.42-5.4,5.4s2.42,5.4,5.4,5.4Zm16.65-9.19c2.09,0,3.8,1.7,3.8,3.8s-1.7,3.8-3.8,3.8-3.8-1.7-3.8-3.8c0-1.42.79-2.64,1.95-3.3l1.09,3.53c.11.34.42.56.76.56.08,0,.16-.01.24-.04.42-.13.66-.58.53-1l-1.09-3.53c.11,0,.21-.03.32-.03Zm-7.02-2.64l-1.49-2.84,2.46-.68.95,2.08c.06.14.14.26.22.38l-1.82,1.91c-.06-.28-.17-.57-.32-.86Zm6.97-7.15c-.96-.26-1.54-1.2-1.4-2.15.29.06.59.09.88.09.18,0,.35-.01.52-.04.11.06.22.13.33.18.75.37,1.4.63,1.98.79-.37.89-1.35,1.39-2.3,1.13Zm3.53-2.52v.11s0,0,0,0v-.11s0,0,0,0Zm-2.47-2.41c.57.16,1.04.41,1.4.76.58.56.86,1.29.89,1.65-.52-.05-1.35-.34-2.32-.82-.7-.35-1.66-1.03-1.89-1.7.44-.06,1.18-.08,1.92.12Zm-13.88,6.6c1.18-.97,4.65-2.78,7.07-2.78.63,0,1.43.31,1.69.99.31.8,1.1,3.2,1.33,3.92.11.32.41.55.75.55l3.72.07c.24,0,.27.23.28.33,0,.25-.15.33-.16.34l-5.03.35c-.17,0-.28-.01-.41-.34l-1.25-2.74c-.16-.36-.56-.54-.94-.44l-4.07,1.12c-.23.06-.42.23-.52.45-.1.22-.09.48.02.69l1.95,3.72c.15.29.22.55.21.8-.06,1.15-.26,4.1-.38,5.11-.07.59-.21.62-.53.62-.43,0-.5-.48-.5-.61l-.23-5.27c0-.18-.07-.34-.18-.48-1.04-1.24-2.91-3.62-3.33-4.67-.09-.23-.33-1.03.51-1.72Zm.59,6.19c.33.42.63.78.82,1.02l.2,4.64c-.02-1.64-.79-3.1-1.98-4.07l.95-1.59Zm-4.37,1.94c.43,0,.83.09,1.21.22l-1.9,3.17c-.23.38-.1.87.28,1.1.13.08.27.11.41.11.27,0,.54-.14.69-.39l1.9-3.18c.74.69,1.21,1.67,1.21,2.76,0,2.09-1.7,3.8-3.8,3.8s-3.8-1.7-3.8-3.8,1.7-3.8,3.8-3.8Z" style="fill:currentColor;"/></svg>