<?xml version="1.0" encoding="utf-8"?>
<!-- Generator: Adobe Illustrator 26.2.1, SVG Export Plug-In . SVG Version: 6.00 Build 0)  -->
<svg version="1.1" id="bikeped" xmlns="http://www.w3.org/2000/svg" xmlns:xlink="http://www.w3.org/1999/xlink" x="0px" y="0px"
	 viewBox="0 0 275 172.19" style="enable-background:new 0 0 275 172.19;" xml:space="preserve">
<style type="text/css">
	#bikeped .st0{fill:none;stroke:#040B1F;stroke-width:6;stroke-linecap:round;stroke-linejoin:round;stroke-miterlimit:10;}
	#bikeped .st1{fill:none;stroke:#040B1F;stroke-width:6;stroke-miterlimit:10;}
</style>
<path class="st0" d="M124,158l-11-37l0,0v-1l-1-1v-1h-1v-1h-1l0,0l-19-14l0,0V56c-0.07-7.73-6.39-13.94-14.12-13.88
	C74.46,42.15,72.09,42.79,70,44l0,0l-1,1L43,64c-0.8,0.52-1.48,1.2-2,2l-1,1L27,96c-1,4,0,8,4,10c4,1,8,0,10-4l12-27l10-8l1,37
	l33,25l10,34c1,4,6,7,11,6C122,167,125,163,124,158z"/>
<path class="st0" d="M91,75l22,16c3,2,8,1,10-2c3-3,2-8-1-10L91,56 M64,104l-23,53c-2,4,0,9,4,11c5,2,10,0,12-4l21-49L64,104z"/>
<path class="st1" d="M81,33h-7c-6,0-11-5-11-11v-9c0-6,5-10,11-10h7c6,0,11,4,11,10v9C92,28,87,33,81,33z"/>
<path class="st0" d="M79,133l-3,36h23l-1-36H79z M17,133L3,169h24l10-36H17z M156,133l15,36h-26l-11-36H156z M198,133l20,36h-25
	l-16-36H198z M241,133l31,36h-29l-24-36H241z"/>
<g id="XMLID_61_">
	<circle id="XMLID_70_" class="st0" cx="236" cy="95.5" r="24.5"/>
	<circle id="XMLID_69_" class="st0" cx="160.3" cy="95.5" r="24.5"/>
	<path id="XMLID_68_" class="st0" d="M236,95l-25-51h13c0,0,10-1,10,9c0,0,0,5-6,5"/>
	<path id="XMLID_67_" class="st0" d="M218,58h-46"/>
	<path id="XMLID_65_" class="st0" d="M219,60l-24,35h-35l12-37"/>
	<path id="XMLID_63_" class="st0" d="M195,96l-31-50"/>
	<path id="XMLID_62_" class="st0" d="M178,46h-19"/>
</g>
</svg>
