<?xml version="1.0" encoding="UTF-8"?><svg id="a" xmlns="http://www.w3.org/2000/svg" viewBox="0 0 64 64"><g><g><path d="M22.81,14.47c.01,1.89-1.4,3.43-3.15,3.44-1.75,.01-3.18-1.51-3.19-3.4-.01-1.89,1.4-3.43,3.15-3.44,1.75-.01,3.18,1.51,3.19,3.4Z" style="fill:none; stroke:#040b1f; stroke-linecap:round; stroke-linejoin:round; stroke-width:1.6px;"/><path d="M30.46,48.86l-2.44-9.2s0-.01,0-.02c-.03-.11-.07-.21-.12-.31-.02-.04-.03-.07-.05-.11-.04-.07-.08-.14-.12-.2-.04-.06-.07-.11-.11-.16-.03-.04-.07-.08-.11-.12-.06-.07-.13-.14-.2-.2,0,0-.01-.01-.02-.02l-4.38-3.46s0,0,0-.01l-.06-11.74c-.01-1.87-1.44-3.39-3.17-3.38-.45,0-.87,.11-1.26,.3-.13,.06-.26,.12-.38,.22l-.06,.05s-.09,.07-.13,.1l-6.1,4.77c-.14,.11-.25,.24-.35,.39-.03,.04-.06,.08-.08,.12-.01,.02-.02,.05-.04,.07-.04,.06-.08,.13-.1,.2l-3.01,7.27c-.38,.92,0,2,.86,2.41,.85,.41,1.86,0,2.24-.92l2.84-6.86,2.48-1.93,.05,9.39,7.73,6.09,2.25,8.47c.31,1.15,1.43,1.82,2.49,1.49,1.07-.33,1.69-1.54,1.38-2.69Z" style="fill:none; stroke:#040b1f; stroke-linecap:round; stroke-linejoin:round; stroke-width:1.6px;"/><path d="M22.86,28.08l5.2,3.96c.75,.59,1.82,.42,2.37-.39,.55-.81,.39-1.96-.37-2.55l-7.22-5.59" style="fill:none; stroke:#040b1f; stroke-linecap:round; stroke-linejoin:round; stroke-width:1.6px;"/><path d="M16.6,35.5l-5.3,13.07c-.45,1.09,0,2.38,1.02,2.87,1.01,.49,2.21,0,2.66-1.1l4.95-12.22-3.33-2.62Z" style="fill:none; stroke:#040b1f; stroke-linecap:round; stroke-linejoin:round; stroke-width:1.6px;"/></g><polygon points="18.02 44.12 17.47 51.63 22.14 51.63 21.38 44.12 18.02 44.12" style="fill:none; stroke:#040b1f; stroke-linecap:round; stroke-linejoin:round; stroke-width:1.6px;"/><polygon points="7.05 44.12 2.64 51.63 7.69 51.63 10.31 44.12 7.05 44.12" style="fill:none; stroke:#040b1f; stroke-linecap:round; stroke-linejoin:round; stroke-width:1.6px;"/><polygon points="33.33 44.12 36.85 51.63 31.37 51.63 29.38 44.12 33.33 44.12" style="fill:none; stroke:#040b1f; stroke-linecap:round; stroke-linejoin:round; stroke-width:1.6px;"/><polygon points="43.39 44.23 48.98 51.53 43.67 51.53 39.38 44.14 43.39 44.23" style="fill:none; stroke:#040b1f; stroke-linecap:round; stroke-linejoin:round; stroke-width:1.6px;"/><polygon points="53.87 44.14 61.54 51.54 55.63 51.54 49.49 44.14 53.87 44.14" style="fill:none; stroke:#040b1f; stroke-linecap:round; stroke-linejoin:round; stroke-width:1.6px;"/></g><g><line x1="48.39" y1="28.34" x2="44.71" y2="32.2" style="fill:none; stroke:#040b1f; stroke-linecap:round; stroke-linejoin:round; stroke-width:1.6px;"/><line x1="52.11" y1="35.71" x2="49.85" y2="28.4" style="fill:none; stroke:#040b1f; stroke-linecap:round; stroke-linejoin:round; stroke-width:1.6px;"/><line x1="35.72" y1="35.71" x2="39.81" y2="28.88" style="fill:none; stroke:#040b1f; stroke-linecap:round; stroke-linejoin:round; stroke-width:1.6px;"/><path d="M40.24,35.71c0,2.5-2.03,4.53-4.53,4.53s-4.53-2.03-4.53-4.53,2.03-4.53,4.53-4.53,4.53,2.03,4.53,4.53Z" style="fill:none; stroke:#040b1f; stroke-linecap:round; stroke-linejoin:round; stroke-width:1.6px;"/><path d="M56.63,35.71c0,2.5-2.03,4.53-4.53,4.53s-4.53-2.03-4.53-4.53,2.03-4.53,4.53-4.53,4.53,2.03,4.53,4.53Z" style="fill:none; stroke:#040b1f; stroke-linecap:round; stroke-linejoin:round; stroke-width:1.6px;"/><line x1="37.58" y1="27.2" x2="38.9" y2="27.2" style="fill:none; stroke:#040b1f; stroke-linecap:round; stroke-linejoin:round; stroke-width:1.6px;"/><path d="M43.11,37.32c-.95,0-1.25-.85-1.28-1.36l-.23-5.19c-.36-.44-2.85-3.44-3.4-4.81-.29-.72-.25-1.79,.74-2.6,1.27-1.05,4.86-2.92,7.46-2.92,.91,0,2,.46,2.4,1.47,.32,.83,1.13,3.3,1.33,3.9l3.65,.07c.6,0,1.05,.47,1.06,1.1,.01,.83-.69,1.12-.89,1.13,0,0-5.01,.35-5.01,.35-.54,0-.9-.26-1.12-.79l-1.23-2.69-4.01,1.11,1.91,3.66c.22,.41,.31,.8,.29,1.19-.06,1.17-.25,4.06-.38,5.09-.07,.6-.29,1.3-1.3,1.3Z" style="fill:none; stroke:#040b1f; stroke-linecap:round; stroke-linejoin:round; stroke-width:1.6px;"/><path d="M55.54,20.63c1.06-.02,.62-1.9-.52-2.98-.5-.48-1.11-.77-1.72-.94-1.44-.39-2.89-.1-2.92,.13-.2,1.34,1.46,2.46,2.34,2.89,.66,.33,1.96,.92,2.82,.9Z" style="fill:none; stroke:#040b1f; stroke-linecap:round; stroke-linejoin:round; stroke-width:1.6px;"/><path d="M50.16,19.23c-.09,.17-.16,.35-.21,.54-.39,1.44,.45,2.93,1.9,3.32,1.44,.39,2.93-.45,3.32-1.89,.05-.17,.08-.34,.09-.52" style="fill:none; stroke:#040b1f; stroke-linecap:round; stroke-linejoin:round; stroke-width:1.6px;"/><path d="M50.45,17.56c-.55,.64-.8,1.36-.32,1.64,.49,.3,1.47,.37,2.02,.24" style="fill:none; stroke:#040b1f; stroke-linecap:round; stroke-linejoin:round; stroke-width:1.6px;"/></g></svg>