<svg version="1.1" id="bikeped" xmlns="http://www.w3.org/2000/svg" x="0" y="0" viewBox="0 0 275.8 168.6" xml:space="preserve"><style>#bikeped .st0{fill:none;stroke:#040b1f;stroke-width:6;stroke-linecap:round;stroke-linejoin:round;stroke-miterlimit:10}</style><path style="fill:none;stroke:#040b1f;stroke-width:6;stroke-linecap:round;stroke-linejoin:round;stroke-miterlimit:10" d="M93 17a14 14 0 1 1-28 0 14 14 0 0 1 28 0zm33 137-11-36s0 0 0 0v-2s0 0 0 0l-1-1v-1h-1l-1-1s0 0 0 0L93 99s0 0 0 0V52a14 14 0 0 0-21-11h0-1L45 60a7 7 0 0 0-2 3h-1L29 93c-1 3 0 8 4 9s8 0 10-3l12-28 11-8v38l33 24 10 34c1 5 6 8 11 6 4-1 7-6 6-11z"/><path style="fill:none;stroke:#040b1f;stroke-width:6;stroke-linecap:round;stroke-linejoin:round;stroke-miterlimit:10" d="m93 71 22 16c4 2 8 2 11-2 2-3 1-7-2-10L93 53m-27 48-23 52c-2 5 0 10 4 12 5 2 10 0 12-5l21-49-14-10zm8 28-3 37h23l-1-37zm-57 0L3 166h23l10-37zm133 0 14 37h-24l-10-37zm35 1 18 35h-24l-13-36zm31-1 25 36h-23l-19-36z"/><g id="XMLID_61_"><circle id="XMLID_70_" style="fill:none;stroke:#040b1f;stroke-width:6;stroke-linecap:round;stroke-linejoin:round;stroke-miterlimit:10" cx="246.2" cy="92" r="26.7"/><circle id="XMLID_69_" style="fill:none;stroke:#040b1f;stroke-width:6;stroke-linecap:round;stroke-linejoin:round;stroke-miterlimit:10" cx="163.8" cy="92" r="26.7"/><path id="XMLID_68_" style="fill:none;stroke:#040b1f;stroke-width:6;stroke-linecap:round;stroke-linejoin:round;stroke-miterlimit:10" d="m246 92-27-56h14s11-1 11 10c0 0 0 6-7 5"/><path id="XMLID_67_" style="fill:none;stroke:#040b1f;stroke-width:6;stroke-linecap:round;stroke-linejoin:round;stroke-miterlimit:10" d="M227 52h-50"/><path id="XMLID_65_" style="fill:none;stroke:#040b1f;stroke-width:6;stroke-linecap:round;stroke-linejoin:round;stroke-miterlimit:10" d="m228 53-26 39h-38l13-41"/><path id="XMLID_63_" style="fill:none;stroke:#040b1f;stroke-width:6;stroke-linecap:round;stroke-linejoin:round;stroke-miterlimit:10" d="m202 92-34-54"/><path id="XMLID_62_" style="fill:none;stroke:#040b1f;stroke-width:6;stroke-linecap:round;stroke-linejoin:round;stroke-miterlimit:10" d="M183 38h-20"/></g></svg>