<?xml version="1.0" encoding="UTF-8"?><svg id="Layer_1" xmlns="http://www.w3.org/2000/svg" xmlns:xlink="http://www.w3.org/1999/xlink" viewBox="0 0 218.5 86.5"><defs><style>.cls-1{fill:url(#linear-gradient-2);}.cls-2{fill:url(#linear-gradient-17);}.cls-3{fill:url(#linear-gradient-15);}.cls-4{fill:url(#linear-gradient-18);}.cls-5{fill:url(#linear-gradient-14);}.cls-6{fill:url(#linear-gradient-6);}.cls-7{fill:url(#linear-gradient-11);}.cls-8{fill:url(#linear-gradient-10);}.cls-9{fill:url(#linear-gradient-16);}.cls-10{fill:url(#linear-gradient-5);}.cls-11{fill:url(#linear-gradient-7);}.cls-12{fill:url(#linear-gradient-9);}.cls-13{fill:url(#linear-gradient-3);}.cls-14{fill:url(#linear-gradient);}.cls-15{fill:url(#linear-gradient-19);}.cls-16{fill:url(#linear-gradient-4);}.cls-17{fill:url(#linear-gradient-8);}.cls-18{fill:url(#linear-gradient-12);}.cls-19{fill:url(#linear-gradient-13);}</style><linearGradient id="linear-gradient" x1="224.25" y1="76.07" x2="-212.27" y2="2.51" gradientUnits="userSpaceOnUse"><stop offset="0" stop-color="#ce007c"/><stop offset="0" stop-color="#b6468b"/><stop offset=".13" stop-color="#7a5f9e"/><stop offset=".37" stop-color="#0093c8"/><stop offset=".4" stop-color="#1493af"/><stop offset=".43" stop-color="#2f948f"/><stop offset=".47" stop-color="#469574"/><stop offset=".52" stop-color="#58965e"/><stop offset=".57" stop-color="#66974d"/><stop offset=".64" stop-color="#709741"/><stop offset=".74" stop-color="#76973a"/><stop offset="1" stop-color="#789839"/></linearGradient><linearGradient id="linear-gradient-2" x1="224.79" y1="72.86" x2="-211.72" y2="-.71" xlink:href="#linear-gradient"/><linearGradient id="linear-gradient-3" x1="225.38" y1="69.38" x2="-211.14" y2="-4.19" xlink:href="#linear-gradient"/><linearGradient id="linear-gradient-4" x1="225.99" y1="65.71" x2="-210.52" y2="-7.85" xlink:href="#linear-gradient"/><linearGradient id="linear-gradient-5" x1="226.55" y1="62.41" x2="-209.96" y2="-11.16" xlink:href="#linear-gradient"/><linearGradient id="linear-gradient-6" x1="227.45" y1="57.1" x2="-209.07" y2="-16.47" xlink:href="#linear-gradient"/><linearGradient id="linear-gradient-7" x1="227.95" y1="54.09" x2="-208.56" y2="-19.47" xlink:href="#linear-gradient"/><linearGradient id="linear-gradient-8" x1="227.7" y1="55.59" x2="-208.81" y2="-17.98" xlink:href="#linear-gradient"/><linearGradient id="linear-gradient-9" x1="228.24" y1="52.37" x2="-208.27" y2="-21.19" xlink:href="#linear-gradient"/><linearGradient id="linear-gradient-10" x1="228.83" y1="48.89" x2="-207.69" y2="-24.68" xlink:href="#linear-gradient"/><linearGradient id="linear-gradient-11" x1="223.78" y1="78.84" x2="-212.73" y2="5.28" xlink:href="#linear-gradient"/><linearGradient id="linear-gradient-12" x1="219.82" y1="102.35" x2="-216.69" y2="28.78" xlink:href="#linear-gradient"/><linearGradient id="linear-gradient-13" x1="228.63" y1="50.07" x2="-207.88" y2="-23.5" xlink:href="#linear-gradient"/><linearGradient id="linear-gradient-14" x1="229.33" y1="45.9" x2="-207.18" y2="-27.66" xlink:href="#linear-gradient"/><linearGradient id="linear-gradient-15" x1="220.26" y1="99.72" x2="-216.25" y2="26.16" xlink:href="#linear-gradient"/><linearGradient id="linear-gradient-16" x1="224.36" y1="75.39" x2="-212.15" y2="1.83" xlink:href="#linear-gradient"/><linearGradient id="linear-gradient-17" x1="224.75" y1="73.11" x2="-211.77" y2="-.45" xlink:href="#linear-gradient"/><linearGradient id="linear-gradient-18" x1="225.13" y1="70.85" x2="-211.39" y2="-2.71" xlink:href="#linear-gradient"/><linearGradient id="linear-gradient-19" x1="225.44" y1="69.02" x2="-211.08" y2="-4.55" xlink:href="#linear-gradient"/></defs><g><path class="cls-14" d="M53.2,45.63c0,5.75-3.38,10.15-9.44,10.15s-9.29-4.29-9.29-10.08,3.5-10.15,9.51-10.15c5.6,0,9.21,4.02,9.21,10.08Zm-13.99,.04c0,3.91,1.77,6.39,4.66,6.39s4.55-2.44,4.55-6.36c0-4.17-1.62-6.43-4.62-6.43s-4.59,2.18-4.59,6.39Z"/><path class="cls-1" d="M56.6,40.86c0-1.65,0-3.38-.04-4.85h4.51c.11,.53,.19,2.11,.19,2.71,.68-1.35,2.26-3.16,5.75-3.16,3.8,0,6.43,2.48,6.43,7.45v12.33h-4.66v-11.81c0-2.41-.87-4.14-3.42-4.14-2.75,0-4.1,1.77-4.1,5.34v10.6h-4.66v-14.48Z"/><path class="cls-13" d="M77.82,40.86c0-1.65,0-3.38-.04-4.85h4.51c.11,.53,.19,2.11,.19,2.71,.68-1.35,2.26-3.16,5.75-3.16,3.8,0,6.43,2.48,6.43,7.45v12.33h-4.66v-11.81c0-2.41-.86-4.14-3.42-4.14-2.74,0-4.1,1.77-4.1,5.34v10.6h-4.66v-14.48Z"/><path class="cls-16" d="M102.71,46.65c0,2.9,1.47,5.42,4.36,5.42,2.48,0,3.27-1.13,3.8-2.37h4.7c-.71,2.41-2.82,6.09-8.65,6.09-6.24,0-8.91-4.81-8.91-9.85,0-5.98,3.05-10.38,9.14-10.38,6.51,0,8.69,4.85,8.69,9.44,0,.64,0,1.09-.07,1.65h-13.05Zm8.42-2.97c-.04-2.59-1.17-4.7-4.02-4.7s-4.02,1.96-4.29,4.7h8.31Z"/><path class="cls-10" d="M135.56,49.21c-.71,3.23-2.97,6.58-8.46,6.58-5.79,0-8.95-4.06-8.95-10,0-5.6,3.35-10.23,9.21-10.23,6.17,0,8.05,4.44,8.2,6.73h-4.59c-.38-1.73-1.39-3.01-3.72-3.01-2.78,0-4.32,2.41-4.32,6.36,0,4.21,1.58,6.47,4.29,6.47,2.03,0,3.16-1.17,3.72-2.9h4.62Z"/><path class="cls-6" d="M137.03,36.01h3.08v-5.38h4.66v5.38h3.95v3.57h-3.95v10.15c0,1.62,.45,2.29,2.11,2.29,.38,0,.94,0,1.39-.08v3.27c-.98,.34-2.33,.38-3.38,.38-3.5,0-4.78-1.88-4.78-5.19v-10.83h-3.08v-3.57Z"/><path class="cls-11" d="M151.46,32.4v-4.55h4.66v4.55h-4.66Zm0,3.61h4.66v19.33h-4.66v-19.33Z"/><path class="cls-17" d="M178.2,45.63c0,5.75-3.38,10.15-9.44,10.15s-9.29-4.29-9.29-10.08,3.5-10.15,9.51-10.15c5.6,0,9.21,4.02,9.21,10.08Zm-13.99,.04c0,3.91,1.77,6.39,4.66,6.39s4.55-2.44,4.55-6.36c0-4.17-1.62-6.43-4.62-6.43s-4.59,2.18-4.59,6.39Z"/><path class="cls-12" d="M181.6,40.86c0-1.65,0-3.38-.04-4.85h4.51c.11,.53,.19,2.11,.19,2.71,.68-1.35,2.26-3.16,5.75-3.16,3.8,0,6.43,2.48,6.43,7.45v12.33h-4.66v-11.81c0-2.41-.87-4.14-3.42-4.14-2.75,0-4.1,1.77-4.1,5.34v10.6h-4.66v-14.48Z"/><path class="cls-8" d="M206.05,49.62c.45,1.73,1.8,2.71,4.02,2.71s3.12-.87,3.12-2.22c0-1.47-.86-2.07-3.91-2.82-6.05-1.47-7.11-3.35-7.11-6.02,0-2.82,1.99-5.72,7.52-5.72s7.6,3.08,7.78,5.75h-4.48c-.19-.9-.83-2.41-3.5-2.41-2.11,0-2.75,.98-2.75,1.99,0,1.09,.68,1.65,3.95,2.44,6.24,1.43,7.26,3.57,7.26,6.43,0,3.23-2.52,6.02-8.05,6.02s-8.01-2.74-8.46-6.17h4.59Z"/></g><g><g><path class="cls-7" d="M9.56,59.43c.45-.23,.99-.19,1.41,.09,.41,.29,.64,.79,.58,1.29-.07,.57,.04,1.15,.3,1.67,.74,1.45,2.51,2.02,3.96,1.28,1.45-.74,2.02-2.51,1.28-3.96-.26-.52-.67-.94-1.18-1.23-.44-.25-.71-.71-.7-1.22,0-.51,.3-.96,.75-1.19l4.07-2.08c-3.62-7.79-2.91-16.55,1.22-23.48l-2.75-1.78c-.1-.06-.23-.08-.34-.04-.11,.04-.2,.13-.23,.25-.13,.45-.33,.88-.58,1.27-.7,1.08-1.78,1.82-3.05,2.09-1.26,.27-2.55,.03-3.63-.67-2.23-1.45-2.87-4.44-1.42-6.68,.26-.4,.57-.75,.92-1.05,.09-.08,.14-.19,.13-.31,0-.12-.07-.23-.17-.29l-2.27-1.47c-.09-.06-.19-.07-.29-.05s-.19,.09-.24,.17C.39,33.56-.81,48.2,5.3,61.16c.04,.09,.12,.16,.22,.2,.1,.03,.2,.03,.29-.02l3.75-1.91Z"/><path class="cls-18" d="M40,80.22c.03-.51,.32-.95,.78-1.17,.45-.21,1-.16,1.4,.14,.46,.35,1.02,.55,1.6,.58,1.62,.08,3.01-1.17,3.09-2.79,.04-.78-.23-1.54-.75-2.12-.53-.59-1.25-.93-2.03-.97-.58-.03-1.15,.11-1.65,.41-.43,.26-.97,.26-1.41,0-.43-.26-.69-.74-.66-1.24l.23-4.49c-8.03-.73-15.54-5.29-19.72-12.79l-2.82,1.44c-.11,.05-.18,.16-.2,.27-.02,.12,.02,.24,.1,.32,.32,.34,.6,.72,.81,1.14,1.21,2.37,.27,5.29-2.11,6.5-2.37,1.21-5.29,.27-6.5-2.11-.22-.42-.37-.87-.45-1.33-.02-.12-.1-.22-.2-.27-.11-.05-.23-.05-.34,0l-2.5,1.28c-.09,.05-.16,.13-.19,.23-.03,.1-.02,.2,.03,.29,6.92,12.56,19.46,20.18,32.86,21.32,.1,0,.2-.02,.28-.09,.08-.07,.12-.16,.13-.26l.22-4.27Z"/><path class="cls-19" d="M12.95,23.84c-.04,.5-.37,.95-.82,1.14-.53,.23-.98,.61-1.3,1.1-.88,1.36-.49,3.19,.87,4.07,.66,.43,1.45,.57,2.21,.41,.77-.16,1.43-.62,1.86-1.27,.32-.49,.48-1.05,.47-1.63,0-.51,.26-.97,.71-1.22,.44-.24,.98-.23,1.41,.05l3.92,2.54c2.28-3.25,5.37-6.01,9.15-7.94,3.78-1.93,7.82-2.81,11.79-2.75l.16-3.1c0-.12-.04-.23-.14-.31-.09-.08-.21-.1-.33-.08-.45,.11-.92,.16-1.4,.13-2.66-.14-4.71-2.41-4.57-5.07,.14-2.66,2.41-4.71,5.07-4.57,.47,.02,.94,.12,1.37,.27,.11,.04,.24,.02,.34-.04,.1-.07,.16-.18,.17-.29l.15-2.88c0-.1-.03-.2-.1-.28-.07-.07-.17-.12-.27-.12-6.62-.14-13.37,1.31-19.68,4.53-6.31,3.22-11.44,7.83-15.22,13.27-.06,.08-.08,.19-.06,.29,.02,.1,.08,.19,.16,.24l3.45,2.24c.43,.28,.66,.76,.62,1.26Z"/></g><path class="cls-5" d="M79.18,23.46C72.27,10.91,59.72,3.29,46.33,2.15c-.1,0-.2,.02-.28,.09-.08,.07-.12,.16-.13,.26l-.22,4.27c-.03,.51-.33,.95-.79,1.17-.45,.21-1,.16-1.4-.14-.46-.35-1.02-.55-1.6-.58-1.62-.08-3.01,1.17-3.09,2.79-.08,1.62,1.17,3.01,2.79,3.09,.58,.03,1.15-.11,1.65-.41,.43-.26,.97-.26,1.41,0,.43,.26,.69,.74,.66,1.24l-.23,4.49c8.03,.72,15.54,5.29,19.72,12.79l1.22-.62c5.55-2.65,11-5.61,11-5.61h0l2-1.02c.09-.05,.16-.13,.19-.23,.03-.1,.02-.2-.03-.29Z"/><path class="cls-3" d="M63.43,57.98c-2.28,3.25-5.36,6-9.14,7.93-3.78,1.93-7.82,2.81-11.79,2.75l-.16,3.1c0,.12,.04,.23,.14,.31,.09,.08,.21,.1,.33,.08,.45-.11,.92-.16,1.4-.13,1.29,.07,2.47,.63,3.34,1.59,.86,.96,1.3,2.19,1.24,3.48-.14,2.66-2.41,4.71-5.07,4.57-.47-.02-.94-.12-1.37-.27-.11-.04-.24-.02-.34,.04-.1,.07-.16,.18-.17,.29l-.15,2.88c0,.1,.03,.2,.1,.28,.07,.08,.17,.12,.27,.12,6.62,.14,13.36-1.31,19.67-4.53,6.31-3.22,11.44-7.83,15.21-13.27,.06-.08,.08-.19,.06-.29,0-.04-.03-.08-.05-.12l-13.51-8.81Z"/></g><g><path class="cls-9" d="M178.29,73.58h-9.82v-2.14l4.35-4.77c.58-.66,1.01-1.25,1.28-1.77,.27-.52,.41-.97,.41-1.35,0-.55-.12-.98-.37-1.3-.25-.32-.64-.48-1.18-.48-.51,0-.91,.21-1.19,.63-.28,.42-.42,.95-.42,1.6h-3.21l-.02-.06c-.03-1.31,.4-2.41,1.29-3.32s2.08-1.36,3.55-1.36,2.74,.38,3.58,1.14,1.26,1.81,1.26,3.14c0,.89-.23,1.68-.7,2.37-.47,.69-1.32,1.71-2.56,3.05l-1.72,2.06,.02,.05h5.45v2.52Z"/><path class="cls-2" d="M191.58,67.78c0,1.74-.55,3.17-1.65,4.3-1.1,1.13-2.54,1.69-4.32,1.69s-3.24-.56-4.36-1.69-1.67-2.56-1.67-4.3v-2.54c0-1.73,.55-3.17,1.66-4.3,1.11-1.13,2.56-1.7,4.34-1.7s3.21,.57,4.33,1.7c1.11,1.13,1.67,2.57,1.67,4.3v2.54Zm-3.27-2.56c0-1.01-.24-1.84-.71-2.48s-1.15-.97-2.01-.97-1.56,.32-2.03,.97c-.47,.64-.7,1.47-.7,2.49v2.56c0,1.02,.24,1.86,.71,2.5,.48,.65,1.16,.97,2.04,.97s1.53-.32,2-.97,.71-1.48,.71-2.5v-2.56Z"/><path class="cls-4" d="M193.42,67.37l.81-7.92h8.28v2.54h-5.62l-.36,2.94c.27-.19,.6-.34,1.01-.46,.41-.12,.86-.18,1.34-.19,1.31-.03,2.32,.38,3.03,1.21,.71,.83,1.06,2.01,1.06,3.54,0,1.37-.39,2.5-1.18,3.4s-2.03,1.35-3.73,1.35c-1.34,0-2.51-.35-3.51-1.06-.99-.71-1.47-1.64-1.43-2.81v-.06s3.22-.19,3.22-.19c0,.5,.16,.89,.47,1.17,.31,.28,.73,.43,1.25,.43,.61,0,1.03-.19,1.27-.55s.36-.92,.36-1.66c0-.78-.14-1.39-.42-1.83-.28-.45-.72-.67-1.32-.67-.43,0-.78,.09-1.05,.28-.27,.19-.46,.42-.56,.71l-2.94-.17Z"/><path class="cls-15" d="M216.58,67.78c0,1.74-.55,3.17-1.65,4.3-1.1,1.13-2.54,1.69-4.32,1.69s-3.24-.56-4.36-1.69c-1.11-1.13-1.67-2.56-1.67-4.3v-2.54c0-1.73,.55-3.17,1.66-4.3,1.11-1.13,2.56-1.7,4.34-1.7s3.21,.57,4.33,1.7c1.11,1.13,1.67,2.57,1.67,4.3v2.54Zm-3.27-2.56c0-1.01-.24-1.84-.71-2.48s-1.15-.97-2.01-.97-1.56,.32-2.03,.97-.7,1.47-.7,2.49v2.56c0,1.02,.24,1.86,.71,2.5s1.16,.97,2.04,.97,1.53-.32,2-.97,.71-1.48,.71-2.5v-2.56Z"/></g></svg>