<?xml version="1.0" encoding="UTF-8"?><svg id="a" xmlns="http://www.w3.org/2000/svg" viewBox="0 0 64 64"><path d="m52.76,46.73c-.06-.11-.15-.21-.26-.28l-8.44-5.5c-.36-.24-.84-.14-1.09.21-1.39,1.97-3.26,3.6-5.42,4.7-2.31,1.18-5.57,1.67-7.87,1.64,0,0,0,0-.01,0-.07-.03-.14-.06-.23-.07-4.82-.43-9.52-3.58-12-8.02-.04-.07-.09-.12-.15-.17,0-.13,0-.26-.06-.39-1.95-4.2-1.54-10.16.99-14.6.13-.06.25-.14.33-.26,1.39-1.98,3.26-3.6,5.42-4.71,2.02-1.03,5.05-1.66,7.74-1.63.03,0,.06-.02.09-.02.09.04.18.07.28.08,4.92.44,9.29,3.28,11.69,7.58.15.26.42.41.7.41.12,0,.25-.03.36-.09l.74-.38c3.45-1.65,6.87-3.51,6.89-3.52l1.25-.64c.25-.13.44-.35.52-.62.08-.26.05-.56-.08-.8,0,0,0,0,0,0-4.32-7.84-12.23-12.97-21.16-13.73-.12-.01-.25,0-.37.04-.02,0-.04-.01-.06-.01-3.94-.08-9.67.61-13.95,2.8-3.92,2-7.31,4.96-9.8,8.55-.04.05-.05.12-.07.17-.07.06-.14.13-.19.21-4.79,7.95-5.59,18.45-2,26.16.09.27.32.69.82,1.61,4.32,7.84,12.23,12.97,21.16,13.73.03,0,.06,0,.09,0,.09,0,.18-.02.27-.05.11.06.22.09.35.1.18,0,.36,0,.54,0,3.71,0,8.95-.75,13.14-2.89,3.92-2,7.31-4.96,9.8-8.55.16-.23.22-.51.16-.82-.02-.08-.08-.22-.11-.29Zm-.28-26.79l-.74.38s-3.43,1.86-6.85,3.5l-.09.05c-2.59-4.18-6.91-6.98-11.79-7.65l.11-2.06c.03-.61-.27-1.19-.8-1.5-.53-.32-1.18-.32-1.7,0-.18.1-.38.15-.58.14-.28-.01-.53-.14-.72-.34-.19-.21-.28-.47-.27-.75.03-.57.51-1.02,1.09-.98.21.01.4.08.56.2.49.36,1.15.43,1.7.17.55-.26.92-.8.95-1.41l.11-2.08c7.97.86,15.01,5.43,19.03,12.34ZM19.35,10.2c3.77-1.93,8.92-2.6,12.48-2.62l-.17,2.06c-.42-.31-.91-.49-1.44-.52-1.47-.08-2.7,1.05-2.77,2.5-.04.7.2,1.38.68,1.9s1.12.83,1.82.87c.53.03,1.04-.1,1.57-.31l-.1,1.99c-2.22,0-5.57.48-8.15,1.8-2.16,1.1-4.07,2.68-5.55,4.59l-1.82-1.18c-.51-.33-1.15-.35-1.7-.06-.54.3-.87.86-.86,1.47,0,.2-.05.4-.17.57-.15.23-.38.39-.66.45-.27.06-.55,0-.78-.14-.48-.31-.62-.96-.31-1.44.11-.17.27-.31.46-.39.56-.24.95-.78,1-1.38.05-.61-.24-1.19-.75-1.53l-1.66-1.08c2.31-3.16,5.36-5.77,8.87-7.56Zm-9.75,8.92l1.66,1.16c-.48.21-.88.55-1.17.98-.79,1.22-.44,2.86.78,3.65.43.28.93.42,1.43.42.18,0,.37-.02.56-.06.69-.15,1.28-.55,1.67-1.14.28-.44.43-.95.51-1.51l1.68,1.09c-2.51,4.59-3,10.6-1.22,15.11l-1.88.96c-.55.28-.89.83-.9,1.44s.31,1.18.85,1.48c.18.1.32.25.41.43.26.51.06,1.14-.45,1.4-.25.13-.53.15-.79.06-.26-.09-.48-.27-.6-.52-.09-.18-.13-.38-.11-.58.07-.6-.2-1.21-.7-1.56-.29-.21-.61-.17-.72-.15-.58.08-1.94.63-2.78.99-3.07-7.02-2.36-16.36,1.79-23.65Zm18.49,38.44c-8.16-.88-15.35-5.65-19.32-12.86-.1-.18-.18-.34-.26-.49.7-.3,1.44-.59,1.9-.74-.02.46.08.91.29,1.32.32.63.87,1.09,1.54,1.31.27.09.54.13.82.13.41,0,.82-.1,1.19-.29.63-.32,1.09-.87,1.31-1.54s.16-1.39-.16-2.01c-.24-.47-.6-.85-1.06-1.2l1.77-.91c2.61,4.6,7.41,7.92,12.43,8.64l-.11,2.06c-.03.61.28,1.19.8,1.5.53.32,1.18.32,1.7,0,.17-.1.37-.15.58-.14.28.01.53.14.72.34.19.21.28.47.27.75-.03.57-.52,1.01-1.09.98-.21-.01-.4-.08-.56-.2-.49-.36-1.15-.43-1.69-.17-.55.26-.92.8-.95,1.41l-.11,2.08Zm14.1-2.6c-3.97,2.03-8.98,2.72-12.49,2.71l.18-2.14c.42.31.91.49,1.44.52,1.46.09,2.7-1.04,2.77-2.5.04-.7-.21-1.38-.68-1.9-.47-.52-1.12-.83-1.82-.87-.52-.04-1.04.1-1.57.32l.1-1.99c2.28-.04,5.6-.5,8.15-1.8,2.16-1.1,4.06-2.68,5.54-4.59l7.23,4.71c-2.31,3.15-5.36,5.75-8.86,7.54Z" /><path d="m25.77,33.79l-3.45,3.78v1.69h7.78v-2h-4.32l-.02-.04,1.36-1.63c.98-1.07,1.66-1.87,2.03-2.42.37-.55.55-1.17.55-1.88,0-1.06-.33-1.89-1-2.49-.67-.6-1.61-.9-2.84-.9s-2.11.36-2.81,1.08c-.71.72-1.05,1.6-1.02,2.63l.02.05h2.55c0-.51.11-.93.33-1.27.22-.33.54-.5.94-.5.43,0,.74.13.94.38.2.25.29.6.29,1.03,0,.3-.11.66-.32,1.07-.22.41-.55.88-1.02,1.4Z" /><path d="m32.37,29.25c-.88.9-1.32,2.03-1.32,3.41v2.02c0,1.38.44,2.52,1.32,3.41.88.89,2.03,1.34,3.45,1.34s2.55-.45,3.43-1.34c.87-.89,1.31-2.03,1.31-3.41v-2.02c0-1.37-.44-2.51-1.32-3.41-.88-.9-2.03-1.35-3.43-1.35s-2.56.45-3.44,1.35Zm5.04,1.42c.38.51.57,1.17.57,1.97v2.03c0,.81-.19,1.47-.56,1.98-.37.51-.9.77-1.58.77s-1.24-.26-1.62-.77c-.38-.51-.57-1.17-.57-1.98v-2.03c0-.81.19-1.46.56-1.97.37-.51.91-.77,1.61-.77s1.22.26,1.6.77Z" /><path d="m45.63,37.43c-.41,0-.74-.11-.99-.34-.25-.23-.37-.54-.37-.93l-2.55.15v.05c-.04.92.34,1.67,1.13,2.23.79.56,1.71.84,2.78.84,1.34,0,2.33-.36,2.95-1.07.63-.71.94-1.61.94-2.7,0-1.21-.28-2.14-.84-2.8-.56-.66-1.36-.98-2.4-.96-.38.01-.74.06-1.07.15-.33.09-.59.21-.8.36l.28-2.33h4.45v-2.01h-6.56l-.65,6.28,2.33.13c.08-.23.23-.41.44-.56.21-.15.49-.22.83-.22.48,0,.83.18,1.05.53.22.35.33.84.33,1.45s-.09,1.02-.28,1.32c-.19.29-.53.44-1.01.44Z" /><path d="m58.9,29.25c-.88-.9-2.03-1.35-3.43-1.35s-2.56.45-3.44,1.35c-.88.9-1.32,2.03-1.32,3.41v2.02c0,1.38.44,2.52,1.32,3.41.88.89,2.03,1.34,3.45,1.34s2.55-.45,3.43-1.34c.87-.89,1.31-2.03,1.31-3.41v-2.02c0-1.37-.44-2.51-1.32-3.41Zm-1.27,5.42c0,.81-.19,1.47-.56,1.98-.37.51-.9.77-1.58.77s-1.24-.26-1.62-.77c-.38-.51-.56-1.17-.56-1.98v-2.03c0-.81.19-1.46.56-1.97.37-.51.91-.77,1.61-.77s1.22.26,1.6.77c.38.51.57,1.17.57,1.97v2.03Z" /></svg>