<svg version="1.1" id="connections2050" xmlns="http://www.w3.org/2000/svg" x="0" y="0" viewBox="0 0 250 238.3" xml:space="preserve"><path style="fill:none;stroke:#040b1f;stroke-width:7;stroke-linecap:round;stroke-linejoin:round;stroke-miterlimit:10" d="M22 54a126 126 0 0 0-8 115h1s11-5 14-5c0 0 0 0 0 0l2 3 1 5a8 8 0 1 0 11-11 4 4 0 0 1 0-7l12-5c-11-22-7-51 5-70"/><path style="fill:none;stroke:#040b1f;stroke-width:7;stroke-linecap:round;stroke-linejoin:round;stroke-miterlimit:10" d="m13 168 4 7a116 116 0 0 0 92 59h1v-12c0-2 1-3 3-4l3 1 5 1a8 8 0 1 0-4-15 4 4 0 0 1-6-3l1-13c-22-2-45-17-56-38M126 4A115 115 0 0 0 23 54s0 0 0 0l10 7a4 4 0 0 1-1 6l-3 3a8 8 0 1 0 15 5 4 4 0 0 1 6-4l11 8a70 70 0 0 1 62-30"/><path style="fill:none;stroke:#040b1f;stroke-width:7;stroke-linecap:round;stroke-linejoin:round;stroke-miterlimit:10" d="M220 63a116 116 0 0 0-93-59s0 0 0 0l-1 12-2 4-4-1-4-1a8 8 0 1 0 3 15h4l2 3v13c22 2 43 15 55 36l3-2c16-7 31-16 31-16h0l5-3h1v-1zM112 235c18 0 41-4 59-13a113 113 0 0 0 43-38s0 0 0 0l-38-25a70 70 0 0 1-63 30"/><path class="st1" d="M115 149H81v-8l15-17 5-6 1-5-1-4-5-2-4 2-1 6H79a17 17 0 0 1 17-17c6 0 10 1 13 4s5 7 5 11l-3 9-9 11-6 7h19v9zm47-21c0 7-2 12-6 16s-9 6-15 6-12-2-16-6c-3-4-5-9-5-16v-9c0-6 2-11 5-15 4-4 10-6 16-6s11 2 15 6 6 9 6 15v9zm-11-9c0-3-1-6-3-8-2-3-4-4-7-4s-6 1-7 3l-3 9v9c0 4 1 7 3 9 1 3 4 4 7 4s5-1 7-4c2-2 3-5 3-9v-9zm17 8 3-28h29v9h-19l-2 10 4-1 5-1c4 0 8 1 10 4 3 3 4 7 4 13 0 5-1 9-4 12s-7 5-13 5c-5 0-9-2-13-4s-5-6-5-10l12-1 1 4 5 2 4-2 2-6-2-7c-1-2-2-2-5-2l-3 1-2 2h-11zm82 1c0 7-2 12-6 16s-9 6-15 6c-7 0-12-2-16-6s-6-9-6-16v-9a21 21 0 0 1 21-21c7 0 12 2 16 6s6 9 6 15v9zm-12-9c0-3 0-6-2-8-2-3-4-4-7-4s-6 1-7 3l-3 9v9c0 4 1 7 3 9s4 4 7 4 5-1 7-4c2-2 2-5 2-9v-9z" fill="#040b1f"/></svg>