<?xml version="1.0" encoding="UTF-8"?><svg id="a" xmlns="http://www.w3.org/2000/svg" viewBox="0 0 64 64"><g><g><path d="M9.23,18.12c-4.34,7.19-5.74,17.39-1.93,25.49,.03,.06,.08,.1,.14,.12,.06,.02,.13,.02,.18-.01,0,0,2.38-1.06,3.06-1.15,.08-.01,.13,0,.16,.01,.26,.18,.4,.49,.36,.8-.04,.36,.02,.72,.19,1.04,.46,.9,1.57,1.26,2.47,.8s1.26-1.57,.8-2.47c-.17-.32-.42-.59-.74-.77-.28-.15-.44-.45-.44-.76,0-.32,.18-.6,.47-.75l2.54-1.3c-2.26-4.87-1.41-11.27,1.17-15.59" style="fill:none; stroke:#040b1f; stroke-linecap:round; stroke-linejoin:round; stroke-width:1.6px;"/><path d="M7.31,43.61c-.02,.06,.73,1.43,.76,1.48,4.32,7.84,12.16,12.61,20.53,13.32,.06,0,.13-.02,.17-.06,.05-.04,.08-.1,.08-.17l.14-2.67c.02-.32,.2-.6,.49-.73,.28-.13,.63-.1,.88,.09,.29,.22,.63,.34,1,.36,1.01,.05,1.88-.73,1.93-1.74,.03-.49-.14-.96-.47-1.33-.33-.37-.78-.58-1.27-.61-.36-.02-.72,.07-1.03,.26-.27,.16-.61,.16-.88,0-.27-.16-.43-.46-.41-.78l.15-2.81c-5.02-.45-10.01-3.74-12.63-8.43" style="fill:none; stroke:#040b1f; stroke-linecap:round; stroke-linejoin:round; stroke-width:1.6px;"/><path d="M32.56,6.78c-4.14-.08-9.63,.7-13.57,2.71-3.94,2.01-7.15,4.89-9.51,8.29-.04,.05-.05,.12-.04,.18,.01,.06,.05,.12,.1,.15l2.15,1.4c.27,.17,.41,.48,.39,.79-.03,.31-.23,.59-.52,.71-.33,.14-.61,.38-.81,.69-.55,.85-.31,1.99,.54,2.54,.41,.27,.9,.36,1.38,.25,.48-.1,.89-.39,1.16-.8,.2-.3,.3-.66,.29-1.02,0-.32,.17-.61,.44-.76,.28-.15,.61-.14,.88,.03l2.45,1.59c1.43-2.03,3.35-3.75,5.71-4.96s5.63-1.76,8.11-1.72" style="fill:none; stroke:#040b1f; stroke-linecap:round; stroke-linejoin:round; stroke-width:1.6px;"/></g><path d="M53.46,20.06c-4.32-7.84-12.16-12.61-20.53-13.32-.06,0-.13,.02-.17,.06-.05,.04-.08,.1-.08,.17l-.14,2.67c-.02,.32-.2,.6-.49,.73-.28,.13-.63,.1-.88-.09-.29-.22-.63-.34-1-.36-1.01-.05-1.88,.73-1.93,1.74-.05,1.01,.73,1.88,1.74,1.93,.36,.02,.72-.07,1.03-.26,.27-.16,.61-.16,.88,0,.27,.16,.43,.46,.41,.78l-.15,2.81c5.02,.45,9.71,3.31,12.32,7.99l.76-.39c3.47-1.66,6.87-3.51,6.87-3.51h0l1.25-.64c.06-.03,.1-.08,.12-.14,.02-.06,.01-.13-.02-.18Z" style="fill:none; stroke:#040b1f; stroke-linecap:round; stroke-linejoin:round; stroke-width:1.6px;"/><path d="M29.25,58.46c4.13,.08,9.36-.78,13.3-2.8,3.94-2.01,7.15-4.89,9.51-8.29,.04-.05,.05-.12,.04-.18,0-.03-.02-.05-.03-.07l-8.44-5.5c-1.42,2.03-3.35,3.75-5.71,4.95-2.36,1.21-5.76,1.76-8.24,1.72" style="fill:none; stroke:#040b1f; stroke-linecap:round; stroke-linejoin:round; stroke-width:1.6px;"/></g><g><path d="M30.11,39.27h-7.78v-1.69l3.45-3.78c.46-.52,.8-.99,1.02-1.4,.22-.41,.32-.77,.32-1.07,0-.44-.1-.78-.29-1.03-.19-.25-.51-.38-.94-.38-.4,0-.72,.17-.94,.5-.22,.33-.33,.75-.33,1.27h-2.55l-.02-.05c-.03-1.04,.32-1.91,1.02-2.63s1.65-1.08,2.81-1.08,2.17,.3,2.84,.9c.67,.6,1,1.43,1,2.49,0,.71-.18,1.33-.55,1.88-.37,.55-1.05,1.35-2.03,2.42l-1.36,1.63,.02,.04h4.32v2Z" style="fill:#040b1f;"/><path d="M40.57,34.68c0,1.38-.44,2.52-1.31,3.41-.87,.89-2.02,1.34-3.43,1.34s-2.57-.45-3.45-1.34c-.88-.89-1.32-2.03-1.32-3.41v-2.02c0-1.37,.44-2.51,1.32-3.41,.88-.9,2.03-1.35,3.44-1.35s2.55,.45,3.43,1.35c.88,.9,1.32,2.03,1.32,3.41v2.02Zm-2.59-2.03c0-.8-.19-1.46-.57-1.97-.38-.51-.91-.77-1.6-.77s-1.24,.26-1.61,.77c-.37,.51-.56,1.17-.56,1.97v2.03c0,.81,.19,1.47,.57,1.98,.38,.51,.92,.77,1.62,.77s1.21-.26,1.58-.77c.37-.51,.56-1.17,.56-1.98v-2.03Z" style="fill:#040b1f;"/><path d="M41.94,34.35l.65-6.28h6.56v2.01h-4.45l-.28,2.33c.21-.15,.48-.27,.8-.36,.33-.09,.68-.14,1.07-.15,1.04-.02,1.84,.3,2.4,.96,.56,.66,.84,1.59,.84,2.8,0,1.08-.31,1.98-.94,2.7-.63,.72-1.61,1.07-2.95,1.07-1.07,0-1.99-.28-2.78-.84-.79-.56-1.17-1.3-1.13-2.23v-.05s2.55-.15,2.55-.15c0,.39,.12,.7,.37,.93,.25,.23,.58,.34,.99,.34,.48,0,.82-.15,1.01-.44,.19-.29,.28-.73,.28-1.32,0-.62-.11-1.1-.33-1.45-.22-.35-.57-.53-1.05-.53-.34,0-.62,.07-.83,.22s-.36,.34-.44,.56l-2.33-.13Z" style="fill:#040b1f;"/><path d="M60.22,34.68c0,1.38-.44,2.52-1.31,3.41s-2.02,1.34-3.43,1.34-2.57-.45-3.45-1.34c-.88-.89-1.32-2.03-1.32-3.41v-2.02c0-1.37,.44-2.51,1.32-3.41,.88-.9,2.03-1.35,3.44-1.35s2.55,.45,3.43,1.35,1.32,2.03,1.32,3.41v2.02Zm-2.59-2.03c0-.8-.19-1.46-.57-1.97-.38-.51-.91-.77-1.6-.77s-1.24,.26-1.61,.77c-.37,.51-.56,1.17-.56,1.97v2.03c0,.81,.19,1.47,.56,1.98,.38,.51,.92,.77,1.62,.77s1.21-.26,1.58-.77c.37-.51,.56-1.17,.56-1.98v-2.03Z" style="fill:#040b1f;"/></g></svg>