<svg
  id="c2050"
  data-name="Layer 1"
  xmlns="http://www.w3.org/2000/svg"
  viewBox="0 0 53.77 51.41"
><defs><style>#c2050 .cls-1{fill:#007192;}</style></defs><path
    class="cls-1"
    d="M661.23,370.7a.21.21,0,0,1,.12,0l1.36.88a.22.22,0,0,1,.1.18.23.23,0,0,1-.08.18,2.77,2.77,0,0,0-.55.63,2.87,2.87,0,0,0,.85,4,2.83,2.83,0,0,0,1.56.47,2.46,2.46,0,0,0,.6-.07,2.84,2.84,0,0,0,1.81-1.24,2.89,2.89,0,0,0,.35-.76.23.23,0,0,1,.14-.15h.08l.12,0,1.63,1.06a15,15,0,0,0-.72,14l-2.42,1.23a.81.81,0,0,0,0,1.44,1.7,1.7,0,0,1,.7.73,1.75,1.75,0,1,1-3.12,1.59,1.71,1.71,0,0,1-.18-1,.82.82,0,0,0-.34-.77.86.86,0,0,0-.47-.14.84.84,0,0,0-.37.09l-2.23,1.13a.19.19,0,0,1-.1,0H660a.22.22,0,0,1-.13-.12,24.67,24.67,0,0,1,1.2-23.28.26.26,0,0,1,.14-.11h.05m0-1a1.23,1.23,0,0,0-1.05.59,25.66,25.66,0,0,0-1.25,24.23,1.23,1.23,0,0,0,.71.63,1.12,1.12,0,0,0,.4.07,1.25,1.25,0,0,0,.56-.14l1.94-1a2.7,2.7,0,0,0,.3,1.24,2.75,2.75,0,0,0,2.46,1.5,2.8,2.8,0,0,0,1.24-.3,2.75,2.75,0,0,0,1.2-3.7,2.57,2.57,0,0,0-.82-1l2.14-1.09.45-1.31a14,14,0,0,1,.67-13l-.31-1.36L668.23,374a1.3,1.3,0,0,0-.66-.19,1.06,1.06,0,0,0-.43.08,1.22,1.22,0,0,0-.75.8A1.9,1.9,0,0,1,665,376a1.74,1.74,0,0,1-.39.05,2,2,0,0,1-1-.3,1.89,1.89,0,0,1-.55-2.6,2,2,0,0,1,.36-.41,1.24,1.24,0,0,0,.43-1,1.27,1.27,0,0,0-.56-1l-1.35-.87a1.22,1.22,0,0,0-.67-.2"
    transform="translate(-656.48 -357.87)"
  /><path
    class="cls-1"
    d="M669.11,390.88a15,15,0,0,0,11.74,7.61l-.14,2.68a.83.83,0,0,0,.4.74.79.79,0,0,0,.42.12.75.75,0,0,0,.41-.12,1.76,1.76,0,0,1,.89-.25h.1a1.75,1.75,0,0,1-.09,3.5h-.09a1.76,1.76,0,0,1-1-.35.8.8,0,0,0-.83-.08.81.81,0,0,0-.47.69l-.13,2.55a.21.21,0,0,1-.08.16.24.24,0,0,1-.14.05h0a24.66,24.66,0,0,1-19.56-12.69.2.2,0,0,1,0-.17.26.26,0,0,1,.11-.14l1.49-.76.1,0,.1,0a.2.2,0,0,1,.12.16,2.74,2.74,0,0,0,.27.79,2.87,2.87,0,1,0,5.12-2.61,3,3,0,0,0-.48-.68.22.22,0,0,1-.06-.19.26.26,0,0,1,.12-.17Zm-.45-.89-1.68.85a1.25,1.25,0,0,0-.66.89,1.24,1.24,0,0,0,.33,1,1.94,1.94,0,0,1,.31.44,1.89,1.89,0,0,1-.82,2.53,1.89,1.89,0,0,1-2.52-.82,1.87,1.87,0,0,1-.17-.52,1.23,1.23,0,0,0-.66-.87,1.23,1.23,0,0,0-1.1,0l-1.49.76a1.22,1.22,0,0,0-.52,1.68A25.66,25.66,0,0,0,680,409.19h.11a1.22,1.22,0,0,0,1.22-1.16l.11-2.22a2.73,2.73,0,0,0,1.22.35h.15a2.75,2.75,0,0,0,.14-5.5h-.15a2.59,2.59,0,0,0-1.1.24l.12-2.36-.91-1a14,14,0,0,1-11-7.11Z"
    transform="translate(-656.48 -357.87)"
  /><path
    class="cls-1"
    d="M682.17,358.87h.5a.2.2,0,0,1,.16.07.23.23,0,0,1,.06.16l-.09,1.72a.21.21,0,0,1-.1.17.19.19,0,0,1-.12,0h-.08a2.78,2.78,0,0,0-.82-.17h-.15a2.87,2.87,0,0,0-.14,5.74h.14a3.17,3.17,0,0,0,.69-.08h0a.24.24,0,0,1,.14.05.21.21,0,0,1,.08.19l-.09,1.84h-.23a14.8,14.8,0,0,0-6.79,1.64,15,15,0,0,0-5.45,4.72l-2.33-1.51a.78.78,0,0,0-.44-.13.81.81,0,0,0-.82.82,1.73,1.73,0,0,1-1.38,1.73,1.61,1.61,0,0,1-.37,0,1.68,1.68,0,0,1-1-.28,1.76,1.76,0,0,1-.52-2.42,1.73,1.73,0,0,1,.77-.65.82.82,0,0,0,.13-1.44L662,369.79a.19.19,0,0,1-.09-.14.2.2,0,0,1,0-.17,24.78,24.78,0,0,1,20.27-10.61m0-1a25.43,25.43,0,0,0-11.67,2.82,25.74,25.74,0,0,0-9.42,8.22,1.21,1.21,0,0,0-.2.93,1.26,1.26,0,0,0,.54.79l1.78,1.16a2.73,2.73,0,0,0-.92.87,2.77,2.77,0,0,0-.38,2.08,2.73,2.73,0,0,0,1.19,1.73,2.76,2.76,0,0,0,1.5.44,2.93,2.93,0,0,0,.58-.06,2.76,2.76,0,0,0,2.16-2.39l2.06,1.34,1.36-.26a14,14,0,0,1,5.08-4.41,13.79,13.79,0,0,1,6.34-1.53h.21l1-1,.09-1.84a1.22,1.22,0,0,0-1.22-1.29.92.92,0,0,0-.29,0,2.3,2.3,0,0,1-.45.05h-.09a1.88,1.88,0,0,1-1.78-2,1.88,1.88,0,0,1,1.87-1.78h.1a2.08,2.08,0,0,1,.54.11,1.14,1.14,0,0,0,.41.07,1.19,1.19,0,0,0,.68-.21,1.22,1.22,0,0,0,.54-.95l.09-1.71a1.23,1.23,0,0,0-1.2-1.29h-.52"
    transform="translate(-656.48 -357.87)"
  /><path
    class="cls-1"
    d="M684.24,359h0a24.68,24.68,0,0,1,19.56,12.69.2.2,0,0,1,0,.17.26.26,0,0,1-.11.14l-1.19.6s-3.24,1.77-6.55,3.34l-.72.37a15,15,0,0,0-11.74-7.61l.14-2.68a.85.85,0,0,0-.39-.74,1,1,0,0,0-.43-.11.74.74,0,0,0-.41.11,1.76,1.76,0,0,1-.89.25h-.1a1.75,1.75,0,0,1,.09-3.5h.1a1.67,1.67,0,0,1,1,.34.84.84,0,0,0,.49.16.83.83,0,0,0,.81-.77l.13-2.55a.19.19,0,0,1,.08-.15.2.2,0,0,1,.15-.06m0-1a1.22,1.22,0,0,0-1.23,1.16l-.11,2.22a2.73,2.73,0,0,0-1.22-.35h-.15a2.75,2.75,0,0,0-.14,5.5h.15a2.59,2.59,0,0,0,1.1-.24l-.12,2.36.91,1.05a13.93,13.93,0,0,1,11,7.1l1.33.4.73-.37c3.26-1.55,6.53-3.33,6.57-3.35l1.16-.59a1.22,1.22,0,0,0,.52-1.68A25.66,25.66,0,0,0,684.34,358Z"
    transform="translate(-656.48 -357.87)"
  /><path
    class="cls-1"
    d="M694.43,392.19l8.05,5.25a.14.14,0,0,1,0,.06.23.23,0,0,1,0,.18,24.73,24.73,0,0,1-20.26,10.6h-.51a.2.2,0,0,1-.16-.07.23.23,0,0,1-.06-.16l.09-1.72a.21.21,0,0,1,.1-.17.19.19,0,0,1,.12,0h.08a2.85,2.85,0,0,0,.82.17h.15a2.87,2.87,0,0,0,2.87-2.72,2.87,2.87,0,0,0-2.72-3h-.16a3.16,3.16,0,0,0-.68.08h0a.24.24,0,0,1-.14-.05.2.2,0,0,1-.08-.19l.09-1.84h.23a15,15,0,0,0,12.23-6.36m.55-.83-1.36.26a14,14,0,0,1-5.08,4.4,13.76,13.76,0,0,1-6.34,1.53H682l-1,.95-.09,1.84a1.22,1.22,0,0,0,.44,1,1.24,1.24,0,0,0,.78.28,1.36,1.36,0,0,0,.29,0,1.67,1.67,0,0,1,.44-.06h.1a1.86,1.86,0,0,1,1.3.61,1.94,1.94,0,0,1,.48,1.35,1.87,1.87,0,0,1-1.87,1.78h-.1a1.93,1.93,0,0,1-.53-.11,1.48,1.48,0,0,0-.42-.07,1.23,1.23,0,0,0-1.22,1.16l-.09,1.72a1.3,1.3,0,0,0,.33.9,1.23,1.23,0,0,0,.87.38h.53a25.51,25.51,0,0,0,11.66-2.81,25.93,25.93,0,0,0,9.42-8.22,1.25,1.25,0,0,0,.2-.94,1.5,1.5,0,0,0-.15-.38l-.32-.33Z"
    transform="translate(-656.48 -357.87)"
  /><path
    class="cls-1"
    d="M681.56,390h-7.41v-1.61l3.28-3.61a7.41,7.41,0,0,0,1-1.33,2.31,2.31,0,0,0,.3-1,1.66,1.66,0,0,0-.27-1,1.08,1.08,0,0,0-.9-.36,1.05,1.05,0,0,0-.9.47,2.15,2.15,0,0,0-.31,1.21h-2.43l0,0a3.34,3.34,0,0,1,1-2.51,3.57,3.57,0,0,1,2.68-1,3.89,3.89,0,0,1,2.71.86,3,3,0,0,1,1,2.37,3.14,3.14,0,0,1-.53,1.79,22.45,22.45,0,0,1-1.93,2.3l-1.3,1.56v0h4.12Z"
    transform="translate(-656.48 -357.87)"
  /><path
    class="cls-1"
    d="M691.52,385.58a4.45,4.45,0,0,1-1.25,3.25A4.35,4.35,0,0,1,687,390.1a4.34,4.34,0,0,1-4.55-4.52v-1.92a4.47,4.47,0,0,1,1.25-3.25,4.83,4.83,0,0,1,6.55,0,4.44,4.44,0,0,1,1.26,3.25Zm-2.47-1.94a3,3,0,0,0-.54-1.87A1.76,1.76,0,0,0,687,381a1.78,1.78,0,0,0-1.53.73,3.14,3.14,0,0,0-.53,1.88v1.94a3.11,3.11,0,0,0,.54,1.89,1.79,1.79,0,0,0,1.54.73,1.76,1.76,0,0,0,1.51-.73,3.18,3.18,0,0,0,.53-1.89Z"
    transform="translate(-656.48 -357.87)"
  /><path
    class="cls-1"
    d="M692.83,385.26l.62-6h6.25v1.92h-4.25l-.27,2.22a2.39,2.39,0,0,1,.77-.34,4,4,0,0,1,1-.15,2.74,2.74,0,0,1,2.29.91,4,4,0,0,1,.81,2.67,3.75,3.75,0,0,1-.9,2.57,3.54,3.54,0,0,1-2.81,1,4.4,4.4,0,0,1-2.65-.8,2.37,2.37,0,0,1-1.08-2.12v0l2.42-.15a1.14,1.14,0,0,0,.36.89,1.35,1.35,0,0,0,.94.32,1.05,1.05,0,0,0,1-.42,2.32,2.32,0,0,0,.27-1.25,2.62,2.62,0,0,0-.32-1.39,1.09,1.09,0,0,0-1-.5,1.38,1.38,0,0,0-.8.21,1.11,1.11,0,0,0-.42.54Z"
    transform="translate(-656.48 -357.87)"
  /><path
    class="cls-1"
    d="M710.25,385.58a4.49,4.49,0,0,1-1.25,3.25,4.35,4.35,0,0,1-3.26,1.27,4.41,4.41,0,0,1-3.29-1.27,4.46,4.46,0,0,1-1.26-3.25v-1.92a4.43,4.43,0,0,1,1.25-3.25,4.83,4.83,0,0,1,6.55,0,4.44,4.44,0,0,1,1.26,3.25Zm-2.47-1.94a3,3,0,0,0-.54-1.87,1.95,1.95,0,0,0-3,0,3.08,3.08,0,0,0-.53,1.88v1.94a3.18,3.18,0,0,0,.53,1.89,1.81,1.81,0,0,0,1.55.73,1.76,1.76,0,0,0,1.51-.73,3.18,3.18,0,0,0,.53-1.89Z"
    transform="translate(-656.48 -357.87)"
  /></svg>
