<?xml version="1.0" encoding="utf-8"?>
<!-- Generator: Adobe Illustrator 26.2.1, SVG Export Plug-In . SVG Version: 6.00 Build 0)  -->
<svg version="1.1" id="conn" xmlns="http://www.w3.org/2000/svg" xmlns:xlink="http://www.w3.org/1999/xlink" x="0px" y="0px"
	 viewBox="0 0 242.59 232" style="enable-background:new 0 0 242.59 232;" xml:space="preserve">
<style type="text/css">
	#conn .st0{fill:none;stroke:#040B1F;stroke-width:6;stroke-linecap:round;stroke-linejoin:round;stroke-miterlimit:10;}
	#conn .st1{fill:#040B1F;}
</style>
<path class="st0" d="M20.59,53c-20.21,33.61-23.18,74.84-8,111h1l13-5h1c1,1,2,3,1,4l1,4c1.55,4.14,6.16,6.23,10.3,4.68
	c4.14-1.55,6.23-6.16,4.68-10.3c-0.72-1.91-2.14-3.48-3.98-4.38c-1.93-1.07-2.63-3.5-1.56-5.44c0.36-0.66,0.91-1.2,1.56-1.56l12-5
	c-10-22-7-50,5-68"/>
<path class="st0" d="M11.59,164l4,6c18.36,33.22,52.16,55.01,90,58l0,0l1-12c0.25-2.2,2.23-3.77,4.42-3.53
	c0.56,0.06,1.09,0.24,1.58,0.53l4,2c4.4,0.44,8.32-2.76,8.76-7.16s-2.76-8.32-7.16-8.76c-1.59-0.16-3.19,0.16-4.6,0.92
	c-1.9,1.13-4.35,0.5-5.48-1.4c-0.46-0.78-0.65-1.7-0.52-2.6l1-12c-22-2-44-16-55-37 M122.59,3c-18,0-42,3-60,12
	c-16.52,8.75-30.6,21.47-41,37v1l10,6c1.42,1.69,1.2,4.21-0.49,5.64c-0.16,0.13-0.33,0.26-0.51,0.36l-4,3
	c-2.14,3.87-0.74,8.73,3.13,10.87c3.87,2.14,8.73,0.74,10.87-3.13c0.63-1.15,0.98-2.43,1-3.74c0.25-2.2,2.23-3.77,4.42-3.53
	c0.56,0.06,1.09,0.24,1.58,0.53l11,7c13.57-19.48,36.31-30.47,60-29"/>
<path class="st0" d="M213.59,61c-18.55-33.5-52.8-55.34-91-58v13c-0.73,2.08-3.01,3.18-5.1,2.45c-0.32-0.11-0.62-0.26-0.9-0.45l-5-1
	c-4.42,0.07-7.94,3.71-7.87,8.13c0.07,4.42,3.71,7.94,8.13,7.87c1.31-0.02,2.6-0.36,3.74-1c1.91-1.12,4.36-0.48,5.47,1.42
	c0.28,0.48,0.46,1.02,0.53,1.58l-1,12c22,2,42,15,54,35l3-1l30-16l0,0l5-3h1V61z M107.59,229c18,0,41-4,58-12
	c16.88-8.62,31.32-21.34,42-37v-1l-37-24c-13.62,19.96-36.93,31.04-61,29"/>
<path class="st1" d="M109.59,145h-30l-2-2v-6l15-16l4-6l2-5l-1-4l-5-2l-4,2l-1,4l-2,2h-9c0-5,1-9,4-12s7-5,12-5c6,0,10,2,13,4
	c3,3,4,7,4,11l-2,8l-9,11l-6,7h17l2,2v5L109.59,145z M157.59,125c0.57,11.03-7.92,20.43-18.95,21c-0.68,0.04-1.37,0.04-2.05,0
	c-11.03,0.57-20.43-7.92-21-18.95c-0.04-0.68-0.04-1.37,0-2.05v-9c-0.57-11.03,7.92-20.43,18.95-21c0.68-0.04,1.37-0.04,2.05,0
	c11.03-0.57,20.43,7.92,21,18.95c0.04,0.68,0.04,1.37,0,2.05V125z M145.59,116l-2-9c-2-2-4-3-7-3s-6,1-7,3c-2,3-3,5-3,9v9l3,9
	c1,2,4,3,7,3s5-1,7-3l2-9V116z M163.59,122l2-25l2-1h25l2,2v5l-2,2h-16l-2,1v6l2,2c1.61-0.56,3.3-0.89,5-1c5,0,8,1,11,4
	c2,3,4,7,4,12s-2,9-4,12c-3,3-8,5-13,5s-9-2-13-4c-3-2-5-6-4-10l9-1l2,2l1,2l5,2l4-2l1-6l-1-6c-1-2-3-2-5-2l-3,1l-2,1l-1,1h-8
	L163.59,122z M242.59,125c0,6-2,11-5,15c-4,4-9,6-15,6c-7,0-12-2-15-6c-4-4-6-9-6-15v-9c0-6,2-11,6-15c3-4,8-6,15-6c6,0,11,2,15,6
	s5,9,5,15V125z M231.59,116l-2-9c-2-2-4-3-7-3s-6,1-7,3c-2,3-3,5-3,9v9l3,9c1,2,4,3,7,3s5-1,7-3l2-9V116z"/>
</svg>
