<svg id="Layer_1" data-name="Layer 1" xmlns="http://www.w3.org/2000/svg" viewBox="0 0 178.02 58.74" style="fill:#0078ae;"><defs><style>.cls-1{opacity:.5}</style></defs><path class="cls-1" d="M23.7,13.23A16.88,16.88,0,0,0,7.25,42.53ZM2.42,34.81l1.42-.9a22.33,22.33,0,0,0,9.43-12.55,28.69,28.69,0,0,0,.91-7.5v-1l.07.06s.4.55.29.4a10.61,10.61,0,0,1,.58.9,5.68,5.68,0,0,1,.45.93,8.65,8.65,0,0,1,.35,1,14.9,14.9,0,0,1-2.46,13.6,14.88,14.88,0,0,1-3,2.78,14.51,14.51,0,0,1-5.95,2.24A6.21,6.21,0,0,1,2.42,34.81Z"/><path class="cls-1" d="M26.38,14.72,9.9,44.05A16.88,16.88,0,0,0,26.38,14.72Zm-5.9,21a30.16,30.16,0,0,0-1.22,7.84c0,.35,0,.69,0,1l-.07-.07a4.6,4.6,0,0,1-.28-.43,10.65,10.65,0,0,1-.58-1,8.85,8.85,0,0,1-.43-1c-.12-.34-.23-.68-.32-1-1.27-4.74-.24-10.51,3.07-14.19a14.45,14.45,0,0,1,9.49-5,6.76,6.76,0,0,1,2.13,0l-1.5.9A23.46,23.46,0,0,0,20.48,35.76Z"/><path class="cls-2" d="M67.66,42.31H60.25V39.5h-.09c-.66,1.07-2.54,3.65-7.79,3.65-7.88,0-13-6.09-13-13.93,0-8.81,6.28-13.83,12.89-13.83a10,10,0,0,1,7.65,3.09V0h7.78Zm-14-6.43a6.48,6.48,0,0,0,6.66-6.7,6.59,6.59,0,0,0-13.18,0A6.38,6.38,0,0,0,53.64,35.88Z"/><path class="cls-2" d="M88.06,42.31H80.61l-9.33-26h8.06l5,16.23h.1l5-16.23h8.06Z"/><path class="cls-2" d="M101,16.28h7.32v2.77h.09c.66-1.27,2-3.66,6.52-3.66v7.83c-3.61.1-6.14.84-6.14,4.79v14.3H101Z"/><path class="cls-2" d="M119,16.28h7.32v2.86h.14a9.88,9.88,0,0,1,8.11-3.75c9.24,0,12.71,8.11,12.71,14.16,0,7.51-5.26,13.65-12.66,13.65A10,10,0,0,1,126.8,40V58.74H119Zm20.49,13A6.52,6.52,0,1,0,133,35.93,6.51,6.51,0,0,0,139.51,29.32Z"/><path class="cls-2" d="M178,32.41a14,14,0,0,1-27.58-3.19A13.93,13.93,0,0,1,178,26.32h-7.88a5.82,5.82,0,0,0-5.63-3.66c-3.7-.19-6.19,2.86-6.19,6.61s2.49,6.61,6.19,6.61a6,6,0,0,0,5.63-3.47Z"/></svg>