<?xml version="1.0" encoding="UTF-8"?>
<svg xmlns="http://www.w3.org/2000/svg" version="1.1" viewBox="0 0 175 72">
  <g>
    <g id="Layer_1">
      <g>
        <g>
          <path style="fill:#67abd0" d="M23.29,13c-2.05-.91-4.32-1.41-6.7-1.41C7.43,11.58,0,19.01,0,28.17c0,5.64,2.82,10.62,7.12,13.61L23.29,13ZM2.38,34.19s1.37-.88,1.39-.89c4.4-3.01,7.85-7.08,9.26-12.32.65-2.4.9-4.88.9-7.37v-.96s.05.05.06.06c.04.04.39.54.29.4.21.28.39.58.57.88.18.3.32.6.44.91.13.32.24.63.34.96,1.36,4.39.59,9.8-2.42,13.36-.84.98-1.89,2.02-2.99,2.73-1.76,1.13-3.75,1.94-5.84,2.2-.69.1-1.51.16-2.01.04Z"/>
          <path style="fill:#67abd0" d="M25.92,14.46l-16.19,28.81c2.09.95,4.41,1.49,6.86,1.49,9.17,0,16.59-7.43,16.59-16.59,0-5.7-2.88-10.73-7.26-13.71ZM20.12,35.12c-.76,2.5-1.11,5.11-1.2,7.71-.01.34-.03.67-.04,1.01,0,0-.06-.05-.07-.06-.04-.05-.39-.58-.28-.43-.21-.3-.39-.62-.56-.94-.16-.32-.31-.64-.42-.98-.12-.33-.22-.67-.31-1.02-1.24-4.66-.24-10.33,3.01-13.94.9-1.01,2.04-2.06,3.2-2.76,1.87-1.13,3.96-1.9,6.13-2.11.71-.07,1.58-.11,2.09.04,0,0-1.45.87-1.47.88-4.68,2.99-8.4,7.14-10.07,12.6Z"/>
        </g>
        <g>
          <path style="fill:#0078ae" d="M66.46,41.56h-7.28v-2.76h-.09c-.64,1.06-2.49,3.59-7.65,3.59-7.74,0-12.81-5.99-12.81-13.68,0-8.66,6.17-13.59,12.67-13.59,4.52,0,6.68,2.21,7.51,3.04V0h7.65v41.56ZM52.69,35.25c4.79,0,6.54-3.92,6.54-6.59,0-3.09-2.21-6.4-6.45-6.4s-6.5,3.46-6.5,6.4c0,3.96,2.81,6.59,6.4,6.59Z"/>
          <path style="fill:#0078ae" d="M86.51,41.56h-7.32l-9.17-25.57h7.92l4.89,15.94h.09l4.88-15.94h7.92l-9.21,25.57Z"/>
          <path style="fill:#0078ae" d="M99.22,15.99h7.19v2.72h.09c.65-1.24,1.98-3.59,6.4-3.59v7.69c-3.55.09-6.03.83-6.03,4.7v14.05h-7.65V15.99Z"/>
          <path style="fill:#0078ae" d="M116.92,15.99h7.19v2.81h.14c1.52-1.93,4.05-3.69,7.97-3.69,9.07,0,12.48,7.97,12.48,13.91,0,7.37-5.16,13.41-12.44,13.41-4.61,0-6.77-2.21-7.69-3.18v18.44h-7.65V15.99ZM137.05,28.8c0-3.04-2.21-6.54-6.4-6.54s-6.4,3.5-6.4,6.54c0,3.22,2.39,6.49,6.4,6.49s6.4-3.27,6.4-6.49Z"/>
          <path style="fill:#0078ae" d="M174.87,31.84c-1.38,5.81-6.5,10.55-13.41,10.55-7.74,0-13.68-6.08-13.68-13.68s5.85-13.59,13.5-13.59c6.77,0,12.26,4.47,13.54,10.73h-7.74c-.83-1.75-2.35-3.59-5.53-3.59-3.64-.18-6.08,2.81-6.08,6.5s2.44,6.5,6.08,6.5c3.18,0,4.7-1.84,5.53-3.41h7.79Z"/>
        </g>
        <g>
          <path style="fill:#67abd0" d="M70.51.31h2.84c2.03,0,3.09,1.87,3.09,4.23,0,2.69-1.38,4.23-3.48,4.23h-2.44V.31ZM71.96,7.49h1.09c1.14,0,1.94-.91,1.94-2.95s-.82-2.94-1.94-2.94h-1.09v5.89Z"/>
          <path style="fill:#67abd0" d="M78.71,8.77V.31h4.35v1.29h-2.9v2.13h2.94v1.29h-2.94v2.48h2.97v1.29h-4.42Z"/>
          <path style="fill:#67abd0" d="M85.61,8.77V.31h1.45v7.18h2.69v1.29h-4.14Z"/>
          <path style="fill:#67abd0" d="M93.68.31h1.27l2.63,8.46h-1.49l-.7-2.24h-2.13l-.69,2.24h-1.5l2.6-8.46ZM94.31,2.51h-.02l-.73,2.73h1.49l-.74-2.73Z"/>
          <path style="fill:#67abd0" d="M103.71.31l1.41,6.2h.02l1.25-6.2h1.51l-2.12,8.46h-1.33l-1.37-6.12h-.02l-1.39,6.12h-1.33l-2.12-8.46h1.5l1.29,6.2h.02l1.36-6.2h1.32Z"/>
          <path style="fill:#67abd0" d="M111.38.31h1.27l2.63,8.46h-1.48l-.7-2.24h-2.13l-.69,2.24h-1.5l2.6-8.46ZM112.01,2.51h-.02l-.72,2.73h1.48l-.74-2.73Z"/>
          <path style="fill:#67abd0" d="M117.11,8.77V.31h2.55c1.85,0,2.63,1.33,2.63,2.68,0,1.27-.63,2.23-1.94,2.41l2.35,3.38h-1.71l-2.4-3.72h-.02v3.72h-1.46ZM118.56,4.26h.84c.89,0,1.44-.29,1.44-1.24,0-1.13-.64-1.43-1.53-1.43h-.75v2.66Z"/>
          <path style="fill:#67abd0" d="M124.66,8.77V.31h4.35v1.29h-2.9v2.13h2.95v1.29h-2.95v2.48h2.97v1.29h-4.42Z"/>
          <path style="fill:#67abd0" d="M140.03.31h1.46l-2.47,8.46h-1.34l-2.48-8.46h1.51l1.63,6.17h.02l1.67-6.17Z"/>
          <path style="fill:#67abd0" d="M144.81.31h1.27l2.63,8.46h-1.48l-.7-2.24h-2.13l-.69,2.24h-1.5l2.6-8.46ZM145.44,2.51h-.03l-.72,2.73h1.49l-.74-2.73Z"/>
          <path style="fill:#67abd0" d="M150.54,8.77V.31h1.45v7.18h2.69v1.29h-4.14Z"/>
          <path style="fill:#67abd0" d="M156.78,8.77V.31h1.45v7.18h2.69v1.29h-4.14Z"/>
          <path style="fill:#67abd0" d="M163.03,8.77V.31h4.35v1.29h-2.9v2.13h2.95v1.29h-2.95v2.48h2.97v1.29h-4.42Z"/>
          <path style="fill:#67abd0" d="M171.34,5.36l-2.19-5.05h1.54l1.38,3.53,1.38-3.53h1.54l-2.21,5.05v3.41h-1.45v-3.41Z"/>
        </g>
        <g>
          <path style="fill:#67abd0" d="M40.85,70.56v-8.72h2.29c2.17,0,3.12,1.18,3.12,2.76s-1,2.71-2.68,2.71h-1.23v3.25h-1.49ZM42.34,65.99h1.08c.96,0,1.34-.64,1.34-1.42s-.38-1.4-1.34-1.4h-1.08v2.82Z"/>
          <path style="fill:#67abd0" d="M48.28,70.56v-8.72h1.49v7.39h2.77v1.32h-4.26Z"/>
          <path style="fill:#67abd0" d="M56.32,61.85h1.31l2.71,8.72h-1.53l-.72-2.31h-2.19l-.71,2.31h-1.54l2.67-8.72ZM56.97,64.11h-.02l-.75,2.82h1.53l-.76-2.82Z"/>
          <path style="fill:#67abd0" d="M61.98,70.56v-8.72h1.59l2.76,5.65h.03v-5.65h1.32v8.72h-1.3l-3.05-6.12h-.02v6.12h-1.32Z"/>
          <path style="fill:#67abd0" d="M70.14,70.56v-8.72h1.59l2.76,5.65h.02v-5.65h1.32v8.72h-1.3l-3.05-6.12h-.02v6.12h-1.32Z"/>
          <path style="fill:#67abd0" d="M78.4,70.56v-8.72h1.49v8.72h-1.49Z"/>
          <path style="fill:#67abd0" d="M82.46,70.56v-8.72h1.59l2.76,5.65h.02v-5.65h1.32v8.72h-1.3l-3.05-6.12h-.02v6.12h-1.32Z"/>
          <path style="fill:#67abd0" d="M95.02,64.77c-.22-1.24-.75-1.74-1.52-1.74-1.08,0-1.77.92-1.77,3.18s.69,3.18,1.86,3.18c1.06,0,1.51-.82,1.51-2.11h-2.16v-1.32h3.65v1.14c0,2.17-.95,3.61-3.02,3.61s-3.33-1.42-3.33-4.5c0-2.75,1.22-4.5,3.33-4.5,1.81,0,2.87,1.36,2.94,3.07h-1.49Z"/>
          <path style="fill:#67abd0" d="M107.34,65.2c-.07-1.52-.53-2.17-1.49-2.17s-1.79.87-1.79,3.18.73,3.18,1.7,3.18,1.37-.46,1.59-2.06h1.49c-.08,1.94-1.05,3.38-3.03,3.38s-3.24-1.25-3.24-4.5c0-2.91,1.46-4.5,3.24-4.5,2.09,0,3.05,1.66,3.03,3.49h-1.49Z"/>
          <path style="fill:#67abd0" d="M117.18,66.21c0,2.79-1.32,4.5-3.23,4.5s-3.23-1.71-3.23-4.5,1.32-4.5,3.23-4.5,3.23,1.71,3.23,4.5ZM113.96,63.03c-.93,0-1.73.94-1.73,3.18s.81,3.18,1.73,3.18,1.73-.94,1.73-3.18-.81-3.18-1.73-3.18Z"/>
          <path style="fill:#67abd0" d="M119.25,61.85h2.09l1.43,6.33h.02l1.46-6.33h2.09v8.72h-1.4v-7.01h-.02l-1.66,7.01h-.94l-1.66-7.01h-.02v7.01h-1.4v-8.72Z"/>
          <path style="fill:#67abd0" d="M128.75,61.85h2.09l1.43,6.33h.02l1.46-6.33h2.09v8.72h-1.4v-7.01h-.02l-1.66,7.01h-.94l-1.66-7.01h-.02v7.01h-1.4v-8.72Z"/>
          <path style="fill:#67abd0" d="M138.38,70.56v-8.72h1.49v8.72h-1.49Z"/>
          <path style="fill:#67abd0" d="M143.33,67.85c.09.81.35,1.53,1.28,1.53.7,0,1.2-.52,1.2-1.23,0-2.05-3.71-.72-3.71-4.09,0-1.43,1.08-2.36,2.48-2.36,1.6,0,2.38,1.08,2.48,2.58h-1.38c-.09-.66-.43-1.25-1.16-1.25-.66,0-1.02.48-1.02,1.12,0,1.82,3.71.59,3.71,3.91,0,1.6-1.03,2.65-2.64,2.65-1.7,0-2.62-1.23-2.64-2.85h1.4Z"/>
          <path style="fill:#67abd0" d="M150.16,67.85c.09.81.35,1.53,1.28,1.53.7,0,1.2-.52,1.2-1.23,0-2.05-3.71-.72-3.71-4.09,0-1.43,1.08-2.36,2.48-2.36,1.6,0,2.39,1.08,2.48,2.58h-1.39c-.08-.66-.43-1.25-1.16-1.25-.66,0-1.02.48-1.02,1.12,0,1.82,3.71.59,3.71,3.91,0,1.6-1.03,2.65-2.64,2.65-1.7,0-2.62-1.23-2.64-2.85h1.4Z"/>
          <path style="fill:#67abd0" d="M156.2,70.56v-8.72h1.49v8.72h-1.49Z"/>
          <path style="fill:#67abd0" d="M166.32,66.21c0,2.79-1.33,4.5-3.23,4.5s-3.23-1.71-3.23-4.5,1.32-4.5,3.23-4.5,3.23,1.71,3.23,4.5ZM163.1,63.03c-.93,0-1.73.94-1.73,3.18s.81,3.18,1.73,3.18,1.73-.94,1.73-3.18-.81-3.18-1.73-3.18Z"/>
          <path style="fill:#67abd0" d="M168.42,70.56v-8.72h1.59l2.76,5.65h.03v-5.65h1.32v8.72h-1.3l-3.05-6.12h-.02v6.12h-1.32Z"/>
        </g>
        <g>
          <path style="fill:#67abd0" d="M40.74,57.16v-8.72h2.62c1.9,0,2.71,1.37,2.71,2.76,0,1.31-.65,2.3-2,2.48l2.42,3.48h-1.76l-2.47-3.83h-.02v3.83h-1.5ZM42.23,52.52h.87c.91,0,1.48-.3,1.48-1.28,0-1.17-.66-1.47-1.58-1.47h-.77v2.75Z"/>
          <path style="fill:#67abd0" d="M49.59,57.16v-8.72h4.48v1.32h-2.99v2.19h3.03v1.32h-3.03v2.55h3.06v1.33h-4.55Z"/>
          <path style="fill:#67abd0" d="M62.2,51.37c-.22-1.24-.75-1.75-1.52-1.75-1.08,0-1.77.91-1.77,3.18s.69,3.18,1.87,3.18c1.06,0,1.5-.82,1.5-2.11h-2.15v-1.32h3.65v1.14c0,2.17-.95,3.61-3.02,3.61s-3.34-1.42-3.34-4.5c0-2.75,1.22-4.5,3.34-4.5,1.81,0,2.87,1.36,2.94,3.07h-1.49Z"/>
          <path style="fill:#67abd0" d="M67.42,57.16v-8.72h1.49v8.72h-1.49Z"/>
          <path style="fill:#67abd0" d="M78.89,52.81c0,2.79-1.32,4.5-3.23,4.5s-3.23-1.71-3.23-4.5,1.32-4.5,3.23-4.5,3.23,1.71,3.23,4.5ZM75.67,49.63c-.93,0-1.74.94-1.74,3.18s.81,3.18,1.74,3.18,1.73-.94,1.73-3.18-.81-3.18-1.73-3.18Z"/>
          <path style="fill:#67abd0" d="M82.34,57.16v-8.72h1.59l2.76,5.65h.02v-5.65h1.32v8.72h-1.3l-3.05-6.12h-.02v6.12h-1.32Z"/>
          <path style="fill:#67abd0" d="M93.69,48.45h1.31l2.71,8.72h-1.53l-.72-2.31h-2.19l-.71,2.31h-1.54l2.67-8.72ZM94.34,50.71h-.02l-.75,2.82h1.53l-.76-2.82Z"/>
          <path style="fill:#67abd0" d="M100.67,57.16v-8.72h1.49v7.39h2.77v1.33h-4.26Z"/>
        </g>
      </g>
    </g>
  </g>
</svg>