<svg id="dvrpc-mini" viewBox="0 0 178.02 71.93"><path class="cls-1" d="M23.69,13.22A16.86,16.86,0,0,0,7.24,42.49ZM2.42,34.78l1.41-.9a22.32,22.32,0,0,0,9.43-12.53,28.69,28.69,0,0,0,.91-7.5v-1l.07.07a4.51,4.51,0,0,1,.29.4,9.66,9.66,0,0,1,.58.89,5.68,5.68,0,0,1,.45.93,9.59,9.59,0,0,1,.35,1,14.92,14.92,0,0,1-2.46,13.59,14.83,14.83,0,0,1-3,2.77,14.52,14.52,0,0,1-5.94,2.24A6.21,6.21,0,0,1,2.42,34.78Z"></path><path class="cls-1" d="M26.36,14.7,9.89,44A16.87,16.87,0,0,0,26.36,14.7Zm-5.89,21a30.61,30.61,0,0,0-1.23,7.84c0,.34,0,.68,0,1l-.06-.07c0-.05-.4-.59-.29-.44a8.37,8.37,0,0,1-.57-1,8.7,8.7,0,0,1-.43-1,9.59,9.59,0,0,1-.32-1c-1.27-4.74-.24-10.51,3.07-14.18a14.47,14.47,0,0,1,3.25-2.8A15,15,0,0,1,30.08,22,6.38,6.38,0,0,1,32.2,22l-1.49.89A23.41,23.41,0,0,0,20.47,35.73Z"></path><path class="cls-2" d="M67.61,42.28h-7.4V39.46h-.1c-.65,1.08-2.53,3.66-7.77,3.66-7.88,0-13-6.09-13-13.92,0-8.81,6.27-13.82,12.88-13.82a10,10,0,0,1,7.64,3.09V0h7.78Zm-14-6.42a6.49,6.49,0,0,0,6.65-6.7,6.59,6.59,0,0,0-13.17,0A6.38,6.38,0,0,0,53.6,35.86Z"></path><path class="cls-2" d="M88,42.28H80.55l-9.32-26h8l5,16.21h.1l5-16.21h8.06Z"></path><path class="cls-2" d="M100.94,16.27h7.31V19h.09c.66-1.26,2-3.65,6.51-3.65V23.2c-3.6.1-6.13.85-6.13,4.78v14.3h-7.78Z"></path><path class="cls-2" d="M118.93,16.27h7.31v2.86h.15a9.85,9.85,0,0,1,8.1-3.75c9.23,0,12.7,8.1,12.7,14.15,0,7.5-5.25,13.64-12.65,13.64a9.94,9.94,0,0,1-7.83-3.24V58.69h-7.78Zm20.48,13a6.51,6.51,0,1,0-6.51,6.6A6.51,6.51,0,0,0,139.41,29.3Z"></path><path class="cls-2" d="M177.89,32.39a14,14,0,0,1-27.56-3.19,13.92,13.92,0,0,1,27.51-2.9H170a5.84,5.84,0,0,0-5.63-3.66c-3.7-.19-6.18,2.86-6.18,6.61s2.48,6.61,6.18,6.61A6,6,0,0,0,170,32.39Z"></path></svg>