<?xml version="1.0" encoding="UTF-8"?><svg id="a" xmlns="http://www.w3.org/2000/svg" viewBox="0 0 64 64"><path d="m39.65,29.03c-1.55-1.16-3.36-2.03-5.86-2.83-1.19-.38-2.16-.82-2.98-1.35-.49-.32-.51-.57-.52-.68-.04-.38-.03-1.07.01-1.39.04-.3.17-.67.82-.79.35-.06.74-.08,1.12-.06.82.06,1.59.39,1.75.65.12.18.22.3.3.35.01.04.02.1.03.17.16,1.33,1.15,2.23,2.53,2.29.15,0,.31,0,.46,0h.55c.82,0,1.64,0,2.46-.01.98,0,1.58-.41,1.91-.75.44-.45.67-1.06.67-1.73-.03-1.51-.39-2.3-.99-3.44-1.17-2.23-3.12-3.76-5.79-4.55,0-.52,0-1.66.01-2.15.04-1.15-.45-2.08-1.39-2.63l-.41-.24h-4.16l-.37.18c-1.02.5-1.58,1.47-1.55,2.65.01.46.01,1.56,0,2.05-4.43,1.1-7.19,4.31-7.23,8.46-.03,3.3,1.38,5.57,4.58,7.35,1.72.96,3.56,1.62,5.15,2.18.73.25,1.45.57,2.15.95.67.36,1.05,1.63.83,2.77-.08.42-.27.7-.98.84-.38.07-.79.11-1.2.09-1.46-.04-2.98-.62-3.07-1.83-.12-1.46-1.13-2.38-2.64-2.38-1.13,0-1.7,0-2.87,0h-.32c-.99,0-1.59.42-1.92.76-.45.47-.69,1.11-.67,1.81.06,1.98.57,3.61,1.57,4.97,1.23,1.69,2.99,2.86,5.39,3.58.41.12.83.22,1.23.3v1.68c0,.89.37,2.39,2.8,2.4h1.4s1,0,1,0c2.31,0,2.66-1.42,2.66-2.27v-.21c0-.51,0-1.18,0-1.79.13-.04.26-.08.39-.12,2.82-.89,4.7-2.44,5.74-4.74.6-1.33.83-2.81.69-4.54-.2-2.52-1.31-4.54-3.29-6.02Zm.78,9.73c-.79,1.75-2.27,2.94-4.52,3.65-.31.1-.64.18-.99.26l-.8.16v.82c0,.75,0,1.83,0,2.57v.21c0,.12-.02.17-.01.18-.03.02-.19.09-.66.09h-2.4c-.61,0-.76-.12-.77-.12,0,0-.04-.07-.04-.27v-3.31l-1-.2c-.53-.1-1.12-.22-1.67-.38-1.96-.58-3.38-1.51-4.34-2.84-.75-1.03-1.14-2.29-1.18-3.86,0-.16.03-.28.11-.36.09-.1.26-.15.5-.15h.32c1.17,0,1.72-.01,2.85,0,.47,0,.62.13.65.54.17,2.15,2.13,3.59,5.01,3.67.55.01,1.11-.03,1.63-.13,1.8-.35,2.39-1.51,2.57-2.42.34-1.76-.19-4.01-1.84-4.9-.79-.43-1.61-.79-2.45-1.08-1.51-.52-3.25-1.16-4.83-2.03-2.59-1.44-3.58-3-3.56-5.58.03-3.27,2.33-5.8,6.02-6.61.13-.03.25-.06.38-.08l.83-.15v-.85s0-.75,0-.75c0-.48,0-1.67,0-2.16-.01-.39.11-.62.39-.78h3.15c.2.13.36.33.35.8-.02.52-.02,1.75-.01,2.27v.72s0,.8,0,.8l.78.18c2.48.58,4.24,1.84,5.24,3.74.54,1.02.74,1.5.76,2.54,0,.13-.03.23-.1.3-.09.09-.26.14-.5.15-.81,0-1.63,0-2.45,0h-.56c-.12,0-.24,0-.36,0-.5-.02-.6-.28-.63-.53-.08-.63-.24-.92-.52-1.23-.03-.03-.07-.07-.1-.13-.67-1.04-2.2-1.5-3.31-1.57-.54-.04-1.1,0-1.61.09-1.35.25-2.27,1.17-2.45,2.48-.06.47-.07,1.32-.02,1.86.09.88.57,1.61,1.43,2.17.97.63,2.1,1.14,3.46,1.58,2.28.73,3.91,1.51,5.27,2.53,1.5,1.12,2.34,2.66,2.5,4.58.11,1.38-.06,2.55-.52,3.55Z" /><path d="m55.56,29.68c0-13.25-10.78-24.03-24.03-24.03S7.49,16.43,7.49,29.68s10.78,24.03,24.03,24.03,24.03-10.78,24.03-24.03Zm-24.03,22.03c-12.15,0-22.03-9.88-22.03-22.03S19.38,7.65,31.53,7.65s22.03,9.88,22.03,22.03-9.88,22.03-22.03,22.03Z" /><path d="m57.56,14.05l1.1.21c.54.11,1.07-.25,1.17-.79.11-.54-.25-1.07-.79-1.17l-3.5-.68c-.53-.1-1.04.23-1.16.75l-.8,3.42c-.13.54.21,1.08.75,1.2.08.02.15.03.23.03.45,0,.87-.31.97-.77l.28-1.22c3.53,5.92,4.72,12.81,3.36,19.5-.11.54.24,1.07.78,1.18.07.01.13.02.2.02.47,0,.88-.33.98-.8,1.46-7.17.19-14.54-3.57-20.89Z" /><path d="m26.74,55.12c-.3-.46-.91-.6-1.38-.31-.47.3-.6.91-.31,1.38l.68,1.07c-7.01-1.31-13.32-5.31-17.52-11.2-.32-.45-.95-.55-1.39-.23-.45.32-.55.95-.23,1.39,4.46,6.26,11.15,10.53,18.59,11.97l-.9.62c-.46.31-.57.94-.26,1.39.19.28.51.43.82.43.2,0,.39-.06.57-.18l2.93-2.02c.44-.3.57-.91.28-1.36l-1.88-2.96Z" /><path d="m57.86,43.32c-.12-.53-.63-.87-1.16-.76l-3.45.64c-.54.1-.9.62-.8,1.17.1.54.63.9,1.17.8l1.2-.22c-3.94,5.9-10.06,10.23-16.93,11.95-.54.13-.86.68-.73,1.21.11.45.52.76.97.76.08,0,.16,0,.24-.03,7.33-1.83,13.86-6.44,18.07-12.71l.25,1.12c.1.46.52.78.97.78.07,0,.15,0,.22-.02.54-.12.88-.66.76-1.19l-.78-3.47Z" /></svg>