<?xml version="1.0" encoding="utf-8"?>
<!-- Generator: Adobe Illustrator 26.0.3, SVG Export Plug-In . SVG Version: 6.00 Build 0)  -->
<svg version="1.1" id="economy" xmlns="http://www.w3.org/2000/svg" xmlns:xlink="http://www.w3.org/1999/xlink" x="0px" y="0px"
	 viewBox="0 0 231.47 204.77" style="enable-background:new 0 0 231.47 204.77;" xml:space="preserve">
<style type="text/css">
	#economy .st0{fill:none;stroke:#040B1F;stroke-width:8;stroke-miterlimit:10;}
	#economy .st1{fill:#040B1F;stroke:#040B1F;stroke-width:2;stroke-miterlimit:10;}
	#economy .st2{fill:#040B1F;}
	#economy .st3{fill:#040B1F;stroke:#040B1F;stroke-width:0.75;stroke-miterlimit:10;}
	#economy .st4{fill:none;stroke:#040B1F;stroke-width:8;stroke-linecap:round;stroke-linejoin:round;stroke-miterlimit:10;}
</style>
<g>
	<path class="st0" d="M62.68,120.48c1.82,0.54,3.68,0.91,5.49,1.27c0.2,0.04,0.39,0.08,0.59,0.12v7.8c0,2.47,0.98,4.36,5.63,4.36
		h1.87c0.84,0,1.68,0,2.51,0c1.04,0,2.08,0,3.11,0c3.2-0.01,5.2-0.88,5.2-3.96v-0.65c0-2.32,0.01-5.71,0-8.05
		c1.21-0.25,2.35-0.54,3.42-0.88c7.93-2.5,13.18-6.79,16.04-13.11c1.65-3.64,2.27-7.78,1.88-12.65c-0.55-6.92-3.6-12.49-9.05-16.56
		c-4.56-3.4-9.92-5.98-17.4-8.37c-3.97-1.27-7.26-2.77-10.06-4.57c-1.88-1.21-2.88-2.67-3.05-4.45c-0.14-1.41-0.12-3.83,0.05-5.08
		c0.38-2.77,2.19-4.58,5.1-5.11c1.35-0.25,2.82-0.32,4.26-0.23c2.81,0.19,6.54,1.33,7.91,3.47c0.78,1.22,1.24,0.94,1.49,2.94
		c0.32,2.64,2.17,4.28,4.93,4.4c0.42,0.02,0.85,0.02,1.28,0.01h0.42l1.34-0.01c2.56,0,5.11,0,7.66-0.02c1.6-0.01,2.86-0.49,3.75-1.4
		c0.56-0.57,1.21-1.58,1.19-3.16c-0.07-4.03-0.98-6.03-2.73-9.34c-3.57-6.79-9.75-11.25-18.43-13.28c0-0.76,0-1.53-0.01-2.29
		c-0.01-1.59-0.02-5.37,0.04-6.96c0.09-2.45-0.85-4.27-2.79-5.41l-0.56-0.33H72.34l-0.5,0.25c-1.46,0.72-3.19,2.24-3.11,5.4
		c0.04,1.49,0.03,5.16,0.03,6.65c0,0.78-0.01,1.57,0,2.36c-0.48,0.09-0.95,0.19-1.42,0.29c-12.95,2.85-21.06,11.92-21.18,23.66
		c-0.1,9.68,4.13,15.43,12.72,20.21c5.16,2.87,10.76,4.9,15.59,6.58c2.44,0.85,4.86,1.92,7.18,3.17c3.69,2,5.04,7.53,4.18,11.99
		c-0.54,2.82-2.36,4.49-5.54,5.1c-1.41,0.27-2.93,0.39-4.43,0.35c-6.46-0.19-12.19-3.08-12.63-8.6c-0.13-1.7-0.98-4.55-5.14-4.57
		c-3.83-0.02-5.58-0.01-9.94,0.01c-1.61,0.01-2.89,0.48-3.79,1.41c-0.58,0.6-1.26,1.67-1.21,3.39c0.17,5.54,1.57,10.06,4.3,13.81
		C50.89,115.17,55.87,118.45,62.68,120.48z"/>
	<g>
		<path class="st1" d="M76.88,152.76c41.84,0,75.88-34.04,75.88-75.88S118.72,1,76.88,1S1,35.04,1,76.88
			C1,121.53,35.04,152.76,76.88,152.76z M76.94,8.65c37.59,0,68.17,30.58,68.17,68.17c0,40.4-30.58,68.16-68.17,68.16
			c-37.59,0-68.16-27.77-68.16-68.16C8.77,39.23,39.35,8.65,76.94,8.65z"/>
		<path class="st2" d="M217.67,67.13c-1.9-1.38-3.76-2.81-5.61-4.26c-1.76,0.54-3.5,1.15-5.28,1.6c1.69,17.28-0.42,35.56-6.94,53.41
			c-16.09,44.01-54.25,72.78-94.16,75.44c-2.13,0.97-4.42,2.27-5.32,4.23c-0.5,1.1-0.42,2.29-0.04,3.45
			c0.23,0.32,0.43,0.67,0.58,1.03c0.26,0.28,0.5,0.58,0.69,0.91c0.08,0.07,0.15,0.14,0.23,0.21c1.5,0.66,3.05,1.21,4.63,1.62
			c43.78-3.33,85.5-35.02,103.16-83.33C216.23,103.34,218.74,84.83,217.67,67.13z"/>
		<path class="st3" d="M178.42,96.8c-1.75-0.14-3.5-0.2-5.25-0.42c-2.99,14.25-9.71,28.09-20.36,40.18
			c-26.26,29.8-68.7,40.45-105.9,29.83c-2.2,0.09-4.64,0.39-5.97,1.66c-0.85,0.81-1.03,1.94-0.92,3.14
			c0.17,0.42,0.29,0.86,0.35,1.31c0.03,0.07,0.07,0.13,0.1,0.19c1.3,1.12,2.68,2.13,4.13,3.04c40.91,11.32,87.38-0.52,116.2-33.23
			c10.81-12.27,17.96-26.16,21.62-40.54C181.06,100.27,179.73,98.54,178.42,96.8z"/>
	</g>
</g>
<polyline class="st4" points="163.74,101.59 177.8,93.54 188.49,106.34 "/>
<polyline class="st4" points="197.79,71.82 211.75,58.79 227.47,70.59 "/>
</svg>
