<?xml version="1.0" encoding="UTF-8"?><svg id="a" xmlns="http://www.w3.org/2000/svg" viewBox="0 0 64 64"><path d="M29.35,14.7c.01,.46,.01,2.58,0,3.03,0,.24,0,.48,0,.72-.15,.03-.29,.06-.43,.09-3.96,.87-6.44,3.64-6.47,7.23-.03,2.96,1.26,4.71,3.89,6.17,1.58,.88,3.29,1.5,4.76,2.01,.75,.26,1.48,.59,2.19,.97,1.13,.61,1.54,2.3,1.28,3.66-.17,.86-.72,1.37-1.69,1.56-.43,.08-.9,.12-1.35,.11-1.97-.06-3.73-.94-3.86-2.63-.04-.52-.3-1.39-1.57-1.4-1.17,0-1.7,0-3.04,0-.49,0-.88,.15-1.16,.43-.18,.18-.38,.51-.37,1.04,.05,1.69,.48,3.07,1.31,4.22,1.05,1.44,2.57,2.44,4.65,3.06,.55,.17,1.13,.28,1.68,.39,.06,.01,.12,.02,.18,.04v3.38" style="fill:none; stroke:#040b1f; stroke-miterlimit:10; stroke-width:1.6px;"/><path d="M34.96,48.91v-1.2c0-.71,0-1.74,0-2.46,.37-.08,.72-.17,1.04-.27,2.42-.76,4.03-2.07,4.9-4.01,.51-1.11,.69-2.38,.57-3.86-.17-2.12-1.1-3.82-2.76-5.06-1.39-1.04-3.03-1.83-5.31-2.56-1.21-.39-2.22-.84-3.07-1.4-.57-.37-.88-.82-.93-1.36-.04-.43-.04-1.17,.01-1.55,.12-.85,.67-1.4,1.56-1.56,.41-.07,.86-.1,1.3-.07,.86,.06,2,.41,2.42,1.06,.24,.37,.38,.29,.45,.9,.1,.81,.66,1.31,1.51,1.34,.13,0,.26,0,.39,0h.13s.41,0,.41,0c.78,0,1.56,0,2.34,0,.49,0,.87-.15,1.15-.43,.17-.17,.37-.48,.36-.97-.02-1.23-.3-1.84-.83-2.85-1.09-2.08-2.98-3.44-5.63-4.06,0-.23,0-.47,0-.7,0-.49,0-2.64,.01-3.13" style="fill:none; stroke:#040b1f; stroke-miterlimit:10; stroke-width:1.6px;"/><circle cx="31.53" cy="31.68" r="23.03" style="fill:none; stroke:#040b1f; stroke-miterlimit:10; stroke-width:1.6px;"/><g><path d="M18.4,56.69c-7.04-3.39-12.31-9.68-14.47-17.18" style="fill:none; stroke:#040b1f; stroke-linecap:round; stroke-miterlimit:10; stroke-width:1.6px;"/><path d="M49.07,53.19c-5.73,4.59-13.11,6.81-20.43,6.12" style="fill:none; stroke:#040b1f; stroke-linecap:round; stroke-miterlimit:10; stroke-width:1.6px;"/><path d="M58.96,24.71c1.62,6.89,.55,14.15-3.09,20.23" style="fill:none; stroke:#040b1f; stroke-linecap:round; stroke-miterlimit:10; stroke-width:1.6px;"/></g><polyline points="18.18 53.68 18.94 56.95 15.65 57.84" style="fill:none; stroke:#040b1f; stroke-linecap:round; stroke-linejoin:round; stroke-width:1.6px;"/><polyline points="56.76 26.27 58.56 23.43 61.5 25.15" style="fill:none; stroke:#040b1f; stroke-linecap:round; stroke-linejoin:round; stroke-width:1.6px;"/><polyline points="47.18 51.66 50.5 52.18 50.1 55.56" style="fill:none; stroke:#040b1f; stroke-linecap:round; stroke-linejoin:round; stroke-width:1.6px;"/><g><path d="M30.12,48.25c-8.59-.72-15.37-7.93-15.37-16.7s6.82-16.02,15.45-16.7c0-.53,0-1.06,.01-1.6-9.52,.68-17.06,8.61-17.06,18.3s7.5,17.59,16.98,18.3c-.02-.51,.05-1.02,0-1.53,0-.02,0-.05,0-.07Z" style="fill:#040b1f;"/><path d="M34.22,13.41c0,.45,0,.91-.01,1.36,0,.08,0,.17,0,.25,7.98,1.29,14.09,8.2,14.09,16.53s-6.15,15.27-14.15,16.54c0,.28-.01,.55-.03,.83,.02,.26,.03,.53,.02,.79,8.89-1.27,15.76-8.92,15.76-18.16s-6.82-16.83-15.68-18.14Z" style="fill:#040b1f;"/></g><path d="M37.77,4.55c7.67,1.51,14.35,6.27,18.33,12.98" style="fill:none; stroke:#040b1f; stroke-linecap:round; stroke-miterlimit:10; stroke-width:1.6px;"/><polyline points="39.13 7.34 37.57 4.36 40.53 2.67" style="fill:none; stroke:#040b1f; stroke-linecap:round; stroke-linejoin:round; stroke-width:1.6px;"/></svg>