<?xml version="1.0" encoding="utf-8"?>
<!-- Generator: Adobe Illustrator 26.2.1, SVG Export Plug-In . SVG Version: 6.00 Build 0)  -->
<svg version="1.1" id="econ" xmlns="http://www.w3.org/2000/svg" xmlns:xlink="http://www.w3.org/1999/xlink" x="0px" y="0px"
	 viewBox="0 0 222.8 206.78" style="enable-background:new 0 0 222.8 206.78;" xml:space="preserve">
<style type="text/css">
	#econ .st0{fill:none;stroke:#040B1F;stroke-width:7.8;stroke-miterlimit:10;}
	#econ .st1{fill:none;stroke:#040B1F;stroke-width:8;stroke-linecap:round;stroke-miterlimit:10;}
	#econ .st2{fill:none;stroke:#040B1F;stroke-width:8;stroke-linecap:round;stroke-linejoin:round;stroke-miterlimit:10;}
</style>
<path class="st0" d="M63.8,121.4l5,2h1v8c0,2,1,4,5,4h8c3,0,5-1,5-4v-9l3-1c8-2,14-6,16-13c2-3,3-8,2-12c0-7-3-13-9-17
	c-4-3-10-6-17-8l-10-5l-3-4v-5c0-3,2-5,5-6h4c3,0,7,2,8,4l2,3c0,2,2,4,5,4h10l4-1l1-4c0-4-1-6-3-9c-3-7-9-11-18-13v-9c0-3-1-5-3-6
	h-12c-2,1-3,2-3,5v9l-2,1c-13,3-21,12-21,23c0,10,4,16,13,21l15,6l8,3c3,2,5,8,4,12c-1,3-3,5-6,5l-4,1c-7,0-12-3-13-9c0-1-1-4-5-4
	h-10l-4,1l-1,3c0,6,2,11,4,14C51.8,116.4,56.8,119.4,63.8,121.4z"/>
<path class="st1" d="M57.8,175.4c0,0,91,24,119-76"/>
<path class="st1" d="M46.8,199.4c0,0,53,13,100-12c47-24,63-73,62-113"/>
<path class="st2" d="M164.8,104.4l12-7l9,11 M196.8,79.4l10-10l12,9"/>
<circle class="st1" cx="77.9" cy="77.9" r="73.9"/>
</svg>
