<?xml version="1.0" encoding="utf-8"?>
<!-- Generator: Adobe Illustrator 26.0.3, SVG Export Plug-In . SVG Version: 6.00 Build 0)  -->
<svg version="1.1" id="environment" xmlns="http://www.w3.org/2000/svg" xmlns:xlink="http://www.w3.org/1999/xlink" x="0px" y="0px"
	 viewBox="0 0 211.46 196.36" style="enable-background:new 0 0 211.46 196.36;" xml:space="preserve">
<style type="text/css">
	#environment .st0{fill:#040B1F;stroke:#040B1F;stroke-width:2;stroke-miterlimit:10;}
</style>
<path class="st0" d="M210.39,76.46c-0.25-1.64-1.25-3.06-2.74-3.89c-1.63-0.9-3.59-0.97-5.36-0.17c-4.53,2.01-9.27,3.78-14.29,5.64
	c-7.9,2.94-16.07,5.98-23.29,10.05c-17.17,9.7-28.76,23.2-33.51,39.05c-1.15,3.86-1.86,8.17-2.16,13.17
	c-0.2,3.19-0.11,6.45-0.03,9.91c0.24,9.31,0.51,19.79-4.6,33.51c-11.64,3.7-21.94,4.65-25.92,4.65c-0.05,0-0.1,0-0.15,0
	c-0.1,0-0.19,0-0.28,0.01h-0.02c-49.67-0.07-90.06-40.5-90.06-90.19c0-15.98,4.19-31.01,11.51-44.04l7.98,4.59
	c0.08,0.05,0.17,0.09,0.25,0.13c2.47,1.16,4.26,3.91,4.45,6.82c0.05,0.77,0.08,1.43,0.12,2c0.17,3.1,0.26,4.81,2.1,6.58l3.42,3.28
	c0.68,1.05,1.89,1.66,3.14,1.58l4.63-0.27l3.41,15.47c0.41,1.86,1.72,3.38,3.5,4.05l16.37,6.19c3.91,1.48,6.14,5.53,5.31,9.63
	c-0.12,0.55-0.12,0.55-0.11,3.21v2.91c0,4.83,3.05,9.2,7.58,10.88l6.67,2.46v6.41c-0.27,0.97-1.35,3.99-2.08,6.03
	c-2.25,6.29-2.53,7.21-2.53,8.19v10.23c0,0.82,0.29,1.61,0.81,2.24l15.61,18.72c0.67,0.81,1.66,1.26,2.69,1.26
	c0.21,0,0.41-0.02,0.62-0.06c1.24-0.22,2.26-1.09,2.68-2.28l3.98-11.27c0.29-0.81,0.26-1.7-0.06-2.5l-3.58-8.69l6.21-4.38
	c0.25-0.18,0.48-0.39,0.67-0.62c2.51-3.03,4.12-9.19,6.28-18.25c0.92-3.86,2.29-9.62,3.18-11.14c0.17-0.12,0.32-0.26,0.47-0.42
	l2.57-2.75c3.51-1.93,3.25-5.03,3.11-6.75c-0.04-0.46-0.08-0.93-0.08-1.42v-2.1c0-1.47,0-2.86-0.74-4.18
	c-0.63-1.13-1.62-1.89-2.93-2.27l-5.43-10.46c-2.14-4.12-6.35-6.67-10.98-6.67H95.81c-2.88,0-5.59,1.12-7.63,3.16
	c-1.08,1.08-2.74,1.27-4.04,0.47l-10.88-6.7v-6.06h4.64c0.23,0.3,0.54,0.71,0.82,1.1c0.3,0.41,0.65,0.89,1.06,1.43
	c1.16,1.54,2.99,2.37,4.92,2.23c1.92-0.14,3.62-1.24,4.51-2.9l6.16-11.1c0.32-0.57,0.47-1.22,0.44-1.87l-1.34-27.23l15.72-11.48
	c1.03-0.76,1.57-2.02,1.4-3.29l-1.33-9.94c-0.14-1.07-0.77-2.01-1.69-2.55l-5.72-3.36l7.3-3.65c33.46,4.47,62.08,27.44,73.3,59.96
	l6.62-2.28C176.56,27.32,139.63,1,98.18,1C44.59,1,1,44.6,1,98.18c0,53.59,43.6,97.18,97.18,97.18c0.09,0,0.17,0,0.26-0.01h0.01
	c0.03,0,0.05,0,0.08,0c5.01,0,15.05-1.04,26.33-4.44c0.12,0.07,0.24,0.13,0.37,0.18c0.14,0.06,0.27,0.1,0.41,0.14
	c0.37,0.17,0.78,0.27,1.21,0.29c2.32,0.14,4.58,0.21,6.77,0.21c32.25,0,50.51-14.4,54.03-17.47c4.01-3.5,7.16-7.21,9.64-11.33
	c2.63-4.37,4.57-8.98,5.92-14.09c0.41-1.54,0.78-3.16,1.08-4.83c1.38-7.44,1.49-15.04,1.4-22.14c-0.02-1.74-0.06-3.48-0.09-5.21
	c-0.27-13.13-0.52-25.54,4.42-37.23C210.42,78.48,210.56,77.45,210.39,76.46z M96.05,8.05l-2.09,1.04
	c-1.15,0.57-1.89,1.73-1.93,3.01s0.62,2.48,1.72,3.14l9.8,5.77l0.83,6.19L88.82,38.57c-0.95,0.69-1.49,1.82-1.43,3l1.38,28.12
	l-4.65,8.38c-1.51-2.04-2.8-3.61-5.54-3.61h-6.69c-3.1,0-5.62,2.52-5.62,5.62v8.21c0,1.94,1.03,3.77,2.68,4.79l11.54,7.1
	c4.07,2.51,9.27,1.9,12.66-1.48c0.72-0.72,1.67-1.11,2.68-1.11h12.97c2.02,0,3.84,1.11,4.77,2.9l5.81,11.18
	c0.16,0.31,0.35,0.6,0.56,0.87c0.4,0.78,1.09,1.4,1.94,1.7v2.02c0,0.78,0.06,1.46,0.1,2c0.01,0.09,0.01,0.18,0.02,0.27
	c-0.31,0.17-0.59,0.4-0.84,0.66l-2.68,2.86c-2.39,1.71-3.5,5.97-5.66,15.06c-1.29,5.4-3.03,12.71-4.63,15.1l-8.05,5.68
	c-1.33,0.94-1.84,2.68-1.22,4.19l4.13,10.04l-1.49,4.21L90.7,163.3v-8.63c0.27-0.99,1.38-4.08,2.12-6.17
	c2.21-6.18,2.48-7.08,2.48-8.05v-7.7c0-2.34-1.48-4.46-3.67-5.27l-7.57-2.8c-1.8-0.66-3.01-2.4-3.01-4.31v-2.92c0-1,0-1.67,0-1.95
	c1.44-7.43-2.63-14.74-9.72-17.43l-15.67-5.92l-3.5-15.9c-0.56-2.56-2.87-4.41-5.49-4.41c-0.07,0-0.14,0-0.21,0.01l-4.28,0.25
	l-2.76-2.66c-0.05-0.44-0.1-1.27-0.14-2.09c-0.03-0.59-0.07-1.27-0.12-2.06c-0.34-5.42-3.6-10.36-8.31-12.64l-7.69-4.42
	C38.98,24.54,65.68,8.75,96.05,8.05z M198.58,116.83c0.03,1.72,0.07,3.44,0.09,5.16c0.08,6.74-0.02,13.93-1.28,20.78
	c-0.27,1.48-0.6,2.93-0.97,4.3c-1.19,4.47-2.87,8.48-5.16,12.28c-2.1,3.49-4.79,6.66-8.24,9.67c-2.89,2.52-16.9,13.54-41.9,15.45
	c20.86-10.59,32.97-27.31,35.04-48.44l-6.96-0.68c-1.88,19.17-12.67,33.74-32.08,43.31c-1.43,0.7-2.86,1.36-4.29,1.97
	c3.65-12.37,3.4-22.3,3.18-30.57c-0.08-3.3-0.17-6.41,0.02-9.3c0.27-4.46,0.89-8.26,1.88-11.6c4.22-14.08,14.69-26.17,30.25-34.96
	c6.73-3.8,14.64-6.74,22.29-9.59c3.93-1.46,7.96-2.96,11.84-4.58C198.07,92.11,198.33,104.66,198.58,116.83z"/>
</svg>
