<?xml version="1.0" encoding="UTF-8"?><svg id="a" xmlns="http://www.w3.org/2000/svg" viewBox="0 0 64 64"><path d="M53.37,42.86c-.11,0-.21,0-.32,.01-.22,.04-.44,.1-.65,.18-.11,.05-.22,.12-.33,.19-3.89,8.11-12.16,13.72-21.74,13.72-13.29,0-24.11-10.81-24.11-24.11S17.04,8.74,30.33,8.74c11.71,0,21.46,8.4,23.63,19.48,.55-.17,1.12-.3,1.69-.42-2.36-11.84-12.8-20.8-25.32-20.8-14.25,0-25.84,11.59-25.84,25.84s11.59,25.84,25.84,25.84c9.91,0,18.5-5.62,22.84-13.82,0,0,0-.02,.01-.02,.15-.45,.27-.91,.39-1.38-.09-.19-.16-.4-.2-.61Z" style="fill:#040b1f;"/><path d="M31.42,57.82s6.03,.87,4.44-11.05c-1.98-14.86,25.33-20.84,25.33-20.84,0,0-4.32,6.01-2.78,11.98,1.54,5.97,4.69,18.07-26.99,19.91Z" style="fill:none; stroke:#040b1f; stroke-linecap:round; stroke-linejoin:round; stroke-width:1.6px;"/><path d="M28.11,8.19l-2.73,4.3,3.79,1.38,.38,2.75-3.66,2.34,.22,2.51,3.61,1.28-5.17,5.46s2.32,3.93,.02,3.45-5.54-1.75-5.75-.59-1.03,4.25,.49,4.42,4.1-1.33,4.1-1.33l5.44,2.71,2.4,1.03,.66,3.97-1.82,2.28-2.26,2.27s-2.74-.12-1.4,1.53-.02,2.59-.02,2.59c0,0-5.13,1.49-5.61-.25s1.37-4.21,.85-6.29-4.17-1.17-4.17-1.17l-.2-5.09-2.27-1.76-.06-4.44-2.35-1.24-2.33-2.4-.66-4.52,2.63-.49-.28-2.03-3.12-.81" style="fill:none; stroke:#040b1f; stroke-linecap:round; stroke-linejoin:round; stroke-width:1.6px;"/><path d="M38.63,37.69s-3.02-3.7,.84-5.89c3.86-2.2,4.37-1.32,4.37-1.32,0,0,2.34-.36,3.53-.55s3.17-1.78,3.17-1.78l-.29-.93,.34-3.04-4.22,1.78-.97,1.03-3.16,.31-2.03-1.54-.81-3.19-1.94-1.53,.89-2.04s-1.79-2.79-2.38-2.46-1.19-1.82-1.19-1.82l1.19-3.05,4.06,3.05h4.42l1.87-.92" style="fill:none; stroke:#040b1f; stroke-linecap:round; stroke-linejoin:round; stroke-width:1.6px;"/></svg>