<?xml version="1.0" encoding="UTF-8"?><svg id="a" xmlns="http://www.w3.org/2000/svg" viewBox="0 0 64 64"><path d="m61.33,25.52c-.07-.45-.34-.84-.75-1.06-.45-.25-.98-.26-1.47-.05-1.24.55-2.53,1.03-3.91,1.54-2.16.8-4.39,1.64-6.37,2.75-4.69,2.65-7.86,6.34-9.16,10.68-.32,1.06-.51,2.23-.59,3.6-.05.87-.03,1.76,0,2.71.07,2.55.14,5.41-1.26,9.16-3.18,1.01-6,1.27-7.09,1.27-.01,0-.03,0-.04,0-.03,0-.05,0-.08,0h0c-13.58-.02-24.62-11.07-24.62-24.66,0-4.37,1.14-8.48,3.15-12.04l2.18,1.25s.05.02.07.04c.68.32,1.16,1.07,1.22,1.87.01.21.02.39.03.55.05.85.07,1.32.58,1.8l.93.9c.19.29.52.45.86.43l1.27-.07.93,4.23c.11.51.47.92.96,1.11l4.48,1.69c1.07.4,1.68,1.51,1.45,2.63q-.03.15-.03.88v.8c0,1.32.83,2.52,2.07,2.97l1.82.67v1.75c-.07.27-.37,1.09-.57,1.65-.61,1.72-.69,1.97-.69,2.24v2.8c0,.22.08.44.22.61l4.27,5.12c.18.22.45.34.73.34.06,0,.11,0,.17-.02.34-.06.62-.3.73-.62l1.09-3.08c.08-.22.07-.46-.02-.68l-.98-2.38,1.7-1.2c.07-.05.13-.11.18-.17.69-.83,1.13-2.51,1.72-4.99.25-1.06.63-2.63.87-3.05.05-.03.09-.07.13-.11l.7-.75c.96-.53.89-1.38.85-1.84-.01-.12-.02-.25-.02-.39v-.57c0-.4,0-.78-.2-1.14-.17-.31-.44-.52-.8-.62l-1.48-2.86c-.58-1.13-1.73-1.82-3-1.82h-3.55c-.79,0-1.53.31-2.09.86-.29.29-.75.35-1.1.13l-2.98-1.83v-1.66h1.27c.06.08.15.2.22.3.08.11.18.24.29.39.32.42.82.65,1.34.61.53-.04.99-.34,1.23-.79l1.68-3.03c.09-.16.13-.33.12-.51l-.37-7.44,4.3-3.14c.28-.21.43-.55.38-.9l-.36-2.72c-.04-.29-.21-.55-.46-.7l-1.56-.92,2-1c9.15,1.22,16.97,7.5,20.04,16.39l1.81-.62c-3.69-10.71-13.79-17.9-25.12-17.9-14.65,0-26.57,11.92-26.57,26.57s11.92,26.57,26.57,26.57c.02,0,.05,0,.07,0h0s.01,0,.02,0c1.37,0,4.11-.29,7.2-1.21.03.02.07.03.1.05.04.02.07.03.11.04.1.05.21.07.33.08.63.04,1.25.06,1.85.06,8.82,0,13.81-3.94,14.77-4.78,1.1-.96,1.96-1.97,2.63-3.1.72-1.19,1.25-2.45,1.62-3.85.11-.42.21-.86.3-1.32.38-2.04.41-4.11.38-6.05,0-.47-.02-.95-.03-1.43-.07-3.59-.14-6.98,1.21-10.18.12-.27.15-.55.11-.82ZM30.07,6.81l-.57.29c-.31.16-.52.47-.53.82-.01.35.17.68.47.86l2.68,1.58.23,1.69-4.25,3.11c-.26.19-.41.5-.39.82l.38,7.69-1.27,2.29c-.41-.56-.76-.99-1.51-.99h-1.83c-.85,0-1.54.69-1.54,1.54v2.24c0,.53.28,1.03.73,1.31l3.15,1.94c1.11.69,2.54.52,3.46-.41.2-.2.46-.3.73-.3h3.55c.55,0,1.05.3,1.3.79l1.59,3.06c.04.09.1.17.15.24.11.21.3.38.53.46v.55c0,.21.02.4.03.55,0,.02,0,.05,0,.07-.09.05-.16.11-.23.18l-.73.78c-.65.47-.96,1.63-1.55,4.12-.35,1.48-.83,3.47-1.27,4.13l-2.2,1.55c-.36.26-.5.73-.33,1.15l1.13,2.74-.41,1.15-2.97-3.56v-2.36c.07-.27.38-1.11.58-1.69.6-1.69.68-1.94.68-2.2v-2.11c0-.64-.4-1.22-1-1.44l-2.07-.76c-.49-.18-.82-.66-.82-1.18v-.8c0-.27,0-.46,0-.53.39-2.03-.72-4.03-2.66-4.76l-4.28-1.62-.96-4.35c-.15-.7-.79-1.21-1.5-1.21-.02,0-.04,0-.06,0l-1.17.07-.76-.73c-.02-.12-.03-.35-.04-.57,0-.16-.02-.35-.03-.56-.09-1.48-.98-2.83-2.27-3.46l-2.1-1.21c4.33-6.47,11.63-10.78,19.93-10.98Zm28.03,29.74c0,.47.02.94.03,1.41.02,1.84,0,3.81-.35,5.68-.07.41-.16.8-.26,1.17-.32,1.22-.79,2.32-1.41,3.36.67-1.12.21.49-2.25,2.64-.79.69-4.62,3.7-11.45,4.23,6.48-2.23,11.53-8.41,12.09-14.18l-1.9-.19c-.51,5.24-4.61,9.97-11.28,12.78-.4.17-.78.37-1.17.54,1-3.38.93-6.1.87-8.36-.02-.9-.05-1.75,0-2.54.07-1.22.24-2.26.51-3.17,1.16-3.85,4.01-7.15,8.27-9.56,1.84-1.04,4-1.84,6.09-2.62,1.07-.4,2.18-.81,3.24-1.25-1.15,3.3-1.08,6.73-1.01,10.06Z" /></svg>