<?xml version="1.0" encoding="utf-8"?>
<!-- Generator: Adobe Illustrator 26.2.1, SVG Export Plug-In . SVG Version: 6.00 Build 0)  -->
<svg version="1.1" id="envir" xmlns="http://www.w3.org/2000/svg" xmlns:xlink="http://www.w3.org/1999/xlink" x="0px" y="0px"
	 viewBox="0 0 219.54 204.03" style="enable-background:new 0 0 219.54 204.03;" xml:space="preserve">
<style type="text/css">
	#envir .st0{fill:#040B1F;}
</style>
<path class="st0" d="M219.54,79.03c0-2-1-3-3-4h-5l-15,6l-25,10c-16.6,8.53-29.18,23.26-35,41l-2,14v10c0,10,0,21-5,35
	c-12,4-23,5-27,5h-1c-51.91,0.01-94.01-42.06-94.02-93.98c0-16.12,4.14-31.97,12.02-46.02l9,5c2,1,4,4,4,7l1,2c0,3,0,5,2,7l3,3l4,2
	h5l3,16l4,4l17,7c4,1,6,5,5,10v6c0,5,4,10,8,11l7,3v7l-2,6l-3,9v10l1,3l17,19c1.69,1.42,4.21,1.2,5.64-0.49
	c0.13-0.16,0.26-0.33,0.36-0.51l4-12v-2l-4-9l7-5v-1c3-3,5-9,7-19c0.99-4.11,2.33-8.12,4-12l3-3c3-2,3-5,3-7v-3l-1-5l-3-2l-6-11
	c-2-4-6-7-11-7h-14c-3,0-6,1-8,3c-1,1-3,2-4,1l-12-7v-7h5l1,1l1,2c2.08,2.58,5.85,2.99,8.44,0.91c0.65-0.52,1.18-1.17,1.56-1.91
	l7-11v-2l-1-29l16-12l2-3l-2-11l-2-2l-6-4l8-4c35,5,65,29,77,63l7-2c-18.23-53.3-76.21-81.74-129.52-63.51S-12.71,81.73,5.51,135.03
	c14.17,41.45,53.22,69.22,97.03,69c9.52-0.38,18.94-2.06,28-5l2,1h7c33,0,53-15,56-18c8.15-7,13.77-16.49,16-27l2-5
	c1.51-9.59,1.84-19.33,1-29c0-14-1-27,5-39V79.03z M99.54,7.03l-2,2c-1.66,1.46-1.82,3.99-0.35,5.65c0.11,0.13,0.23,0.24,0.35,0.35
	l10,6l1,7l-16,11l-2,4l2,29l-5,9c-2-2-3-4-6-4h-7c-3,0-6,3-6,6v8c0,2,1,4,3,5l12,8c4,3,10,2,13-2l3-1h14c2,0,4,1,5,3l6,12v1l2,2v4h1
	l-1,1l-3,3c-3,2-4,6-6,16c-1,5-3,13-5,15l-8,6c-2,1-2,3-2,5l5,10l-2,5l-11-14v-9c1.44-5.07,3.11-10.08,5-15v-8c0-2-2-5-4-6l-8-2
	c-2-1-3-3-3-5v-5c1-8-3-16-11-18l-16-7l-4-16c0-3-3-5-5-5h-5l-3-2c-0.13-1.66-0.13-3.34,0-5c-1-5-4-10-9-13l-8-4
	C40.54,25.03,68.54,8.03,99.54,7.03z M207.54,121.03c-0.82,10.68-1.82,21.35-3,32l-5,13l-9,10c-3,3-17,14-43,16c21-11,34-28,36-51
	h-7c-2,20-13,35-34,45l-4,2c4-13,3-23,3-32v-10l2-12c5-14,16-27,32-36l23-10l13-5C206.54,95.03,206.54,109.03,207.54,121.03z"/>
</svg>
