<?xml version="1.0" encoding="UTF-8"?><svg id="a" xmlns="http://www.w3.org/2000/svg" viewBox="0 0 64 64"><path d="m32.16,12.1c-2.66,0-4.82,2.16-4.82,4.82s2.16,4.82,4.82,4.82,4.82-2.16,4.82-4.82-2.16-4.82-4.82-4.82Zm0,8.03c-1.77,0-3.22-1.44-3.22-3.22s1.44-3.22,3.22-3.22,3.22,1.44,3.22,3.22-1.44,3.22-3.22,3.22Z" style="fill:currentColor;"/><path d="m58.79,24.69h0c-1.36-3.89-4.28-7.09-8.01-8.79-.17-.08-.34-.15-.51-.22.44-.11.83-.36,1.11-.73.58-.76.55-1.8-.07-2.53l-.03-.03c-4.58-4.82-10.99-7.53-17.68-7.42-4.11.09-8.06,1.88-10.83,4.9-.13.13-.25.28-.37.41.03-.45-.09-.9-.35-1.28-.54-.77-1.56-1.07-2.46-.69-6,2.87-10.57,8.16-12.52,14.53-1.18,3.94-.7,8.25,1.31,11.81.09.16.19.32.28.48-.41-.16-.87-.2-1.32-.06-.9.27-1.5,1.15-1.42,2.13.88,6.59,4.5,12.57,9.95,16.39,2.55,1.77,5.6,2.7,8.66,2.7,1,0,2-.1,2.98-.3.18-.03.36-.08.54-.12-.29.35-.46.78-.47,1.24-.02.95.62,1.78,1.59,2.01,1.43.26,2.87.39,4.3.39,5.14,0,10.2-1.66,14.36-4.79,3.27-2.49,5.42-6.26,5.88-10.33.03-.18.04-.37.06-.55.24.37.59.68,1.04.83.21.07.43.11.65.11.69,0,1.36-.36,1.75-1,3.17-5.85,3.75-12.81,1.59-19.11ZM23.94,10.97c2.48-2.71,6.02-4.31,9.69-4.4.12,0,.24,0,.35,0,6.07,0,11.93,2.5,16.12,6.9.12.15.12.36,0,.51-.07.09-.17.15-.28.16-.06,0-.19,0-.31-.08l-.09-.06c-3.83-2.13-8.17-3.21-12.53-3.17-2.13-2.51-5.89-2.96-8.57-.97-1.32.99-2.2,2.42-2.46,4.05-.01.08-.05.15-.12.19-2.35,1.71-4.24,4-5.45,6.64-.18.23-.48.32-.76.25-.19-.05-.34-.17-.44-.34s-.12-.37-.07-.58c.77-3.42,2.46-6.57,4.91-9.11Zm-15.34,12.33c1.82-5.93,6.08-10.87,11.64-13.53.05-.02.1-.03.16-.03.13,0,.27.06.34.18h0c.09.12.08.25.07.31-.02.11-.08.21-.17.27l-.09.07c-3.21,2.98-5.58,6.76-6.89,10.94-3.04,1.25-4.64,4.68-3.57,7.85.53,1.56,1.62,2.84,3.09,3.59.07.04.12.1.15.17.9,2.76,2.5,5.27,4.63,7.24.16.24.16.55,0,.8-.22.34-.67.44-1.03.2-3.02-1.79-5.49-4.37-7.15-7.48-1.81-3.2-2.24-7.06-1.19-10.58Zm18.6,31.12c-3.61.73-7.41-.05-10.43-2.14-5.08-3.57-8.46-9.14-9.27-15.25-.02-.19.11-.38.3-.43.04-.01.08-.02.12-.02.18,0,.35.12.4.3l.04.1c1.85,3.97,4.7,7.4,8.27,9.93.12,1.53.77,2.94,1.88,4.02,1.21,1.18,2.83,1.8,4.48,1.8,1.65-.02,3.2-.67,4.37-1.83.06-.06.1-.1.21-.09,2.91,0,5.78-.75,8.31-2.17.27-.08.58.02.76.24.12.15.18.34.16.53-.02.19-.11.37-.29.51-2.63,2.32-5.85,3.87-9.32,4.49Zm24.92-10.22c-.42,3.66-2.33,7.03-5.26,9.25-4.96,3.73-11.3,5.23-17.37,4.1-.19-.05-.32-.22-.32-.42,0-.11.05-.21.13-.29.08-.08.18-.12.29-.12h.07s.06,0,.06,0c4.35-.53,8.49-2.19,12-4.8,1.49.36,3.04.17,4.4-.54,1.49-.78,2.59-2.1,3.1-3.71.49-1.57.36-3.25-.39-4.73-.04-.07-.04-.15-.02-.22.9-2.77,1.07-5.73.5-8.58.01-.29.19-.54.46-.65.18-.07.38-.07.56.01.18.08.31.22.38.4v.03c1.4,3.22,1.88,6.76,1.4,10.25Zm1.72-4.23c-.17-2.28-.72-4.53-1.63-6.65-.23-.57-.66-1.03-1.22-1.27-.57-.25-1.2-.27-1.78-.04-.92.35-1.52,1.26-1.49,2.25l.02.13c.53,2.6.38,5.31-.44,7.84-.16.48-.12,1,.11,1.45.55,1.1.66,2.35.29,3.53-.38,1.2-1.2,2.18-2.31,2.77-1.11.58-2.39.7-3.59.32l-.4-.12-.33.25c-2.75,2.11-5.93,3.58-9.3,4.32,2.11-.87,4.08-2.08,5.8-3.59.48-.39.78-.95.85-1.57.06-.62-.12-1.22-.51-1.71h0c-.62-.77-1.67-1.06-2.59-.72l-.12.06c-2.31,1.31-4.94,2-7.59,2h-.01c-.5,0-.97.19-1.33.55-.87.87-2.03,1.35-3.26,1.36-1.23,0-2.45-.46-3.35-1.34s-1.4-2.06-1.42-3.32v-.42s-.35-.24-.35-.24c-2.86-1.96-5.24-4.53-6.98-7.5,1.48,1.74,3.24,3.24,5.21,4.4.39.25.83.37,1.26.37.76,0,1.51-.38,1.96-1.06.54-.83.49-1.91-.12-2.69l-.09-.1c-1.96-1.79-3.43-4.08-4.25-6.61-.16-.48-.49-.87-.94-1.1-1.09-.56-1.91-1.52-2.31-2.68-.83-2.46.5-5.14,2.96-5.97l.39-.13.12-.4c.98-3.32,2.69-6.38,4.98-8.96-1.2,1.94-2.08,4.08-2.58,6.31-.33,1.24.41,2.52,1.65,2.85.2.05.4.08.6.08.76,0,1.49-.37,1.93-1.02l.07-.12c1.1-2.42,2.82-4.52,4.97-6.08.4-.29.68-.74.76-1.23.2-1.21.85-2.29,1.84-3.02,2.09-1.55,5.04-1.11,6.59.97l.25.33h.42c3.47-.11,6.9.58,10.07,1.96-2.22-.54-4.52-.72-6.8-.5-.62.03-1.19.31-1.61.77-.42.46-.62,1.06-.59,1.68.05.99.72,1.83,1.67,2.11l.13.03c2.64.3,5.17,1.28,7.32,2.84.41.3.91.42,1.41.34,1.22-.19,2.44.1,3.45.82,2.12,1.5,2.62,4.45,1.11,6.57l-.24.34.14.39c1.16,3.27,1.57,6.75,1.24,10.19Zm1.98,3.02c-.1.17-.31.24-.49.18-.22-.08-.33-.32-.26-.53l.03-.11c.84-4.3.54-8.75-.86-12.9,1.72-2.8,1-6.51-1.72-8.45-1.34-.96-2.98-1.34-4.61-1.09-.08,0-.16,0-.22-.05-2.35-1.71-5.12-2.79-8-3.13-.27-.1-.46-.35-.47-.64-.01-.19.05-.38.18-.52.13-.15.31-.23.54-.24,3.5-.33,7,.31,10.18,1.85,3.35,1.53,5.96,4.39,7.18,7.86,2.01,5.87,1.47,12.36-1.46,17.78Z" style="fill:currentColor;"/><path d="m41.95,39.33c-2.66,0-4.82,2.16-4.82,4.82s2.16,4.82,4.82,4.82,4.82-2.16,4.82-4.82-2.16-4.82-4.82-4.82Zm0,8.03c-1.77,0-3.22-1.44-3.22-3.22s1.44-3.22,3.22-3.22,3.22,1.44,3.22,3.22-1.44,3.22-3.22,3.22Z" style="fill:currentColor;"/><path d="m24.07,39.88c-2.66,0-4.82,2.16-4.82,4.82s2.16,4.82,4.82,4.82,4.82-2.16,4.82-4.82-2.16-4.82-4.82-4.82Zm0,8.03c-1.77,0-3.22-1.44-3.22-3.22s1.44-3.22,3.22-3.22,3.22,1.44,3.22,3.22-1.44,3.22-3.22,3.22Z" style="fill:currentColor;"/><path d="m22.84,27.87c0-2.66-2.16-4.82-4.82-4.82s-4.82,2.16-4.82,4.82,2.16,4.82,4.82,4.82,4.82-2.16,4.82-4.82Zm-4.82,3.22c-1.77,0-3.22-1.44-3.22-3.22s1.44-3.22,3.22-3.22,3.22,1.44,3.22,3.22-1.44,3.22-3.22,3.22Z" style="fill:currentColor;"/><path d="m46.95,22.16c-2.66,0-4.82,2.16-4.82,4.82s2.16,4.82,4.82,4.82,4.82-2.16,4.82-4.82-2.16-4.82-4.82-4.82Zm0,8.03c-1.77,0-3.22-1.44-3.22-3.22s1.44-3.22,3.22-3.22,3.22,1.44,3.22,3.22-1.44,3.22-3.22,3.22Z" style="fill:currentColor;"/></svg>