<?xml version="1.0" encoding="utf-8"?>
<!-- Generator: Adobe Illustrator 26.0.3, SVG Export Plug-In . SVG Version: 6.00 Build 0)  -->
<svg version="1.1" id="equity" xmlns="http://www.w3.org/2000/svg" xmlns:xlink="http://www.w3.org/1999/xlink" x="0px" y="0px"
	 viewBox="0 0 203.21 199.42" style="enable-background:new 0 0 203.21 199.42;" xml:space="preserve">
<style type="text/css">
	#equity .st0{fill:#040B1F;}
</style>
<g>
	<path class="st0" d="M3.73,42.54c0,3.76,1.55,7.05,3.98,9.11c-1.14,1.84-1.8,4.07-1.8,6.48c0,6.38,4.45,11.38,10.12,11.38h25.71
		c-0.46,1.3-0.72,2.72-0.72,4.2c0,6.38,4.45,11.38,10.12,11.38h25.2c1.01,0,1.97-0.42,2.65-1.17l16-17.51h4.46
		c0.55,1.27,1.82,2.15,3.29,2.15h8.96v-7.17h-5.38V17.16h17.07V9.99h-20.66c-1.98,0-3.59,1.61-3.59,3.59v1.11h-4.22L76.3,0.74
		c-0.62-0.47-1.38-0.72-2.15-0.72H19.42C13.84,0.02,9.3,5.12,9.3,11.4c0,2.14,0.53,4.15,1.45,5.86c-2.91,2-4.86,5.61-4.86,9.72
		c0,2.46,0.66,4.71,1.79,6.55C5.29,35.59,3.73,38.87,3.73,42.54z M13.85,38.34h2.18h22.36v-7.17H16.03c-1.68,0-2.95-1.81-2.95-4.2
		c0-2.37,1.59-4.2,2.95-4.2h3.41h18.95V15.6H19.44c-1.36,0-2.95-1.84-2.95-4.2c0-2.37,1.59-4.2,2.95-4.2h53.53l18.62,13.95
		c0.62,0.47,1.38,0.72,2.15,0.72h5.39l-0.27,37.39h-5.45c-1.01,0-1.97,0.42-2.65,1.17l-16,17.51H51.14c-1.68,0-2.95-1.81-2.95-4.2
		c0-2.37,1.59-4.2,2.95-4.2c1.98,0,3.59-1.61,3.59-3.59s-1.61-3.59-3.59-3.59H16.02c-1.68,0-2.95-1.81-2.95-4.2
		c0-2.37,1.59-4.2,2.95-4.2h22.36v-7.17H16.02h-2.18c-1.68,0-2.95-1.81-2.95-4.2C10.91,40.18,12.49,38.34,13.85,38.34z"/>
	<path class="st0" d="M84.87,151.88v-25.26c0-1-0.42-1.96-1.16-2.64l-17.47-16.05v-4.5c1.26-0.56,2.15-1.82,2.15-3.28v-8.99h-7.17
		v5.4h-44.1V79.44H9.95v20.71c0,1.98,1.61,3.59,3.59,3.59h1.09v4.25L0.71,126.66C0.25,127.28,0,128.03,0,128.8v54.87
		c0,5.5,5.2,10.14,11.36,10.14c2.12,0,4.14-0.55,5.86-1.5c2.02,2.93,5.65,4.93,9.69,4.93c2.47,0,4.73-0.67,6.57-1.82
		c2.1,2.42,5.37,4,8.97,4c3.77,0,7.06-1.56,9.12-4.02c1.84,1.15,4.06,1.84,6.43,1.84c6.37,0,11.36-4.45,11.36-10.14v-25.81
		c1.3,0.48,2.72,0.74,4.18,0.74C79.88,162.02,84.87,157.57,84.87,151.88z M77.7,151.88c0,1.69-1.8,2.97-4.18,2.97
		c-2.36,0-4.18-1.59-4.18-2.97c0-1.98-1.61-3.59-3.59-3.59c-1.98,0-3.59,1.61-3.59,3.59v35.21c0,1.69-1.8,2.97-4.18,2.97
		c-2.39,0-4.18-1.57-4.18-2.97v-22.42h-7.17v22.42v2.18c0,1.69-1.8,2.97-4.18,2.97c-2.39,0-4.18-1.57-4.18-2.97v-2.18v-22.42H31.1
		v22.42c0,1.69-1.8,2.97-4.18,2.97c-2.39,0-4.18-1.57-4.18-2.97v-3.42v-18.99h-7.17v18.99c0,1.37-1.83,2.97-4.18,2.97
		c-2.36,0-4.18-1.59-4.18-2.97v-53.68l13.92-18.67c0.46-0.62,0.71-1.37,0.71-2.14v-5.42l37.28,0.27v5.47c0,1,0.42,1.96,1.16,2.64
		l17.47,16.05v23.69H77.7z"/>
	<path class="st0" d="M199.49,156.87c0-3.76-1.55-7.05-3.98-9.11c1.14-1.84,1.8-4.07,1.8-6.48c0-6.38-4.45-11.38-10.12-11.38h-25.71
		c0.46-1.3,0.72-2.72,0.72-4.2c0-6.38-4.45-11.38-10.12-11.38h-25.2c-1.01,0-1.97,0.42-2.65,1.17l-16,17.51h-4.46
		c-0.55-1.27-1.82-2.15-3.29-2.15h-8.96v7.17h5.38v44.23H79.83v7.17h20.66c1.98,0,3.59-1.61,3.59-3.59v-1.11h4.22l18.62,13.95
		c0.62,0.47,1.38,0.72,2.15,0.72h54.73c5.58,0,10.12-5.1,10.12-11.38c0-2.14-0.53-4.15-1.45-5.86c2.91-2,4.86-5.61,4.86-9.72
		c0-2.46-0.66-4.71-1.79-6.55C197.94,163.82,199.49,160.54,199.49,156.87z M189.37,161.07h-2.18h-22.36v7.17h22.36
		c1.68,0,2.95,1.81,2.95,4.2c0,2.37-1.59,4.2-2.95,4.2h-3.41h-18.95v7.17h18.95c1.36,0,2.95,1.84,2.95,4.2c0,2.37-1.59,4.2-2.95,4.2
		h-53.53l-18.62-13.95c-0.62-0.47-1.38-0.72-2.15-0.72h-5.39l0.27-37.39h5.45c1.01,0,1.97-0.42,2.65-1.17l16-17.51h23.62
		c1.68,0,2.95,1.81,2.95,4.2c0,2.37-1.59,4.2-2.95,4.2c-1.98,0-3.59,1.61-3.59,3.59s1.61,3.59,3.59,3.59h35.12
		c1.68,0,2.95,1.81,2.95,4.2c0,2.37-1.59,4.2-2.95,4.2h-22.36v7.17h22.36h2.18c1.68,0,2.95,1.81,2.95,4.2
		C192.32,159.24,190.73,161.07,189.37,161.07z"/>
	<path class="st0" d="M191.88,5.61c-2.12,0-4.14,0.55-5.86,1.5c-2.02-2.93-5.65-4.93-9.69-4.93c-2.47,0-4.73,0.67-6.57,1.82
		c-2.1-2.42-5.37-4-8.97-4c-3.77,0-7.06,1.56-9.12,4.02c-1.84-1.15-4.06-1.84-6.43-1.84c-6.37,0-11.36,4.45-11.36,10.14v25.81
		c-1.3-0.48-2.72-0.74-4.18-0.74c-6.37,0-11.36,4.45-11.36,10.14v25.26c0,1,0.42,1.96,1.16,2.64l17.47,16.05v4.5
		c-1.26,0.56-2.15,1.82-2.15,3.28v8.99h7.17v-5.4h42.98c0.01,0,0.02,0,0.03,0h1.09v17.12h7.17V99.26c0-1.98-1.61-3.59-3.59-3.59
		h-1.09v-4.25l13.92-18.67c0.46-0.62,0.71-1.37,0.71-2.14V15.74C203.24,10.25,198.04,5.61,191.88,5.61z M196.07,69.42l-13.92,18.67
		c-0.46,0.62-0.71,1.37-0.71,2.14v5.42l-37.28-0.27v-5.47c0-1-0.42-1.96-1.16-2.64l-17.47-16.05V47.53c0-1.69,1.8-2.97,4.18-2.97
		c2.39,0,4.18,1.57,4.18,2.97c0,1.98,1.61,3.59,3.59,3.59c1.98,0,3.59-1.61,3.59-3.59V12.32c0-1.69,1.8-2.97,4.18-2.97
		c2.39,0,4.18,1.57,4.18,2.97v22.42h7.17V12.32v-2.18c0-1.69,1.8-2.97,4.18-2.97c2.36,0,4.18,1.59,4.18,2.97v2.18v22.42h7.17V12.32
		c0-1.69,1.8-2.97,4.18-2.97c2.39,0,4.18,1.57,4.18,2.97v3.42v18.99h7.17V15.74c0-1.4,1.79-2.97,4.18-2.97
		c2.36,0,4.18,1.59,4.18,2.97v53.68H196.07z"/>
</g>
</svg>
