<?xml version="1.0" encoding="UTF-8"?><svg id="a" xmlns="http://www.w3.org/2000/svg" viewBox="0 0 64 64"><g id="b"><g><path d="M51.47,33.64c1.45,3.35,1.95,7.04,1.45,10.66-.44,3.89-2.46,7.43-5.57,9.8-5.16,3.87-11.69,5.41-18.04,4.24-.56-.13-.94-.64-.93-1.21,.01-.67,.57-1.21,1.24-1.2,4.34-.53,8.46-2.21,11.93-4.88,2.9,.91,6-.71,6.91-3.61,.43-1.37,.31-2.85-.34-4.13-.13-.26-.15-.56-.06-.83,.87-2.66,1.03-5.51,.47-8.25-.02-.65,.37-1.24,.98-1.47,.79-.3,1.67,.09,1.98,.88Z" style="fill:none; stroke:#040b1f; stroke-miterlimit:10; stroke-width:1.6px;"/><path d="M32.16,12.9c2.22,0,4.02,1.8,4.02,4.02s-1.8,4.02-4.02,4.02-4.02-1.8-4.02-4.02,1.8-4.02,4.02-4.02Z" style="fill:none; stroke:#040b1f; stroke-miterlimit:10; stroke-width:1.6px;"/><path d="M58.04,24.95c2.09,6.1,1.53,12.79-1.54,18.46-.3,.49-.9,.7-1.44,.51-.64-.22-.97-.91-.75-1.55,.84-4.29,.51-8.73-.95-12.85,1.76-2.48,1.18-5.92-1.3-7.68-1.17-.83-2.61-1.17-4.03-.95-.29,.04-.58-.03-.81-.2-2.27-1.65-4.92-2.68-7.7-2.99-.62-.18-1.07-.74-1.1-1.38-.05-.84,.6-1.56,1.44-1.61,3.64-.34,7.3,.32,10.59,1.92,3.56,1.62,6.31,4.63,7.6,8.33Z" style="fill:none; stroke:#040b1f; stroke-miterlimit:10; stroke-width:1.6px;"/><path d="M37.93,44.15c0-2.22,1.8-4.02,4.02-4.02s4.02,1.8,4.02,4.02-1.8,4.02-4.02,4.02-4.02-1.8-4.02-4.02Z" style="fill:none; stroke:#040b1f; stroke-miterlimit:10; stroke-width:1.6px;"/><path d="M50.7,12.94c.37,.44,.39,1.07,.05,1.53-.41,.54-1.17,.64-1.71,.24-3.82-2.13-8.15-3.18-12.52-3.06-1.82-2.44-5.27-2.95-7.71-1.14-1.15,.86-1.92,2.12-2.15,3.54-.05,.29-.21,.54-.44,.71-2.27,1.65-4.07,3.85-5.23,6.4-.36,.54-1.03,.79-1.66,.62-.82-.22-1.3-1.06-1.08-1.87,.8-3.56,2.56-6.84,5.1-9.47,2.65-2.89,6.35-4.57,10.27-4.66,6.45-.1,12.64,2.5,17.09,7.17Z" style="fill:none; stroke:#040b1f; stroke-miterlimit:10; stroke-width:1.6px;"/><path d="M24.07,40.68c2.22,0,4.02,1.8,4.02,4.02s-1.8,4.02-4.02,4.02-4.02-1.8-4.02-4.02,1.8-4.02,4.02-4.02Z" style="fill:none; stroke:#040b1f; stroke-miterlimit:10; stroke-width:1.6px;"/><path d="M37.28,48.39c.53,.66,.43,1.62-.22,2.15-2.74,2.41-6.1,4.03-9.69,4.67-3.84,.78-7.83-.04-11.04-2.27-5.28-3.71-8.76-9.45-9.61-15.84-.04-.57,.31-1.09,.86-1.26,.64-.2,1.33,.17,1.52,.81,1.84,3.97,4.72,7.37,8.33,9.84,.03,3.04,2.53,5.48,5.57,5.45,1.43-.02,2.8-.59,3.82-1.6,.21-.2,.48-.32,.77-.32,2.8,0,5.55-.73,7.99-2.11,.61-.22,1.29-.03,1.7,.47Z" style="fill:none; stroke:#040b1f; stroke-miterlimit:10; stroke-width:1.6px;"/><path d="M18.02,23.85c2.22,0,4.02,1.8,4.02,4.02s-1.8,4.02-4.02,4.02-4.02-1.8-4.02-4.02,1.8-4.02,4.02-4.02Z" style="fill:none; stroke:#040b1f; stroke-miterlimit:10; stroke-width:1.6px;"/><path d="M21.4,9.47c.39,.55,.25,1.31-.3,1.7-3.2,2.98-5.55,6.76-6.78,10.96-2.88,.97-4.43,4.1-3.46,6.98,.46,1.36,1.43,2.48,2.7,3.14,.26,.13,.45,.36,.54,.64,.86,2.66,2.41,5.06,4.47,6.95,.4,.51,.43,1.22,.08,1.77-.46,.71-1.4,.91-2.11,.45-3.14-1.86-5.72-4.55-7.44-7.78-1.93-3.41-2.38-7.46-1.25-11.2,1.89-6.16,6.28-11.25,12.1-14.03,.53-.22,1.14-.04,1.46,.43Z" style="fill:none; stroke:#040b1f; stroke-miterlimit:10; stroke-width:1.6px;"/><path d="M46.95,22.96c2.22,0,4.02,1.8,4.02,4.02s-1.8,4.02-4.02,4.02-4.02-1.8-4.02-4.02,1.8-4.02,4.02-4.02Z" style="fill:none; stroke:#040b1f; stroke-miterlimit:10; stroke-width:1.6px;"/></g></g></svg>