<?xml version="1.0" encoding="utf-8"?>
<!-- Generator: Adobe Illustrator 26.2.1, SVG Export Plug-In . SVG Version: 6.00 Build 0)  -->
<svg version="1.1" id="equity" xmlns="http://www.w3.org/2000/svg" xmlns:xlink="http://www.w3.org/1999/xlink" x="0px" y="0px"
	 viewBox="0 0 203 200" style="enable-background:new 0 0 203 200;" xml:space="preserve">
<style type="text/css">
	#equity .st0{fill:#040B1F;}
</style>
<path class="st0" d="M4,43c0,3,1,7,4,9c-2,2-2,4-2,6c0,7,4,12,10,12h26l-1,4c0,6,4,11,10,11h25l3-1l16-17h4l4,2h9v-7h-6V17h17v-7
	h-20c-2,0-4,2-4,4v1h-4L76,1l-2-1H19C14,0,9,5,9,12l2,5c-3,2-5,6-5,10c0,3,0,5,2,7C5,36,4,39,4,43z M14,38h24v-7H16c-2,0-3-1-3-4
	c0-2,2-4,3-4h22v-7H19c-1,0-3-2-3-4c0-3,2-5,3-5h54l18,14l3,1h5v37h-6l-2,2L75,78H51c-2,0-3-2-3-4s2-4,3-4
	c1.93-1.07,2.63-3.5,1.56-5.44C52.2,63.91,51.66,63.36,51,63H16c-2,0-3-2-3-5c0-2,2-4,3-4h22v-7H14c-2,0-3-2-3-4C11,40,12,38,14,38z
	 M85,152v-25l-1-3l-18-16v-4l2-4v-9h-7v6H17V80h-7v20c0,2,1,4,3,4h2v4L1,127l-1,2v55c0,5,5,10,11,10l6-2c2,3,6,5,10,5l6-1
	c2,2,6,4,9,4c4,0,7-2,9-4l7,1c6,0,11-4,11-10v-26l4,1C80,162,85,158,85,152z M78,152c0,2-2,3-5,3c-2,0-4-2-4-3l-1-3c-3-2-6,0-6,3v35
	c0,2-2,3-4,3c-3,0-4-1-4-3v-22h-7v24c0,2-2,3-5,3c-2,0-4-1-4-3v-24h-7v22c0,2-2,3-4,3c-3,0-4-1-4-3v-22h-8v19c0,1-1,3-4,3
	c-2,0-4-2-4-3v-54l14-19l1-2v-5h37v6l1,2l18,16V152z M199,157c0-4-1-7-4-9c2-2,2-4,2-7c0-6-4-11-10-11h-26l1-4c0-7-4-12-10-12h-25
	l-3,2l-16,17h-4l-4-2h-9v7h6v44H80v8h20c2,0,4-2,4-4v-1h4l19,14l2,1h55c5,0,10-6,10-12l-2-6c3-2,5-5,5-9c0-3,0-5-2-7
	C198,164,199,161,199,157z M189,161h-24v7h22c2,0,3,2,3,5c0,2-2,4-3,4h-22v7h19c1,0,3,2,3,4c0,3-2,4-3,4h-54l-18-14h-8v-38h6l2-1
	l16-17h24c2,0,3,1,3,4c0,2-2,4-3,4c-1.93,1.07-2.63,3.5-1.56,5.44c0.36,0.66,0.91,1.2,1.56,1.56h35c2,0,3,2,3,4c0,3-2,5-3,5h-22v7
	h24c2,0,3,2,3,4S191,161,189,161z M192,6l-6,1c-2-3-6-5-10-5l-6,2c-2-2-6-4-9-4c-4,0-7,2-9,4l-7-2c-6,0-11,5-11,10v26h-4
	c-7,0-12,4-12,10v25l1,3l18,16v4l-2,3v9h7v-5h44v17h7V99c0-2-1-3-3-3h-2v-4l14-19l1-2V16C203,10,198,6,192,6z M196,70l-14,18l-1,2v6
	h-37v-6l-1-3l-18-16V48c0-2,2-3,5-3c2,0,4,1,4,3c1.07,1.93,3.5,2.63,5.44,1.56c0.66-0.36,1.2-0.91,1.56-1.56V12c0-1,2-3,4-3
	c3,0,4,2,4,3v23h7V10c0-1,2-3,5-3c2,0,4,2,4,3v25h7V12c0-1,2-3,4-3c3,0,4,2,4,3v23h8V16c0-2,1-3,4-3c2,0,4,2,4,3V70z"/>
</svg>
