<svg id="Layer_1" data-name="Layer 1" xmlns="http://www.w3.org/2000/svg" viewBox="0 0 54.6 54.6"><defs><style>.cls-1{fill:#6d6d6d;}</style></defs><path class="cls-1" d="M15.3,36.6h24V23.8h-24ZM31.5,26.5h4.1v3.1H31.5Zm0,4.7h4.1v3.1H31.5Zm-6.2-4.7h4.1v3.1H25.3Zm0,4.7h4.1v3.1H25.3ZM19,26.5h4.1v3.1H19Zm0,4.7h4.1v3.1H19Z"/><path class="cls-1" d="M27.3,0A27.3,27.3,0,1,0,54.6,27.3,27.27,27.27,0,0,0,27.3,0m4.8,14.9a1.5,1.5,0,1,1,3,0v3.8a1.5,1.5,0,0,1-3,0Zm-12.5,0a1.5,1.5,0,1,1,3,0v3.8a1.5,1.5,0,0,1-3,0ZM42.3,39.8a1.54,1.54,0,0,1-1.5,1.5H13.9a1.54,1.54,0,0,1-1.5-1.5V18.2a1.54,1.54,0,0,1,1.5-1.5h3.9v1.9a3.4,3.4,0,0,0,6.8,0V16.7h5.7v1.9a3.4,3.4,0,1,0,6.8,0V16.7H41a1.54,1.54,0,0,1,1.5,1.5V39.8Z"/></svg>