<?xml version="1.0" encoding="utf-8"?>
<!-- Generator: Adobe Illustrator 26.0.3, SVG Export Plug-In . SVG Version: 6.00 Build 0)  -->
<svg version="1.1" id="freight" xmlns="http://www.w3.org/2000/svg" xmlns:xlink="http://www.w3.org/1999/xlink" x="0px" y="0px"
	 viewBox="0 0 248.72 244.43" style="enable-background:new 0 0 248.72 244.43;" xml:space="preserve">
<style type="text/css">
	#freight .st0{fill:none;stroke:#040B1F;stroke-width:5;stroke-miterlimit:10;}
	#freight .st1{fill:#040B1F;}
	#freight .st2{fill:none;stroke:#040B1F;stroke-width:7;stroke-miterlimit:10;}
	#freight .st3{fill-rule:evenodd;clip-rule:evenodd;fill:#040B1F;}
</style>
<g>
	<path class="st0" d="M12.2,134.26v41.39h66.16v-41.39c1.96-0.28,3.47-1.95,3.47-3.99c0-2.23-1.82-4.05-4.05-4.05h-52.5v-23.15
		c0-2.24-1.82-4.05-4.05-4.05c-2.24,0-4.05,1.82-4.05,4.05v23.15h-4.41c-2.24,0-4.05,1.82-4.05,4.05
		C8.72,132.31,10.23,133.98,12.2,134.26z M48.65,138.91h20.66v13.03H48.65V138.91z M21.23,138.91H41.9v13.03H21.23V138.91z"/>
	<path class="st1" d="M177.66,140.62h-77.13c-1.6,0-2.89,1.29-2.89,2.89v32.22h5.78v-11.24h32.79v11.24h5.78v-11.24h38.57v-20.98
		C180.55,141.91,179.26,140.62,177.66,140.62z M136.21,158.71h-32.79V146.4h32.79V158.71z M174.77,158.71h-32.79V146.4h32.79V158.71
		z"/>
	<path class="st1" d="M216.46,122.8h-77.13c-1.6,0-2.89,1.29-2.89,2.89v32.22h5.78v-11.24h32.79v11.24h5.78v-11.24h38.57v-20.98
		C219.35,124.09,218.05,122.8,216.46,122.8z M175,140.88h-32.79v-12.31H175V140.88z M213.57,140.88h-32.79v-12.31h32.79V140.88z"/>
	<path class="st2" d="M20.82,239.32c6.18-3.63,13.11-6.17,22.14-6.17c10.4,0,16.22,3.07,20.47,5.31c3.12,1.64,4.68,2.47,9.04,2.47
		s5.93-0.83,9.04-2.47c4.25-2.24,10.08-5.31,20.47-5.31c10.39,0,16.22,3.07,20.47,5.31c3.12,1.64,4.68,2.47,9.04,2.47
		c4.35,0,5.91-0.82,9.03-2.47c4.25-2.24,10.08-5.31,20.47-5.31c10.39,0,16.22,3.07,20.47,5.31c3.11,1.64,4.68,2.47,9.04,2.47
		s5.92-0.83,9.04-2.47c4.25-2.24,10.08-5.31,20.47-5.31c4.42,0,7.99,0.58,10.98,1.39c-0.18-5.51-0.14-19.02,0.69-25.93
		c3.07-25.32,13.12-45.15,13.22-45.36c0.44-0.9,0.41-2-0.06-2.88s-1.33-1.41-2.25-1.41h-53.35c-0.98,0-1.87,0.6-2.32,1.57
		l-11.05,14.94H7.27c-1.45,0-5.84,3.12-2.62,11.22l10.45,24.79C15.1,219.98,16.62,231.89,20.82,239.32z M209.34,204.38
		c0.98-3.99,3.7-6.75,6.42-6.75c0.39,0,0.78,0.06,1.16,0.17c3.06,0.93,4.63,5.4,3.51,9.97c-0.99,4-3.72,6.75-6.43,6.75
		c-0.39,0-0.78-0.05-1.16-0.17C209.78,213.42,208.21,208.96,209.34,204.38z"/>
	<rect x="213.46" y="144.05" class="st1" width="6.06" height="14.91"/>
</g>
<path class="st3" d="M105.59,56.32l13.62-4.07l0.88-0.26l0.88,0.26l13.63,4.07l2.2,0.66v2.29v10.05v3.29l-3.28-0.22l-13.43-0.88
	l-13.43,0.88l-3.28,0.22v-3.29V59.27v-2.29L105.59,56.32L105.59,56.32z M94.94,89.72L14.99,74.67l-1.13,6.05l36.71,6.91
	c-2.11,2.19-3.38,5.06-3.38,8.22c0,3.47,1.54,6.6,4.04,8.85c2.41,2.17,5.71,3.51,9.34,3.51s6.94-1.34,9.35-3.51
	c2.5-2.25,4.04-5.38,4.04-8.85c0-1.38-0.24-2.71-0.69-3.95l27.55,5.19c5.3,5.14,11.97,8.41,19.28,8.41c7.3,0,13.98-3.27,19.28-8.41
	l27.56-5.19c-0.45,1.24-0.69,2.56-0.69,3.95c0,3.47,1.54,6.6,4.04,8.85c2.41,2.17,5.71,3.51,9.34,3.51s6.94-1.34,9.35-3.51
	c2.5-2.25,4.04-5.38,4.04-8.85c0-3.16-1.27-6.03-3.38-8.22l36.71-6.91l-1.13-6.05l-79.95,15.05c3.82-6.19,6.08-13.58,6.08-20.89
	c0-2.29-0.22-4.49-0.64-6.59h28.26v-6.17h-30.16c-1.53-3.58-3.7-6.74-6.36-9.39c-5.01-4.99-11.75-8.14-19.25-8.82V0h-6.17v37.86
	c-7.5,0.68-14.24,3.83-19.25,8.82c-2.66,2.65-4.83,5.81-6.36,9.39H61.26v6.17h28.26c-0.42,2.1-0.64,4.31-0.64,6.59
	C88.86,76.14,91.12,83.53,94.94,89.72L94.94,89.72z M65.8,91.57c1.23,1.11,1.99,2.62,1.99,4.27s-0.76,3.17-1.99,4.27
	c-1.32,1.19-3.16,1.92-5.23,1.92c-2.06,0-3.91-0.74-5.22-1.92c-1.23-1.11-1.99-2.62-1.99-4.27s0.76-3.17,1.99-4.27
	C58.19,89.01,62.95,89.01,65.8,91.57L65.8,91.57z M184.85,91.57c1.23,1.11,1.99,2.62,1.99,4.27s-0.76,3.17-1.99,4.27
	c-1.32,1.19-3.17,1.92-5.23,1.92s-3.91-0.74-5.23-1.92c-1.23-1.11-1.99-2.62-1.99-4.27s0.76-3.17,1.99-4.27
	C177.23,89.02,182.01,89.02,184.85,91.57L184.85,91.57z M138.09,51.04c-4.54-4.52-10.91-7.15-17.99-7.15s-13.46,2.63-17.99,7.15
	c-4.38,4.36-7.07,10.51-7.07,17.79c0,7.8,3.05,15.71,7.96,21.55c4.5,5.37,10.54,8.94,17.11,8.94c6.58,0,12.61-3.57,17.11-8.94
	c4.9-5.85,7.96-13.76,7.96-21.55C145.16,61.55,142.47,55.4,138.09,51.04L138.09,51.04z M120.1,58.41l-10.54,3.15v4.47l10.54-0.69
	l10.54,0.69v-4.47L120.1,58.41z"/>
</svg>
