<?xml version="1.0" encoding="utf-8"?>
<!-- Generator: Adobe Illustrator 26.2.1, SVG Export Plug-In . SVG Version: 6.00 Build 0)  -->
<svg version="1.1" id="fr" xmlns="http://www.w3.org/2000/svg" xmlns:xlink="http://www.w3.org/1999/xlink" x="0px" y="0px"
	 viewBox="0 0 248.1 244.5" style="enable-background:new 0 0 248.1 244.5;" xml:space="preserve">
<style type="text/css">
	#fr .st0{fill:none;stroke:#040B1F;stroke-width:5;stroke-miterlimit:10;}
	#fr .st1{fill:#040B1F;}
	#fr .st2{fill:none;stroke:#040B1F;stroke-width:7;stroke-miterlimit:10;}
	#fr .st3{fill-rule:evenodd;clip-rule:evenodd;fill:#040B1F;}
</style>
<path class="st0" d="M11.6,134v41h67v-41c2.21-0.28,3.78-2.29,3.5-4.5s-2.29-3.78-4.5-3.5h-53v-23c0-2.21-1.79-4-4-4s-4,1.79-4,4v23
	h-4c-2,0-4,2-4,4S9.6,134,11.6,134z M49.6,139h19v13h-19V139z M20.6,139h19v13h-19V139z"/>
<path class="st1" d="M177.6,140h-77c-2,0-3,2-3,3v32h6v-11h32v11h6v-11h39v-21L177.6,140z M135.6,158h-32v-12h32V158z M174.6,158
	h-33v-12h33V158z"/>
<path class="st1" d="M216.6,122h-77c-2,0-3,2-3,3v33h5v-12h33v12h6v-12h39v-21L216.6,122z M174.6,141h-33v-13h33V141z M213.6,141
	h-33v-13h33V141z"/>
<path class="st2" d="M20.6,239c6-4,13-6,22-6c11,0,16,3,21,5c3,2,4,3,9,3c4,0,6-1,9-3c4-2,10-5,20-5c11,0,16,3,21,5c3,2,4,3,9,3
	c4,0,6-1,9-3c4-2,10-5,20-5c11,0,16,3,21,5c3,2,4,3,9,3c4,0,6-1,9-3c4-2,10-5,20-5l11,1l1-26c3-25,13-45,13-45v-3l-2-1h-50l-2,1
	l-11,15H6.6c-1,0-5,3-2,11l10,25C14.6,220,16.6,232,20.6,239z M201.6,204c2-4,5-7,9-7h2c4,1,6,6,4,10c-1,4-5,7-8,7h-2
	C202.6,213,200.6,209,201.6,204z"/>
<path class="st1" d="M213.6,144h6v15h-6V144z"/>
<path class="st3" d="M105.6,56l13-4h2l14,4l2,1v15h-3l-14-1l-13,1h-3V57L105.6,56z M94.6,89l-77-14c-2,0-3,1-3,2c-1,2,0,4,2,4l29,5
	c2,1,3,3,2,5c-1.72,4.54-0.54,9.67,3,13c3,3,6,4,10,4c3,0,7-1,9-4c3-2,4-5,4-9c0-2,2-3,4-3l22,5h2c5,5,11,8,18,8s14-3,19-8h1l23-5
	c2,0,3,1,3,3c0,4,2,7,4,9c3,3,6,4,10,4c3,0,7-1,9-4c3.54-3.33,4.72-8.46,3-13c-1-2,0-4,2-5l30-5l2-4l-4-2l-70,13c-3,1-5-2-4-4
	c2.53-6,3.56-12.52,3-19c0-2,2-3,3-3h22c2,0,3-1,3-3s-1-3-3-3h-25l-3-2l-5-8c-5-4-11-7-17-8c-2,0-3-2-3-3V3c0-2-1-3-3-3
	c-1,0-3,1-3,3v32l-2,3c-9.78,1.37-18.32,7.31-23,16l-2,2h-26c-1,0-3,1-3,3l3,3h22c2,0,3,1,3,3v3C88.6,76,90.6,83,94.6,89z M65.6,91
	l2,4l-2,5l-5,2l-5-2c-2-1-2-3-2-5c0-1,0-3,2-4C57.6,89,62.6,89,65.6,91z M184.6,91l2,4l-2,5l-5,2l-5-2c-2-1-2-3-2-5c0-1,0-3,2-4
	C176.6,89,181.6,89,184.6,91z M137.6,51c-4-5-11-7-18-7c-13.24-0.55-24.43,9.74-24.98,22.98C94.6,67.32,94.6,67.66,94.6,68
	c0,8,3,16,8,22c5,5,11,9,17,9c7,0,13-4,17-9c5-6,8-14,8-22C144.6,61,142.6,55,137.6,51z M119.6,58l-9,3l-1,2c0,1,1,3,2,2h16
	c2,1,3-1,3-2l-2-2l-8-3H119.6z"/>
</svg>
