<?xml version="1.0" encoding="UTF-8"?><svg id="a" xmlns="http://www.w3.org/2000/svg" viewBox="0 0 64 64"><g><path d="M6.68,34.34v8.41H26.77v-8.41c.6-.06,1.05-1.43,1.05-1.89,0-.51-.55-.92-1.23-.92H10.65v-5.26c0-.51-.55-.92-1.23-.92s-1.23,.41-1.23,.92v5.26h-1.34c-.68,0-1.23,.41-1.23,.92,0,.46,.46,1.83,1.06,1.89Zm12.06,.07h5.29v2.96h-5.29v-2.96Zm-9.31,0h5.29v2.96h-5.29v-2.96Z" style="fill:none; stroke:#040b1f; stroke-linecap:round; stroke-linejoin:round; stroke-width:1.6px;"/><path d="M48.2,33.72H30.55c-.37,0-.66,.31-.66,.69v7.72h1.32v-2.69h7.5v2.69h1.32v-2.69h8.82v-5.02c0-.38-.3-.69-.66-.69Zm-9.48,4.33h-7.5v-2.95h7.5v2.95Zm8.82,0h-7.5v-2.95h7.5v2.95Z" style="fill:#040b1f;"/><path d="M57,29.45h-17.6c-.36,0-.66,.31-.66,.69v7.72h1.32v-2.69h7.48v2.69h1.32v-2.69h8.8v-5.02c0-.38-.3-.69-.66-.69Zm-9.46,4.33h-7.48v-2.95h7.48v2.95Zm8.8,0h-7.48v-2.95h7.48v2.95Z" style="fill:#040b1f;"/><path d="M8.44,56.77c1.42-.8,3.01-1.36,5.08-1.36,2.38,0,3.72,.68,4.69,1.17,.71,.36,1.07,.54,2.07,.54s1.36-.18,2.07-.54c.97-.49,2.31-1.17,4.69-1.17s3.72,.68,4.69,1.17c.71,.36,1.07,.54,2.07,.54s1.36-.18,2.07-.54c.97-.49,2.31-1.17,4.69-1.17s3.72,.68,4.69,1.17c.71,.36,1.07,.54,2.07,.54s1.36-.18,2.07-.54c.97-.49,2.31-1.17,4.69-1.17,1.01,0,1.83,.13,2.52,.31-.04-1.21-.03-4.19,.16-5.71,.7-5.58,3.01-9.94,3.03-9.99,.1-.2,.09-.44-.01-.63-.11-.19-.3-.31-.52-.31h-12.23c-.22,0-.43,.13-.53,.34l-2.53,3.29H5.33c-.33,0-1.34,.69-.6,2.47l2.4,5.46c0,1.87,.35,4.5,1.31,6.13Zm42.76-7.69c.26-.88,1-1.49,1.73-1.49,.1,0,.21,.01,.31,.04,.83,.21,1.25,1.19,.95,2.2-.27,.88-1,1.49-1.74,1.49-.11,0-.21-.01-.31-.04-.83-.21-1.25-1.19-.95-2.2Z" style="fill:none; stroke:#040b1f; stroke-miterlimit:10; stroke-width:1.6px;"/><rect x="56.31" y="34.54" width="1.34" height="4.02" style="fill:#040b1f;"/></g><path d="M27.95,16.47l3-.9,.19-.06,.19,.06,3,.9,.49,.15v3.44l-.72-.05-2.96-.19-2.96,.19-.72,.05v-3.44l.49-.15h0Zm-2.35,7.36l-17.61-3.31-.25,1.33,8.08,1.52c-.46,.48-.74,1.11-.74,1.81,0,.76,.34,1.45,.89,1.95,.53,.48,1.26,.77,2.06,.77s1.53-.3,2.06-.77c.55-.5,.89-1.18,.89-1.95,0-.3-.05-.6-.15-.87l6.07,1.14c1.17,1.13,2.64,1.85,4.25,1.85s3.08-.72,4.25-1.85l6.07-1.14c-.1,.27-.15,.56-.15,.87,0,.76,.34,1.45,.89,1.95,.53,.48,1.26,.77,2.06,.77s1.53-.3,2.06-.77c.55-.5,.89-1.18,.89-1.95,0-.7-.28-1.33-.74-1.81l8.08-1.52-.25-1.33-17.61,3.31c.84-1.36,1.34-2.99,1.34-4.6,0-.5-.05-.99-.14-1.45h6.22v-1.36h-6.64c-.34-.79-.81-1.48-1.4-2.07-1.1-1.1-2.59-1.79-4.24-1.94V4.06h-1.36V12.4c-1.65,.15-3.14,.84-4.24,1.94-.59,.58-1.06,1.28-1.4,2.07h-6.64v1.36h6.22c-.09,.46-.14,.95-.14,1.45,0,1.61,.5,3.24,1.34,4.6h0Zm-6.42,.41c.27,.24,.44,.58,.44,.94s-.17,.7-.44,.94c-.29,.26-.7,.42-1.15,.42s-.86-.16-1.15-.42c-.27-.24-.44-.58-.44-.94s.17-.7,.44-.94c.63-.56,1.67-.56,2.3,0h0Zm26.22,0c.27,.24,.44,.58,.44,.94s-.17,.7-.44,.94c-.29,.26-.7,.42-1.15,.42s-.86-.16-1.15-.42c-.27-.24-.44-.58-.44-.94s.17-.7,.44-.94c.62-.56,1.68-.56,2.3,0h0Zm-10.3-8.93c-1-1-2.4-1.57-3.96-1.57s-2.96,.58-3.96,1.57c-.96,.96-1.56,2.31-1.56,3.92,0,1.72,.67,3.46,1.75,4.75,.99,1.18,2.32,1.97,3.77,1.97s2.78-.79,3.77-1.97c1.08-1.29,1.75-3.03,1.75-4.75,0-1.6-.59-2.96-1.56-3.92h0Zm-3.96,1.62l-2.32,.69v.99l2.32-.15,2.32,.15v-.99l-2.32-.69Z" style="fill:#040b1f; fill-rule:evenodd;"/></svg>