<?xml version="1.0" encoding="UTF-8"?><svg id="a" xmlns="http://www.w3.org/2000/svg" viewBox="0 0 64 64"><path d="m9.42,38.16h5.29c.44,0,.8-.36.8-.8v-2.96c0-.44-.36-.8-.8-.8h-5.29c-.44,0-.8.36-.8.8v2.96c0,.44.36.8.8.8Zm.8-2.96h3.69v1.36h-3.69v-1.36Z" style="fill:currentColor;"/><path d="m18.73,38.16h5.29c.44,0,.8-.36.8-.8v-2.96c0-.44-.36-.8-.8-.8h-5.29c-.44,0-.8.36-.8.8v2.96c0,.44.36.8.8.8Zm.8-2.96h3.69v1.36h-3.69v-1.36Z" style="fill:currentColor;"/><path d="m60.5,38.99c-.25-.45-.71-.72-1.21-.72h-1.63v-8.12c0-.38-.3-.69-.66-.69h-17.6c-.36,0-.66.31-.66.69v3.58h-8.19c-.37,0-.66.31-.66.69v7.49h-2.32v-7.09c.73-.61,1.05-1.9,1.05-2.37,0-.96-.89-1.72-2.03-1.72h-15.15v-4.46c0-.96-.89-1.72-2.03-1.72s-2.03.76-2.03,1.72v4.46h-.54c-1.14,0-2.03.75-2.03,1.72,0,.47.32,1.76,1.06,2.37v7.09h-.54c-.46,0-.97.31-1.29.79-.34.51-.62,1.4-.04,2.8l2.33,5.31c.02,1.98.4,4.64,1.42,6.37l.4.68.68-.39c1.54-.87,2.98-1.26,4.68-1.26,2.19,0,3.37.6,4.33,1.09.75.38,1.24.63,2.43.63s1.69-.25,2.44-.63c.95-.48,2.14-1.08,4.33-1.08s3.37.6,4.33,1.09c.75.38,1.24.63,2.43.63s1.68-.25,2.43-.63c.95-.48,2.14-1.08,4.33-1.08s3.37.6,4.33,1.08c.75.38,1.24.63,2.43.63s1.68-.25,2.44-.63c.95-.48,2.14-1.08,4.33-1.08.83,0,1.59.09,2.32.28l1.04.27-.04-1.07c-.04-1.23-.03-4.15.15-5.58.65-5.18,2.71-9.27,2.95-9.73.22-.44.21-.96-.03-1.39Zm-4.19-.72h-7.46v-3.1h7.46v3.1Zm-16.25-.41v-2.69h7.48v2.89h-7.5v-.19h.02Zm5.44,1.58l-1.9,2.46h-3.56v-2.46h5.46Zm3.36-8.6h7.48v2.95h-7.48v-2.95Zm-8.8,0h7.48v2.89h-7.48v-2.89Zm-8.85,4.27h7.5v2.95h-7.5v-2.95Zm0,4.33h7.5v2.46h-7.5v-2.46Zm-24.35-5.88c-.18-.18-.44-.85-.45-1.07.02-.04.17-.16.44-.16h1.34c.44,0,.8-.36.8-.8v-5.22s.16-.16.43-.16.42.12.43.12v5.26c0,.44.36.8.8.8h15.95c.27,0,.42.12.43.12,0,.26-.26.93-.44,1.11-.35.09-.61.4-.61.78v7.57H7.48v-7.57c0-.37-.26-.69-.61-.78Zm49.13,16.35c-.16,1.25-.19,3.38-.18,4.83-.54-.08-1.11-.12-1.7-.12-2.57,0-4.06.75-5.06,1.26-.67.34-.9.46-1.71.46s-1.04-.12-1.72-.46c-.99-.5-2.48-1.25-5.05-1.25s-4.06.75-5.06,1.26c-.67.34-.9.46-1.71.46s-1.04-.12-1.72-.46c-.99-.5-2.48-1.25-5.05-1.25s-4.06.75-5.05,1.26c-.68.34-.9.46-1.71.46s-1.03-.12-1.72-.46c-.99-.5-2.48-1.25-5.05-1.25-1.69,0-3.21.34-4.72,1.07-.63-1.51-.87-3.58-.87-5.04v-.17l-2.46-5.6c-.36-.86-.16-1.26-.03-1.37h1.03c.07.02.13.04.21.04h20.09c.07,0,.14-.02.21-.04h17.4l2.77-3.6,11.84-.03c-.51,1.04-2.37,5.07-3,10.04Z" style="fill:currentColor;"/><path d="m51.95,52.04c.16.04.34.06.51.06,1.11,0,2.14-.84,2.5-2.06.23-.76.16-1.56-.2-2.18-.3-.52-.77-.88-1.33-1.02-1.25-.3-2.58.6-3,1.99-.23.76-.16,1.56.2,2.18.29.52.76.88,1.32,1.02Zm.02-2.74c.2-.64.73-.99,1.09-.9.13.03.24.12.32.26.14.24.16.59.06.93-.2.65-.75.98-1.09.91-.13-.03-.24-.12-.32-.26-.14-.24-.16-.59-.06-.93Z" style="fill:currentColor;"/><path d="m31.15,19.81l2.96.19.72.05v-3.44l-.49-.15-3-.9-.19-.06-.19.06-3,.9-.49.15v3.44l.72-.05,2.96-.19Zm-2.32-2.19l2.32-.69,2.32.69v.99l-2.32-.15-2.32.15v-.99Z" style="fill:currentColor;"/><path d="m15.09,25.17c0,.76.34,1.45.89,1.95.53.48,1.26.77,2.06.77s1.53-.3,2.06-.77c.55-.5.89-1.18.89-1.95,0-.3-.05-.6-.15-.87l6.07,1.14c1.17,1.13,2.64,1.85,4.25,1.85s3.08-.72,4.25-1.85l6.07-1.14c-.1.27-.15.56-.15.87,0,.76.34,1.45.89,1.95.53.48,1.26.77,2.06.77s1.53-.3,2.06-.77c.55-.5.89-1.18.89-1.95,0-.7-.28-1.33-.74-1.81l8.08-1.52-.25-1.33-17.61,3.31c.84-1.36,1.34-2.99,1.34-4.6,0-.5-.05-.99-.14-1.45h6.22v-1.36h-6.64c-.34-.79-.81-1.48-1.4-2.07-1.1-1.1-2.59-1.79-4.24-1.94V4.06h-1.36v8.34c-1.65.15-3.14.84-4.24,1.94-.59.58-1.06,1.28-1.4,2.07h-6.64v1.36h6.22c-.09.46-.14.95-.14,1.45,0,1.61.5,3.24,1.34,4.6l-17.61-3.31-.25,1.33,8.08,1.52c-.46.48-.74,1.11-.74,1.81Zm28.01-.94c.62-.56,1.68-.56,2.3,0,.27.24.44.58.44.94s-.17.7-.44.94c-.29.26-.7.42-1.15.42s-.86-.16-1.15-.42c-.27-.24-.44-.58-.44-.94s.17-.7.44-.94Zm-15.92-8.93c1-1,2.4-1.57,3.96-1.57s2.96.58,3.96,1.57c.96.96,1.56,2.31,1.56,3.92,0,1.72-.67,3.46-1.75,4.75-.99,1.18-2.32,1.97-3.77,1.97s-2.78-.79-3.77-1.97c-1.08-1.29-1.75-3.03-1.75-4.75,0-1.6.59-2.96,1.56-3.92Zm-10.3,8.93c.63-.56,1.67-.56,2.3,0,.27.24.44.58.44.94s-.17.7-.44.94c-.29.26-.7.42-1.15.42s-.86-.16-1.15-.42c-.27-.24-.44-.58-.44-.94s.17-.7.44-.94Z" style="fill:currentColor;"/></svg>