<svg id="Layer_1" data-name="Layer 1" xmlns="http://www.w3.org/2000/svg" viewBox="0 0 33.6 34.05"><defs><style>.cls-1{fill:#0078ae;}</style></defs><path class="cls-1" d="M25.6,9.81a10.31,10.31,0,0,0-3.4-2.6,10.54,10.54,0,0,0-4.6-.8,9,9,0,0,0-4,.8A9.66,9.66,0,0,0,8,12.81a8.39,8.39,0,0,0-1,4.4,10.76,10.76,0,0,0,.8,4.4A14.24,14.24,0,0,0,10,25a10.73,10.73,0,0,0,7.6,3,11.24,11.24,0,0,0,4-.6,9.23,9.23,0,0,0,3-1.8c.6-.6,1-1.2,1.6-1.8a10,10,0,0,0,1-2.6H17.4v-5.8h16a3,3,0,0,1,.2,1.4v1.6a18.85,18.85,0,0,1-1,6,12.16,12.16,0,0,1-3,4.8,13.53,13.53,0,0,1-5.2,3.6,16.68,16.68,0,0,1-7,1.2,17.87,17.87,0,0,1-16-10.2A15.35,15.35,0,0,1,0,17a15.35,15.35,0,0,1,1.4-6.8,16.59,16.59,0,0,1,3.8-5.4A17.07,17.07,0,0,1,17.4,0,16.76,16.76,0,0,1,30,5.21Z"/></svg>