<?xml version="1.0" encoding="UTF-8"?><svg id="a" xmlns="http://www.w3.org/2000/svg" viewBox="0 0 64 64"><path d="M34.05,50.8l-3.46,3.46L9.06,32.74c-5.09-5.09-4.53-13.5,1.23-17.89,4.7-3.58,11.57-2.94,15.99,1.48l3.56,3.56c.41,.41,1.07,.41,1.48,0l3.56-3.56c4.42-4.42,11.3-5.06,15.99-1.48,4.6,3.5,5.86,9.52,3.66,14.38,0,0,0,.02,0,.03" style="fill:none; stroke:#040b1f; stroke-linecap:round; stroke-linejoin:round; stroke-width:1.6px;"/><g><path d="M49.31,47.2h10.62c1.23,0,2-1.33,1.38-2.4l-16.06-27.82c-.61-1.06-2.15-1.06-2.77,0l-16.06,27.82c-.61,1.07,.16,2.4,1.39,2.4h10.62" style="fill:none; stroke:#040b1f; stroke-linecap:round; stroke-linejoin:round; stroke-width:1.6px;"/><g><path d="M43.87,39.43h0c-1.04,0-1.91-.77-2.05-1.8l-1.12-8.78c-.17-1.36,.54-2.68,1.78-3.28h0c.88-.43,1.91-.43,2.79,0h0c1.24,.6,1.95,1.92,1.78,3.28l-1.12,8.78c-.13,1.03-1.01,1.8-2.05,1.8Z" style="fill:none; stroke:#040b1f; stroke-miterlimit:10; stroke-width:1.6px;"/><circle cx="43.87" cy="44.81" r="2.49" style="fill:none; stroke:#040b1f; stroke-miterlimit:10; stroke-width:1.6px;"/></g></g></svg>