<?xml version="1.0" encoding="utf-8"?>
<!-- Generator: Adobe Illustrator 26.2.1, SVG Export Plug-In . SVG Version: 6.00 Build 0)  -->
<svg version="1.1" id="health" xmlns="http://www.w3.org/2000/svg" xmlns:xlink="http://www.w3.org/1999/xlink" x="0px" y="0px"
	 viewBox="0 0 237.22 192.16" style="enable-background:new 0 0 237.22 192.16;" xml:space="preserve">
<style type="text/css">
	#health .st0{fill:#040B1F;}
	#health .st1{fill:none;stroke:#040B1F;stroke-width:8;stroke-linecap:round;stroke-linejoin:round;stroke-miterlimit:10;}
	#health .st2{fill:none;stroke:#040B1F;stroke-width:8;stroke-miterlimit:10;}
</style>
<path class="st0" d="M211.64,77.9c0,0.04-0.01,0.08-0.01,0.12c0.64,2.49,2.18,4.43,4.74,4.43c0.57-0.08,1.13-0.15,1.7-0.24
	c0.1-0.01,0.19-0.02,0.28-0.03c0.45-0.27,0.89-0.59,1.33-0.92c10.6-23.71,4.37-52.93-17.92-69.91
	c-22.91-17.45-56.32-14.48-77.71,6.91l-11.68,11.68l-11.68-11.68C79.28-3.14,45.88-6.11,22.96,11.35
	c-28.1,21.41-30.78,62.45-5.98,87.24l92.3,92.3c1.7,1.7,4.45,1.7,6.15,0l17.41-17.41c1.7-1.7,1.7-4.46,0-6.15
	c-1.7-1.7-4.45-1.7-6.15,0l-14.33,14.33L23.13,92.43C2.02,71.32,4.36,36.46,28.24,18.27C47.7,3.45,76.2,6.09,94.52,24.41
	l14.76,14.76c1.7,1.7,4.45,1.7,6.15,0l14.76-14.76c18.33-18.33,46.83-20.96,66.28-6.14C215.53,32.79,220.76,57.74,211.64,77.9z"/>
<g>
	<path class="st1" d="M187.94,148.87h39.36c4.56,0,7.4-4.93,5.13-8.88L172.9,36.89c-2.28-3.94-7.96-3.94-10.25,0l-59.52,103.09
		c-2.28,3.95,0.57,8.88,5.14,8.88h39.36"/>
	<g>
		<g>
			<path class="st2" d="M167.78,120.08L167.78,120.08c-3.85,0-7.1-2.86-7.59-6.68l-4.17-32.55c-0.65-5.05,2-9.95,6.59-12.16l0,0
				c3.26-1.58,7.07-1.58,10.33,0l0,0c4.58,2.22,7.23,7.12,6.59,12.16l-4.17,32.55C174.87,117.22,171.62,120.08,167.78,120.08z"/>
		</g>
		<circle class="st2" cx="167.78" cy="140.01" r="9.22"/>
	</g>
</g>
</svg>
