<?xml version="1.0" encoding="utf-8"?>
<!-- Generator: Adobe Illustrator 26.0.3, SVG Export Plug-In . SVG Version: 6.00 Build 0)  -->
<svg version="1.1" id="health" xmlns="http://www.w3.org/2000/svg" xmlns:xlink="http://www.w3.org/1999/xlink" x="0px" y="0px"
	 viewBox="0 0 238.22 193.16" style="enable-background:new 0 0 238.22 193.16;" xml:space="preserve">
<style type="text/css">
	#health .st0{fill:#040B1F;stroke:#040B1F;stroke-miterlimit:10;}
	#health .st1{fill:none;stroke:#040B1F;stroke-width:9;stroke-linecap:round;stroke-linejoin:round;stroke-miterlimit:10;}
	#health .st2{fill:none;stroke:#040B1F;stroke-width:9;stroke-miterlimit:10;}
</style>
<path class="st0" d="M212.13,78.4c0,0.04-0.01,0.08-0.01,0.12c0.64,2.49,2.18,4.43,4.74,4.43c0.57-0.08,1.13-0.15,1.7-0.24
	c0.1-0.01,0.19-0.02,0.28-0.03c0.45-0.27,0.89-0.59,1.33-0.92c10.6-23.71,4.37-52.93-17.92-69.91
	c-22.91-17.45-56.32-14.48-77.71,6.91l-11.68,11.68l-11.68-11.68C79.79-2.63,46.38-5.6,23.46,11.85
	C-4.64,33.26-7.32,74.3,17.48,99.09l92.3,92.3c1.7,1.7,4.45,1.7,6.15,0l17.41-17.41c1.7-1.7,1.7-4.46,0-6.15
	c-1.7-1.7-4.45-1.7-6.15,0l-14.33,14.33L23.62,92.93C2.51,71.82,4.85,36.96,28.72,18.77C48.18,3.94,76.68,6.58,95,24.91l14.76,14.76
	c1.7,1.7,4.45,1.7,6.15,0l14.76-14.76C149,6.58,177.5,3.95,196.95,18.77C216.02,33.29,221.25,58.23,212.13,78.4z"/>
<g>
	<path class="st1" d="M188.43,149.36h39.36c4.56,0,7.4-4.93,5.13-8.88L173.4,37.39c-2.28-3.94-7.96-3.94-10.25,0l-59.52,103.09
		c-2.28,3.95,0.57,8.88,5.14,8.88h39.36"/>
	<g>
		<g>
			<path class="st2" d="M168.27,120.58L168.27,120.58c-3.85,0-7.1-2.86-7.59-6.68l-4.17-32.55c-0.65-5.05,2-9.95,6.59-12.17l0,0
				c3.26-1.58,7.07-1.58,10.33,0l0,0c4.58,2.22,7.23,7.12,6.59,12.17l-4.17,32.55C175.36,117.72,172.11,120.58,168.27,120.58z"/>
		</g>
		<circle class="st2" cx="168.27" cy="140.51" r="9.22"/>
	</g>
</g>
</svg>
