<?xml version="1.0" encoding="UTF-8"?><svg id="a" xmlns="http://www.w3.org/2000/svg" viewBox="0 0 64 64"><path d="m34.85,50.91l-3.21,3.21-19.96-19.96c-4.72-4.72-4.2-12.52,1.14-16.59,4.35-3.32,10.73-2.73,14.83,1.37l3.3,3.3c.38.38,1,.38,1.38,0l3.3-3.3c4.1-4.1,10.47-4.69,14.83-1.37,4.26,3.25,5.43,8.83,3.39,13.34,0,0,0,.02,0,.03.14.56.49.99,1.06.99.13-.02.25-.03.38-.05.02,0,.04,0,.06,0,.1-.06.2-.13.3-.21,2.37-5.3.98-11.84-4.01-15.64-5.12-3.9-12.6-3.24-17.38,1.54l-2.61,2.61-2.61-2.61c-4.78-4.79-12.26-5.45-17.38-1.54-6.29,4.79-6.88,13.97-1.34,19.51l20.65,20.65c.38.38,1,.38,1.38,0l3.89-3.89c.38-.38.38-1,0-1.38-.38-.38-1-.38-1.38,0Z" /><path d="m61,44.85l-14.89-25.79c-.45-.78-1.25-1.24-2.15-1.24h0c-.9,0-1.7.46-2.15,1.24l-14.89,25.79c-.45.78-.45,1.71,0,2.48.45.78,1.25,1.24,2.15,1.24h9.85c.55,0,1-.45,1-1s-.45-1-1-1h-9.85c-.25,0-.38-.17-.42-.24-.04-.07-.13-.26,0-.48l14.89-25.79c.13-.22.33-.24.42-.24.1,0,.29.03.42.24l14.89,25.79c.13.22.04.41,0,.48-.05.09-.17.24-.42.24h-9.85c-.55,0-1,.45-1,1s.45,1,1,1h9.85c.9,0,1.7-.46,2.15-1.24.45-.78.45-1.71,0-2.48Z" /><path d="m45.69,26.61c-1.1-.53-2.36-.53-3.46,0-1.53.74-2.42,2.38-2.2,4.07l1.04,8.14c.19,1.45,1.43,2.54,2.89,2.54s2.7-1.09,2.89-2.54l1.04-8.14c.22-1.69-.67-3.33-2.2-4.07Zm-.82,11.96c-.06.45-.45.8-.91.8s-.85-.34-.91-.8l-1.04-8.14c-.11-.84.33-1.65,1.09-2.02.27-.13.56-.2.86-.2s.58.07.86.2c.76.37,1.2,1.18,1.09,2.02l-1.04,8.14Z" /><path d="m43.96,42.05c-1.82,0-3.31,1.48-3.31,3.31s1.48,3.31,3.31,3.31,3.31-1.48,3.31-3.31-1.48-3.31-3.31-3.31Zm0,4.61c-.72,0-1.31-.59-1.31-1.31s.59-1.31,1.31-1.31,1.31.59,1.31,1.31-.59,1.31-1.31,1.31Z" /></svg>