<?xml version="1.0" encoding="utf-8"?>
<!-- Generator: Adobe Illustrator 26.0.3, SVG Export Plug-In . SVG Version: 6.00 Build 0)  -->
<svg version="1.1" id="highways" xmlns="http://www.w3.org/2000/svg" xmlns:xlink="http://www.w3.org/1999/xlink" x="0px" y="0px"
	 viewBox="0 0 203.35 214.87" style="enable-background:new 0 0 203.35 214.87;" xml:space="preserve">
<style type="text/css">
	#highways .st1{fill:#040B1F;stroke:#040B1F;stroke-width:2.0001;stroke-miterlimit:10.0005;}
	#highways .st2{fill:#040B1F;stroke:#040B1F;stroke-width:2;stroke-miterlimit:10;}
</style>
<g id="Artwork_3_00000014602610454425837080000017162170242180089508_">
	<g class="st0">
		
			<rect x="71.58" y="3.01" transform="matrix(0.0699 -0.9976 0.9976 0.0699 64.7611 81.4133)" class="st1" width="8.91" height="5.94"/>
		
			<rect x="124.88" y="1.57" transform="matrix(0.9976 -0.0699 0.0699 0.9976 -0.1085 8.9508)" class="st1" width="5.94" height="8.91"/>
		<path class="st2" d="M155.58,79.37L143.76,1.14l-5.87,0.89l11.69,77.35h-34.14V1.59h-5.94v77.79H93.44V1.59H87.5v77.79H53.38
			L65.07,2.03L59.2,1.14L47.38,79.37H1v25.19h13.28v19.9h21.04l6.6-22.88h2.11L27.06,213.87h6l16.97-112.29h16.35l-0.55,7.79
			l5.92,0.42l0.58-8.21h15.18v112.29h5.94V101.58h16.06v112.29h5.94V101.58h16.09l0.58,8.21l5.92-0.42l-0.55-7.79h15.45
			l16.97,112.29h6l-16.97-112.29h1.89l8.8,22.88h21.72v-19.9h11V79.37L155.58,79.37L155.58,79.37z M196.41,98.62h-11v19.9H173.7
			l-8.8-22.88H37.45l-6.6,22.88H20.21v-19.9H6.93V85.31H196.4v13.31H196.41z"/>
		
			<rect x="126.91" y="26.99" transform="matrix(0.9976 -0.0699 0.0699 0.9976 -2.1473 9.1643)" class="st1" width="5.94" height="16.56"/>
		
			<rect x="129.23" y="60.03" transform="matrix(0.9976 -0.0699 0.0699 0.9976 -4.451 9.4073)" class="st1" width="5.94" height="16.56"/>
		
			<rect x="136.17" y="159.17" transform="matrix(0.9976 -0.0699 0.0699 0.9976 -11.364 10.1351)" class="st1" width="5.94" height="16.56"/>
		
			<rect x="138.49" y="192.19" transform="matrix(0.9976 -0.0699 0.0699 0.9976 -13.6663 10.3781)" class="st1" width="5.94" height="16.56"/>
		
			<rect x="133.86" y="126.12" transform="matrix(0.9976 -0.0699 0.0699 0.9976 -9.0594 9.8925)" class="st1" width="5.94" height="16.56"/>
		
			<rect x="63.41" y="65.27" transform="matrix(0.0699 -0.9976 0.9976 0.0699 -1.4001 134.9883)" class="st1" width="16.56" height="5.94"/>
		
			<rect x="65.71" y="32.23" transform="matrix(0.0699 -0.9976 0.9976 0.0699 33.7084 106.5504)" class="st1" width="16.56" height="5.94"/>
		
			<rect x="54.14" y="197.43" transform="matrix(0.0699 -0.9976 0.9976 0.0699 -141.8496 248.6661)" class="st1" width="16.56" height="5.94"/>
		
			<rect x="58.78" y="131.35" transform="matrix(0.0699 -0.9976 0.9976 0.0699 -71.6248 191.8291)" class="st1" width="16.56" height="5.94"/>
		
			<rect x="56.46" y="164.4" transform="matrix(0.0699 -0.9976 0.9976 0.0699 -106.7425 220.2543)" class="st1" width="16.56" height="5.94"/>
	</g>
</g>
</svg>
