<?xml version="1.0" encoding="UTF-8"?><svg id="a" xmlns="http://www.w3.org/2000/svg" viewBox="0 0 64 64"><g id="b"><g><path d="M20.42,6.43l-2.47,14.69c.44,.01,.89,.06,1.33,.14,.09,.03,.17,.07,.26,.11l2.47-14.72-1.59-.22Z" style="fill:#040b1f;"/><path d="M34.7,21.33c.38,0,.7,.08,.97,.22V6.54h-1.61v14.89c.2-.06,.4-.1,.64-.1Z" style="fill:#040b1f;"/><path d="M43.34,6.43l-1.59,.22,2.52,15c.25-.2,.56-.33,.93-.38,.18-.08,.38-.13,.6-.16l-2.47-14.68Z" style="fill:#040b1f;"/><path d="M57.62,27.29v2.92h-2.98v4.85h-3.17l-2.39-5.58H14.53l-1.79,5.58h-2.88v-4.85h-3.6v-3.21c-.37,.03-.74,.07-1.11,.14-.17,.03-.33,.04-.5,.04v4.48h3.6v4.85h5.7l1.79-5.58h.57l-4.6,26.38h1.63l4.6-26.38h4.33c.53-.2,1.16-.16,1.71,.08v-.08h4.12v26.38h1.61V30.93h4.35v26.38h1.61V30.93h4.34c.56-.24,1.24-.24,1.83,0h4l4.6,26.38h1.63l-4.6-26.38h.51l2.39,5.58h5.89v-4.85h2.98v-4.39c-.54,.02-1.07,.03-1.61,.02Z" style="fill:#040b1f;"/><path d="M28.81,21.24c.34,0,.64,.07,.9,.18V6.54h-1.61v14.82c.22-.07,.45-.12,.71-.12Z" style="fill:#040b1f;"/></g></g><line x1="6.25" y1="21.68" x2="57.62" y2="21.68" style="fill:none; stroke:#040b1f; stroke-linecap:round; stroke-miterlimit:10; stroke-width:1.6px;"/><line x1="5.22" y1="26.72" x2="58.65" y2="26.72" style="fill:none; stroke:#040b1f; stroke-linecap:round; stroke-miterlimit:10; stroke-width:1.6px;"/><line x1="5.59" y1="24.25" x2="57.62" y2="24.25" style="fill:none; stroke:#040b1f; stroke-dasharray:0 4; stroke-linecap:round; stroke-miterlimit:10; stroke-width:1.6px;"/><path d="M24.61,12.41s.04,0,.06,0c.41,0,.76-.32,.8-.74l.32-3.99c.03-.44-.29-.83-.73-.86-.43-.04-.83,.29-.86,.73l-.32,3.99c-.03,.44,.29,.83,.73,.86Z" style="fill:#040b1f;"/><path d="M21.25,52.84c-.45-.02-.83,.28-.86,.71l-.23,2.74c-.03,.42,.29,.8,.73,.83,.02,0,.04,0,.06,0,.41,0,.76-.31,.8-.71l.23-2.74c.03-.42-.29-.8-.73-.83Z" style="fill:#040b1f;"/><path d="M23.98,20.39s.04,0,.06,0c.41,0,.76-.32,.8-.74l.32-3.99c.03-.44-.29-.83-.73-.86-.43-.04-.83,.29-.86,.73l-.32,3.99c-.03,.44,.29,.83,.73,.86Z" style="fill:#040b1f;"/><path d="M23.15,30.49c-.43-.04-.83,.25-.86,.61l-.32,3.34c-.03,.37,.29,.69,.73,.72,.02,0,.04,0,.06,0,.41,0,.76-.27,.8-.62l.32-3.34c.03-.37-.29-.69-.73-.72Z" style="fill:#040b1f;"/><path d="M22.52,37.47c-.45-.02-.83,.28-.86,.71l-.32,3.84c-.03,.42,.29,.8,.73,.83,.02,0,.04,0,.06,0,.41,0,.76-.31,.8-.71l.32-3.84c.03-.42-.29-.8-.73-.83Z" style="fill:#040b1f;"/><path d="M21.89,45.16c-.45-.03-.83,.28-.86,.71l-.32,3.84c-.04,.42,.29,.8,.73,.83,.02,0,.04,0,.06,0,.41,0,.76-.31,.8-.71l.32-3.84c.04-.42-.29-.8-.73-.83Z" style="fill:#040b1f;"/><path d="M41.58,35.11c.44-.04,.76-.35,.72-.71l-.4-3.23c-.04-.36-.43-.62-.88-.58-.44,.04-.76,.35-.72,.71l.4,3.23c.04,.33,.39,.58,.79,.58,.03,0,.05,0,.08,0Z" style="fill:#040b1f;"/><path d="M39.11,12.41s.05,0,.08,0c.44-.04,.76-.44,.72-.88l-.4-3.98c-.04-.44-.42-.77-.88-.72-.44,.04-.76,.44-.72,.88l.4,3.98c.04,.41,.39,.72,.79,.72Z" style="fill:#040b1f;"/><path d="M38.71,15.67l.4,3.98c.04,.41,.39,.72,.79,.72,.03,0,.05,0,.08,0,.44-.04,.76-.44,.72-.88l-.4-3.98c-.04-.44-.43-.77-.88-.72-.44,.04-.76,.44-.72,.88Z" style="fill:#040b1f;"/><path d="M42.37,42.78c.44-.04,.76-.42,.72-.84l-.4-3.84c-.04-.42-.42-.74-.88-.69-.44,.04-.76,.42-.72,.84l.4,3.84c.04,.4,.39,.69,.79,.69,.03,0,.05,0,.08,0Z" style="fill:#040b1f;"/><path d="M43.41,52.76c-.44,.04-.76,.42-.72,.84l.29,2.82c.04,.4,.39,.69,.79,.69,.03,0,.05,0,.08,0,.44-.04,.76-.42,.72-.84l-.29-2.82c-.04-.42-.43-.74-.88-.69Z" style="fill:#040b1f;"/><path d="M43.17,50.46c.44-.04,.76-.42,.72-.84l-.4-3.84c-.04-.42-.43-.74-.88-.69-.44,.04-.76,.42-.72,.84l.4,3.84c.04,.4,.39,.69,.79,.69,.03,0,.05,0,.08,0Z" style="fill:#040b1f;"/></svg>