<?xml version="1.0" encoding="UTF-8"?><svg id="a" xmlns="http://www.w3.org/2000/svg" viewBox="0 0 64 64"><path d="m6.25,22.48h51.37c.44,0,.8-.36.8-.8s-.36-.8-.8-.8h-11.85l-2.43-14.45-1.59.22,2.39,14.23h-8.48V6.54h-1.61v14.34h-4.35V6.54h-1.61v14.34h-8.47l2.39-14.23-1.59-.22-2.43,14.45H6.25c-.44,0-.8.36-.8.8s.36.8.8.8Z" style="fill:currentColor;"/><path d="m59.42,26.72c0-.44-.36-.8-.8-.8H5.14c-.44,0-.8.36-.8.8,0,.25.12.46.3.61v4.32h3.6v4.85h5.7l1.79-5.58h.57l-4.6,27.38h1.63l4.6-27.38h4.33c.17-.06.34-.1.52-.11-.26.11-.47.36-.49.67l-.32,3.99c-.03.44.29.83.73.86.02,0,.04,0,.06,0,.41,0,.76-.32.8-.74l.32-3.99c.02-.32-.15-.61-.41-.76.17.04.34.08.5.16v-.08h4.12v27.38h1.61v-27.38h4.35v27.38h1.61v-27.38h4.34c.27-.11.57-.17.86-.17-.36.11-.61.44-.57.83l.4,3.98c.04.41.39.72.79.72.03,0,.05,0,.08,0,.44-.04.76-.44.72-.88l-.4-3.98c-.03-.25-.17-.46-.37-.59.1.03.21.05.31.09h4l4.6,27.38h1.63l-4.6-27.38h.51l2.39,5.58h5.89v-4.85h2.98v-4.39s-.02,0-.03,0c.13-.14.22-.33.22-.54Zm-4.78,3.48v4.85h-3.17l-2.39-5.58H14.53l-1.79,5.58h-2.88v-4.85h-3.6v-2.68h51.37v2.68h-2.98Z" style="fill:currentColor;"/><path d="m13.59,23.74c-.44,0-.8.36-.8.8s.36.8.8.8h4c.44,0,.8-.36.8-.8s-.36-.8-.8-.8h-4Z" style="fill:currentColor;"/><path d="m21.59,23.74c-.44,0-.8.36-.8.8s.36.8.8.8h4c.44,0,.8-.36.8-.8s-.36-.8-.8-.8h-4Z" style="fill:currentColor;"/><path d="m29.59,23.74c-.44,0-.8.36-.8.8s.36.8.8.8h4c.44,0,.8-.36.8-.8s-.36-.8-.8-.8h-4Z" style="fill:currentColor;"/><path d="m5.59,25.34h4c.44,0,.8-.36.8-.8s-.36-.8-.8-.8h-4c-.44,0-.8.36-.8.8s.36.8.8.8Z" style="fill:currentColor;"/><path d="m37.59,23.74c-.44,0-.8.36-.8.8s.36.8.8.8h4c.44,0,.8-.36.8-.8s-.36-.8-.8-.8h-4Z" style="fill:currentColor;"/><path d="m45.59,23.74c-.44,0-.8.36-.8.8s.36.8.8.8h4c.44,0,.8-.36.8-.8s-.36-.8-.8-.8h-4Z" style="fill:currentColor;"/><path d="m57.59,23.74h-4c-.44,0-.8.36-.8.8s.36.8.8.8h4c.44,0,.8-.36.8-.8s-.36-.8-.8-.8Z" style="fill:currentColor;"/><path d="m23.98,20.39s.04,0,.06,0c.41,0,.76-.32.8-.74l.32-3.99c.03-.44-.29-.83-.73-.86-.43-.04-.83.29-.86.73l-.32,3.99c-.03.44.29.83.73.86Z" style="fill:currentColor;"/><path d="m24.61,12.41s.04,0,.06,0c.41,0,.76-.32.8-.74l.32-3.99c.03-.44-.29-.83-.73-.86-.43-.04-.83.29-.86.73l-.32,3.99c-.03.44.29.83.73.86Z" style="fill:currentColor;"/><path d="m22.52,38.73c-.45-.02-.83.29-.86.73l-.32,3.99c-.03.44.29.83.73.86.02,0,.04,0,.06,0,.41,0,.76-.32.8-.74l.32-3.99c.03-.44-.29-.83-.73-.86Z" style="fill:currentColor;"/><path d="m21.25,54.68c-.45-.02-.83.29-.86.73l-.23,2.84c-.03.44.29.83.73.86.02,0,.04,0,.06,0,.41,0,.76-.32.8-.74l.23-2.84c.03-.44-.29-.83-.73-.86Z" style="fill:currentColor;"/><path d="m21.89,46.7c-.45-.03-.83.29-.86.73l-.32,3.99c-.04.44.29.83.73.86.02,0,.04,0,.06,0,.41,0,.76-.32.8-.74l.32-3.99c.04-.44-.29-.83-.73-.86Z" style="fill:currentColor;"/><path d="m39.11,12.41s.05,0,.08,0c.44-.04.76-.44.72-.88l-.4-3.98c-.04-.44-.42-.77-.88-.72-.44.04-.76.44-.72.88l.4,3.98c.04.41.39.72.79.72Z" style="fill:currentColor;"/><path d="m43.41,54.59c-.44.04-.76.44-.72.88l.29,2.93c.04.41.39.72.79.72.03,0,.05,0,.08,0,.44-.04.76-.44.72-.88l-.29-2.93c-.04-.44-.43-.76-.88-.72Z" style="fill:currentColor;"/><path d="m38.71,15.67l.4,3.98c.04.41.39.72.79.72.03,0,.05,0,.08,0,.44-.04.76-.44.72-.88l-.4-3.98c-.04-.44-.43-.77-.88-.72-.44.04-.76.44-.72.88Z" style="fill:currentColor;"/><path d="m42.37,44.24c.44-.04.76-.44.72-.88l-.4-3.98c-.04-.44-.42-.76-.88-.72-.44.04-.76.44-.72.88l.4,3.98c.04.41.39.72.79.72.03,0,.05,0,.08,0Z" style="fill:currentColor;"/><path d="m43.17,52.2c.44-.04.76-.44.72-.88l-.4-3.98c-.04-.44-.43-.77-.88-.72-.44.04-.76.44-.72.88l.4,3.98c.04.41.39.72.79.72.03,0,.05,0,.08,0Z" style="fill:currentColor;"/></svg>