<?xml version="1.0" encoding="utf-8"?>
<!-- Generator: Adobe Illustrator 26.2.1, SVG Export Plug-In . SVG Version: 6.00 Build 0)  -->
<svg version="1.1" id="house" xmlns="http://www.w3.org/2000/svg" xmlns:xlink="http://www.w3.org/1999/xlink" x="0px" y="0px"
	 viewBox="0 0 210 203" style="enable-background:new 0 0 210 203;" xml:space="preserve">
<style type="text/css">
	#house .st0{fill:none;stroke:#040B1F;stroke-width:7;stroke-linecap:round;stroke-linejoin:round;stroke-miterlimit:10;}
	#house .st1{fill:none;stroke:#040B1F;stroke-width:7;stroke-miterlimit:10;}
</style>
<path class="st0" d="M152.5,180.5v-25c0-7-4-13-11-15l-25-7l-7,9h-10l-7-9l-25,7c-7,2-12,8-12,15v25"/>
<path class="st1" d="M113.5,121.5h-19c-6,0-10-5-10-11v-26c0-6,4-10,10-10h19c6,0,11,4,11,10v26
	C124.5,116.5,119.5,121.5,113.5,121.5z"/>
<path class="st0" d="M180.5,92.5h26v-16l-38-26v-36h-22v20l-42-31l-101,73v16h26v98c0,5,4,9,9,9h133c5,0,9-4,9-9V92.5z"/>
</svg>
