<svg version="1.1" xmlns="http://www.w3.org/2000/svg" x="0" y="0" viewBox="0 0 211.4 205.9" style="enable-background:new 0 0 211.39 205.87" xml:space="preserve"><path style="fill:none;stroke:#040b1f;stroke-width:9;stroke-miterlimit:10" d="M154 177v-28c0-7-5-14-12-16l-25-8-6 11h-11l-6-11-26 8c-7 2-12 9-12 16v28M114 112H96c-6 0-11-5-11-11V76c0-6 5-11 11-11h18c6 0 11 5 11 11v25c0 6-5 11-11 11z"/><path style="fill:none;stroke:#040b1f;stroke-width:9;stroke-miterlimit:10" d="M181 95h26V79l-37-26V17h-22v19L105 6 5 79v16h26v97c0 5 4 9 8 9h133c5 0 9-4 9-9V95z"/></svg>