<?xml version="1.0" encoding="UTF-8"?><svg id="a" xmlns="http://www.w3.org/2000/svg" viewBox="0 0 64 64"><g><path d="M46.77,55.01v-18.39c0-1.43-1.36-2.7-3.37-3.14l-7.06-1.53-1.9,2.01h-2.92l-1.9-2.01-7.36,1.54c-2.03,.42-3.41,1.7-3.41,3.15v5.37" style="fill:none; stroke:#040b1f; stroke-linecap:round; stroke-linejoin:round; stroke-width:1.6px;"/><path d="M52.72,30.08h6.89v-4.18s-9.87-7.01-9.87-7.01V9.42h-5.84v5.11l-11.21-8.1L6.01,25.9l.03,4.16h6.87v25.89c0,1.3,1.06,2.36,2.36,2.36H50.36c1.3,0,2.36-1.06,2.36-2.36V30.08Z" style="fill:none; stroke:#040b1f; stroke-miterlimit:10; stroke-width:1.6px;"/></g><polyline points="27.09 54.83 27.09 37.53 38.59 37.53 38.59 54.83" style="fill:none; stroke:#040b1f; stroke-linecap:round; stroke-linejoin:round; stroke-width:1.6px;"/><circle cx="35.92" cy="47.96" r="1.3" style="fill:#040b1f;"/><circle cx="32.84" cy="22.96" r="6.94" style="fill:none; stroke:#040b1f; stroke-miterlimit:10; stroke-width:1.6px;"/><line x1="22.9" y1="42.8" x2="22.9" y2="55.01" style="fill:none; stroke:#040b1f; stroke-linecap:round; stroke-linejoin:round; stroke-width:1.6px;"/><line x1="42.67" y1="42.62" x2="42.67" y2="54.83" style="fill:none; stroke:#040b1f; stroke-linecap:round; stroke-linejoin:round; stroke-width:1.6px;"/></svg>