<?xml version="1.0" encoding="UTF-8"?><svg id="a" xmlns="http://www.w3.org/2000/svg" viewBox="0 0 64 64"><path d="m43.58,32.71l-7.06-1.53c-.27-.06-.56.03-.75.23l-1.66,1.76h-2.23l-1.66-1.76c-.19-.2-.48-.29-.75-.23l-7.36,1.54c-2.42.5-4.05,2.08-4.05,3.93v5.38s0,0,0,.02c0,.07.02.13.04.19.01.04.01.08.03.11.02.05.06.09.09.14.03.04.05.08.08.11.03.03.07.05.11.07.05.04.1.07.16.1,0,0,0,0,.01,0l.24.09s-.02.07-.02.11l.18,11.88c0,.44.36.79.8.79h.01c.44,0,.79-.37.79-.81l-.18-11.37,1.31.49v10.88c0,.44.36.8.8.8s.8-.36.8-.8v-11.44c0-.33-.21-.63-.52-.75l-3.14-1.18v-4.82c0-1.05,1.14-2.02,2.78-2.36l6.92-1.45,1.59,1.69c.15.16.36.25.58.25h2.92c.22,0,.43-.09.58-.25l1.59-1.68,6.62,1.44c1.61.35,2.73,1.32,2.73,2.35v4.84l-3.14,1.18c-.31.12-.52.42-.52.75v11.44c0,.44.36.8.8.8s.8-.36.8-.8v-10.88l1.3-.49.14,11.37c0,.44.36.79.8.79h0c.44,0,.8-.37.79-.81l-.14-11.45c0-.17-.07-.32-.16-.45l.4-.15s0,0,.01,0c.06-.02.11-.06.16-.1.04-.02.08-.04.11-.07.03-.03.05-.07.08-.11.03-.05.07-.09.09-.14.02-.04.02-.08.03-.11.02-.06.04-.12.04-.19,0,0,0,0,0-.01v-5.39c0-1.83-1.61-3.4-4-3.92Z" /><path d="m31.59,30.41h2.49c2.92,0,5.3-2.38,5.3-5.3v-4.41c0-2.92-2.38-5.3-5.3-5.3h-2.49c-2.92,0-5.3,2.38-5.3,5.3v4.41c0,2.92,2.38,5.3,5.3,5.3Zm2.49-1.6h-2.49c-2.04,0-3.7-1.66-3.7-3.7v-2.63c1.1-.47,3.61-1.72,4.98-3.9.9,1.56,2.56,3.75,4.91,4.11v2.43c0,2.04-1.66,3.7-3.7,3.7Zm3.7-8.11v.34c-1.97-.48-3.37-2.91-3.93-4.04h.23c2.04,0,3.7,1.66,3.7,3.7Zm-6.19-3.7h.3c-.77,1.86-2.75,3.1-4,3.71h0c0-2.05,1.66-3.71,3.7-3.71Z" /><path d="m50.54,18.48v-9.85h-7.44v4.35l-10.41-7.53L5.2,25.5l.04,5.36h6.87v25.09c0,1.74,1.42,3.16,3.16,3.16h35.09c1.74,0,3.16-1.42,3.16-3.16v-25.08h6.89l.02-5.39-9.88-7.01Zm8.27,10.8h-6.89v26.68c0,.86-.7,1.56-1.56,1.56H15.27c-.86,0-1.56-.7-1.56-1.56v-26.69h-6.88l-.02-2.96L32.69,7.42l12,8.68v-5.88h4.24v9.08l9.88,7.01v2.97Z" /><path d="m38.59,36.73h-11.49c-.44,0-.8.36-.8.8v17.31c0,.44.36.8.8.8s.8-.36.8-.8v-16.51h9.89v16.51c0,.44.36.8.8.8s.8-.36.8-.8v-17.31c0-.44-.36-.8-.8-.8Z" /><circle cx="35.92" cy="47.96" r="1.3" /></svg>