<?xml version="1.0" encoding="utf-8"?>
<!-- Generator: Adobe Illustrator 26.2.1, SVG Export Plug-In . SVG Version: 6.00 Build 0)  -->
<svg version="1.1" id="imag" xmlns="http://www.w3.org/2000/svg" xmlns:xlink="http://www.w3.org/1999/xlink" x="0px" y="0px"
	 viewBox="0 0 232 227.5" style="enable-background:new 0 0 232 227.5;" xml:space="preserve">
<style type="text/css">
	#imag .st0{fill:#040B1F;}
	#imag .st1{fill:none;stroke:#040B1F;stroke-width:7;stroke-miterlimit:10;stroke-dasharray:14;}
	#imag .st2{fill-rule:evenodd;clip-rule:evenodd;fill:#040B1F;}
</style>
<path class="st0" d="M157.5,213l-1-1c-2,0-2-1-2-2c5-8,19-11,30-11l2,2c0,1-1,2-3,2c-9,0-20,2-24,8L157.5,213z M86.5,213h-1
	c-2-1-2-2-1-2c1-1,3-3,2-4c-3-3-11-5-19-8c-8-2-16-4-21-8c-4-3-2-6,1-10c2-3,4-6,0-7c-3-2-9-2-11-2h-5c-2-1-1-2,0-2c4-2,14,0,20,2
	c8,2,5,7,2,11c-2,2-4,6-2,7c4,3,11,5,18,7c9,2,19,5,23,9c3,4-2,7-3,7H86.5z"/>
<path class="st0" d="M122.5,209l-3-1c-1-5-2-8-8-11l-17-2c-9-1-17-2-22-5c-4-4-3-7-1-11c1-2,2-5,1-7c-3-3-9-5-15-8c-10-3-20-7-19-14
	c1-10,16-15,45-16l3,1c0,1-1,2-3,2c-25,1-38,5-39,14c-1,5,8,8,16,11s15,5,18,9c2,3,0,6-1,9s-3,6,0,8c4,2,11,3,18,4c7,0,15,1,20,3
	c8,4,10,7,10,13L122.5,209z M144.5,210h-1c-2,0-3-1-3-2c0,0,3-6,9-9s14-5,21-6c7-2,14-3,19-6c11-5,10-21,10-21c0-1,1-2,3-2l4,2
	c0,1,0,17-12,23c-5,3-13,5-21,6c-7,2-14,3-19,6c-5,2-7,8-7,8L144.5,210z M33.5,191h-1v-3l2-3c-1-2-3-3-7-4c-3-2-8-3-10-6
	c-3-5-2-11,0-15l3-1l2,3c-2,5-2,9-1,11l8,4c4,1,9,3,10,8c0,3-3,5-3,6H33.5z M160.5,162c-3-5-13-9-24-11c-11-1-28-2-32,3
	c-2,3,4,6,9,8c4,1,7,2,8,4s-1,3-2,5c-3,2-6,4-1,7c3,2,7,2,12,3c6.78,0.07,13.53-0.95,20-3C161.5,175,164.5,167,160.5,162z
	 M146.5,176l-16,2l-6-2c-3-1-1-2,1-4s4-4,3-7l-10-5c-5-2-8-3-8-5h1c1-2,5-2,10-2l12,1c10,1,18,5,21,8C157.5,167,155.5,173,146.5,176
	z"/>
<path class="st0" d="M183.5,160c-6-10-27-19-52-21c-24-2-55,2-60,13c-3,5,4,8,11,10c4,2,9,4,11,7v7c-2,3-3,7,3,10c7,3,19,5,31,5
	c13,0,27-2,37-5C182.5,180,188.5,168,183.5,160z M160.5,184c-16,5-47,6-59,0c-4-2-3-5-2-8c1-2,2-5,0-8s-8-5-12-8c-6-2-10-4-10-6l1-2
	c3-7,22-10,41-10h11c22,2,41,9,46,18C181.5,168,176.5,179,160.5,184z M198.5,154l-3-1c-6-8-17-13-39-16l-2-2l4-1c24,4,36,9,43,18
	c1,1,0,2-2,2H198.5z"/>
<path class="st1" d="M228.5,172c0,30-47,52-110,52s-115-23-115-53s51-52,115-52S228.5,143,228.5,172z"/>
<path class="st2" d="M53.5,26h30V10h-4V3h49v7h-7l6,16h47l17-25l1-1h32v53h-3l-87,19l-1,1l-14,1l-21,21c0,9-10,15-19,9
	c-7-8-3-17,4-20v-6l-16,1h-2l-22-11l-2-1V57h-9v32h-7V57h-10v-7h10V18h7v32h9v-9l1-1l8-12l2-2H53.5z M90.5,10v16h3l16-16H90.5z
	 M95.5,88l13-13l-18,2v7L95.5,88z M87.5,91c-4,0-6,4-3,7s7,0,7-3C91.5,93,89.5,91,87.5,91z M103.5,26h17l-5-11L103.5,26z M176.5,33
	h-121l-7,10v19l19,10l65-7l85-18V7h-21l-17,25l-1,1H176.5z"/>
<path class="st1" d="M213.5,139l-54-76 M26.5,131l44-64"/>
</svg>
