<?xml version="1.0" encoding="utf-8"?>
<!-- Generator: Adobe Illustrator 26.0.3, SVG Export Plug-In . SVG Version: 6.00 Build 0)  -->
<svg version="1.1" id="imagery" xmlns="http://www.w3.org/2000/svg" xmlns:xlink="http://www.w3.org/1999/xlink" x="0px" y="0px"
	 viewBox="0 0 212.67 261.62" style="enable-background:new 0 0 212.67 261.62;" xml:space="preserve">
<style type="text/css">
	#imagery .st0{fill:#040B1F;}
	#imagery .st1{fill:#040B1F;stroke:#000000;stroke-miterlimit:10;}
	#imagery .st2{fill-rule:evenodd;clip-rule:evenodd;fill:#040B1F;}
	#imagery .st3{fill:none;stroke:#040B1F;stroke-width:7;stroke-linecap:round;stroke-linejoin:round;stroke-miterlimit:10;}
</style>
<g>
	<path class="st0" d="M177.62,227.99c-0.33,0.1-0.68,0.14-1.05,0.09c-1.39-0.16-2.39-1.43-2.23-2.83
		c1.37-11.54,12.97-19.92,23.75-23.1c1.35-0.39,2.76,0.38,3.16,1.73c0.4,1.35-0.33,2.76-1.73,3.16
		c-8.93,2.64-19.04,9.62-20.13,18.81C179.27,226.89,178.55,227.71,177.62,227.99z"/>
	<path class="st0" d="M111.81,247.84c-0.4,0.06-0.82,0.03-1.23-0.12c-1.33-0.47-2.02-1.92-1.55-3.24c0.48-1.39,1.38-5.48-0.2-7.67
		c-3.09-4.28-9.1-4.98-15.47-5.72c-6.48-0.75-13.19-1.53-17.99-6.1c-3.94-3.75-3.59-10.87-3.25-17.77c0.28-5.7,0.6-12.16-2.12-12.93
		c-3.04-0.87-7.56,0.23-8.79,2.12c-0.76,1.18-2.34,1.52-3.52,0.76c-1.18-0.76-1.52-2.34-0.76-3.52c2.69-4.16,9.78-5.58,14.45-4.26
		c6.61,1.87,6.2,10.11,5.81,18.07c-0.27,5.48-0.57,11.69,1.68,13.83c3.57,3.4,9.15,4.04,15.06,4.73c7.18,0.83,14.6,1.7,19.01,7.79
		c3.41,4.72,1.14,11.57,0.87,12.34C113.5,247.09,112.7,247.7,111.81,247.84z"/>
	<path class="st1" d="M89.44,182.35c0.21,0.42,0.38,0.85,0.53,1.3c1.01-1.5,2.51-1.98,3.93-1.75c-0.18-0.5-0.39-0.99-0.64-1.48
		c-2.77-5.5-8.24-8.59-13.53-11.58c-6.61-3.74-12.85-7.27-13.55-15.16c-0.9-10.22,3.91-17.45,14.68-21.94
		c-0.36-0.58-0.71-1.18-1.02-1.8c-0.39-0.75-0.54-1.49-0.52-2.18c-12.63,5.23-18.48,14.04-17.4,26.29
		c0.9,10.13,8.76,14.58,15.71,18.51C82.58,175.36,87.25,178.01,89.44,182.35z"/>
	<path class="st0" d="M145.97,239.79c-2.19-10.04-4.77-16.46-12.11-21.59c-5.07-3.55-11.45-3.91-17.62-4.25
		c-6.37-0.36-12.39-0.7-15.84-4.56c-1.92-2.15-2.56-5.04-2.7-8.29c-1.27,2.35-2.62,4.65-4,6.95c-0.04,0.06-0.08,0.11-0.11,0.17
		c0.62,1.68,1.52,3.28,2.81,4.73c4.93,5.52,12.35,5.94,19.53,6.34c5.67,0.32,11.03,0.62,14.85,3.29c5.96,4.17,7.96,9.24,9.95,18.35
		c0.3,1.39,1.63,2.29,3.02,2.07c0.06-0.01,0.11-0.02,0.17-0.03C145.37,242.66,146.29,241.23,145.97,239.79z"/>
	<path class="st0" d="M158.51,232.62c-0.15,0.02-0.31,0.03-0.47,0.03c-1.4-0.04-2.51-1.22-2.46-2.62c0.01-0.42,0.36-10.47,4.09-16.9
		c3.34-5.77,8.8-9.48,14.07-13.07c5.02-3.42,9.77-6.65,12.53-11.42c6.35-10.96,1.63-38.26,1.58-38.54c-0.24-1.38,0.68-2.7,2.06-2.95
		c1.36-0.34,2.7,0.68,2.95,2.06c0.21,1.19,5.09,29.41-2.19,41.97c-3.34,5.77-8.8,9.48-14.07,13.07c-5.03,3.42-9.77,6.65-12.53,11.42
		c-3.08,5.31-3.4,14.42-3.41,14.51C160.63,231.43,159.7,232.44,158.51,232.62z"/>
	<path class="st0" d="M97.73,166.21c0.44-1.73,1.07-3.21,1.92-4.6c-0.8-0.63-1.6-1.25-2.38-1.84c-4.43-3.37-8.08-6.1-8.8-10.83
		c-0.13-0.84-0.16-1.69-0.1-2.66c0.17-2.59,0.89-5.02,2.02-7.25c-1.51-0.82-2.93-1.9-4.12-3.18c-1.67,3.03-2.72,6.4-2.97,10.08
		c-0.64,9.23,5.22,13.64,10.89,17.92c1.17,0.87,2.33,1.76,3.47,2.7C97.68,166.44,97.7,166.33,97.73,166.21z"/>
	<path class="st0" d="M165.74,155.38c2.84,12.14,0.91,27.95-8.01,36.93c-10.55,10.61-32.72,15.95-43.52,7.07
		c-3.11-2.57-3.41-6.54-3.35-11.16c-0.92,0.97-1.91,1.88-3.02,2.78c-0.59,0.47-1.27,0.79-1.98,0.97c0.28,4.23,1.38,8.25,5.12,11.34
		c6.32,5.17,15.41,6.48,24.5,5.09c9.79-1.51,19.61-6.17,25.88-12.49c10.27-10.36,12.59-27.79,9.42-41.54
		C169.41,155.51,167.53,156.05,165.74,155.38z"/>
	<path class="st0" d="M107.91,125.24c2.66-0.94,5.44-1.64,8.27-2.08c2.82-0.43,5.67-0.6,8.47-0.48
		c14.25,0.52,28.05,8.55,35.74,20.25c2.34,0.01,4.72,0.63,6.87,1.68c-7.8-15.41-24.79-26.35-42.43-27.04
		c-6.42-0.24-13.1,0.82-19.19,3.03c0.77,1.34,1.36,2.77,1.9,4.24C107.66,124.99,107.78,125.12,107.91,125.24z"/>
	<path class="st0" d="M182.24,137.79c-1.03,0.16-2.09-0.33-2.62-1.29c-7.09-12.88-17.65-19.77-36.46-23.75
		c-1.38-0.29-2.25-1.64-1.96-3.02c0.29-1.38,1.64-2.25,3.02-1.96c20.43,4.33,31.98,11.94,39.87,26.28c0.68,1.23,0.23,2.78-1,3.46
		C182.81,137.65,182.53,137.75,182.24,137.79z"/>
</g>
<path class="st2" d="M21.82,9.4c-2.64-1.47-4.47-1.3-5.75-0.44c-1.29,0.86-2.15,2.48-1.81,5.48c0.71,6.29,5.73,14.74,9.15,19.89
	c5.14,7.72,12.62,19.07,19.68,29.78c27.54,41.78,47.79,72.49,80.25,111.79c0.82,1.02,1.92,1.86,3.3,1.68
	c0.48-0.06,0.95-0.25,1.37-0.53c0.42-0.28,0.77-0.64,1.01-1.06c0.71-1.23,0.32-2.52-0.28-3.69c-23.75-45.1-44.29-75.63-72.22-117.14
	c-7.16-10.64-14.75-21.93-19.89-29.64C33.21,20.36,27.34,12.48,21.82,9.4L21.82,9.4z M58.64,43.72l11.28-7.52l3.4-2.27l2.27,3.4
	L85.83,52.7c8.33,0.44,18.44-0.49,28.7-1.43c26.13-2.39,53.23-4.87,62.08,13.87l1.77,3.74l-3.77,1.71l-75.49,34.29
	c7.6,12.01,14.95,24.12,22.41,37.22c5.3,0.14,11.28-0.43,17.23-1.01c16.05-1.55,31.96-3.09,39.42,8.36l2.6,3.98l-4.32,1.96
	l-38.96,17.69c0.32,2.56-0.25,4.95-1.41,6.97c-0.89,1.53-2.11,2.83-3.54,3.78s-3.09,1.59-4.85,1.81c-2.31,0.29-4.74-0.1-6.98-1.38
	l-31.34,29.13l-3.47,3.23l-2.67-3.93c-7.68-11.3-0.13-25.38,7.49-39.6c2.82-5.27,5.66-10.56,7.57-15.51
	c-9.21-11.93-17.56-23.38-25.71-35.03l-60.74,56.43l-3.04,2.82l-2.77-3.08c-13.88-15.39-1.15-39.44,11.13-62.63
	c4.82-9.11,9.57-18.07,12.38-25.93L19.31,74.79l-2.27-3.4l3.4-2.27l11.28-7.52c-4.03-6.11-8.68-13.13-15.12-22.8
	C12.38,32.6,7,22.89,6.14,15.29C5.38,8.54,7.88,4.53,11.52,2.1c3.64-2.43,8.31-3.19,14.25,0.12c6.81,3.79,13.43,12.35,17.66,18.71
	C49.88,30.65,54.57,37.65,58.64,43.72L58.64,43.72z M94.69,97.97l72.22-32.81c-8.73-9.68-30.52-7.68-51.61-5.75
	c-11.39,1.04-22.6,2.07-32.09,1.29l-1.99-0.16l-1.08-1.63l-9.08-13.63l-7.85,5.23l0.08,0.11C74.75,67.66,84.98,82.86,94.69,97.97
	L94.69,97.97z M36.22,68.47l-7.85,5.23l9.08,13.63l1.08,1.63l-0.62,1.9c-2.94,9.06-8.2,19.01-13.56,29.11
	c-9.91,18.71-20.15,38.05-14.59,49.84l58.11-53.99c-10.2-14.79-20.28-30.08-31.58-47.23L36.22,68.47L36.22,68.47z M134.4,165.56
	l33.14-15.04c-6.32-3.38-17.12-2.34-27.99-1.29c-4.53,0.44-9.08,0.88-13.46,1.02C128.83,155.18,131.6,160.28,134.4,165.56
	L134.4,165.56z M104.02,164.95c-1.82,3.98-3.98,8.01-6.13,12.02c-5.16,9.63-10.28,19.18-9.6,26.32l26.65-24.78
	C111.15,173.89,107.52,169.38,104.02,164.95z"/>
<path class="st0" d="M211.65,161.94c-6.42-41.71-41.81-71.91-82.54-73.26c-2.06,0.99-4.13,1.93-6.22,2.81
	c-4.96,2.79-9.94,5.53-15.02,8.07c2.16-0.53,4.35-0.98,6.59-1.32c42.33-6.51,82.06,22.63,88.57,64.96
	c7,45.49-22.63,82.06-64.96,88.57c-42.33,6.51-81.58-19.46-88.57-64.96c-3.25-21.14,2.4-41.61,14.14-57.64
	c-0.33,0.19-0.67,0.35-1,0.53c-0.21,0.69-0.61,1.37-1.23,2c-4.77,4.8-10.27,8.56-15.82,12.26c-5.3,13.64-7.21,28.79-4.83,44.26
	c7.73,50.29,51.48,79.56,98.6,72.31C186.46,253.29,218.9,209.06,211.65,161.94z"/>
<line class="st3" x1="17.27" y1="184.67" x2="25.66" y2="193.76"/>
<line class="st3" x1="33.35" y1="202.84" x2="41.73" y2="211.93"/>
<line class="st3" x1="176.61" y1="76.84" x2="181.98" y2="87.98"/>
<line class="st3" x1="186.69" y1="98.91" x2="192.07" y2="110.05"/>
</svg>
