<?xml version="1.0" encoding="UTF-8"?><svg id="a" xmlns="http://www.w3.org/2000/svg" viewBox="0 0 64 64"><g><path d="M25.83,54.9c-.11-.01-.23-.03-.34-.07-.34-.12-.45-.33-.25-.47,.21-.15,.69-.6,.37-.95-.62-.67-2.25-1.03-3.97-1.42-1.76-.4-3.57-.8-4.65-1.59-.88-.64-.39-1.5,.08-2.32,.39-.68,.84-1.46,.13-1.68-.8-.25-2.11-.33-2.56-.15-.28,.11-.73,.08-1.02-.07-.29-.15-.29-.36-.01-.46,.98-.38,3.02-.22,4.25,.16,1.73,.54,1.16,1.53,.61,2.48-.38,.66-.81,1.4-.3,1.77,.8,.58,2.32,.92,3.92,1.28,1.95,.44,3.96,.89,4.84,1.84,.68,.74-.32,1.47-.44,1.55-.14,.1-.39,.13-.65,.11Z" style="fill:#040b1f; stroke:#040b1f; stroke-miterlimit:10; stroke-width:.4px;"/><path d="M31.22,50.83c-1.17-.5-2.81-.65-4.39-.8-1.63-.15-3.18-.3-3.92-.81-.67-.46-.38-1.09-.07-1.76,.3-.63,.6-1.29,.15-1.91-.62-.85-2.24-1.42-3.81-1.97-1.96-.69-3.8-1.33-3.64-2.49,.13-.91,.89-1.8,2.28-2.5-.25-.18-.48-.38-.69-.6-1.82,.82-2.82,1.92-2.99,3.06-.21,1.48,2.11,2.3,4.17,3.02,1.46,.51,2.85,1,3.34,1.67,.34,.46,.08,1.01-.19,1.59-.35,.76-.72,1.55,.27,2.22,1.06,.72,2.96,.9,4.8,1.08,1.46,.14,2.83,.27,3.71,.64,1.38,.59,1.69,1.2,1.84,2.29,.02,.17,.33,.29,.7,.29,.01,0,.03,0,.04,0,.39-.01,.68-.16,.66-.33-.17-1.19-.58-1.98-2.28-2.7Z" style="fill:#040b1f; stroke:#040b1f; stroke-miterlimit:10; stroke-width:.4px;"/><path d="M36.94,53.86s-.09,0-.13,0c-.38-.04-.64-.22-.57-.41,.02-.06,.54-1.41,1.84-2.2,1.17-.71,2.83-1.1,4.43-1.48,1.53-.36,2.97-.7,3.94-1.28,2.21-1.35,2.07-5.14,2.07-5.18,0-.19,.3-.35,.69-.36,.39-.02,.72,.15,.73,.34,0,.17,.16,4.09-2.38,5.63-1.17,.71-2.83,1.1-4.43,1.48-1.53,.36-2.97,.7-3.94,1.28-1.07,.65-1.55,1.88-1.55,1.89-.06,.17-.36,.28-.7,.28Z" style="fill:#040b1f; stroke:#040b1f; stroke-miterlimit:10; stroke-width:.4px;"/><path d="M39.49,43.23c-.66-.84-2.9-1.63-5.44-1.91-2.34-.26-6.09-.34-6.88,.52-.56,.6,.77,1.03,1.95,1.41,.76,.25,1.56,.51,1.76,.78,.21,.28-.16,.56-.54,.85-.51,.39-1.14,.87-.09,1.36,.54,.25,1.39,.41,2.47,.46,.25,.01,.5,.02,.75,.02,1.36,0,2.8-.16,3.78-.42,2.49-.68,3.01-2.08,2.24-3.06Zm-3.15,2.64c-.83,.23-2.27,.35-3.42,.3-.48-.02-1.11-.08-1.48-.25-.5-.23-.25-.44,.26-.83,.46-.35,.97-.74,.62-1.21-.31-.42-1.27-.73-2.19-1.03-.97-.31-1.6-.54-1.6-.76,0-.04,.01-.07,.05-.11,.22-.24,1.17-.33,2.28-.33,.91,0,1.92,.06,2.73,.15,2.06,.23,3.93,.89,4.47,1.56,.64,.82,.18,1.98-1.72,2.5Z" style="fill:#040b1f; stroke:#040b1f; stroke-miterlimit:10; stroke-width:.4px;"/><path d="M44.3,42.98c-1.21-1.97-5.58-3.61-10.64-4-5.14-.4-11.36,.41-12.46,2.4-.56,1,.85,1.58,2.21,2.14,.92,.38,1.86,.77,2.29,1.31,.32,.41,.13,.85-.07,1.32-.29,.68-.6,1.38,.69,1.96,1.5,.67,3.91,.97,6.44,.97,2.72,0,5.58-.35,7.55-.93,3.79-1.13,5-3.52,3.99-5.18Zm-4.82,4.72c-3.31,.98-9.55,1.19-12.12,.04-.84-.38-.62-.89-.35-1.49,.22-.52,.46-1.06,.03-1.59-.52-.67-1.64-1.13-2.62-1.54-1.06-.44-1.94-.8-1.94-1.33,0-.09,.03-.19,.08-.29,.75-1.34,4.63-2.06,8.52-2.06,.78,0,1.57,.03,2.32,.09,4.53,.35,8.45,1.82,9.53,3.59,.89,1.44-.18,3.61-3.46,4.58Z" style="fill:#040b1f; stroke:#040b1f; stroke-miterlimit:10; stroke-width:.4px;"/><path d="M48.21,41.44c-.3,0-.59-.09-.7-.24-1.47-1.99-4.22-3.21-9.47-4.19-.38-.07-.58-.28-.43-.47,.15-.19,.57-.28,.96-.21,5.71,1.07,8.71,2.4,10.35,4.62,.14,.19-.06,.4-.44,.47-.08,.02-.17,.02-.26,.02Z" style="fill:#040b1f; stroke:#040b1f; stroke-miterlimit:10; stroke-width:.4px;"/></g><ellipse cx="31.71" cy="45.25" rx="27" ry="12.11" style="fill:none; stroke:#040b1f; stroke-dasharray:0 0 4.9 4.9; stroke-linecap:round; stroke-miterlimit:10; stroke-width:1.6px;"/><path d="M17.15,12.24h6.49c.15,0,.28-.12,.28-.28v-3.36h-.97v-1.37c0-.15,.12-.28,.28-.28h10.71c.15,0,.28,.12,.28,.28v1.09c0,.15-.12,.28-.28,.28h-1.26l1.32,3.46c.04,.11,.14,.18,.26,.18h10.4c.09,0,.18-.05,.23-.12l3.79-5.56,.25-.36h7.24v12.05l-.65,.14-20.03,4.43h-.06s-.04,.02-.04,.02l-3.02,.31c-.06,0-.12,.03-.17,.08l-4.82,4.74s-.07,.11-.08,.18c-.08,1.57-1.57,2.77-3.22,2.37-.83-.2-1.53-.84-1.8-1.65-.45-1.36,.24-2.72,1.44-3.23,.1-.04,.17-.14,.17-.25v-1.07c0-.16-.14-.29-.31-.28l-3.43,.35-.24,.02-.22-.11-4.99-2.56-.45-.23v-1.95c0-.15-.12-.28-.28-.28h-1.45c-.15,0-.28,.12-.28,.28v6.75c0,.15-.12,.28-.28,.28h-1.09c-.15,0-.28-.12-.28-.28v-6.75c0-.15-.12-.28-.28-.28h-1.69c-.15,0-.28-.12-.28-.28v-1.09c0-.15,.12-.28,.28-.28h1.69c.15,0,.28-.12,.28-.28v-6.75c0-.15,.12-.28,.28-.28h1.09c.15,0,.28,.12,.28,.28v6.75c0,.15,.12,.28,.28,.28h1.45c.15,0,.28-.12,.28-.28v-1.72l.15-.22,2.04-2.85,.25-.34h.42Zm8.42-3.64v3.64h.66l3.21-3.16c.18-.17,.05-.48-.2-.48h-3.67Zm1.14,17.74l2.4-2.36c.19-.18,.04-.5-.22-.47l-3.07,.31c-.14,.01-.25,.13-.25,.28v1.29c0,.11,.07,.21,.17,.25,.37,.16,.7,.4,.97,.71h0Zm-1.96,.74c-.52,0-.93,.42-.93,.93s.42,.93,.93,.93,.93-.42,.93-.93-.4-.93-.93-.93h0Zm3.82-14.84h3.34c.2,0,.33-.2,.26-.38l-.73-1.9c-.07-.19-.31-.24-.45-.1l-2.41,2.38h0Zm16.68,1.65H17.72c-.09,0-.17,.04-.23,.12l-1.5,2.1s-.05,.1-.05,.16v4.09c0,.1,.06,.2,.15,.25l4.1,2.1s.1,.03,.15,.03l14.86-1.52,19.11-4.22c.13-.03,.22-.14,.22-.27V8.13c0-.15-.12-.28-.28-.28h-4.3c-.09,0-.18,.05-.23,.12l-3.79,5.56-.25,.36h-.43Z" style="fill:#040b1f; fill-rule:evenodd;"/><line x1="44.64" y1="22.68" x2="48.01" y2="27.16" style="fill:none; stroke:#040b1f; stroke-dasharray:0 14; stroke-linecap:round; stroke-miterlimit:10; stroke-width:1.6px;"/><line x1="51.12" y1="31.03" x2="54.48" y2="35.5" style="fill:none; stroke:#040b1f; stroke-dasharray:0 14; stroke-linecap:round; stroke-miterlimit:10; stroke-width:1.6px;"/><line x1="17.61" y1="24.53" x2="14.25" y2="29.01" style="fill:none; stroke:#040b1f; stroke-dasharray:0 14; stroke-linecap:round; stroke-miterlimit:10; stroke-width:1.6px;"/><line x1="11.91" y1="31.89" x2="8.55" y2="36.36" style="fill:none; stroke:#040b1f; stroke-dasharray:0 14; stroke-linecap:round; stroke-miterlimit:10; stroke-width:1.6px;"/><path d="M9.12,48.26s-3.91-1.66,.4-7.2" style="fill:none; stroke:#040b1f; stroke-dasharray:0 5; stroke-linecap:round; stroke-miterlimit:10; stroke-width:1.6px;"/><path d="M52.02,40.83s6.63,3.62-.24,8.26c0,0,.14,.15-4.91,2.83" style="fill:none; stroke:#040b1f; stroke-dasharray:0 5; stroke-linecap:round; stroke-miterlimit:10; stroke-width:1.6px;"/><path d="M40.8,54.92s.55-2.76,7.21-1.98" style="fill:none; stroke:#040b1f; stroke-dasharray:0 5; stroke-linecap:round; stroke-miterlimit:10; stroke-width:1.6px;"/><path d="M13.54,48.71s-3.92,3.49,6.1,3.19" style="fill:none; stroke:#040b1f; stroke-dasharray:0 5; stroke-linecap:round; stroke-miterlimit:10; stroke-width:1.6px;"/><path d="M35.23,36.31s-14.44-.14-18.48,2.18" style="fill:none; stroke:#040b1f; stroke-dasharray:0 5; stroke-linecap:round; stroke-miterlimit:10; stroke-width:1.6px;"/><path d="M12.24,45.16s-3.36-1.8,0-4.42" style="fill:none; stroke:#040b1f; stroke-dasharray:0 5; stroke-linecap:round; stroke-miterlimit:10; stroke-width:1.6px;"/></svg>