<?xml version="1.0" encoding="UTF-8"?><svg id="a" xmlns="http://www.w3.org/2000/svg" viewBox="0 0 64 64"><path d="m25.52,53.69c-.02.17-.24.4-.39.5-.14.09-.2.23-.18.37.03.19.2.35.48.45.12.04.25.07.38.08.06,0,.12,0,.17,0,.25,0,.47-.05.61-.15.12-.08.7-.5.76-1.07.03-.28-.06-.54-.28-.78-.93-1-2.96-1.46-4.94-1.9-1.58-.36-3.08-.69-3.84-1.25-.33-.24-.05-.8.36-1.51.36-.63.74-1.28.5-1.87-.16-.4-.56-.69-1.23-.9-1.26-.39-3.36-.55-4.38-.15-.28.11-.33.29-.33.38,0,.1.03.29.33.45.33.17.85.21,1.18.08.37-.15,1.62-.09,2.42.16.17.05.21.13.22.16.1.25-.21.79-.46,1.23-.47.82-1.05,1.84-.03,2.58,1.11.81,2.95,1.22,4.73,1.62,1.69.38,3.29.74,3.86,1.36.04.04.06.09.05.14Z" /><path d="m33.7,53.5c-.17-1.24-.62-2.1-2.4-2.85h0c-1.21-.51-2.85-.67-4.45-.82-1.61-.15-3.12-.29-3.82-.77-.51-.35-.34-.78,0-1.51.3-.66.65-1.4.13-2.11-.66-.91-2.31-1.48-3.9-2.04-1.88-.66-3.65-1.28-3.5-2.27.13-.88.9-1.71,2.17-2.35l.3-.15-.28-.19c-.24-.17-.46-.36-.66-.57l-.1-.1-.13.06c-1.82.82-2.92,1.96-3.1,3.21-.24,1.64,2.17,2.49,4.31,3.24,1.43.5,2.78.98,3.24,1.6.27.37.05.84-.21,1.39-.35.76-.79,1.7.33,2.47,1.1.75,3.03.93,4.91,1.11,1.43.14,2.78.26,3.64.63,1.3.55,1.58,1.1,1.72,2.13.05.32.5.46.9.46h.05c.34-.01.62-.11.76-.27.07-.08.1-.19.09-.29Z" /><path d="m36.79,54.05s.1,0,.15,0c.36,0,.78-.13.88-.41.02-.05.48-1.19,1.47-1.79.94-.57,2.37-.91,3.88-1.26,1.62-.38,3.3-.77,4.49-1.5,2.58-1.57,2.5-5.38,2.48-5.81-.02-.32-.43-.55-.93-.53-.33,0-.62.1-.77.26-.08.09-.12.19-.12.3,0,.04.14,3.71-1.97,5-.93.57-2.36.91-3.88,1.26-1.62.38-3.29.77-4.49,1.5-1.37.83-1.9,2.24-1.93,2.3-.04.11-.03.24.04.34.11.18.37.3.7.33Z" /><path d="m30.73,44.14c.08.11-.15.31-.51.58-.36.28-.77.59-.72,1,.03.27.25.5.68.7.56.26,1.44.42,2.54.47.25.01.5.02.76.02,1.38,0,2.85-.17,3.83-.43,1.43-.39,2.37-1.06,2.64-1.89.17-.51.06-1.04-.29-1.49-.71-.89-2.95-1.69-5.58-1.99-2.05-.23-6.15-.4-7.05.58-.2.21-.2.41-.17.54.13.49.96.79,2.2,1.2.63.21,1.5.49,1.67.71Zm1.1,1.11c.45-.34,1.13-.86.66-1.48-.34-.47-1.27-.77-2.29-1.1-.42-.13-1.25-.4-1.43-.56.14-.1.72-.24,2.11-.24.85,0,1.86.06,2.7.15,1.97.22,3.84.86,4.33,1.48.22.28.29.6.18.91-.18.54-.84,1.01-1.8,1.27h0c-.81.22-2.22.34-3.36.3-.64-.03-1.13-.11-1.4-.24-.11-.05-.14-.08-.15-.08h0c.03-.09.3-.29.45-.4Z" /><path d="m26.24,48.3c1.42.64,3.74.99,6.52.99s5.63-.35,7.61-.94c2.2-.66,3.76-1.82,4.29-3.19.3-.79.24-1.6-.19-2.29h0c-1.24-2.02-5.68-3.7-10.79-4.1-5.32-.41-11.5.41-12.65,2.5-.16.28-.19.56-.1.83.24.7,1.34,1.16,2.41,1.6.85.35,1.81.74,2.21,1.25.23.3.12.62-.1,1.13-.28.65-.66,1.55.79,2.21Zm.96-1.98c.23-.54.5-1.16,0-1.78-.54-.7-1.66-1.17-2.64-1.58l-.09-.04c-.92-.38-1.79-.75-1.79-1.14,0-.06.02-.12.06-.2.63-1.13,4.14-1.96,8.34-1.96.78,0,1.56.03,2.31.09,4.47.35,8.33,1.78,9.38,3.49.31.5.36,1.1.13,1.7-.42,1.11-1.69,2.06-3.47,2.59-3.28.97-9.45,1.19-11.98.05-.63-.29-.54-.58-.25-1.24Z" /><path d="m37.38,36.81c.08.2.3.34.62.4,5.2.97,7.91,2.16,9.35,4.11.18.24.56.32.86.32.1,0,.2,0,.29-.03.32-.06.55-.2.62-.4.05-.13.03-.27-.06-.39-1.67-2.26-4.71-3.62-10.47-4.7-.4-.08-.93,0-1.15.29-.09.12-.11.26-.06.39Z" /><path d="m24.46,34.39c.44-.06.75-.46.69-.89-.06-.44-.45-.75-.89-.69-1.68.21-3.33.5-4.9.86-.43.1-.7.53-.6.96.08.37.41.62.78.62.06,0,.12,0,.18-.02,1.52-.35,3.11-.62,4.75-.83Z" /><path d="m19.81,55.3c-1.63-.37-3.18-.81-4.61-1.32-.42-.15-.87.07-1.02.49s.07.87.49,1.02c1.49.53,3.11.99,4.8,1.38.06.01.12.02.18.02.37,0,.7-.25.78-.62.1-.43-.17-.86-.6-.96Z" /><path d="m34.17,32.39c-1.63-.06-3.32-.06-4.96,0-.44.02-.79.39-.77.83.02.43.37.77.8.77h.03c1.59-.07,3.24-.07,4.83,0,.46.01.81-.33.83-.77.02-.44-.33-.81-.77-.83Z" /><path d="m47.79,35.51c-.15.42.07.87.48,1.02,1.61.58,3.07,1.24,4.33,1.96.12.07.26.11.4.11.28,0,.55-.14.69-.4.22-.38.09-.87-.29-1.09-1.34-.77-2.88-1.47-4.58-2.08-.41-.15-.87.07-1.02.48Z" /><path d="m56.29,49.1c-.88,1.02-2.09,1.98-3.61,2.86-.38.22-.51.71-.29,1.09.15.26.42.4.69.4.14,0,.27-.03.4-.11,1.67-.97,3.03-2.05,4.02-3.2.29-.33.25-.84-.08-1.13-.33-.29-.84-.25-1.13.08Z" /><path d="m29.37,56.51c-1.64-.06-3.26-.2-4.81-.39-.43-.05-.84.26-.89.69-.05.44.26.84.69.89,1.6.2,3.27.34,4.95.4h.03c.43,0,.78-.34.8-.77.02-.44-.33-.81-.77-.83Z" /><path d="m57.44,40.28c-.29-.33-.8-.36-1.13-.07-.33.29-.36.8-.07,1.13,1.1,1.25,1.67,2.56,1.68,3.88,0,.44.36.79.8.79h0c.44,0,.8-.36.79-.81-.01-1.71-.71-3.37-2.07-4.92Z" /><path d="m39.01,56.11c-1.57.2-3.19.34-4.81.4-.44.02-.78.39-.77.83.02.43.37.77.8.77.01,0,.02,0,.03,0,1.67-.07,3.33-.21,4.95-.41.44-.06.75-.46.69-.89-.06-.44-.45-.74-.89-.69Z" /><path d="m48.36,53.94c-1.43.51-2.98.96-4.61,1.34-.43.1-.7.53-.6.96.08.37.41.62.78.62.06,0,.12,0,.18-.02,1.69-.39,3.31-.85,4.79-1.39.42-.15.63-.61.48-1.02-.15-.42-.61-.63-1.02-.48Z" /><path d="m10.78,38.52c1.26-.73,2.71-1.39,4.32-1.97.42-.15.63-.61.48-1.02-.15-.42-.61-.63-1.02-.48-1.7.61-3.24,1.31-4.58,2.09-.38.22-.51.71-.29,1.09.15.26.42.4.69.4.14,0,.27-.03.4-.11Z" /><path d="m38.23,33.49c-.05.44.26.84.69.89,1.63.21,3.23.48,4.75.83.06.01.12.02.18.02.37,0,.7-.25.78-.62.1-.43-.17-.86-.6-.96-1.57-.35-3.22-.64-4.9-.85-.44-.05-.84.26-.89.69Z" /><path d="m10.86,52.03c-1.52-.87-2.75-1.82-3.64-2.83-.29-.33-.8-.36-1.13-.07-.33.29-.36.8-.07,1.13,1.01,1.14,2.37,2.2,4.05,3.16.12.07.26.11.4.11.28,0,.55-.14.7-.4.22-.38.09-.87-.3-1.09Z" /><path d="m7.08,40.24c-.33-.29-.84-.25-1.13.08-1.35,1.55-2.04,3.21-2.04,4.93,0,0,0,.11,0,.12.01.43.37.73.8.73h.02c.44,0,.79-.41.79-.85,0-1.32.55-2.63,1.65-3.88.29-.33.25-.84-.08-1.13Z" /><path d="m8.67,19.29h1.69c.15,0,.28.12.28.28v6.75c0,.15.12.28.28.28h1.09c.15,0,.28-.12.28-.28v-6.75c0-.15.12-.28.28-.28h1.45c.15,0,.28.12.28.28v1.95l.45.23,4.99,2.56.22.11.24-.02,3.43-.35c.16-.02.31.11.31.28v1.07c0,.11-.07.21-.17.25-1.2.5-1.89,1.87-1.44,3.23.27.81.97,1.45,1.8,1.65,1.65.4,3.14-.8,3.22-2.37,0-.07.03-.13.08-.18l4.82-4.74s.1-.07.17-.08l3.02-.31h.04s.06-.02.06-.02l20.03-4.43.65-.14V6.2h-7.24l-.25.36-3.79,5.56c-.05.08-.14.12-.23.12h-10.4c-.12,0-.22-.07-.26-.18l-1.32-3.46h1.26c.15,0,.28-.12.28-.28v-1.09c0-.15-.12-.28-.28-.28h-10.71c-.15,0-.28.12-.28.28v1.37h.97v3.36c0,.15-.12.28-.28.28h-6.92l-.25.34-2.04,2.85-.15.22v1.72c0,.15-.12.28-.28.28h-1.45c-.15,0-.28-.12-.28-.28v-6.75c0-.15-.12-.28-.28-.28h-1.09c-.15,0-.28.12-.28.28v6.75c0,.15-.12.28-.28.28h-1.69c-.15,0-.28.12-.28.28v1.09c0,.15.12.28.28.28Zm16.08,9.66c-.52,0-.93-.41-.93-.93s.42-.93.93-.93.93.4.93.93-.41.93-.93.93Zm4.36-4.97l-2.4,2.36c-.26-.31-.59-.55-.97-.71-.1-.04-.17-.14-.17-.25v-1.29c0-.14.11-.26.25-.28l3.07-.31c.26-.03.41.29.22.47Zm2.33-14.02l.73,1.9c.07.18-.06.38-.26.38h-3.34l2.41-2.38c.14-.14.38-.09.45.1Zm-5.87-1.36h3.67c.25,0,.37.3.2.48l-3.21,3.16h-.66v-3.64Zm-9.64,7.66c0-.06.02-.11.05-.16l1.5-2.1c.05-.07.14-.12.23-.12h27.96l.25-.36,3.79-5.56c.05-.08.14-.12.23-.12h4.3c.15,0,.28.12.28.28v8.59c0,.13-.09.24-.22.27l-19.11,4.22-14.86,1.52c-.05,0-.11,0-.16-.03l-4.1-2.1c-.09-.05-.15-.14-.15-.25v-4.09Z" /><path d="m45.28,22.2c-.26-.35-.77-.42-1.12-.16-.35.27-.42.77-.16,1.12l3.36,4.48c.16.21.4.32.64.32.17,0,.34-.05.48-.16.35-.27.42-.77.16-1.12l-3.36-4.48Z" /><path d="m54.48,36.3c.17,0,.34-.05.48-.16.35-.27.42-.77.16-1.12l-3.36-4.48c-.26-.35-.77-.42-1.12-.16-.35.27-.42.77-.16,1.12l3.36,4.48c.16.21.4.32.64.32Z" /><path d="m18.09,23.89c-.35-.26-.85-.19-1.12.16l-3.36,4.48c-.27.35-.19.85.16,1.12.14.11.31.16.48.16.24,0,.48-.11.64-.32l3.36-4.48c.27-.35.19-.85-.16-1.12Z" /><path d="m8.55,37.16c.24,0,.48-.11.64-.32l3.36-4.48c.27-.35.19-.85-.16-1.12-.35-.26-.85-.19-1.12.16l-3.36,4.48c-.27.35-.19.85.16,1.12.14.11.31.16.48.16Z" /><path d="m8.1,43.18c-.42-.16-.87.06-1.03.47-.25.68-.38,1.33-.38,1.94,0,2.48,2.03,3.37,2.11,3.4.1.04.21.06.31.06.31,0,.6-.18.73-.48.18-.4,0-.87-.41-1.05-.05-.02-1.15-.54-1.15-1.93,0-.42.09-.88.28-1.38.15-.42-.06-.88-.47-1.03Z" /><path d="m48.03,52.1c.13,0,.26-.03.38-.1,2.52-1.36,3.52-1.95,3.91-2.32.16-.11.31-.21.45-.32.35-.26.43-.76.17-1.12-.26-.35-.76-.43-1.12-.17-.15.11-.31.23-.49.34l-.35.24v.04c-.35.23-1.22.76-3.33,1.89-.39.21-.53.7-.32,1.08.14.27.42.42.71.42Z" /><path d="m54.89,45.48h.03c.44-.02.79-.39.77-.83-.11-2.75-3.16-4.45-3.29-4.52-.38-.21-.87-.07-1.08.32-.21.39-.07.87.32,1.08.02.01,2.39,1.34,2.46,3.18.02.43.37.77.8.77Z" /><path d="m45.83,52.77c-.03-.44-.41-.78-.84-.75-4.35.25-4.92,2.49-4.97,2.74-.08.42.18.81.6.92.06.01.12.02.18.02.35,0,.68-.24.78-.59,0-.01.42-1.31,3.5-1.49.44-.03.78-.4.75-.84Z" /><path d="m15.45,52.54c.39,0,.73-.28.79-.68.07-.44-.23-.84-.67-.91-1.57-.24-1.98-.65-1.98-.83,0-.24.28-.62.49-.81.33-.29.36-.8.06-1.13-.29-.33-.8-.36-1.13-.07-.1.09-1.02.94-1.02,2,0,1.26,1.12,2.07,3.34,2.41.04,0,.08,0,.12,0Z" /><path d="m20.27,38.16c.05,0,.1,0,.16-.01,1.33-.27,2.98-.48,4.88-.65.44-.04.77-.43.73-.87-.04-.44-.44-.76-.87-.73-1.96.17-3.66.4-5.05.68-.43.09-.72.51-.63.94.08.38.41.64.78.64Z" /><path d="m29.42,36.42c.02.43.37.77.8.77h.03c2.02-.07,3.68-.09,4.48-.09h.49s0,0,0,0c.44,0,.8-.36.8-.79,0-.44-.35-.8-.79-.8h-.5c-.82,0-2.5,0-4.54.08-.44.02-.79.39-.77.83Z" /><path d="m12.94,45.54c.21-.39.06-.87-.32-1.08-.01,0-1.07-.61-1.07-1.4,0-.51.45-1.03.82-1.37.33-.3.35-.8.05-1.13-.3-.33-.81-.35-1.13-.05-.89.81-1.34,1.67-1.34,2.55,0,1.77,1.84,2.77,1.92,2.81.12.06.25.09.38.09.28,0,.56-.15.7-.42Z" /></svg>