<svg xmlns="http://www.w3.org/2000/svg" viewBox="0 0 36 36"><path fill="currentColor" d="M27.4 6.2a2.2 2.2 0 1 0 2.2 2.2 2.2 2.2 0 0 0-2.2-2.2ZM18 8.8A9.2 9.2 0 0 0 8.8 18a9.3 9.3 0 0 0 9.2 9.2 9.2 9.2 0 0 0 9.2-9.2A9.3 9.3 0 0 0 18 8.8ZM18 24a5.9 5.9 0 0 1-6-6 5.9 5.9 0 0 1 6-6 5.9 5.9 0 0 1 6 6 6 6 0 0 1-6 6Z"/><path fill="currentColor" d="M35 6.4a7.8 7.8 0 0 0-2-3.2 7.8 7.8 0 0 0-3.2-2 10.8 10.8 0 0 0-4.4-.8C23.4 0 22.8 0 18 0a59 59 0 0 0-7.4.2 12.3 12.3 0 0 0-4.4.8A7.8 7.8 0 0 0 3 3a7.8 7.8 0 0 0-2 3.2 10.8 10.8 0 0 0-.8 4.4A61 61 0 0 0 0 18a59 59 0 0 0 .2 7.4 21.8 21.8 0 0 0 .8 4.4A7.8 7.8 0 0 0 3 33a7.8 7.8 0 0 0 3.2 2 12.3 12.3 0 0 0 4.4.8c2 0 2.6.2 7.4.2h7.4a13.3 13.3 0 0 0 4.4-.8 10.7 10.7 0 0 0 3.2-2 7.8 7.8 0 0 0 2-3.2 12.3 12.3 0 0 0 .8-4.4 61 61 0 0 0 .2-7.4 59 59 0 0 0-.2-7.4 17 17 0 0 0-.8-4.4Zm-2.4 18.8a10.2 10.2 0 0 1-.6 3.4 7 7 0 0 1-3.4 3.4 9.3 9.3 0 0 1-3.4.6H10.8a10.2 10.2 0 0 1-3.4-.6 4.6 4.6 0 0 1-2-1.4 7.2 7.2 0 0 1-1.4-2 9.3 9.3 0 0 1-.6-3.4c0-1.8-.2-2.4-.2-7.2a55.2 55.2 0 0 1 .2-7.2A10.3 10.3 0 0 1 4 7.4 7 7 0 0 1 7.4 4a9.3 9.3 0 0 1 3.4-.6c2.2-.2 4.8-.2 7.2-.2h7.2a10.3 10.3 0 0 1 3.4.6A7 7 0 0 1 32 7.2a9.3 9.3 0 0 1 .6 3.4 61 61 0 0 1 .2 7.4 55.2 55.2 0 0 1-.2 7.2Z"/></svg>