<svg id="instagram" data-name="Layer 1" xmlns="http://www.w3.org/2000/svg" viewBox="0 0 36 36"><defs><style>#instagram .cls-1{fill:currentColor;}</style></defs><path class="cls-1" d="M27.4,6.2a2.2,2.2,0,1,0,2.2,2.2A2.22,2.22,0,0,0,27.4,6.2Z"/><path class="cls-1" d="M18,8.8A9.18,9.18,0,0,0,8.8,18,9.31,9.31,0,0,0,18,27.2,9.18,9.18,0,0,0,27.2,18,9.31,9.31,0,0,0,18,8.8ZM18,24a5.89,5.89,0,0,1-6-6,5.89,5.89,0,0,1,6-6,5.89,5.89,0,0,1,6,6A6,6,0,0,1,18,24Z"/><path class="cls-1" d="M35,6.4a7.83,7.83,0,0,0-2-3.2,7.83,7.83,0,0,0-3.2-2A10.76,10.76,0,0,0,25.4.4C23.4,0,22.8,0,18,0a59.09,59.09,0,0,0-7.4.2A12.35,12.35,0,0,0,6.2,1,7.83,7.83,0,0,0,3,3,7.83,7.83,0,0,0,1,6.2a10.76,10.76,0,0,0-.8,4.4A61,61,0,0,0,0,18a59.09,59.09,0,0,0,.2,7.4A21.79,21.79,0,0,0,1,29.8,7.83,7.83,0,0,0,3,33a7.83,7.83,0,0,0,3.2,2,12.35,12.35,0,0,0,4.4.8c2,0,2.6.2,7.4.2h7.4a13.3,13.3,0,0,0,4.4-.8,10.74,10.74,0,0,0,3.2-2A7.83,7.83,0,0,0,35,30a12.35,12.35,0,0,0,.8-4.4,61,61,0,0,0,.2-7.4,59.09,59.09,0,0,0-.2-7.4A17,17,0,0,0,35,6.4ZM32.6,25.2a10.16,10.16,0,0,1-.6,3.4A7,7,0,0,1,28.6,32a9.28,9.28,0,0,1-3.4.6H10.8A10.16,10.16,0,0,1,7.4,32a4.57,4.57,0,0,1-2-1.4,7.18,7.18,0,0,1-1.4-2,9.34,9.34,0,0,1-.6-3.4c0-1.8-.2-2.4-.2-7.2a55.19,55.19,0,0,1,.2-7.2A10.34,10.34,0,0,1,4,7.4,7,7,0,0,1,7.4,4a9.28,9.28,0,0,1,3.4-.6c2.2-.2,4.8-.2,7.2-.2h7.2a10.34,10.34,0,0,1,3.4.6A7,7,0,0,1,32,7.2a9.28,9.28,0,0,1,.6,3.4,61,61,0,0,1,.2,7.4A55.19,55.19,0,0,1,32.6,25.2Z"/></svg>