<?xml version="1.0" encoding="UTF-8"?><svg xmlns="http://www.w3.org/2000/svg" viewBox="0 0 180 180"><defs><style>.d{fill:#fff;}</style></defs><g id="a"/><g id="b"><path class="d" d="M90,0C40.29,0,0,40.29,0,90s40.29,90,90,90,90-40.29,90-90S139.71,0,90,0Zm.64,126.23l-7.04,7.04c-4.99,4.99-11.63,7.74-18.7,7.74s-13.48-2.68-18.36-7.56c-10.16-10.17-10.08-26.79,.19-37.06l7.04-7.04c4.99-4.99,11.63-7.74,18.7-7.74,3.42,0,6.73,.66,9.8,1.89l-10.19,10.19c-3.69,.1-7.15,1.57-9.78,4.19l-7.04,7.04c-5.56,5.56-5.65,14.53-.18,19.99,2.59,2.6,6.09,4.03,9.83,4.03s7.45-1.49,10.16-4.21l7.04-7.04c2.62-2.62,4.1-6.09,4.19-9.79l10.19-10.19c1.26,3.12,1.91,6.49,1.89,9.98-.04,7-2.79,13.58-7.74,18.53Zm7.51-52.92c2.36-2.36,6.17-2.36,8.53,0,2.36,2.36,2.36,6.17,0,8.53l-24.83,24.83c-1.18,1.18-2.72,1.77-4.27,1.77s-3.09-.59-4.27-1.77c-2.36-2.36-2.36-6.18,0-8.53l24.83-24.83Zm35.12,10.28l-7.04,7.04c-4.99,4.99-11.63,7.74-18.7,7.74-3.42,0-6.74-.66-9.81-1.9l10.19-10.19c3.7-.1,7.16-1.57,9.79-4.19l7.04-7.04c5.56-5.56,5.64-14.53,.18-19.99-2.59-2.6-6.09-4.03-9.83-4.03s-7.45,1.49-10.17,4.21l-7.04,7.04c-2.72,2.72-4.12,6.26-4.21,9.8l-10.17,10.17c-3.83-9.46-1.87-20.78,5.85-28.5l7.04-7.04c4.99-4.99,11.63-7.74,18.7-7.74s13.48,2.69,18.36,7.56c10.17,10.17,10.08,26.79-.18,37.06Z"/></g><g id="c"/></svg>