<svg id="mail" data-name="Layer 1" xmlns="http://www.w3.org/2000/svg" viewBox="0 0 54.02 35.82"><defs><style>#mail .cls-1{fill:currentColor;}#mail .cls-2{fill:none;}</style></defs><path class="cls-1" d="M48,36Z"/><path class="cls-1" d="M37.4,15.22,26.2,26.42a6.78,6.78,0,0,1-2.8,1.8,7,7,0,0,1-6.8-1.6L.6,10A3.86,3.86,0,0,0,0,12v20.2a3.59,3.59,0,0,0,3.6,3.6H39.4a3.59,3.59,0,0,0,3.6-3.6V18.82A10.11,10.11,0,0,1,37.4,15.22Z"/><path class="cls-1" d="M35.6,8.42H4.2l15.4,15.4a2.78,2.78,0,0,0,3.8,0l12.2-12.2a8.2,8.2,0,0,1-.2-2.2A1.8,1.8,0,0,1,35.6,8.42Z"/><path class="cls-2" d="M44,0a9.57,9.57,0,0,0-8.6,8.4c0,.4-.2.8-.2,1.2,0,.8.2,1.4.2,2.2a10.15,10.15,0,0,0,1.8,3.6,9.11,9.11,0,0,0,5.8,3.4c.6,0,1,.2,1.6.2A9.39,9.39,0,0,0,54,9.62C54.4,4.22,49.4-.38,44,0Z"/><path class="cls-1" d="M46.8,1.62A7.14,7.14,0,0,0,38.6,10a7.3,7.3,0,0,0,5.6,5.6,7.2,7.2,0,0,0,8.4-8.4A7.55,7.55,0,0,0,46.8,1.62Zm3.6,7.8h-4V14H44.6V9.42h-4V7.62h4V3.42h1.8v4.2h4Z"/></svg>