<?xml version="1.0" encoding="utf-8"?>
<!-- Generator: Adobe Illustrator 25.2.1, SVG Export Plug-In . SVG Version: 6.00 Build 0)  -->
<svg version="1.1" id="Layer_1" xmlns="http://www.w3.org/2000/svg" xmlns:xlink="http://www.w3.org/1999/xlink" x="0px" y="0px"
	 viewBox="0 0 568.3 55" style="enable-background:new 0 0 568.3 55;" xml:space="preserve">
<style type="text/css">
	.st0{fill-rule:evenodd;clip-rule:evenodd;fill:#0078AE;}
	.st1{opacity:0.12;fill:#420000;enable-background:new    ;}
	.st2{fill:#FFFFFF;}
	.st3{fill:#0078AE;}
	.st4{fill:none;}
	.st5{fill:#6D6D6D;}
</style>
<g id="icon-111-search">
	<path id="search" class="st0" d="M79.2,44.8c-6.4,4.6-15.4,3-20-3.4s-3-15.4,3.4-20s15.4-3,20,3.4c3.6,5,3.6,11.6,0,16.6l9.4,9.4
		c1,1,1,2.4,0,3.4s-2.4,1-3.4,0C88.6,54,79.2,44.8,79.2,44.8z M71,44c6,0,11-4.8,11-11s-4.8-11-11-11s-11,5-11,11S65,44,71,44z"/>
</g>
<g>
	<path class="st1" d="M153.4,29.2l12.2,8.2l1.6-0.8C167.2,36.4,153.4,29.2,153.4,29.2z"/>
	<g>
		<path class="st2" d="M153.4,43.6l13.8-7.2l-13.8-7.2C153.4,29.2,153.4,43.6,153.4,43.6z"/>
		<path class="st3" d="M181,27.8c0,0-0.4-3.2-1.8-4.6c-1.8-1.8-3.6-1.8-4.6-2c-6.4-0.4-15.8-0.4-15.8-0.4s-9.6,0-16,0.4
			c-0.8,0-2.8,0-4.6,2c-1.4,1.4-1.8,4.6-1.8,4.6s-0.4,3.8-0.4,7.4v3.4c0,3.6,0.4,7.4,0.4,7.4s0.4,3.2,1.8,4.6c1.8,1.8,4,1.8,5,2
			c3.6,0.4,15.4,0.4,15.4,0.4s9.6,0,16-0.4c0.8,0,2.8,0,4.6-2c1.4-1.4,1.8-4.6,1.8-4.6s0.4-3.6,0.4-7.4v-3.4
			C181.4,31.6,181,27.8,181,27.8L181,27.8z M154,42.8V30.2l12.4,6.4C166.2,36.6,154,42.8,154,42.8z M221.2,28
			c-1.4,0.6-2.8,1-4.2,1.2c1.6-1,2.6-2.4,3.2-4c-1.4,0.8-3,1.4-4.6,1.8c-2.8-3-7.4-3.2-10.4-0.4c-2,1.8-2.8,4.6-2.2,7
			c-6-0.2-11.4-3-15.2-7.8c-2,3.4-1,7.8,2.2,9.8c-1.2,0-2.4-0.4-3.4-1v0.2c0,3.6,2.4,6.6,6,7.2c-1,0.2-2.2,0.4-3.4,0.2
			c1,3,3.8,5,6.8,5.2c-3,2.4-7,3.6-11,3c3.4,2.2,7.4,3.4,11.4,3.4c13.6,0,21-11.2,21-21v-1C219,30.8,220.4,29.4,221.2,28
			 M240.8,22.2h7.2c1.8,0,2.6,0.4,3.4,0.6c0.8,0.4,1.4,0.8,2,1.4s1,1.2,1.4,2c0.2,0.6,0.6,1.6,0.6,3.4c0.2,2,0.2,2.6,0.2,7.4
			s0,5.4-0.2,7.2c0,1.2-0.2,2.2-0.6,3.4c-0.4,0.8-0.8,1.4-1.4,2c-0.6,0.6-1.2,1-2,1.4c-0.6,0.2-1.6,0.6-3.4,0.6h-14.4
			c-1.2,0-2.2-0.2-3.4-0.6c-0.8-0.2-1.4-0.8-2-1.4c-0.6-0.6-1-1.2-1.4-2c-0.4-1-0.6-2.2-0.6-3.4c0-1.8-0.2-2.4-0.2-7.2
			s0-5.4,0.2-7.2c0-1.8,0.4-2.6,0.6-3.4c0.4-0.8,0.8-1.4,1.4-2s1.2-1,2-1.4c0.6-0.2,1.6-0.6,3.4-0.6
			C235.8,22.2,238.4,22.2,240.8,22.2 M240.8,19c-4.8,0-5.6,0-7.4,0.2c-2,0-3.2,0.4-4.4,0.8s-2.2,1-3.2,2s-1.6,2-2,3.2
			c-0.6,1.4-0.8,2.8-0.8,4.4c-0.2,2-0.2,2.6-0.2,7.4s0,5.6,0.2,7.4s0.4,3.2,0.8,4.4c0.4,1.2,1,2.2,2,3.2s2,1.6,3.2,2
			s2.4,0.8,4.4,0.8s2.6,0.2,7.4,0.2h7.4c1.8,0,3.2-0.4,4.4-0.8c1.2-0.4,2.2-1.2,3.2-2c1-1,1.6-2,2-3.2s0.8-2.4,0.8-4.4
			c0.2-2,0.2-2.6,0.2-7.4s0-5.6-0.2-7.4c0-1.4-0.4-3-0.8-4.4c-0.4-1.2-1-2.2-2-3.2s-2-1.6-3.2-2c-1.4-0.6-2.8-0.8-4.4-0.8
			C246.2,19,245.6,19,240.8,19L240.8,19z M240.8,27.8c-5.2,0-9.2,4.2-9.2,9.2s4.2,9.2,9.2,9.2c5.2,0,9.2-4.2,9.2-9.2
			S245.8,27.8,240.8,27.8z M240.8,43c-3.4,0-6-2.6-6-6s2.6-6,6-6s6,2.6,6,6S244,43,240.8,43z M252.4,27.4c0,1.2-1,2.2-2.2,2.2
			s-2.2-1-2.2-2.2s1-2.2,2.2-2.2S252.4,26.2,252.4,27.4z M294.8,55c1.2,0,2-0.8,2-2V21c0-1-0.8-2-2-2h-32c-1.2,0-2,0.8-2,2v32
			c0,1,0.8,2,2,2H294.8"/>
	</g>
</g>
<path class="st2" d="M285.6,55V41h4.6l0.6-5.4h-5.4v-3.4c0-1.6,0.4-2.6,2.8-2.6h2.8v-5c-1.4-0.2-2.8-0.2-4.2-0.2c-4.2,0-7,2.6-7,7.2
	v4H275V41h4.8v14H285.6"/>
<path class="st3" d="M332,19h-30.6c-1.4,0-2.6,1.2-2.6,2.6v30.8c0,1.4,1.2,2.6,2.6,2.6H332c1.4,0,2.6-1.2,2.6-2.6V21.6
	C334.8,20.2,333.6,19,332,19"/>
<path class="st2" d="M306.8,29.4c1.8,0,3.2,1.4,3.2,3c0,1.6-1.4,3.2-3,3.2c-1.8,0-3-1.4-3-3.2C303.6,30.8,305,29.4,306.8,29.4z
	 M304,37.8h5.4V55H304V37.8z M312.8,37.8h5.2v2.4c1-1.8,3-2.8,5-2.8c5.4,0,6.4,3.6,6.4,8.2V55H324v-8.4c0-2,0-4.6-2.8-4.6
	s-3.2,2.2-3.2,4.4V55h-5.4L312.8,37.8"/>
<path class="st3" d="M120.4,30.8c-1-1.2-2.2-2-3.4-2.6s-2.8-0.8-4.6-0.8c-1.4,0-2.8,0.2-4,0.8c-2.6,1-4.6,3-5.6,5.6
	c-0.8,1.4-1,2.8-1,4.4c0,1.6,0.2,3,0.8,4.4c0.6,1.4,1.4,2.4,2.2,3.4c2,2,4.8,3,7.6,3c1.6,0,3-0.2,4-0.6c1-0.4,2.2-1,3-1.8
	c0.6-0.6,1-1.2,1.6-1.8c0.4-0.8,0.8-1.6,1-2.6h-9.8v-5.8h16c0.2,0.4,0.2,0.8,0.2,1.4v1.6c0,2.2-0.4,4.2-1,6s-1.6,3.4-3,4.8
	c-1.4,1.6-3.2,2.8-5.2,3.6c-2.2,0.8-4.6,1.4-7,1.2c-6.8,0-13-4-16-10.2c-1-2-1.4-4.4-1.4-6.8c0-2.4,0.4-4.8,1.4-6.8
	c0.8-2,2.2-3.8,3.8-5.4c3.2-3.2,7.6-4.8,12.2-4.8c4.8-0.2,9.2,1.8,12.6,5.2C124.8,26.2,120.4,30.8,120.4,30.8z"/>
<g>
	<path class="st4" d="M44,19.2c-4.4,0.4-8,3.8-8.6,8.4c0,0.4-0.2,0.8-0.2,1.2c0,0.8,0.2,1.4,0.2,2.2c0.4,1.4,1,2.6,1.8,3.6
		c1.4,1.8,3.4,3,5.8,3.4c0.6,0,1,0.2,1.6,0.2c5.2,0,9.4-4.2,9.4-9.4C54.4,23.4,49.4,18.8,44,19.2z"/>
	<g>
		<path class="st3" d="M37.4,34.4L26.2,45.6c-0.8,0.8-1.6,1.4-2.8,1.8c-2.4,0.8-5,0-6.8-1.6l-16-16.6c-0.4,0.6-0.6,1.4-0.6,2v20.2
			c0,2,1.6,3.6,3.6,3.6h35.8c2,0,3.6-1.6,3.6-3.6V38C41,37.6,38.8,36.2,37.4,34.4z"/>
		<path class="st3" d="M35.6,27.6H4.2L19.6,43c1,1,2.8,1,3.8,0l12.2-12.2c-0.2-0.8-0.2-1.4-0.2-2.2C35.4,28.2,35.4,28,35.6,27.6z"/>
		<path class="st3" d="M46.8,20.8c-4.8-0.8-9.2,3.4-8.2,8.4c0.6,2.8,2.8,5,5.6,5.6c5,1,9.2-3.4,8.4-8.4C52,23.6,49.6,21.4,46.8,20.8
			z M50.4,28.6h-4v4.6h-1.8v-4.6h-4v-1.8h4v-4.2h1.8v4.2h4V28.6z"/>
	</g>
</g>
<g>
	<g>
		<polygon class="st5" points="505.8,0 499.3,6.5 520.3,27.5 499.3,48.5 505.8,55 533.3,27.5 		"/>
	</g>
</g>
<g>
	<g>
		<polygon class="st5" points="568.3,6.5 561.8,0 534.3,27.5 561.8,55 568.3,48.5 547.3,27.5 		"/>
	</g>
</g>
<g>
	<path class="st5" d="M362.3,0.4c-14.8,0-26.8,12.2-26.8,27.3s12,27.3,26.8,27.3s26.8-12.2,26.8-27.3S377.1,0.4,362.3,0.4"/>
	<path class="st2" d="M375.8,19.5v21.3c0,2.5-2,4.6-4.5,4.6h-16.6c-2.2,0-4-1.6-4.4-3.6h-1.7c-0.6,0-1-0.5-1-1c0-0.6,0.4-1,1-1h1.6
		v-2.4h-1.6c-0.6,0-1-0.5-1-1c0-0.6,0.4-1,1-1h1.6v-2.3h-1.6c-0.6,0-1-0.5-1-1c0-0.6,0.4-1,1-1h1.6v-2.3h-1.6c-0.6,0-1-0.5-1-1
		c0-0.6,0.4-1,1-1h1.6v-2.4h-1.6c-0.6,0-1-0.5-1-1c0-0.6,0.4-1,1-1h1.6v-2.3h-1.6c-0.6,0-1-0.5-1-1c0-0.6,0.4-1,1-1h1.6v-2.3h-1.6
		c-0.6,0-1-0.5-1-1s0.4-1,1-1h1.7c0.4-2.1,2.3-3.7,4.4-3.7h16.6c2.5,0,4.5,2.1,4.5,4.6C375.8,14.7,375.8,19.5,375.8,19.5z"/>
	<rect x="362.4" y="32.5" class="st5" width="9.5" height="2.5"/>
	<rect x="355.3" y="32.5" class="st5" width="3.5" height="7.5"/>
	<rect x="362.4" y="27.5" class="st5" width="9.5" height="2.5"/>
	<rect x="362.4" y="37.5" class="st5" width="9.5" height="2.5"/>
	<rect x="354.1" y="22.5" class="st5" width="17.8" height="2.5"/>
	<rect x="354.1" y="15.4" class="st5" width="17.8" height="4.5"/>
</g>
<g>
	<path class="st5" d="M416.9,0.4c-15.1,0-27.3,12.2-27.3,27.3S401.8,55,416.9,55c15.1,0,27.3-12.2,27.3-27.3S431.9,0.4,416.9,0.4"/>
	<path class="st2" d="M433,36c0,2.3-1.9,4.1-4.1,4.1H405c-2.3,0-4.1-1.9-4.1-4.1V21c0-0.7,0.6-1.3,1.3-1.3h2.7v2.6h-1.4V36
		c0,0.8,0.7,1.5,1.5,1.5h0.8c0.8,0,1.5-0.7,1.5-1.5V16.5c0-0.7,0.6-1.3,1.3-1.3h23.1c0.7,0,1.3,0.6,1.3,1.3L433,36L433,36z"/>
	<path class="st5" d="M409.9,35.4c0,0.5-0.1,1-0.3,1.5h19.3c0.8,0,1.5-0.7,1.5-1.5V17.3h-20.5V35.4z"/>
	<rect x="424" y="31.3" class="st2" width="4.4" height="2.3"/>
	<rect x="411.8" y="20.2" class="st2" width="16.5" height="4.2"/>
	<rect x="411.8" y="26.6" class="st2" width="16.5" height="2.3"/>
	<rect x="411.8" y="31.3" class="st2" width="8.8" height="2.3"/>
</g>
<g>
	<path class="st5" d="M472,0.4c-15.1,0-27.3,12.2-27.3,27.3S456.9,55,472,55c15.1,0,27.3-12.2,27.3-27.3S487.1,0.4,472,0.4"/>
	<path class="st2" d="M476.8,15.3c0-0.8,0.7-1.5,1.5-1.5s1.5,0.7,1.5,1.5v3.8c0,0.8-0.7,1.5-1.5,1.5s-1.5-0.7-1.5-1.5
		C476.8,19.1,476.8,15.3,476.8,15.3z"/>
	<path class="st2" d="M464.3,15.3c0-0.8,0.7-1.5,1.5-1.5s1.5,0.7,1.5,1.5v3.8c0,0.8-0.7,1.5-1.5,1.5s-1.5-0.7-1.5-1.5
		C464.3,19.1,464.3,15.3,464.3,15.3z"/>
	<path class="st2" d="M487,40.2c0,0.8-0.7,1.5-1.5,1.5h-26.9c-0.8,0-1.5-0.7-1.5-1.5V18.6c0-0.8,0.7-1.5,1.5-1.5h3.9V19
		c0,1.9,1.5,3.4,3.4,3.4s3.4-1.5,3.4-3.4v-1.9h5.7V19c0,1.9,1.5,3.4,3.4,3.4s3.4-1.5,3.4-3.4v-1.9h3.9c0.8,0,1.5,0.7,1.5,1.5v21.6
		L487,40.2z"/>
	<rect x="460" y="24.2" class="st5" width="24" height="12.8"/>
	<rect x="476.2" y="26.9" class="st2" width="4.1" height="3.1"/>
	<rect x="476.2" y="31.6" class="st2" width="4.1" height="3.1"/>
	<rect x="470" y="26.9" class="st2" width="4.1" height="3.1"/>
	<rect x="470" y="31.6" class="st2" width="4.1" height="3.1"/>
	<rect x="463.7" y="26.9" class="st2" width="4.1" height="3.1"/>
	<rect x="463.7" y="31.6" class="st2" width="4.1" height="3.1"/>
</g>
</svg>