<svg xmlns="http://www.w3.org/2000/svg" viewBox="0 0 217.1 196.8" xml:space="preserve"><g fill="#040b1f"><path d="M121 19H36c-8 0-15 7-15 16v126a5 5 0 0 0 9 0V35c0-4 3-7 6-7h85a5 5 0 0 0 0-9z"/><path d="M105 5c0-3-2-5-5-5H15C7 0 0 7 0 15v127a5 5 0 0 0 9 0V15c0-3 3-6 6-6h85c3 0 5-2 5-4z"/><path d="M160 112c-2 0-4 2-4 5v64c0 4-3 7-6 7H59c-4 0-7-3-7-7V55c0-4 3-6 7-6h81a5 5 0 0 0 0-9H59c-9 0-16 6-16 15v126c0 9 7 16 16 16h91c8 0 15-7 15-16v-64c0-3-2-5-5-5z"/><path d="M210 10c-7-6-18-5-25 2l-6 7-62 76v2h-1l-5 27c0 3 1 6 3 7h3l27-11v-1h2v-1l62-76 5-7c6-8 5-19-3-25zm-89 109 2-9a33 33 0 0 0 7 6l-9 3zm20-9c-6-1-12-6-15-11l58-71 14 12-57 70zm65-80-2 3-15-12 3-3c3-4 9-4 13-1 3 3 4 9 1 13z"/><path stroke="#000" stroke-linecap="round" stroke-linejoin="round" stroke-miterlimit="10" d="M99 62 77 85l-8-7-5 5 13 13 28-28zm0 38-22 23-8-7-5 5 13 13 28-28zm-30 53-5 6 13 13 28-28-6-6-22 23z"/></g></svg>