<?xml version="1.0" encoding="utf-8"?>
<!-- Generator: Adobe Illustrator 26.2.1, SVG Export Plug-In . SVG Version: 6.00 Build 0)  -->
<svg version="1.1" id="#plann" xmlns="http://www.w3.org/2000/svg" xmlns:xlink="http://www.w3.org/1999/xlink" x="0px" y="0px"
	 viewBox="0 0 222.11 206.91" style="enable-background:new 0 0 222.11 206.91;" xml:space="preserve">
<style type="text/css">
	#plann .st0{fill:#040B1F;}
</style>
<g>
	<g>
		<g>
			<path class="st0" d="M127,20.25H37.84c-8.89,0-16.12,7.23-16.12,16.12v133.35c0,2.63,2.13,4.76,4.76,4.76
				c2.63,0,4.76-2.13,4.76-4.76V36.37c0-3.64,2.96-6.6,6.6-6.6H127c2.63,0,4.76-2.13,4.76-4.76S129.63,20.25,127,20.25z"/>
			<path class="st0" d="M110.04,4.76c0-2.63-2.13-4.76-4.76-4.76H16.12C7.23,0,0,7.23,0,16.12v133.35c0,2.63,2.13,4.76,4.76,4.76
				c2.63,0,4.76-2.13,4.76-4.76V16.12c0-3.64,2.96-6.6,6.6-6.6h89.15C107.91,9.52,110.04,7.39,110.04,4.76z"/>
			<path class="st0" d="M168.57,117.78c-2.63,0-4.76,2.13-4.76,4.76v68.24c0,3.64-2.96,6.6-6.6,6.6H61.57c-3.64,0-6.6-2.96-6.6-6.6
				V57.65c0-3.64,2.96-6.6,6.6-6.6h85.25c2.63,0,4.76-2.13,4.76-4.76s-2.13-4.76-4.76-4.76H61.57c-8.89,0-16.12,7.23-16.12,16.12
				v133.14c0,8.89,7.23,16.12,16.12,16.12h95.64c8.89,0,16.12-7.23,16.12-16.12v-68.24C173.33,119.92,171.2,117.78,168.57,117.78z"
				/>
			<path class="st0" d="M215.52,14.31c-7.43-6.04-18.21-5.15-24.55,2.02c-0.02,0.02-0.04,0.05-0.06,0.07
				c-0.02,0.02-0.04,0.04-0.06,0.07l-5.53,6.78c0,0,0,0,0,0c0,0,0,0,0,0l-60.37,74.04c-0.01,0.01-0.01,0.02-0.02,0.02
				c-0.04,0.05-0.07,0.1-0.11,0.15c-0.05,0.07-0.1,0.13-0.15,0.2c0,0,0,0.01-0.01,0.01c-0.01,0.01-0.02,0.03-0.03,0.05
				c-0.01,0.01-0.01,0.02-0.02,0.03c-0.06,0.1-0.12,0.19-0.17,0.3c-0.03,0.06-0.06,0.13-0.09,0.19c-0.03,0.07-0.06,0.13-0.09,0.2
				c-0.04,0.09-0.07,0.19-0.1,0.28c-0.01,0.04-0.03,0.07-0.04,0.11c0,0,0,0.01,0,0.01c-0.02,0.08-0.04,0.16-0.06,0.25
				c-0.01,0.05-0.03,0.11-0.04,0.16c0,0.01-0.01,0.03-0.01,0.04l-4.93,25.78l-0.15-0.03c0.09,2.81,0.56,5.7,2.81,7.19l0.41,0.08
				c0.45,0.09,0.89,0.08,1.31-0.01c0.43-0.04,0.85-0.15,1.26-0.31l26.17-10.84c0,0,0.01,0,0.01,0c0.13-0.05,0.25-0.11,0.38-0.18
				c0.01-0.01,0.02-0.01,0.04-0.02c0.01-0.01,0.03-0.02,0.04-0.02c0.1-0.05,0.19-0.11,0.29-0.18c0.02-0.01,0.04-0.02,0.05-0.03
				c0.1-0.07,0.21-0.15,0.3-0.23c0.03-0.02,0.06-0.05,0.09-0.08c0.07-0.06,0.13-0.12,0.19-0.18c0.01-0.01,0.03-0.03,0.05-0.04
				c0,0,0,0,0.01-0.01c0.02-0.02,0.03-0.04,0.05-0.05c0.06-0.06,0.12-0.13,0.18-0.2c0.02-0.02,0.04-0.04,0.06-0.07
				c0.01-0.01,0.01-0.01,0.02-0.02l60.13-73.97c0.08-0.09,0.16-0.18,0.24-0.27c0.06-0.07,0.11-0.15,0.16-0.22l5.27-6.48
				c0.01-0.02,0.02-0.03,0.04-0.05c0.03-0.03,0.05-0.06,0.08-0.1C224.29,31.09,222.95,20.35,215.52,14.31z M128.92,120.7l1.73-9.07
				c1,1.07,2.08,2.08,3.22,3.01c1.14,0.93,2.34,1.77,3.58,2.53L128.92,120.7z M147.55,112.11c-5.91-1.83-11-5.97-14-11.4l55.85-68.5
				l13.95,11.25L147.55,112.11z M211.52,33.43l-2.59,3.19l-13.94-11.25l2.64-3.23c3.2-3.57,8.6-4.01,12.33-0.98
				C213.68,24.19,214.36,29.57,211.52,33.43z"/>
		</g>
		<path class="st0" d="M101.59,68.42L83.42,86.59c-1.64,1.64-4.29,1.64-5.92,0l-1.86-1.86c-1.64-1.64-4.29-1.64-5.92,0l0,0
			c-1.64,1.64-1.64,4.29,0,5.92l7.78,7.78c1.64,1.64,4.29,1.64,5.92,0l24.09-24.09c1.64-1.64,1.64-4.29,0-5.92l0,0
			C105.87,66.78,103.22,66.78,101.59,68.42z"/>
		<path class="st0" d="M101.61,108.18L83.4,126.39c-1.62,1.62-4.25,1.62-5.88,0l-1.9-1.9c-1.62-1.62-4.25-1.62-5.88,0l-0.04,0.04
			c-1.62,1.62-1.62,4.25,0,5.88l7.82,7.82c1.62,1.62,4.25,1.62,5.88,0l24.13-24.13c1.62-1.62,1.62-4.25,0-5.88l-0.04-0.04
			C105.86,106.55,103.23,106.55,101.61,108.18z"/>
		<path class="st0" d="M69.92,164.09l-0.4,0.4c-1.53,1.53-1.53,4,0,5.52l8.18,8.18c1.53,1.53,4,1.53,5.52,0l24.49-24.49
			c1.53-1.53,1.53-4,0-5.52l-0.4-0.4c-1.53-1.53-4-1.53-5.52,0l-18.57,18.57c-1.53,1.53-4,1.53-5.52,0l-2.26-2.26
			C73.91,162.56,71.44,162.56,69.92,164.09z"/>
	</g>
</g>
</svg>
