<?xml version="1.0" encoding="UTF-8"?><svg id="a" xmlns="http://www.w3.org/2000/svg" viewBox="0 0 64 64"><path d="m48.04,37.13c-.59,0-1.07.48-1.07,1.07v15.26c0,.81-.66,1.48-1.48,1.48h-21.39c-.81,0-1.48-.66-1.48-1.48v-29.78c0-.81.66-1.48,1.48-1.48h19.07c.59,0,1.07-.48,1.07-1.07s-.48-1.07-1.07-1.07h-19.07c-1.99,0-3.61,1.62-3.61,3.61v29.78c0,1.99,1.62,3.61,3.61,3.61h21.39c1.99,0,3.61-1.62,3.61-3.61v-15.26c0-.59-.48-1.07-1.07-1.07Z" /><path d="m40.09,16.98c0-.59-.48-1.07-1.07-1.07h-19.07c-1.99,0-3.61,1.62-3.61,3.61v29.78c0,.08.02.15.03.22.2.09.37.22.55.33,0,0,0,0,0,0,.19,0,.36.01.54.03.33-.22.69-.43.9-.6.04-.03.07-.07.11-.1v-29.66c0-.81.66-1.48,1.48-1.48h19.07c.59,0,1.07-.48,1.07-1.07Z" /><path d="m35.95,12.98c0-.59-.48-1.07-1.07-1.07H15.82c-1.99,0-3.61,1.62-3.61,3.61v29.78c0,.36.08.7.18,1.02.05.04.1.08.15.11.2.03.39.07.57.13.38-.18.79-.33,1.25-.4.04-.07.08-.15.13-.23-.09-.19-.15-.41-.15-.63V15.52c0-.81.66-1.48,1.48-1.48h19.07c.59,0,1.07-.48,1.07-1.07Z" /><path d="m31.83,8.84c0-.59-.48-1.07-1.06-1.07H11.7c-1.99,0-3.61,1.62-3.61,3.61v29.78c0,.42.08.81.22,1.18.38.09.73.23,1.05.39.09,0,.17-.03.27-.03.04-.07.06-.14.1-.21.2-.26.41-.52.61-.79-.07-.17-.12-.35-.12-.55V11.38c0-.81.66-1.48,1.48-1.48h19.07c.59,0,1.06-.48,1.06-1.07Z" /><path d="m59.79,12.16c-1.79-1.46-4.39-1.24-5.92.49,0,0,0,.01-.01.02,0,0,0,.01-.01.02l-1.33,1.64s0,0,0,0c0,0,0,0,0,0l-14.56,17.86s0,0,0,0c0,.01-.02.02-.03.04-.01.02-.02.03-.04.05,0,0,0,0,0,0,0,0,0,0,0,.01,0,0,0,0,0,0-.01.02-.03.05-.04.07,0,.02-.01.03-.02.05,0,.02-.02.03-.02.05,0,.02-.02.04-.02.07,0,0,0,.02,0,.03,0,0,0,0,0,0,0,.02-.01.04-.01.06,0,.01,0,.03,0,.04,0,0,0,0,0,.01l-1.19,6.22h-.04c.02.67.14,1.37.68,1.73l.1.02c.11.02.22.02.32,0,.1-.01.21-.04.3-.08l6.31-2.61s0,0,0,0c.03-.01.06-.03.09-.04,0,0,0,0,0,0,0,0,0,0,0,0,.02-.01.05-.03.07-.04,0,0,0,0,.01,0,.03-.02.05-.04.07-.06,0,0,.01-.01.02-.02.02-.01.03-.03.05-.04,0,0,0,0,.01-.01,0,0,0,0,0,0,0,0,0,0,.01-.01.01-.02.03-.03.04-.05,0,0,0-.01.01-.02,0,0,0,0,0,0l14.51-17.84s.04-.04.06-.07c.01-.02.03-.04.04-.05l1.27-1.56s0,0,0-.01c0,0,.01-.02.02-.02,1.38-1.85,1.06-4.44-.73-5.9Zm-20.89,25.66l.42-2.19c.24.26.5.5.78.72.27.22.56.43.86.61l-2.06.85Zm4.5-2.07c-1.43-.44-2.65-1.44-3.38-2.75l13.47-16.52,3.37,2.71-13.46,16.56Zm15.43-18.98l-.62.77-3.36-2.71.64-.78c.77-.86,2.08-.97,2.97-.24.9.73,1.06,2.03.38,2.96Z" /><polygon points="35.05 25.75 33.72 24.43 28.33 29.82 26.59 28.08 25.27 29.4 28.33 32.47 35.05 25.75" /><polygon points="28.33 39.36 35.05 32.65 33.72 31.33 28.33 36.71 26.59 34.97 25.27 36.3 28.33 39.36" /><polygon points="28.33 46.26 35.05 39.55 33.72 38.22 28.33 43.61 26.59 41.87 25.27 43.2 28.33 46.26" /><polygon points="35.15 46.11 33.83 44.78 28.44 50.17 26.7 48.43 25.38 49.75 28.44 52.82 35.15 46.11" /></svg>