<?xml version="1.0" encoding="UTF-8"?><svg id="a" xmlns="http://www.w3.org/2000/svg" viewBox="0 0 64 64"><path d="M49.75,32.02c-.1,.17-.24,.3-.38,.4v22.28c0,1.22-.99,2.21-2.21,2.21H25.35c-1.22,0-2.21-.99-2.21-2.21V24.41c0-1.22,.99-2.21,2.21-2.21h21.8c1.06,0,1.94,.75,2.16,1.75,.15-.15,.31-.3,.46-.46,.27-.29,.55-.56,.84-.82-.64-1.27-1.94-2.15-3.45-2.15H25.35c-2.14,0-3.88,1.74-3.88,3.88v30.3c0,2.14,1.74,3.88,3.88,3.88h21.8c2.14,0,3.88-1.74,3.88-3.88V30.08c-.42,.65-.89,1.28-1.29,1.94Z" style="fill:#040b1f;"/><path d="M42.64,16.22H20.92c-2.14,0-3.88,1.74-3.88,3.88v30.21c.56,0,1.12-.02,1.68-.03V20.1c0-1.22,.99-2.21,2.21-2.21h21.73v-1.68Z" style="fill:#040b1f;"/><path d="M37.81,11.76H16.08c-2.14,0-3.88,1.74-3.88,3.88v30.21c.56,0,1.12-.02,1.68-.03V15.65c0-1.22,.99-2.21,2.21-2.21h21.73v-1.68Z" style="fill:#040b1f;"/><path d="M33.25,7.43H11.52c-2.14,0-3.88,1.74-3.88,3.88v30.21c.56,0,1.12-.02,1.68-.03V11.31c0-1.22,.99-2.21,2.21-2.21h21.73v-1.68Z" style="fill:#040b1f;"/><polyline points="26.12 51.57 28.04 53.95 33.57 47.58" style="fill:none; stroke:#040b1f; stroke-linecap:round; stroke-linejoin:round; stroke-width:1.6px;"/><polyline points="26.12 43.95 28.04 46.33 33.57 39.96" style="fill:none; stroke:#040b1f; stroke-linecap:round; stroke-linejoin:round; stroke-width:1.6px;"/><polyline points="26.12 36.33 28.04 38.71 33.57 32.34" style="fill:none; stroke:#040b1f; stroke-linecap:round; stroke-linejoin:round; stroke-width:1.6px;"/><polyline points="26.28 28.92 28.2 31.29 33.73 24.92" style="fill:none; stroke:#040b1f; stroke-linecap:round; stroke-linejoin:round; stroke-width:1.6px;"/><path d="M43.64,38.86l14.43-14.83s4.02-3.09,1.52-5.41-5.32,1.02-5.32,1.02l-14.92,15.27-3.56,7.2,7.85-3.24Z" style="fill:none; stroke:#040b1f; stroke-linecap:round; stroke-linejoin:round; stroke-width:1.6px;"/><line x1="54" y1="19.88" x2="58.32" y2="23.77" style="fill:none; stroke:#040b1f; stroke-linecap:round; stroke-linejoin:round; stroke-width:1.6px;"/><line x1="39.34" y1="34.9" x2="43.64" y2="38.86" style="fill:none; stroke:#040b1f; stroke-linecap:round; stroke-linejoin:round; stroke-width:1.6px;"/><line x1="37.22" y1="39.49" x2="38.58" y2="40.88" style="fill:none; stroke:#040b1f; stroke-linecap:round; stroke-linejoin:round; stroke-width:1.6px;"/></svg>