<!-- Generator: Adobe Illustrator 25.2.1, SVG Export Plug-In  -->
<svg version="1.1" xmlns="http://www.w3.org/2000/svg" xmlns:xlink="http://www.w3.org/1999/xlink" x="0px" y="0px" width="53.6px"
	 height="54.6px" viewBox="0 0 53.6 54.6" style="overflow:visible;enable-background:new 0 0 53.6 54.6;" xml:space="preserve">
<style type="text/css">
	.st0{fill:#6D6D6D;}
</style>
<defs>
</defs>
<g>
	<path class="st0" d="M26.8,0C12,0,0,12.2,0,27.3s12,27.3,26.8,27.3s26.8-12.2,26.8-27.3C53.6,12.2,41.6,0,26.8,0 M40.3,19.1v21.3
		c0,2.5-2,4.6-4.5,4.6H19.2c-2.2,0-4-1.6-4.4-3.6h-1.7c-0.6,0-1-0.5-1-1c0-0.6,0.4-1,1-1h1.6V37h-1.6c-0.6,0-1-0.5-1-1
		c0-0.6,0.4-1,1-1h1.6v-2.3h-1.6c-0.6,0-1-0.5-1-1c0-0.6,0.4-1,1-1h1.6v-2.3h-1.6c-0.6,0-1-0.5-1-1c0-0.6,0.4-1,1-1h1.6V24h-1.6
		c-0.6,0-1-0.5-1-1c0-0.6,0.4-1,1-1h1.6v-2.3h-1.6c-0.6,0-1-0.5-1-1c0-0.6,0.4-1,1-1h1.6v-2.3h-1.6c-0.6,0-1-0.5-1-1s0.4-1,1-1h1.7
		c0.4-2.1,2.3-3.7,4.4-3.7h4.5h12.1c2.5,0,4.5,2.1,4.5,4.6V19.1z"/>
	<rect x="26.9" y="32.1" class="st0" width="9.5" height="2.5"/>
	<rect x="19.8" y="32.1" class="st0" width="3.5" height="7.5"/>
	<rect x="26.9" y="27.1" class="st0" width="9.5" height="2.5"/>
	<rect x="26.9" y="37.1" class="st0" width="9.5" height="2.5"/>
	<rect x="18.6" y="22.1" class="st0" width="17.8" height="2.5"/>
	<rect x="18.6" y="15" class="st0" width="17.8" height="4.5"/>
</g>
</svg>
