<?xml version="1.0" encoding="UTF-8"?><svg id="a" xmlns="http://www.w3.org/2000/svg" viewBox="0 0 64 64"><path d="m61,43.52c0-.08-.02-.2-.05-.28l-1.33-3.07-2.26-5.45-1.23-3.15-.23-.5s-.01-.02-.02-.04l-.23-.49s-.01-.04-.02-.06l-.12-.25h0s-.03-.07-.04-.1l-.15-.34s-.02-.04-.04-.07c0-.03-.02-.05-.03-.08h-.01s0,0-.01-.01l-.21.13s-.01-.02-.02-.04c0-.01-.01-.02-.02-.03l.23-.11s-.02-.07-.04-.1h0s-.03-.08-.04-.1l-.06-.13s-.01-.02-.02-.04c0-.02-.01-.03-.02-.04l-.03-.05s-.02-.06-.03-.08l-.08-.15s-.02-.05-.02-.06c-.01-.04-.04-.08-.06-.12-.02-.04-.04-.08-.06-.12l-.02-.04s-.03-.09-.06-.13c-.01-.03-.03-.07-.05-.1,0-.02-.02-.05-.04-.07-.01-.05-.05-.12-.08-.18l-.02-.05c-.01-.05-.03-.1-.05-.14l-.03-.06s-.02-.06-.03-.08l-.07-.14s0,0,0,0l-.28-.6s-.02-.05-.03-.07c-.01-.04-.03-.07-.05-.1l-.03-.08.06-.03s.08-.05.12-.08c.02,0,.03,0,.05,0,.17.01.35-.04.49-.14.02-.01.04-.03.07-.04.01,0,.03-.01.04-.02.02,0,.04-.02.05-.03.04-.02.07-.05.1-.08.02-.02.05-.04.06-.05,0,0,.02-.02.02-.03.05-.05.09-.1.12-.16.02-.03.03-.05.04-.08h0c.03-.05.05-.11.06-.14.02-.05.03-.08.04-.12,0-.02.02-.03.02-.04.01-.03.02-.05.03-.07.03-.03.07-.07.09-.12,0,0,0,0,.01-.01.03-.03.07-.07.1-.11.07-.09.12-.2.15-.32l1.86-1.04s.05-.04.08-.06c.17-.14.27-.35.27-.62,0-.08-.01-.16-.04-.23,0-.02,0-.03-.01-.04-.02-.06-.04-.11-.06-.16l.06-.65c.01-.07.02-.14.02-.18,0-.27-.15-.52-.39-.64-.03-.02-.06-.04-.1-.05-.09-.08-.2-.14-.33-.16-.12-.09-.25-.14-.39-.15-.05-.06-.11-.11-.18-.14-.06-.05-.13-.08-.2-.1-.03-.03-.07-.07-.1-.09-.01-.01-.02-.02-.04-.03-.04-.04-.08-.07-.13-.1h0c-.2-.1-.42-.14-.63-.09-.06.01-.12.03-.17.06-.05,0-.11-.01-.17,0-.05-.04-.12-.07-.18-.1-.03-.03-.07-.06-.1-.07-.05-.04-.1-.07-.16-.09-.04-.04-.1-.08-.15-.11-.01-.03-.02-.05-.04-.07-.04-.07-.09-.14-.15-.19-.02-.02-.04-.04-.07-.06h0c-.11-.1-.23-.15-.32-.17,0,0-.02,0-.03-.01-.04-.02-.07-.04-.11-.05-.11-.14-.28-.25-.47-.28-.01,0-.03,0-.04,0-.01,0-.02-.01-.04-.02-.03-.08-.06-.16-.11-.22h0s-.02-.03-.03-.04l.04-.28s0-.03,0-.05c.01-.07.02-.15.02-.2v-.07s0-.04.01-.06l.03-.05c.05-.08.08-.17.1-.27.12-.17.13-.37.13-.45,0-.05,0-.11-.02-.17,0-.06-.03-.11-.05-.17-.02-.06-.05-.12-.07-.16,0,0-.06-.09-.06-.1-.02-.02-.04-.05-.07-.08-.01-.02-.03-.03-.04-.04-.01-.01-.03-.03-.04-.04-.11-.11-.25-.19-.32-.2l-.09-.03s-.07-.03-.12-.04c-.02,0-.04-.01-.05-.02l-.17-.04s-.09-.02-.14-.03h0s-.11-.04-.17-.06l-.12-.03c-.08-.04-.16-.06-.23-.06-.17-.03-.35-.01-.5.07,0,0-.01,0-.02,0,0,0,0,0,0,0-.03.01-.07.02-.1.04-.06.02-.13.04-.18.08,0,0,0,0,0,0-.03,0-.06.02-.09.03-.07.02-.14.05-.21.09-.03,0-.07,0-.1.02-.03,0-.06,0-.09.01-.07,0-.13.02-.2.04,0,0-.02,0-.03,0-.02,0-.04.01-.05.02-.02,0-.05,0-.07.01-.06,0-.12.01-.18.03-.03,0-.05.01-.08.02-.02,0-.04.01-.06.02,0,0,0,0,0,0-.01-.04-.03-.08-.04-.1,0,0,0-.02-.01-.03-.01-.03-.03-.07-.04-.09l-.02-.03s-.03-.09-.05-.12c-.01-.06-.04-.12-.07-.19,0,0,0-.01,0-.02,0-.02-.01-.03-.02-.05,0-.02-.01-.05-.02-.06l-.26-.63h0s-.01-.03-.02-.04c-.04-.14-.12-.27-.23-.36-.17-.15-.41-.21-.6-.17l-1.98.33c-.35.06-.61.36-.61.78,0,.04,0,.09.02.13,0,.04,0,.08.02.11,0,.06.01.12.03.18,0,.01,0,.02,0,.03,0,.02,0,.04.01.06,0,.03,0,.07.02.1,0,.02,0,.04,0,.06l-1.08.15-.05.02s-.11,0-.15.01l-.27.05c-.2.05-.37.18-.48.38-.09.18-.1.39-.03.58l.04.11h0s0,0,0,.01c.01.08.04.15.08.23,0,0,0,0,0,.01h0s.01.06.02.09h0s-1.23.16-1.23.16c0-.04,0-.09-.02-.14,0-.05-.02-.1-.04-.15,0-.04-.02-.07-.03-.1-.01-.07-.03-.13-.06-.2,0-.02-.01-.03-.02-.04l-.11-.32h0s0-.04-.02-.06c-.01-.05-.03-.11-.06-.16-.01-.04-.03-.08-.04-.11,0-.02-.02-.03-.03-.05,0-.01-.01-.02-.02-.04l-.06-.12c-.02-.05-.03-.07-.03-.07,0-.01,0-.02-.02-.04,0-.01-.01-.03-.02-.04,0-.04-.01-.08-.02-.11-.02-.11-.07-.21-.14-.3-.04-.07-.09-.14-.15-.19,0,0,0,0,0,0-.05-.06-.12-.11-.12-.11h0s-.03-.02-.05-.03c-.07-.06-.16-.1-.25-.12-.03-.02-.08-.03-.12-.05l-.03-.02-.04-.02s-.04-.04-.06-.05c-.05-.05-.1-.09-.16-.13,0,0-.01,0-.02-.01-.08-.06-.17-.09-.24-.11-.05-.02-.1-.04-.13-.05h0c-.25-.06-.44-.05-.62.02h0s-.08.03-.08.03c0,0,0,0,0,0-.01,0-.03.02-.06.03-.06.01-.13.03-.2.06,0,0,0,0,0,0-.09.01-.17.04-.21.06,0,0-.01,0-.02,0,0,0,0,0,0,0-.02-.02-.03-.03-.05-.04-.01-.01-.02-.02-.04-.04-.01-.01-.02-.03-.03-.04-.03-.04-.07-.07-.1-.1l-.02-.02s-.04-.03-.06-.04c-.06-.05-.14-.09-.21-.12h0s0-.09-.02-.15c0-.07-.02-.14-.05-.2,0-.01,0-.02,0-.03,0-.06-.02-.14-.05-.23,0-.04,0-.09-.02-.13,0-.08-.03-.17-.05-.22l-.04-.11s0,0,0,0c0-.02,0-.03-.01-.05,0,0,0,0,0,0,.01-.03.03-.09.04-.13.03-.1.04-.19.04-.3,0-.02,0-.05,0-.07,0-.02.02-.04.03-.05.03-.05.04-.09.04-.09h0s.04-.1.05-.15c.02-.08.03-.17.03-.23v-.15c.02-.07.03-.14.03-.19s0-.1-.01-.14c0,0,0-.01,0-.02,0-.01,0-.02,0-.03,0-.04,0-.09-.02-.14,0-.03,0-.06-.01-.1v-.04s0-.1-.02-.15c0-.05-.02-.09-.03-.14,0-.04,0-.07,0-.09,0-.02,0-.08,0-.1l-.03-.48s.01-.09.01-.12v-.16c0-.05,0-.11-.02-.16,0-.02,0-.04,0-.05l-.03-.15s0-.11-.02-.17c0-.02,0-.03,0-.05,0-.1-.04-.21-.09-.3-.04-.09-.09-.17-.14-.2-.03-.04-.09-.08-.15-.12h0s-.14-.11-.14-.11c-.01-.02-.03-.03-.04-.05,0-.01-.02-.02-.03-.03-.04-.06-.08-.11-.1-.14-.03-.04-.06-.07-.09-.1,0,0-.02-.02-.02-.02-.01-.02-.03-.03-.04-.05s-.03-.03-.04-.04c-.01-.01-.02-.02-.03-.03,0,0-.01-.01-.03-.03-.03-.04-.07-.09-.1-.12-.03-.04-.06-.08-.09-.1h0s-.03-.04-.05-.05c-.05-.07-.12-.13-.19-.18-.02-.01-.04-.03-.06-.04h0s-.09-.04-.11-.06l-.32-.14s0,0,0,0c-.07-.05-.16-.09-.25-.11h0s-.05-.01-.07-.02c-.06-.02-.13-.03-.22-.04l-.15-.02s0,0-.02,0c-.02,0-.04,0-.06-.01-.05-.01-.09-.02-.13-.02-.06-.01-.12-.02-.16-.02h-.14s-.1,0-.16.02c-.09.01-.18.04-.26.09-.04.02-.06.03-.06.03h0c-.06.03-.12.06-.17.1,0,0-.01,0-.02.01-.07.04-.13.08-.18.14-.03.02-.05.04-.07.06,0,0-.01.01-.02.02h-.02s0,0,0,0c.01-.04.03-.07.03-.11.03-.08.04-.18.04-.26,0-.04,0-.09-.02-.14,0-.06-.02-.13-.05-.19,0,0,0-.02,0-.02,0,0,0-.02,0-.03,0-.01,0-.02,0-.03,0,0,0,0,0,0v-.08c0-.05,0-.12-.02-.19-.01-.05-.03-.1-.03-.1,0,0,0,0,0,0-.02-.05-.05-.12-.09-.18-.02-.03-.04-.06-.06-.09,0,0,0,0,0-.01-.06-.15-.17-.27-.29-.33-.22-.13-.5-.14-.75-.01l-1.18.68s-.03.02-.05.02l-.42.23s-.08.04-.13.07l-.1.06c-.08.03-.14.07-.18.1-.02.02-.05.03-.06.04l-2.43,1.91-2.36,1.96-.14.1s-.07.06-.1.1l-1.59,1.93s-.04.05-.07.08h0s-.05.06-.08.1c-.06.05-.11.11-.15.17,0,0-.01.02-.02.03l-.11.13-.91-.76c-.16-.14-.39-.21-.59-.17-.21.03-.4.15-.51.34l-.43.69s-.02.04-.03.05l-.32.54s-.1.13-.12.16c-.02.02-.03.04-.04.06l-1.52,2.41-.06.11s-.05.07-.07.09l-.19.32s-.07.09-.09.12l-2.57,4.07-1.02.7-4.69,3.66-2.24,1.15c-.29.14-.46.45-.4.78l.21,1.21.02,1.41-1.63,2.95s-.02.04-.03.06c-.04.07-.06.14-.07.22,0,.01-.01.03-.02.04-.04.06-.06.12-.08.18,0,0,0,.01,0,.02-.05.07-.09.15-.12.24-.03.09-.05.18-.05.25,0,.11.02.21.08.31,0,.08.02.15.04.21-.13.14-.21.34-.21.57,0,.02,0,.05,0,.08,0,.04,0,.08,0,.13,0,.08.01.15.04.23,0,.01,0,.03,0,.04,0,.01,0,.02-.01.04h0c-.02.08-.04.17-.04.23s0,.11.02.17c0,.04.01.08.03.13h0c0,.06.02.12.03.17,0,.01,0,.02,0,.03,0,.14.04.27.11.38-.12.06-.21.15-.26.24-.13.15-.17.34-.18.45-.02.04-.03.09-.04.14-.11.04-.21.11-.28.21h0s-.03.03-.04.04c-.04.04-.07.08-.09.13,0,0,0,.01-.01.02-.14.18-.15.39-.15.51,0,.09.02.18.05.27-.02,0-.04.02-.06.03-.08.03-.22.12-.28.19-.19.2-.21.48-.21.56,0,.06,0,.13.03.2-.08.04-.16.09-.22.15-.04.04-.12.15-.14.2-.06.1-.09.22-.09.4,0,.11.03.21.07.31-.05.03-.09.06-.12.1-.05.05-.16.19-.19.26-.02.03-.03.07-.04.11,0,0,0,.02-.01.02-.01.02-.02.03-.04.05-.03.04-.06.09-.08.13,0,0,0,.02-.01.03,0,0,0,0-.01,0-.23.03-.41.19-.47.26-.03.03-.06.08-.09.12-.03.03-.05.07-.07.11h0s-.02.05-.03.08c-.01.02-.03.04-.03.05,0,.02-.02.04-.03.06-.18.05-.3.17-.35.22-.04.04-.07.09-.1.15-.28,0-.48.17-.54.23-.06.06-.1.12-.14.2-.12.03-.23.09-.32.17-.02.02-.04.03-.06.05-.01.01-.03.03-.05.05h0c-.19.2-.2.46-.2.54,0,.04.02.17.03.2h0s.01.05.02.07c.06.34.36.59.71.6l11.5.09h.49c.11,0,.26-.05.38-.12h0c.18-.1.3-.27.35-.47.03-.05.05-.11.06-.17.02-.03.03-.07.04-.1.03-.05.05-.11.06-.16.04-.07.08-.14.1-.22.01-.02.02-.04.03-.06,0,0,0-.01.01-.02,0,0,0,0,0-.01.01-.03.03-.05.03-.06,0,0,.01-.02.02-.04.02-.04.02-.04.01-.02,0,0,0,0,0,0l.02-.04s0,0,0-.01c0,0,0-.02.01-.03.01-.02.04-.07.05-.09,0,0,0-.01.01-.02,0-.01.02-.03.03-.05.02-.02.04-.05.05-.09.02-.03.05-.07.07-.11,0,0,0,0,0,0,.02-.03.04-.06.05-.08.01-.02.03-.04.02-.04,0,0,0-.01.01-.02h0s.01-.02.02-.03c.02-.02.03-.04.04-.07,0-.01.02-.02.02-.03.01-.02.03-.04.04-.06,0,0,.01-.02.02-.03,0,0,0-.01.01-.02.02-.02.04-.05.05-.08l.02-.02s.06-.07.08-.1c0,0,.01-.02.02-.02,0,0,0-.01.01-.02,0-.01.02-.03.03-.04,0,0,.01,0,.02-.02.02-.02.05-.05.07-.08h0s.01-.02.02-.03c0,0,0,0,.01-.01.05-.04.09-.09.12-.14.03-.03.07-.07.08-.08,0,0,.01-.01.02-.02.02-.01.03-.03.05-.05,0,0,0,0,0,0,.02-.02.05-.05.08-.09.03-.02.05-.05.08-.07.02-.02.05-.05.09-.09,0,0,0,0,.01,0,.04-.03.08-.06.11-.09.03-.02.06-.05.1-.08.02-.02.05-.03.06-.05.03-.02.06-.04.08-.06.03-.02.06-.04.09-.07,0,0,0,0,.01,0,.03-.02.05-.04.08-.06.01,0,.02-.02.03-.02.03-.02.05-.04.08-.05.04-.02.07-.04.09-.06.03-.02.06-.04.09-.06.04-.02.07-.04.1-.07.02,0,.03-.02.05-.03,0,0,0,0,0,0,.04-.02.07-.04.11-.06.04-.02.08-.04.11-.07.04-.02.07-.03.1-.06,0,0,0,0,0,0,.02,0,.04-.02.06-.03,0,0,0,0,0,0,0,0,0,0,0,0,.03-.01.05-.03.08-.04t0,0s0,0,.02,0c.02,0,.04-.02.06-.03,0,0,.01,0,.02,0,.04-.01.09-.03.13-.06,0,0,0,0,0,0,.04-.01.08-.03.11-.05.05-.01.09-.03.12-.05.03,0,.05-.02.08-.03,0,0,0,0,.01,0,.04-.01.08-.03.11-.04,0,0,0,0,.01,0,.03,0,.06-.02.09-.03,0,0,.01,0,.02,0,.04,0,.08-.02.12-.04,0,0,.01,0,.02,0,0,0,0,0,0,0,.03,0,.06-.02.08-.03.04,0,.07-.02.11-.03.04,0,.08-.02.11-.03,0,0,0,0,.01,0,.03,0,.05-.01.08-.02.03,0,.07-.01.1-.02.01,0,.02,0,.03,0,.04,0,.08-.02.12-.03.04,0,.09-.01.13-.03,0,0,.01,0,.02,0,.02,0,.05,0,.07-.01.04,0,.08,0,.12-.02.02,0,.04,0,.07-.01,0,0,0,0,.01,0,.08,0,.15,0,.22-.03.04,0,.08,0,.12-.02h0s.08,0,.13-.01h.03s.08,0,.12-.02c.02,0,.04,0,.06,0h.12s.08,0,.13-.02h.41s.1.02.13.02h.1s.09.02.13.02h.09s.07.01.11.01c.03,0,.07.01.11.01.04,0,.07.01.11.02.05,0,.1.02.16.02.03,0,.05,0,.08.01.02,0,.04,0,.06.01.01,0,.02,0,.03,0,.04.01.09.02.13.03.04.01.08.02.12.03.04.01.08.02.13.03.04.01.08.02.12.03.03,0,.06.02.09.02.03.01.07.02.11.03,0,0,0,0,.01,0,.03.01.06.02.09.03.05.02.09.04.14.05.05.02.11.04.17.05.05.03.11.05.17.07.03.02.07.03.11.05.05.02.1.04.15.05,0,0,0,0,0,0,.07.05.15.08.23.1.03.02.03.02.01,0,.02.01.05.03.08.04,0,0,.02,0,.02.01.01,0,.03.02.05.02,0,0,.01,0,.02,0,0,0,0,0,.01,0,.03.02.05.03.07.04.03.02.05.03.08.05h0s.03.02.05.02c.01,0,.02.01.03.02.02.01.04.03.06.04h0s.02,0,.03.01c0,0,.01,0,.02,0,0,0,0,0,0,0,.01,0,.03.02.04.03.02,0,.01,0,.01,0,0,0,0,0,0,0,.02.01.04.03.07.04,0,0,.01,0,.02.01,0,0,.02.01.03.02,0,0,.02,0,.02.01,0,0,0,0,0,0,0,0,0,0-.01,0,.02.01.03.02.05.03-.02.01-.04.03-.05.04-.21.21-.26.5-.14.78.1.27.39.46.7.47-.01.06-.01.12-.01.15,0,.17.06.33.12.39.01.02.03.04.05.07.07.1.15.18.2.2,0,0,.01.01.02.02,0,0,0,0,0,0,.02.02.03.05.05.06.01.03.03.05.04.08h0s0,0,0,0c.04.1.09.18.15.22.03.03.11.09.14.12s.07.04.1.06c.02.01.03.03.05.04,0,.05-.01.09-.01.14,0,.09.02.19.05.27.02.14.08.27.17.38.02.04.05.06.06.07.02.03.07.07.11.1,0,0,0,0,0,0,.04.1.1.19.18.26.05.06.11.11.18.14.05.05.1.1.16.14.08.06.17.1.27.12,0,0,.02.02.03.03.08.09.17.16.28.2.02.02.05.03.08.05.01.02.03.03.05.05.02.02.04.04.07.07,0,0,0,.01.01.02.06.29.29.51.58.56.08.02.16.03.27.03.05.02.11.04.16.05.1.03.21.03.31.02.03.02.06.04.1.05h0s0,0,0,0c.02.02.04.04.07.05,0,0,0,0,0,0,0,0,.01.02.02.02.2.21.5.29.77.2.03,0,.05,0,.08-.01.03,0,.05,0,.08,0,.02,0,.06,0,.09,0,.01.04.03.09.05.13,0,0,0,0,0,0,.02.04.04.08.06.11.09.22.29.38.52.43.06.02.11.03.16.03.02,0,.05.01.07.02.08.04.16.07.25.08.11.02.22.02.33,0,.03,0,.06,0,.09,0,.2.05.39.02.55-.07.04,0,.08-.01.12-.02l1.04.94s.06.07.08.09l.34.31s.06.06.1.08l5.23,4.8c.11.1.34.18.48.18.01,0,.03,0,.04,0,.2-.01.39-.1.5-.24l1.95-2.18.09-.09s.05-.04.06-.06l1.23-1.37s.03-.04.05-.06l.21-.24s0,0,0,0l.53-.6s.06-.05.08-.08l1.94-2.17s0,0,0,0c0,0,0,0,0,0l1.61-1.8s.02-.02.03-.03l1.3,1.06c.03.07.07.14.12.21h0s.03.03.04.04c.03.04.06.08.1.12,0,.1.04.21.09.3.02.06.04.11.08.16h0c0,.05.01.1.02.14,0,.01,0,.03,0,.05-.02.08-.04.15-.04.23,0,.06.01.13.03.2,0,.01,0,.03,0,.04,0,.04,0,.08.01.12,0,.02,0,.04,0,.07-.01.06-.02.11-.02.16,0,.06,0,.12.02.18,0,.04,0,.09,0,.13,0,.21.09.4.19.48.02.02.04.04.06.06.05.09.11.15.14.18.06.05.15.1.25.14.04.02.08.03.12.04.07.04.15.07.23.08.1.06.21.1.33.11.2.11.57.13.8.01l.35.25s.03.02.04.03c.04.08.08.15.14.21.01.02.03.03.05.04h0s.09.07.14.11c.04.05.08.1.12.15.15.15.31.23.62.23.01,0,.02,0,.04.01.07.03.14.05.22.06.02.03.04.06.06.08.01.09.04.2.06.26,0,.03.08.15.09.17.02.04.11.15.14.19.07.08.15.13.26.18h0s.05.01.08.02c.03.03.06.06.09.08,0,0,.03.02.04.03.1.07.2.11.27.12h0c.2.04.34.05.5.01,0,0,.02,0,.03,0,.02,0,.04,0,.06.01,0,0,0,0,0,0,.03.12.08.22.17.31.01.02.02.03.03.04.21.23.5.23.64.24.08.07.19.12.31.15h0c.12.03.23.04.32.04.12.09.27.15.49.16.02.02.05.04.08.06.05.04.1.08.14.1h0c.07.04.14.06.2.08.08.02.17.04.22.04h.05c.08,0,.19-.03.28-.06,0,0,.02,0,.03-.01.16-.06.29-.17.32-.25.05-.06.09-.13.12-.21h0s.03-.09.04-.14c0,0,.02-.02.02-.02.03-.03.08-.07.12-.11h0c.06-.05.13-.1.19-.17.04-.04.09-.08.12-.12.06-.07.11-.15.13-.22.06-.04.12-.08.16-.13,0,0,.01-.01.02-.02.14-.09.25-.23.3-.39.02-.04.04-.07.05-.11,0,0,0-.02.01-.03.05-.1.07-.23.07-.34h0c.01-.06.02-.1.03-.15,0,0,0-.01,0-.02.02-.04.04-.09.05-.14.1-.13.16-.29.15-.45l-.03-7.61Zm-6.04-13.82s0,.03,0,.05h0s0-.03,0-.05h0Zm-8.96-11.53c.07,0,.13,0,.19-.03.02,0,.04,0,.06-.01h.05s.08-.01.13-.02h.03s.1,0,.15-.02c.28,0,.53-.18.64-.45.04-.1.06-.24.04-.37h0s0-.08-.01-.13c0-.04,0-.08-.02-.13,0-.03,0-.07-.02-.11,0-.04,0-.08-.02-.12,0-.05-.01-.09-.03-.14h0s0-.03,0-.04l.68-.12.08.2c.02.06.04.11.05.14,0,0,0,.02.01.03,0,.03.02.06.03.08.01.05.04.11.06.17h0v.02s.04.06.04.06c0,.03.02.06.04.09.02.07.04.14.07.17.01.03.03.06.04.08.01.05.03.09.06.14l.03.08s.03.06.04.09l.06.13c.07.22.24.4.48.48.2.07.41.05.59-.05,0,0,.02,0,.02-.01.04,0,.08-.02.11-.03.06-.01.12-.03.17-.05.04,0,.08-.02.12-.04.01,0,.03,0,.04-.01,0,0,.02,0,.03,0,0,0,0,0,0,0,.04,0,.09,0,.14-.02.05,0,.1-.02.15-.03.02,0,.04-.01.07-.02.02,0,.04,0,.05,0,.06,0,.12-.01.17-.03.03,0,.07,0,.11-.02.04,0,.09-.01.13-.03.02,0,.04,0,.06-.01.13-.02.24-.08.31-.14,0,0,.02,0,.03-.01.01,0,.03-.01.04-.02.01,0,.03-.01.05-.02,0,0,.01,0,.02,0,0,0,0,0,.01,0,.03,0,.06-.02.1-.03.06.02.11.04.17.04l.07.02s-.01.04-.02.06c-.02.08-.05.17-.06.21,0,.04-.01.14-.01.18v.1s0,.01,0,.02l-.02.11s0,.05,0,.08c-.1.14-.15.31-.13.47,0,.05-.01.1-.01.13,0,.2.08.38.22.52,0,.1.03.2.08.28.04.18.15.31.2.36.13.14.34.22.59.22,0,0,0,0,.01,0,.07.11.16.21.28.28h0s.07.04.11.05c.06.03.12.06.19.07.04.07.09.13.15.18.06.08.14.14.23.19h0s.05.02.08.04c.06.05.13.1.2.13.03.02.07.04.1.05.03.02.06.04.09.06h0s0,0,.01,0c.1.15.25.25.42.3.07.03.14.06.22.07.06.02.12.02.19.02.15.08.33.11.51.07,0,0,0,0,.01,0,.12.08.26.12.39.13,0,0,.02.01.03.02.11.1.25.17.39.2.05.02.1.03.15.04v.04c-.07.12-.11.27-.11.45,0,.01,0,.02,0,.04l-1.49.83c-.05.03-.1.08-.15.12-.02.01-.03.03-.04.04-.03.03-.1.12-.12.16h0s-.04.07-.05.09c-.04.07-.07.15-.06.15,0,.01-.01.04-.02.06,0,0,0,.01,0,.02,0,0,0,0-.01.01-.02.02-.03.04-.05.06-.01,0-.02.02-.03.03-.02.02-.05.06-.08.1-.01.02-.03.04-.04.06-.01.02-.03.04-.04.06,0,0,0,0,0,.01-.02.03-.04.06-.06.1-.01.03-.02.06-.03.09-.05,0-.1.02-.15.04-.05.01-.1.03-.14.05-.01,0-.03-.01-.04-.02,0,0,0,0,0,0-.18-.09-.39-.1-.6-.02-.01,0-.02,0-.03.01-.03,0-.06.02-.08.03l-.04.02s-.06.02-.08.03l-.2.08c-.2.06-.36.21-.45.39-.09.18-.09.4-.01.59l.09.22s-.04-.02-.06-.03c-.03-.01-.07-.02-.1-.03-.07-.06-.14-.1-.23-.13-.08-.1-.18-.19-.31-.24h0s-.02,0-.02-.01c-.01,0-.03-.02-.04-.02-.05-.09-.11-.16-.17-.21-.06-.05-.13-.09-.21-.12-.04-.04-.09-.07-.14-.09-.08-.06-.17-.11-.27-.13-.03-.03-.09-.07-.14-.11-.11-.07-.23-.11-.35-.12,0,0,0,0,0,0-.04-.01-.09,0-.13-.01-.01,0-.02-.01-.04-.01-.02,0-.03,0-.05,0-.03,0-.07,0-.1,0-.07,0-.13.03-.19.05-.01,0-.02,0-.03,0-.08,0-.15.03-.22.06-.01,0-.02,0-.03,0-.08.04-.16.09-.22.16,0,0-.02.02-.03.02,0,0,0,0,0,0-.04-.03-.08-.06-.13-.09-.06-.04-.12-.07-.18-.09l-.12-.29s0-.03-.02-.04c-.01-.04-.03-.08-.05-.12,0-.01-.01-.02-.02-.04-.02-.03-.04-.07-.06-.1-.01-.02-.02-.04-.03-.05l-.08-.12s-.02-.06-.03-.08c-.02-.06-.04-.11-.07-.17,0,0,0-.02-.01-.02,0,0,0,0,0,0-.05-.12-.13-.23-.24-.32,0,0-.01-.01-.02-.02,0,0-.01-.01-.02-.02,0,0,0,0,0,0,0,0,0,0,0,0,0,0-.01-.01-.01-.01-.02-.02-.06-.05-.09-.07l-.03-.03s-.03-.02-.05-.04c-.02-.01-.03-.03-.04-.04l-.21-.15s-.01-.01-.02-.02c0,0,0,0-.01-.01-.02-.02-.05-.04-.08-.06-.05-.04-.1-.08-.16-.11,0,0-.02-.01-.02-.02-.07-.05-.14-.09-.23-.11-.02-.01-.05-.03-.07-.04-.02-.01-.04-.02-.05-.03-.02-.01-.04-.02-.07-.03-.02-.02-.05-.03-.06-.04-.02-.01-.04-.02-.07-.03-.02-.01-.04-.02-.07-.03-.07-.04-.14-.07-.21-.08-.01-.01-.03-.02-.03-.03-.05-.06-.12-.12-.2-.16-.03-.02-.07-.04-.1-.05l-.21-.1c-.02-.1-.07-.2-.13-.28-.01-.05-.03-.1-.05-.14h0s-.03-.06-.04-.09c0-.02-.01-.03-.02-.05-.02-.06-.05-.11-.08-.16-.01-.04-.03-.08-.05-.12,0,0,0,0,0-.01,0-.04-.02-.08-.03-.12-.01-.07-.04-.14-.07-.19-.01-.04-.03-.08-.05-.12,0-.02-.02-.04-.02-.06,0-.02-.04-.07-.05-.09,0,0,0,0,0,0,0-.02-.02-.04-.03-.06l-.11-.2s-.01-.02-.02-.03c-.03-.06-.07-.12-.12-.18-.02-.04-.05-.07-.08-.11,0,0,0,0,0-.01-.04-.06-.09-.12-.17-.19-.03-.04-.07-.07-.12-.11-.01-.01-.02-.02-.03-.04h0s0,0-.01,0c-.02-.03-.04-.06-.07-.09h0s0,0,0,0c-.03-.03-.06-.06-.09-.09h0s-.1-.1-.1-.1c-.01-.01-.02-.02-.03-.03-.02-.01-.04-.03-.06-.05-.01,0-.02-.02-.03-.03-.04-.04-.08-.07-.13-.1-.01,0-.02-.02-.04-.03l.24-.03s.09,0,.14-.02h0s.08,0,.13-.01c.02,0,.05-.01.08-.02h.04s.11,0,.17-.02c.04,0,.08-.02.13-.03.19-.05.36-.17.47-.37.09-.18.11-.38.05-.57l-.17-.5.68-.09Zm-1.67,4.61s0,0,0,0c0,0,0,0,0,0,0,0,0,0,0,0Zm-19.02-7.08s.06-.07.09-.11c0,0,.01-.01.02-.02,0,0,0,0,0,0,.02-.02.04-.04.07-.06.02-.02.06-.07.08-.12,0,0,0,0,0-.01h0s.04-.05.07-.08l1.53-1.87,4.62-3.74.23-.18s.02-.01.03-.02l.11-.06s.08-.04.12-.07l.3-.16c.07-.02.13-.06.19-.1.01,0,.03-.01.04-.02.02-.01.05-.03.08-.05l.07-.04s0,.05,0,.06c0,.05.01.12.03.19.02.08.04.15.09.22h0s.02.03.03.05h0c.03.07.08.13.13.18.02.04.05.08.08.11h0c.06.09.14.17.21.2,0,0,0,0,0,0,.04.04.09.08.15.11.01,0,.02.01.03.02.02.01.05.03.08.04.04.02.08.04.13.05,0,0,0,0,.01,0l.04.02h0c.08.06.18.09.28.1,0,0,0,0,0,0,.04,0,.09.02.13.02.02,0,.04-.01.06-.01.02,0,.04,0,.06,0h.08c.13.04.26.03.38,0,.07-.01.13-.04.19-.07.04-.02.07-.04.11-.06.07-.04.13-.07.18-.14.02-.01.12-.11.13-.12t0,0s.04-.03.05-.05h0c.05.01.11.02.17.02l.18.03s.02,0,.03,0c.03.01.06.03.09.04.02,0,.03.01.05.02l.21.09s.01.01.02.02h0s0,0,0,0c.04.09.1.16.17.23h0s.02.02.03.03c0,0,0,0,0,0,0,0,.01.02.02.03.01.01.02.03.04.05.03.05.07.09.11.13.03.04.05.08.07.1.03.04.07.09.1.12.01.01.03.02.04.04.01.02.03.03.04.04h0s.02.02.03.03c.02.02.03.03.05.05.02.01.04.03.06.04v.11s.02.08.03.13c0,.05-.01.09-.01.12v.27s0,.06,0,.09c0,.02,0,.04,0,.07,0,.04,0,.1.02.15v.1s0,.08,0,.11v.14c0,.1.02.2.06.29,0,.03,0,.07.01.1,0,.02,0,.02,0,.03,0,.03,0,.07.01.11,0,.04-.01.08-.01.11v.09c-.11.13-.17.31-.17.49v.2s0,.06,0,.09v.02s-.03.04-.03.06c-.06.14-.07.29-.07.4s.03.24.08.34c0,0,0,.02,0,.03,0,.02,0,.03.02.05.01.05.03.09.04.14h0c0,.08.02.17.04.25,0,0,0,0,0,0,0,.05.01.11.03.17,0,.05.02.1.04.14,0,.02,0,.03.01.05v.12c0,.08.01.15.04.23,0,.02,0,.03.01.05.02.07.04.12.05.14h0s.02.06.03.08c0,.02.02.04.02.04,0,0,0,0,0-.01.01.03.04.08.05.1h0s0,.02.01.02c.04.08.1.16.15.2.02.02.05.05.07.06.04.03.07.06.1.07.04.03.08.05.12.06,0,0,.01,0,.02,0,.06.03.13.06.19.08.05.06.11.11.17.14,0,0,0,0,0,0,.03.03.09.07.14.11.04.03.08.06.12.08.05.03.09.05.12.06h0s.02,0,.03.01c.11.06.22.09.34.09h0c.14.02.21.02.31,0,.06,0,.12-.02.17-.04.04,0,.08-.02.11-.03.09-.01.17-.04.21-.07,0,0,0,0,0,0,.09,0,.18-.01.26-.05.02.02.05.03.07.05.02.02.05.03.07.05.01,0,.03.02.04.02h0s.06.03.09.05l.11.05s.04.02.06.03v.03s.01,0,.01,0c.02.07.04.13.08.19,0,.02.01.03.02.05,0,.02.02.05.03.07l.06.1s.03.08.05.11v.02s.03.09.04.13l.1.26c0,.06.02.1.04.12,0,0,0,.01,0,.02,0,.03.01.06.02.09,0,.04.02.08.03.12,0,.02,0,.04.02.06v.06c0,.05,0,.1.02.16,0,.02,0,.04,0,.06,0,.04,0,.1.02.15,0,.08.03.15.06.23,0,0,0,.02.01.03.01.04.03.08.05.12.02.06.05.13.09.19.03.07.08.13.13.18.02.02.03.04.04.05,0,0,0,0,0,0,0,.01.02.02.02.02h0s.03.03.05.05c.04.05.09.09.14.13.03.03.08.07.09.07,0,0,.02.02.03.02.03.03.07.05.11.08.01,0,.03.02.04.03,0,0,.02.02.02.02.02.02.04.04.06.05.03.03.05.06.07.08h0s.06.06.08.09l.09.09s.05.05.09.07c.04.03.08.06.12.09.02.01.04.02.06.04.03.02.07.04.1.05h0s0,0,.01,0c.05.03.05.03.04.02.03.02.08.04.13.05.05.02.11.03.17.04h0s.08.01.12.02c0,0,.01,0,.02.01,0,0,.02.02.02.02.02.02.04.04.07.05l.05.05s.02.02.03.03c0,0,.01.01.02.02l.07.07s.03.03.04.04h0s0,0,0,0c.02.03.05.06.08.09,0,.01.02.02.03.03.03.03.06.05.09.07,0,0,0,0,0,0,.01.02.03.04.04.05.03.04.05.07.06.08l.02.03s.01.02.02.03l.08.15s0,0,0,.01c.01.04.03.08.05.11,0,0,0,0,0,0l.02.05s0,.03.01.05c0,.06.03.13.05.19,0,0,0,.02,0,.02,0,.03.02.05.03.08,0,.03.02.06.03.09,0,0,0,0,0,.02.02.06.05.12.08.18h0s.02.04.03.05c.01.02.02.04.02.04,0,0,0,.02.01.03.01.04.02.08.04.11,0,.01,0,.02.01.03,0,.02.02.04.03.07.01.03.03.05.04.08,0,0,0,0,0,0,.01.08.04.16.08.23.02.05.04.1.07.15.01.02.02.03.03.05,0,0,.01,0,.02.01.02.03.03.05.04.05,0,0,0,0,0,0,0,0,0,.01.01.02.06.09.13.16.23.22,0,0,.01,0,.02.01.05.04.11.08.17.1.02,0,.04.02.05.02.01,0,.02.01.04.02l.19.09s.01.01.02.02c0,0,0,0,0,0,0,0,.01.01.01.02.02.02.11.1.14.12.04.03.08.06.13.08h0s.01,0,.02,0c.03.02.06.04.09.05h0c.08.04.17.07.24.08,0,0,.02.01.03.01.02,0,.03.02.03.02h0s.1.06.14.08c0,0,.01,0,.02,0,.01,0,.02.01.03.02,0,0,.01,0,.02.01.05.03.09.06.13.08.03.01.06.02.09.03.02.01.03.02.05.04.02.02.06.05.08.06l.17.13s.03.03.05.04c.02.01.04.03.06.04.01.01.03.03.05.04,0,.03.02.05.03.08.03.12.09.23.17.33l.04.06s.02.03.03.05c0,0,0,0,0,0h0s0,.02.01.03l.05.22s0,.03.01.05c.02.07.04.15.08.22,0,0,0,0,0,0,0,.02.02.03.02.05.02.04.05.09.08.13.03.05.06.09.1.12.04.05.09.1.13.13l.13.09s.09.05.13.07c.04.02.08.04.12.05l.18.15s0,0,0,.01c0,.01.01.02.02.03l.13.22s-.02.02-.03.03c0,0,0,0-.01.01,0,0-.02.01-.02.02,0,0-.01.01-.02.02-.01.01-.02.02-.03.03l-.06.07h-.19s-.1,0-.15.02c-.06,0-.11.02-.16.04-.08.02-.16.05-.23.09-.07.03-.14.08-.2.14l-.39.29s-.05-.02-.08-.02c0,0,0,0,0,0-.03-.01-.06-.02-.1-.03l-.3-.14c-.05-.02-.1-.03-.15-.04-.07-.02-.14-.03-.19-.03h-.19c-.11,0-.23.03-.33.08-.04.02-.09.04-.13.07-.07.04-.12.08-.16.12-.03.03-.06.07-.09.11,0,0,0,0-.01.01-.03.04-.06.08-.09.13,0,0,0,0,0,.01-.02.03-.03.05-.03.06,0,0,0,.01,0,.02-.03.04-.05.09-.06.14h0s0,0,0,0h0s-.02.04-.02.04c0,.02-.02.06-.03.08,0,0,0,0,0,.01l-.09.2c-.03.08-.04.14-.05.19,0,0,0,0,0,.01-.01.03-.02.07-.02.1-.05.02-.1.05-.15.09-.03.01-.05.03-.07.04-.04.02-.08.06-.13.09,0,0,0,0,0,0-.05.03-.1.07-.13.1-.03.03-.06.06-.09.1-.05.05-.08.09-.09.12,0,0,0,0,0,0,0,0,0,0,0,0-.02.02-.03.05-.04.07h-.08c-.06.02-.12.04-.18.07-.01,0-.02,0-.03,0l-.31.12h0s0,0,0,0h0s-.03.03-.05.04c-.05.02-.1.04-.15.07-.05,0-.1.02-.15.04-.07.02-.13.04-.19.08h0s-.01,0-.02.01c0,0,0,0,0,0-.05-.02-.09-.03-.14-.03h0c-.08-.01-.14-.02-.2-.02-.06,0-.12.01-.18.03-.04,0-.08.02-.12.04-.02,0-.04.01-.06.02,0,0-.02,0-.03.01,0-.01,0-.03,0-.04h0c.06-.15.06-.28.06-.33,0-.18-.07-.35-.18-.48-.01-.08-.04-.15-.08-.22,0-.06.01-.14.01-.23,0-.18-.07-.35-.14-.42-.01-.02-.03-.05-.05-.07h0c-.14-.2-.37-.31-.61-.31-.04-.02-.09-.03-.14-.04,0,0,0,0,0,0-.03-.03-.07-.05-.1-.07-.04-.09-.11-.17-.18-.24-.09-.08-.19-.15-.28-.18-.11-.04-.22-.04-.34-.03l-.12-.1s0,0-.01,0c0,0,0,0,0,0l-1.86-1.44s-.03-.02-.06-.04c-.02-.02-.04-.03-.04-.04l-.07-.05s-.05-.04-.09-.06l-2.6-2.03-.09-.08s-.06-.06-.08-.07l-.48-.39-.16-.12s-.05-.05-.08-.07l-3.58-2.77-.18-.17s-.05-.04-.07-.06l-.25-.2s-.03-.02-.04-.03l-5.05-4,.06-.07Zm10.56,18.94s-.06.04-.09.06h-.02s-.07.05-.11.08c-.01,0-.02.01-.02.01,0,0,0,0,0,0-.03.01-.11.08-.14.09-.04.02-.09.06-.13.1-.04.03-.07.06-.09.09-.02.02-.03.04-.04.05-.02.02-.03.04-.05.05-.04.05-.08.11-.11.18-.02.03-.03.06-.04.09,0,.02-.02.05-.03.09,0,.02-.02.04-.02.07l-.07.23s-.02.11-.02.14c-.03.09-.03.16-.03.18h0c0,.06-.02.13-.02.22-.01.07-.02.13-.02.19v.16s0,.07,0,.11v.09c0,.08.02.15.05.23,0,.04.02.07.03.1l.14.33s.01.05.02.07c0,0,0,0,0,.01,0,.02,0,.04,0,.05,0,.01,0,.03-.01.04,0,0,0,.03-.01.06,0,.02,0,.03,0,.05v.03s-.03.05-.04.08l-.08.16s-.03,0-.04,0h-.2s-.09,0-.13.02h-.05s-.09,0-.13.01c-.04,0-.09,0-.14.02-.03,0-.06,0-.09.01-.07,0-.13.02-.2.04-.04,0-.08.02-.12.03-.04,0-.07.02-.11.03-.07.01-.14.03-.21.07-.05.02-.1.04-.15.07,0,0,0,0-.01,0-.04.02-.08.04-.11.06-.03-.01-.06-.01-.09-.02-.02,0-.05-.01-.07-.02-.09-.01-.18-.02-.27,0h0s-.01,0-.02,0c-.03,0-.05-.01-.07-.02l-.1-.02s-.07,0-.1,0h-.14l.03-.04c.06-.09.1-.2.12-.3.01-.03.02-.07.03-.11.06-.1.1-.22.11-.36.02-.08.02-.14.02-.18,0-.02,0-.04,0-.07,0,0,0,0,0-.01.06-.04.1-.08.11-.09.05-.04.12-.16.15-.22.01-.03.03-.06.04-.09.06-.12.09-.26.09-.44,0-.25-.13-.48-.33-.61-.02-.03-.04-.05-.06-.07-.02-.02-.05-.04-.07-.06,0-.01,0-.03,0-.04.01-.04.02-.08.02-.11.02-.06.02-.13.02-.19,0-.12-.06-.28-.13-.4h0s-.06-.09-.13-.16c-.01,0-.02-.02-.04-.03l1.24-.74c.13-.06.23-.17.3-.3.1-.14.14-.3.13-.44,0-.22-.11-.42-.29-.56l-.19-.18s-.03-.04-.05-.05c-.04-.05-.08-.09-.13-.13-.03-.02-.05-.05-.08-.07h0s-.1-.07-.15-.1c0,0,0,0-.01,0l-.09-.06h0s-.05-.04-.07-.05l-.06-.03s-.08-.08-.13-.11c-.03-.03-.06-.05-.08-.07-.03-.03-.06-.06-.1-.11,0,0-.01-.01-.02-.02h0s-.02-.02-.03-.03c0,0,0-.01-.01-.01-.03-.06-.1-.14-.15-.19l-.04-.04.48-.59s.02-.02.03-.03l.63.46c.07.05.15.08.24.1.03,0,.05,0,.08,0,.06,0,.12.01.18,0,.03,0,.05-.01.08-.02.06-.01.11-.03.17-.06.03-.01.05-.03.07-.05.04-.02.07-.04.11-.07l.06.04s.03.02.05.03c.02.01.04.03.04.03l.4.29s0,0,0,0l.03.03s.1.09.16.12c.03.02.05.05.08.06l.14.12s.05.04.08.07c.04.04.09.08.15.11,0,0,.02.01.03.02l.46.33s0,0,0,0h0c.09.06.23.1.34.11,0,0,.02,0,.03,0,0,0,0,0,.01,0,.12,0,.25-.03.36-.09.06-.04.14-.1.2-.17h0s.04-.05.07-.09l.16-.12h0s.05-.04.07-.06c0,0,.02-.02.03-.03.06-.05.12-.1.16-.15l.24-.32c.17-.22.2-.5.1-.73l.04-.05c.07-.04.16-.13.21-.19l.41-.56,1.15-1.11s.01,0,.02.01c.05.04.1.07.16.1.06.05.14.09.22.12.03.04.08.08.12.11.02.02.04.04.06.06.08.05.16.08.26.1.02.06.04.11.07.16h0s.01.02.02.03h0s0,.08.01.12c0,.08.03.15.06.22-.1.06-.18.13-.22.22-.04.05-.06.1-.09.16-.02.02-.04.05-.06.08-.01.01-.03.03-.04.04,0,0,0,0-.01.01-.11.1-.19.23-.23.38h0s-.02.08-.03.12c-.1.13-.15.29-.15.46,0,.1.03.19.07.28-.03.03-.05.07-.08.11,0,0-.01.02-.02.02,0,0-.01.01-.01.02-.02.02-.04.04-.05.07,0,0-.01,0-.02.02,0,0-.01.01-.02.02,0,0,0,0-.02.01l-.48.41s-.02,0-.02.02c-.01,0-.02,0-.03,0l-.11.02c-.09,0-.18.02-.26.05-.06.01-.12.04-.18.07-.02,0-.03.01-.04.02-.05.02-.07.03-.07.03-.03.01-.08.04-.12.07h0s-.15.09-.15.09c-.03.01-.06.03-.09.05-.07.04-.12.08-.12.09-.03.02-.06.05-.09.08-.03.03-.06.07-.09.11-.04.04-.07.08-.07.08-.05.05-.08.11-.11.16-.03.05-.06.09-.07.14,0,0,0,.02-.01.03-.02.04-.04.08-.05.13,0,0,0,.01,0,.02,0,0,0,0,0,.01-.02.04-.03.07-.03.09-.01.03-.03.08-.04.12l-.04.11s-.04.04-.05.05l-.07.09s-.03.02-.04.03c0,0,0,0-.02,0-.06,0-.11.02-.16.04-.02,0-.04.01-.07.02-.03,0-.06,0-.09.02-.08,0-.15.03-.2.05-.03,0-.07.02-.1.03-.07.02-.13.04-.19.08,0,0-.02,0-.02.01l-.52.26Zm-15.54-14.82l.1-.18s.08-.09.1-.13l.2-.33s.06-.08.09-.12l1.55-2.48s.07-.08.1-.15c0-.01.02-.03.03-.04l.38-.62s.02-.02.02-.03l.85.71s0,0,0,0c0,0,0,0,0,0l5.57,4.4s.05.04.08.07h0s.27.22.27.22c.01,0,.03.02.05.04l3.58,2.78,1.83,1.47s.07.06.11.09l1.76,1.36s.09.07.14.11l1.33,1.03-.81.77s-.07.07-.1.12h0s-.55.74-.55.74c-.07.04-.16.12-.2.18l-.5.63c-.06.07-.09.16-.12.24,0,.02-.02.04-.03.05h-.01s-.08-.09-.13-.11c0,0,0,0-.01,0-.03-.02-.06-.04-.09-.06,0,0,0,0-.01,0l-.41-.31s-.08-.06-.1-.08l-.31-.21s-.06-.06-.08-.08l-.33-.25c-.08-.06-.16-.09-.25-.11-.03,0-.07,0-.1,0-.05,0-.11-.01-.16,0-.05,0-.09.02-.13.04-.04.01-.08.02-.11.04-.04.02-.07.05-.11.08-.03.02-.06.04-.08.06l-.02-.02s-.02-.02-.03-.02c-.02-.02-.05-.05-.1-.07,0,0-.02-.01-.03-.02l-.15-.11h0s-.02-.02-.03-.02l-.21-.16c-.16-.14-.38-.19-.55-.16-.16.02-.39.15-.49.27l-.41.53s-.02.03-.03.05c-.03.03-.06.06-.08.1l-.76.91c-.27.27-.3.7-.07.98l.2.25s.09.11.15.16l.18.15.03.04c.05.11.14.2.24.27.03.04.06.07.11.12,0,0,0,0,0,0,0,0,0,0,0,0,.02.03.06.05.1.08l.19.17s.05.04.08.06l-.8.48s-.05.03-.07.05l-.5-.81-.12-.15s0,0,0,0l-.07-.16c-.08-.19-.24-.34-.43-.41-.07-.03-.15-.04-.23-.04,0-.01-.01-.03-.02-.04l-.43-.7s-.03-.06-.05-.1c0-.01-.02-.03-.02-.04h0l-.43-.74c-.05-.09-.13-.17-.21-.23,0,0,0-.01-.01-.01-.03-.06-.08-.1-.12-.15-.02-.02-.03-.05-.06-.07-.08-.06-.16-.11-.26-.14-.18-.05-.38-.03-.56.06l-.23.13-.55-.94c-.21-.34-.66-.45-.98-.25l-.12.07c-.08-.03-.17-.04-.25-.03,0,0,0-.02-.01-.02.05-.08.08-.18.1-.28.01-.07.02-.16.02-.27,0-.2-.08-.38-.22-.52-.03-.03-.05-.06-.07-.08-.04-.04-.1-.08-.15-.11-.03-.02-.06-.04-.09-.05l-.13-.06s-.05-.03-.08-.04c-.2-.09-.45-.12-.67-.03.01-.02.02-.04.04-.07.02-.04.04-.1.05-.16.02-.08.03-.17.03-.25,0-.05-.01-.12-.03-.19-.02-.08-.05-.15-.09-.23,0-.02-.02-.04-.03-.05-.02-.04-.07-.12-.15-.2-.05-.05-.16-.12-.23-.16-.01,0-.02,0-.03-.01-.13-.06-.27-.08-.37-.08h-.12c-.04-.07-.08-.12-.1-.15-.01-.01-.09-.09-.1-.1-.03-.03-.08-.07-.13-.1-.04-.03-.08-.06-.09-.07h0s-.02-.05-.04-.08l-.02-.08h0v-.04c-.03-.1-.07-.19-.12-.27,0,0,0-.01,0-.02l-.04-.12s-.02-.08-.03-.11l-.16-.41s-.03-.06-.04-.08c-.04-.1-.11-.19-.19-.26h0s-.01-.01-.02-.02c0,0,0,0-.01-.01-.11-.11-.25-.19-.41-.21-.13-.04-.27-.03-.4,0-.01-.04-.03-.08-.05-.11,0,0,0,0,0-.01,0-.01-.01-.03-.02-.04,0-.08-.03-.16-.07-.23l-.02-.09h0c-.01-.06-.03-.12-.05-.18h0c-.02-.05-.05-.1-.08-.15h0c-.04-.06-.08-.13-.12-.16-.07-.07-.15-.12-.25-.16-.02,0-.04-.02-.05-.02-.06-.03-.12-.04-.16-.05h0c-.06,0-.11,0-.16-.01-.11-.01-.22-.01-.31.02-.07.02-.14.04-.21.08-.02.01-.04.03-.05.04-.04.03-.08.05-.11.08-.04-.02-.08-.04-.11-.06-.06-.03-.12-.05-.14-.05l-.19-.11s-.04-.02-.06-.03c0,0,0,0,0,0,0,0,0,0-.01,0h0s-.03-.02-.04-.03c-.11-.08-.25-.12-.41-.13,0,0,0,0,0,0-.04-.02-.08-.04-.12-.06,0,0,0,0-.01,0,0,0,0,0,0,0l1.78-2.78Zm-13.69,16.29s0,0,0,.01c0,.01.02.03.02.04-.01-.02-.02-.04-.03-.06Zm12.77,4.11s-.1.02-.14.04c-.04,0-.08.02-.11.03-.04,0-.07.02-.11.03-.05,0-.09.02-.13.04-.03,0-.06.02-.09.03-.04,0-.07.02-.11.04,0,0,0,0-.01,0-.05.01-.11.03-.16.06-.05.01-.1.03-.14.06,0,0,0,0,0,0-.03,0-.05.02-.08.03-.05.01-.1.03-.15.06-.04.02-.09.04-.13.06-.05.02-.1.04-.15.07,0,0,0,0,0,0-.03.01-.06.03-.09.05-.02,0-.04.02-.03.02,0,0,0,0,0,0,0,0,0,0,0,0-.02,0-.04.02-.07.03,0,0,0,0,0,0-.04.02-.08.04-.11.06,0,0-.01,0-.02,0-.02,0-.04.02-.06.03,0,0,0,0,0,0,0,0,0,0-.01,0-.04.02-.09.04-.12.07-.05.02-.09.05-.13.08-.01,0-.02.01-.03.02-.03.02-.06.03-.08.05,0,0-.02.01-.03.02,0,0,0,0-.02,0-.04.02-.07.04-.11.07-.03.02-.06.04-.09.06-.03.02-.07.04-.1.06-.05.03-.1.06-.14.1-.05.03-.1.06-.13.1h0s-.07.05-.11.08c-.04.03-.08.05-.1.08-.03.02-.06.05-.1.08-.04.03-.08.06-.11.09,0,0-.02.02-.03.03-.03.02-.05.03-.07.05-.02.02-.04.04-.08.08,0,0,0,0-.01.01,0,0,0,0-.01,0-.01,0-.02.02-.02.02h0s0,0-.01.01h-.01s-.02.03-.02.04c-.01.01-.03.02-.04.04,0,0,0,0,0,0-.02.02-.04.03-.06.05,0,0-.02.02-.02.02-.02.02-.04.04-.05.06-.02.02-.04.04-.06.07-.01.01-.03.02-.03.03-.01.01-.02.02-.04.04,0,0,0,0-.01.01-.02.01-.03.03-.03.03-.02.02-.05.06-.07.08,0,0-.02.02-.02.03,0,0-.01.01-.02.02-.04.03-.07.07-.1.12-.03.03-.05.06-.08.09-.02.02-.05.05-.07.08-.04.04-.07.08-.1.12,0,0-.01.02-.02.03-.04.04-.07.08-.1.13-.01.02-.03.03-.04.05h0s0,.01-.01.02c-.02.03-.04.05-.05.07-.02.03-.04.06-.06.09,0,.01-.02.02-.02.03-.02.02-.03.04-.03.05,0,.01-.02.03-.03.04-.03.04-.05.08-.07.11-.02.03-.04.06-.05.09h0c-.03.05-.06.1-.08.14-.02.03-.04.07-.06.1-.02.03-.05.08-.07.13,0,0,0,0,0,.01-.01.02-.02.04-.02.04,0,.01-.02.04-.03.06,0,0,0,.01,0,.02-.03.05-.02.04-.02.04,0,.01-.02.03-.03.05-.02.03-.03.06-.04.07,0,0,0,0,0,0-.05.06-.08.13-.11.21-.03.05-.05.11-.07.17-.01.02-.02.04-.03.05l-9.15-.07c.04-.06.05-.12.07-.18.03,0,.06,0,.08-.02.18-.04.33-.15.44-.31.02-.02.04-.05.06-.08.04-.04.08-.11.11-.17.07-.12.11-.26.11-.39,0-.03,0-.05,0-.08.07-.04.13-.09.18-.15l.02-.02s.09-.11.13-.18h0s.05-.09.06-.14c.13-.12.22-.29.24-.47.01-.03.02-.07.03-.11.03-.03.05-.07.06-.09l.09-.19s.03-.08.04-.09c0-.02.02-.05.03-.08.12-.14.16-.31.17-.46,0,0,.01-.02.02-.02.02-.02.03-.04.05-.06.05-.03.1-.06.14-.1.03-.03.07-.05.09-.08.12-.13.2-.33.2-.52,0-.05,0-.11-.02-.15v-.03s0-.06,0-.09c.06-.04.11-.09.15-.14.11-.12.18-.27.2-.46.11-.04.21-.09.28-.15.06-.05.1-.1.14-.16,0,0,0,0,.01-.01.08-.07.16-.23.19-.33h0c.04-.11.06-.22.06-.3s-.03-.18-.06-.28c0-.03-.02-.07-.03-.1,0,0,0,0,0-.01.07-.12.11-.26.11-.4,0-.09-.03-.2-.08-.3-.04-.12-.12-.24-.22-.32,0,0,0,0,0,0,.01-.06.02-.12.02-.18,0-.02,0-.03,0-.05,0,0,0,0,0-.01.05-.02.1-.04.14-.08.21-.13.33-.36.33-.66,0-.05.02-.1.02-.13,0-.11-.03-.22-.05-.26,0-.03-.03-.06-.04-.1-.04-.1-.1-.18-.15-.23-.01-.02-.03-.03-.04-.04h0s0,0,0,0c-.01-.05-.03-.1-.05-.14,0,0,0-.01.01-.02,0-.01.02-.02.02-.03.03-.04.08-.13.1-.18.01-.04.03-.08.04-.12,0-.01,0-.03,0-.05,0-.03,0-.05.01-.08l1.59-2.79c.04-.07.08-.19.09-.27l.04-.35-.03-1.62-.13-.78,1.85-.96s.07-.04.1-.06l4.72-3.67.62-.42s.01,0,.02,0c.14.06.3.08.47.05.08-.01.15-.03.23-.07.04-.02.08-.04.11-.06l.1-.07s.06-.05.1-.09c.01,0,.03,0,.04.01,0,0,0,0,0,0h0c.05.02.12.04.19.05.04,0,.09.02.12.02,0,0,.01,0,.02,0,.01,0,.02,0,.03,0,0,0,0,0,0,0l.15.08s.01,0,.02.01c.08.05.16.08.2.09.06.04.13.08.18.1,0,0,0,0,0,0,.02.01.04.03.05.04,0,.01.02.02.02.03.05.08.12.16.2.22.03.02.06.04.09.06,0,0,0,0,0,0,.15.11.31.2.63.14.01.02.02.05.04.06h0s.03.05.05.08h0s.09.13.09.13l.03.13h0s.03.1.04.14c.01.03.03.06.04.09h0s.03.06.04.08c.03.04.08.11.11.14l.18.18s.14.1.21.13c0,0,.02,0,.02,0,.19.09.36.09.48.08,0,.02.02.04.03.06.01.03.02.06.04.08h0s.07.14.07.14c.03.09.09.18.16.25l.02.02c.04.05.1.1.15.13l.08.05s0,0,0,0v.08c-.03.1-.03.2-.03.26,0,.04,0,.1.02.15.02.15.08.29.19.4,0,0,0,0,0,0,.07.1.16.18.26.23,0,0,.01,0,.02,0,.05.03.1.06.16.08,0,0,0,.02.01.03.02.05.04.09.06.12l.05.07c.04.1.1.16.13.19.03.03.05.06.08.09.02.02.06.04.09.06.04.03.09.06.14.08,0,0,.01,0,.02.01.03.03.07.06.12.09.02.02.05.03.07.05.03.02.05.04.08.05,0,0,0,0,.02,0,.1.06.22.1.34.11,0,0,0,0,0,0,0,.03.01.05.02.08.01.07.04.14.08.22.04.11.11.2.16.26,0,0,.01.01.02.02.02.17.09.32.21.44.04.2.17.35.21.39.23.23.58.28.86.13h.03s.02,0,.03,0c.18.05.36.03.52-.05l.22.38s.02.06.04.08l.08.14-.24.14c-.32.17-.47.53-.36.88.01.05.05.14.08.19l.03.05-.37.33s-.07.05-.1.09c0,0-.01.01-.02.01-.03.02-.08.06-.11.1h0s-.06.05-.09.08c-.01,0-.02.02-.03.03l-.05.04s-.04.03-.06.05c0,0-.07.06-.07.07,0,0,0,0-.01.01l-.26.24c-.22.19-.29.49-.19.8-.01,0-.02.02-.04.03l-.3.19s-.09.05-.11.06l-.1.07s-.01,0-.01,0c-.01,0-.02.01-.04.02-.03.02-.07.03-.09.04l-.24.15s-.07.04-.1.06c0,0-.01,0-.02,0l-.98.59c-.17.1-.3.27-.34.47,0,.03-.01.06-.01.09-.02.02-.03.03-.04.05l-.18.09c-.19.09-.32.26-.38.46-.03.06-.06.12-.07.19-.07.07-.13.15-.17.25-.02.02-.05.03-.07.05-.11.08-.19.19-.24.31h0s-.02.02-.02.02c-.09.04-.17.1-.24.18-.1.1-.16.21-.2.34-.2.08-.36.25-.43.45l-.05.03c-.3.18-.43.55-.3.89,0,0,0,0,0,0,0,0-.01.02-.01.02,0,0,0,0,0,.01-.04.05-.06.11-.09.17,0,0,0,0,0,.01-.03.09-.06.19-.06.31,0,.07,0,.13.03.19-.03,0-.06.01-.09.03Zm6,.66s-.03-.02-.05-.02c0,0,0,0,0,0-.03-.02-.03-.01-.03-.01,0,0,0,0-.01,0,0,0,0,0-.01,0-.06-.05-.13-.08-.21-.11-.06-.03-.12-.06-.18-.07-.07-.04-.14-.07-.22-.09-.01,0-.02,0-.04-.01,0,0-.02,0-.03-.01-.06-.03-.12-.06-.18-.08-.04-.02-.08-.03-.12-.04-.05-.02-.11-.04-.17-.05-.03-.01-.06-.02-.09-.03-.08-.04-.16-.07-.22-.05-.01,0-.03,0-.04-.01-.01,0-.02,0-.03-.01-.06-.03-.13-.05-.2-.05-.04-.01-.09-.02-.14-.03-.04-.01-.08-.02-.13-.03-.06-.02-.12-.03-.19-.04-.03,0-.07-.01-.11-.02-.05-.02-.11-.03-.17-.03-.04,0-.08-.01-.12-.02-.04,0-.07-.01-.11-.02-.05-.01-.11-.02-.15-.02h-.05s-.1-.02-.13-.02h-.04s-.1-.02-.13-.02h-.13s-.1-.02-.13-.02h-.58s-.01,0-.02-.01c0,0,0,0,0-.01,0-.02-.01-.03-.02-.04-.01-.03-.02-.07-.04-.1,0-.01,0-.02,0-.04.04-.1.05-.2.06-.27.03-.02.06-.05.09-.08.05-.02.1-.06.13-.08.04-.02.09-.05.15-.09,0,0,.08-.06.08-.06.16-.13.25-.33.26-.53.06-.03.11-.07.16-.11l.02-.02s.02-.02.02-.02c0,0,0,0,.01-.01.02,0,.04-.02.06-.04l.07-.04s.03-.02.04-.03c.15-.06.28-.17.36-.32.03-.05.05-.1.06-.15.1,0,.21-.03.32-.08.12-.06.22-.15.26-.2.14-.15.21-.34.2-.53.03-.04.06-.09.08-.12.09-.17.1-.35.1-.4,0-.01,0-.02,0-.04l.44-.26s.04-.02.06-.03l.24-.14h.01s.07-.05.07-.05c.04-.02.08-.04.11-.06l.13-.09s.07-.04.11-.06l.33-.2s.04-.02.06-.04l.49-.29.33-.19c.23-.13.38-.39.38-.7,0-.01,0-.02,0-.04,0-.02,0-.05,0-.06,0-.09-.02-.18-.05-.26,0-.03,0-.06-.01-.08,0,0,0,0,0,0,0,0,.02-.01.02-.02l.83-.73c.26-.22.33-.59.17-.89l.58-.33.05.09s.04.07.05.1h0s.39.64.39.64c0,.02.05.08.08.13.01.03.03.06.04.08l.21.36c.06.12.14.22.2.27.14.14.33.21.51.22l.6.93s0,.08,0,.12c0,.13.04.26.1.37.02.05.05.1.08.15.06.1.14.19.2.22.01.01.03.03.04.04.07.06.15.1.18.11,0,0,.01,0,.02,0,0,0,0,0,0,0,0,0,.02,0,.03,0,.04.03.08.05.13.08.02.01.03.02.06.03.03.02.06.03.09.04,0,.01,0,.02,0,.03,0,.15.05.3.14.42.01.03.03.05.04.08h0s.04.06.06.08c0,.01.01.02.02.03-.01.06-.02.12-.03.17-.05.1-.08.2-.09.28-.02.08-.02.15-.02.2-.05.08-.09.17-.11.26-.04.08-.06.16-.07.24-.03.05-.05.1-.06.16-.05.05-.1.12-.13.18-.13.13-.2.32-.2.55,0,.04,0,.08,0,.11-.02.14,0,.29.07.42.01.05.03.1.05.14l.05.09c.03.06.07.12.11.17,0,0,0,0,0,0-.04,0-.08.02-.1.03,0,0,0,0,0,0-.05-.01-.1-.03-.14-.04h0s0,0,0,0c-.02,0-.03,0-.05,0-.05-.01-.1-.02-.14-.03-.07-.01-.15-.02-.19-.02l-.91.05s-.09,0-.14.02c-.06,0-.12.02-.18.04-.09,0-.17.03-.22.06-.04,0-.08.02-.11.04,0,0,0,0,0,0-.04.01-.08.03-.15.06-.05.02-.06.02-.09.05-.02,0-.03.01-.05.02-.02,0-.04.02-.06.03-.01,0-.02.01-.02.01,0,0,0,0,0,0-.01,0-.04.02-.06.04-.04.02-.08.04-.11.07,0,0,0,0,0,0-.05.02-.09.05-.12.08l-1.12.92h0c-.05.04-.1.08-.13.1-.02.01-.04.03-.05.04-.03.02-.05.04-.07.06l-.06.06s-.06.04-.08.07l-.05.05s0,0,0,0c-.01,0-.02.02-.03.03,0,0,0,0-.01,0-.01,0-.03-.02-.05-.03-.01-.01-.03-.02-.05-.03-.02-.01-.05-.03-.07-.05h0s-.09-.06-.14-.09h-.02s-.02-.03-.03-.03c-.02,0-.03-.02-.05-.03-.02-.02-.05-.03-.08-.05-.04-.03-.09-.06-.15-.08-.01,0-.02-.01-.03-.02h0s-.06-.04-.09-.05c0,0,0,0,0,0-.03-.02-.06-.03-.06-.03-.01,0-.03-.01-.04-.02-.01,0-.02-.01-.02-.01h0s-.03-.02-.05-.03c-.02-.01-.03-.02-.04-.02h0Zm16.73,10.94h0s-.03.04-.05.05l-1.57,1.76-4.37-4.01-.32-.31s-.03-.03-.06-.04l-.29-.27s-.02-.01-.03-.02c-.02-.03-.05-.05-.07-.07l-1.2-1.09s-.07-.05-.11-.08c-.02-.03-.05-.06-.08-.08h0s0-.01-.01-.02c-.13-.13-.31-.21-.5-.22-.12,0-.24.02-.35.08-.01,0-.02,0-.03,0-.04,0-.07.01-.11.02-.1,0-.19.03-.27.07-.07,0-.16,0-.24,0,0-.04-.02-.08-.03-.12h0s-.03-.07-.05-.1c-.08-.23-.28-.4-.54-.46-.04-.02-.07-.04-.11-.05,0,0-.02,0-.03-.01-.08-.03-.15-.05-.23-.06-.09-.03-.19-.04-.28-.03-.1,0-.2,0-.29.04,0,0-.01,0-.02,0-.02,0-.04,0-.06,0-.09-.08-.2-.15-.33-.18h0c-.09-.06-.19-.11-.29-.12-.06-.02-.13-.04-.2-.05-.07-.04-.15-.06-.23-.08-.05-.05-.09-.08-.12-.09-.01,0-.02-.02-.04-.02-.07-.14-.18-.26-.33-.35h0s-.07-.03-.1-.05c-.03-.02-.06-.03-.09-.04-.02-.03-.04-.06-.06-.07-.08-.09-.19-.15-.31-.19h0s-.02,0-.03,0c-.04-.04-.08-.08-.12-.12-.04-.08-.1-.15-.14-.19,0,0,0,0,0,0,0-.03,0-.06,0-.09,0-.05,0-.1-.01-.14h0c0-.12-.02-.22-.07-.31-.02-.12-.07-.24-.15-.35-.03-.05-.06-.09-.1-.13-.01-.02-.02-.03-.03-.04-.02-.03-.08-.07-.11-.09-.01,0-.03-.02-.04-.03-.02-.14-.08-.28-.18-.39,0-.05,0-.09,0-.11,0-.1-.04-.25-.1-.36h0c-.04-.08-.1-.15-.17-.21-.02-.06-.04-.12-.08-.17.02-.07.03-.14.03-.21,0-.02,0-.05,0-.07l.06-.05s.04-.03.06-.05l.09-.09h0s.05-.04.09-.07c.02-.02.05-.03.06-.05l1.08-.89s.07-.04.1-.06c.01,0,.03-.02.04-.02.02-.01.04-.02.06-.04.04-.02.07-.03.09-.04.03,0,.06-.02.08-.03,0,0,0,0,.01,0,0,0,.01,0,.02,0,.04,0,.07-.01.11-.02.02,0,.03,0,.05,0l.74-.04s.05,0,.08.01h.03s.01,0,.02.01c0,0,0,0,0,0,.04.01.07.02.1.03.08.02.16.04.22.04h.24c.09,0,.17-.02.24-.04.02,0,.04-.01.06-.02.01,0,.02,0,.03-.01.05-.01.1-.03.15-.05,0,0,0,0,.01,0,.03,0,.07-.01.1-.02.04,0,.09-.02.13-.03,0,0,.01,0,.02,0,.02,0,.04,0,.06-.01.07,0,.13-.02.19-.05.04,0,.07-.02.09-.02h0c.07-.02.15-.05.18-.06h0s.06-.02.08-.02c.05-.01.11-.03.15-.05l.15-.07s.06-.02.09-.03l.67-.32s.08-.04.12-.06c.08-.03.15-.08.19-.12,0,0,0,0,.01,0,0,0,0,0,0,0,.04-.02.07-.05.11-.08.02-.02.04-.04.06-.06,0,0,0,0,0,0l.25-.24s.05-.01.07-.02c.07,0,.13-.03.15-.04.03,0,.06-.01.09-.02.03,0,.07-.01.1-.02.01,0,.03,0,.04,0,.04,0,.08,0,.13-.02h.07s.08,0,.12-.02c.03,0,.07.01.09.01.05.01.1.02.15.02h.14s.05.05.09.07c0,0,.01,0,.02.01.01.01.03.02.04.04.03.15.1.29.18.35.03.04.07.08.11.11,0,0,0,0,0,0,0,.01.02.02.03.03.03.04.06.09.09.12.02.02.03.03.05.05h0c.09.1.22.16.39.19.03.03.07.05.11.07.04.12.11.22.2.31,0,.05-.01.09-.01.14s0,.09.01.13c-.05.1-.07.21-.07.33,0,.04,0,.09.01.13-.01.06-.01.11-.01.14,0,.11.05.26.12.38h0c.05.08.11.15.18.21,0,.02.01.03.02.05-.02.03-.04.06-.06.09l-.17.5c-.08.22-.05.48.09.67.1.15.26.25.45.29.19.23.5.33.81.23.02,0,.03,0,.05-.01.02.07.05.14.09.21,0,0,0,0,0,.01,0,0,0,.02.01.03.07.12.17.22.29.28.02.04.05.08.08.11,0,0,.01.01.02.02.02.02.04.04.06.06.03.04.07.09.12.14,0,0,.01.01.02.02,0,0,0,0,0,.01-.04.1-.06.2-.06.29,0,.2.08.38.25.55.03.03.06.06.1.08.02.02.04.03.06.04,0,0,.01,0,.02.01.03.02.05.04.08.06.02.01.03.02.05.03.04.03.09.06.13.08h0s.32.17.32.17c0,0,0,0,0,.01.01.04.02.07.04.1.02.04.03.07.05.11h0c.07.13.18.23.3.3.09.09.2.16.33.2.03.01.06.03.09.04.05.03.09.05.11.05.03.01.08.03.13.04.04.01.07.02.11.03,0,0,0,0,0,0,.11.04.22.07.33.06.05,0,.1,0,.14,0,.09.07.21.12.33.14.05.02.11.03.16.03h.01s0,.02.01.03c.01.02.03.04.04.05.02.02.03.03.05.05,0,0,0,0,0,.01,0,0,0,.02.01.03h0s.04.07.06.1c.02.03.04.07.07.09,0,0,0,0,0,0,0,0,0,0,0,0,.02.02.04.04.05.06.03.05.07.1.11.14.02.05.04.1.07.14.03.08.08.16.13.22,0,.01,0,.03,0,.04v.02c-.02.08-.03.16-.03.25,0,.11.03.22.07.31,0,.04.02.09.03.13,0,.02,0,.04,0,.06,0,.13.04.26.1.37.02.09.05.18.1.26.04.11.1.2.17.27.02.02.03.04.04.05.01.01.03.03.05.04.01.01.03.02.04.04,0,0,0,0,0,0,.02.15.09.3.21.41l-.99,1.1Zm4.03-4.51s0,0,0,0l-1.88,2.11s-.05.04-.07.06c0,0-.02-.02-.04-.03-.04-.05-.1-.1-.15-.14-.02-.02-.05-.04-.07-.07,0,0,0,0,0-.01,0-.07-.03-.14-.06-.2,0-.06-.01-.12-.03-.18,0-.04,0-.09-.02-.14,0-.03,0-.06,0-.09,0-.01,0-.03,0-.05,0-.02,0-.04,0-.06,0,0,0-.02,0-.03,0-.02,0-.04,0-.04,0-.05,0-.11-.02-.16,0-.02,0-.04,0-.06,0-.14-.04-.28-.12-.39-.02-.03-.04-.06-.06-.09-.03-.05-.06-.09-.1-.13-.01-.02-.03-.05-.04-.07t0,0c-.03-.21-.15-.4-.33-.51-.03-.08-.08-.15-.13-.22-.03-.06-.08-.12-.12-.15-.04-.05-.09-.09-.14-.13-.08-.09-.16-.16-.24-.19-.03-.03-.07-.05-.1-.07-.02-.01-.04-.03-.06-.04-.12-.09-.27-.13-.4-.14h-.03s-.02-.02-.04-.02c-.13-.11-.29-.17-.46-.17-.07,0-.14-.01-.2,0-.07,0-.13,0-.2,0-.02-.01-.05-.02-.07-.03-.04-.16-.14-.29-.26-.38-.01-.02-.03-.04-.05-.05-.02-.03-.05-.06-.07-.07-.08-.08-.19-.13-.31-.17l-.14-.07s0-.06-.01-.09c0-.04-.02-.08-.03-.12,0-.03,0-.07,0-.1,0-.19-.08-.34-.14-.43-.03-.05-.07-.1-.1-.14-.04-.05-.09-.09-.14-.12-.05-.05-.1-.09-.16-.13,0,0-.02-.02-.03-.03,0,0,0,0,0,0,0,0,0-.01-.01-.02-.03-.05-.06-.09-.11-.14-.03-.04-.06-.09-.09-.12-.02-.06-.05-.12-.07-.17-.02-.04-.04-.08-.07-.12h0c0-.17-.05-.33-.15-.45-.06-.09-.13-.17-.22-.23-.09-.09-.21-.16-.34-.2l-.03-.02s-.03-.08-.06-.12c0-.01,0-.03,0-.04,0-.08-.02-.18-.06-.27h0c-.04-.12-.12-.22-.19-.28,0,0,0,0,0,0,0,0,0,0,0,0,0,0-.02-.02-.03-.03-.03-.04-.06-.07-.1-.1.05-.1.08-.22.08-.35,0-.06,0-.11-.02-.17,0-.03,0-.07,0-.1,0-.07-.01-.14-.03-.2.02-.06.03-.13.03-.18,0-.13-.04-.25-.1-.37h0s-.05-.07-.07-.1c-.06-.09-.13-.17-.22-.22-.01-.01-.03-.03-.04-.04-.01-.02-.03-.04-.04-.06h0s0,0,0,0h0s-.1-.13-.11-.15c-.03-.03-.07-.06-.11-.09,0,0,0,0-.01-.01-.05-.17-.16-.33-.33-.43-.07-.06-.16-.1-.25-.12-.03-.07-.07-.13-.12-.19-.02-.02-.04-.05-.07-.07-.03-.1-.08-.19-.12-.25h0l-.03-.04s-.01-.02-.02-.03c0-.02.01-.05.02-.08,0,0,0,0,0,0l.04-.14s0,0,0,0h0s0-.04,0-.06c0,0,0,0,0-.02,0-.02,0-.04.01-.05h0s0,0,0,0c.02-.08.04-.17.05-.24.01-.06.02-.13.02-.17,0-.04,0-.09-.02-.14h0s0-.1-.02-.15c0-.06-.02-.12-.05-.18,0-.04-.02-.08-.03-.11l-.13-.31h0s0-.09-.01-.13v-.06c0-.05,0-.11,0-.18,0-.05.01-.09.02-.12,0-.03,0-.06.01-.1,0,0,0-.01,0-.02l.03-.1s.05-.04.07-.05c0,0,.02-.01.03-.02l.07-.04s.04-.02.06-.04l.38-.19s.07-.03.1-.04c.01,0,.02,0,.03-.01.02,0,.04-.01.06-.02.07,0,.13-.02.2-.04.05,0,.1-.02.15-.04.04,0,.07-.02.12-.04.04-.01.08-.02.11-.04.02,0,.04-.01.06-.02.05-.02.08-.03.08-.03.02,0,.04-.02.06-.03.01,0,.03-.01.04-.02.03-.01.05-.03.08-.05.02-.01.04-.03.07-.04.05-.03.11-.07.16-.13,0,0,.02-.01.02-.02.02-.01.06-.06.07-.07l.06-.08s.02-.02.03-.03c0,0,0,0,.01,0,.08,0,.17-.02.25-.06,0,0,.02,0,.03-.01,0,0,0,0,0,0-.04.1-.06.21-.06.33,0,.08.01.15.03.22,0,.07.02.14.05.21,0,.08.03.16.06.24,0,.05-.02.1-.02.14,0,.05,0,.11.02.17.01.08.04.17.08.24,0,.02.02.04.03.05h0c.09.18.25.32.45.39.01,0,.03.01.04.02.09.09.22.15.36.18.02,0,.04.02.06.03.02.06.04.11.07.16,0,0,0,.02.01.02.04.1.1.19.13.2.02.03.06.06.11.1.03.03.07.06.11.08.02.02.04.03.06.04,0,0,0,0,0,0,.05.05.11.1.18.13h0c.09.03.2.07.3.08.01.01.03.03.04.04,0,.03.02.05.03.08,0,.04.01.08.02.12.01.06.03.13.06.19.02.07.06.14.1.21.02.04.05.06.07.09.03.04.06.09.09.12.08.16.22.28.39.35.02.01.03.02.05.04l.86,3.8c.04.17.14.32.28.42.01.02.03.04.04.05h0c.09.19.26.34.51.41.16.07.32.08.37.08h.24c.19.02.26.01.36-.01.07-.02.14-.04.21-.08.05-.02.1-.04.15-.06.01,0,.03,0,.04-.01.09,0,.17-.02.25-.05.06,0,.13-.03.19-.05.02,0,.04,0,.06-.01.02,0,.05-.01.08-.02.02,0,.04,0,.05,0,.08.02.15.02.23.01.02,0,.05,0,.08,0,.07.05.16.08.25.1.03,0,.06.02.09.02,0,0,.02.02.03.02.03.06.07.11.11.14.02.02.05.05.09.08.05.06.1.11.16.15.04.07.09.14.15.2,0,.02.02.04.03.06,0,.02.02.04.03.06.03.05.06.1.1.15.02.02.03.04.04.06.04.05.09.09.14.13.04.1.11.19.19.27h0s.03.02.04.03c.04.03.07.06.12.09.04.05.09.09.14.12.01,0,.03.02.04.03.02.01.04.03.05.04.07.07.15.12.23.17l-1.56,1.76Zm13.37,3.64l-.05.13s-.03.09-.04.14c-.03.07-.05.14-.06.21,0,.02,0,.04-.01.06-.08,0-.16.03-.21.07-.09.04-.17.09-.26.17,0,0-.02.02-.03.03,0,0-.02.01-.03.02-.07.07-.13.15-.17.25-.27-.09-.45-.06-.62.03-.04.01-.07.03-.11.05-.12-.01-.2,0-.32.02-.1-.05-.21-.09-.36-.1-.02-.02-.05-.04-.08-.06-.05-.08-.11-.16-.19-.22-.09-.09-.2-.14-.3-.17-.05-.05-.11-.09-.17-.13-.17-.1-.37-.12-.56-.08-.04-.12-.1-.23-.2-.34-.03-.03-.07-.06-.12-.09,0-.02-.01-.03-.02-.04l-.07-.14h0s-.03-.06-.04-.08c-.17-.28-.54-.45-.92-.34-.04-.01-.08-.02-.1-.02h0s-.04-.04-.05-.05c0,0,0-.01-.01-.02h0c-.05-.11-.12-.22-.18-.28,0,0-.02-.02-.03-.03h0s-.1-.08-.15-.12c-.08-.05-.16-.08-.24-.1,0,0-.01,0-.02-.01l-.42-.32s-.05-.03-.08-.05c-.05-.03-.11-.05-.17-.07-.06-.05-.13-.09-.21-.12h0c-.16-.05-.31-.08-.44-.06-.13-.05-.26-.05-.31-.06,0-.05-.01-.12-.03-.18,0,0,0,0,0-.01,0-.02,0-.03,0-.05,0-.04,0-.09-.02-.14v-.02s0-.04,0-.06c.02-.07.03-.13.03-.21,0-.03,0-.07-.01-.11,0-.08-.03-.16-.06-.23,0-.06-.02-.14-.05-.21,0-.03-.02-.06-.03-.09-.02-.09-.05-.17-.1-.24-.01-.13-.06-.25-.13-.35-.04-.12-.11-.22-.21-.3,0-.01-.02-.02-.03-.03-.02-.02-.03-.03-.05-.05,0,0,0-.01-.01-.02-.02-.03-.04-.06-.06-.09-.05-.07-.1-.14-.15-.18l-2.6-2.12s0,0,0,0c-.09-.11-.21-.19-.34-.23-.04-.04-.08-.08-.12-.12-.04-.11-.12-.21-.21-.29,0,0-.01-.01-.02-.02-.03-.03-.06-.06-.1-.08-.02-.03-.04-.06-.06-.09,0-.02-.02-.03-.03-.05-.03-.04-.06-.08-.1-.12-.01-.02-.02-.04-.04-.06-.04-.07-.08-.13-.13-.17-.03-.03-.1-.09-.14-.12-.04-.05-.08-.09-.12-.13-.02-.02-.03-.04-.04-.04-.06-.09-.13-.16-.18-.18h0s-.04-.05-.05-.06c-.09-.09-.19-.14-.29-.17-.09-.05-.18-.08-.23-.09-.11-.08-.25-.13-.4-.14-.02,0-.03,0-.05,0-.11-.04-.23-.05-.35-.04-.01,0-.02,0-.04,0-.08-.02-.17-.02-.27-.02-.13-.02-.21-.02-.31,0-.05,0-.09.02-.13.03-.12.01-.23.05-.32.11-.03,0-.06.02-.09.03-.1,0-.19.03-.28.07-.07.02-.14.04-.2.08-.03-.04-.06-.08-.1-.11,0,0,0,0-.01-.01l-.1-.48s0,0,0,0c0,0,0,0,0,0l-.44-1.91-.29-1.3c-.02-.14-.09-.26-.18-.36-.02-.02-.03-.04-.04-.06,0,0,0,0,0,0h0s0,0,0,0c-.05-.07-.11-.13-.18-.18-.04-.03-.07-.05-.08-.06,0,0,0,0-.01,0-.03-.02-.06-.05-.09-.06,0,0-.02-.01-.02-.02,0,0,0,0,0,0-.03-.05-.07-.09-.1-.12-.01-.08-.04-.17-.08-.26h0s0-.01,0-.02c-.01-.05-.03-.09-.05-.13,0,0,0-.02-.01-.03-.03-.08-.08-.16-.14-.23-.03-.04-.05-.07-.09-.1-.03-.06-.07-.1-.1-.14-.07-.09-.17-.17-.28-.23,0-.05,0-.1,0-.15,0-.07-.02-.16-.05-.24h0c-.08-.27-.32-.47-.61-.52-.04-.01-.09-.02-.14-.02-.08-.02-.15-.03-.24-.01-.06-.01-.11-.01-.21-.02,0-.13-.06-.25-.13-.35,0,0,0,0,0,0,0-.02,0-.04.01-.06.04-.04.07-.1.1-.15.02-.03.04-.05.05-.08.04-.09.06-.19.06-.3,0-.19-.08-.38-.21-.51-.03-.07-.08-.14-.13-.2-.04-.08-.09-.15-.14-.19-.02-.02-.08-.07-.1-.09,0,0-.02-.02-.03-.02.02-.01.05-.03.07-.04.01,0,.03-.02.04-.03.02,0,.03-.02.05-.03h0s.02-.01.03-.02c.04-.03.07-.05.11-.08h0s.45-.38.45-.38c.04-.03.08-.06.12-.1.02-.02.05-.04.06-.05,0,0,.02-.02.02-.02,0,0,0,0,0,0,.03-.03.05-.06.08-.1.01-.02.03-.04.04-.06h0s.05-.07.08-.1c0,0,.01-.02.02-.02,0,0,0,0,0,0,0,0,.01-.01.01-.02,0,0,.01-.01.02-.02,0,0,.01-.01.02-.02.01,0,.02-.02.03-.03.01-.01.03-.03.04-.04,0,0,0,0,0,0,.01-.01.02-.02.03-.03l.07-.05s0,0,0,0l.03-.02s.07-.04.09-.06l.02-.02s0,0,0,0c0,0,0,0,0,0l.24-.19s.09-.03.14-.05c0,0,0,0,.01,0,.12-.03.23-.09.27-.14.03-.02.06-.04.09-.06.05-.03.09-.07.13-.11.01-.01.02-.02.04-.03,0,0,0,0,0,0l.28-.16s0,0,.01,0c.07.02.15.03.21.03h.14s.09,0,.15-.02c0,0,0,0,.01,0,0,0,0,0,0,0,.05,0,.1-.02.15-.04,0,0,0,0,.01,0,.02,0,.04-.01.06-.02,0,0,0,0,0,0,0,0,0,0,.01,0,.02,0,.04-.01.06-.02.05-.02.09-.03.08-.03h0s.01,0,.02,0c.03,0,.05-.02.08-.03.01,0,.03,0,.04-.01,0,0,.02,0,.02,0,0,0,.01,0,.02,0,0,0,0,0,.01,0,.02,0,.04,0,.05-.02.02,0,.05-.02.07-.03,0,0,.01,0,.02,0,.01,0,.03-.01.04-.02,0,0,0,0,0,0,.02,0,.03-.01.05-.02.04-.02.09-.04.13-.07.03-.01.05-.03.07-.04l.13-.05s.06-.02.1-.03l.29-.05s.05,0,.07-.02c.08-.02.16-.04.23-.09h0c.06-.04.12-.08.16-.11.1-.08.17-.2.21-.32.02-.04.03-.07.04-.11,0,0,0,0,0-.01,0,0,0,0,0,0h0s0,0,0,0c.02,0,.04-.02.06-.03.14-.03.26-.11.32-.19h0s.02-.02.03-.03c.01-.01.02-.02.03-.04,0,0,0,0,.01-.01.02-.02.05-.04.07-.06.01-.01.03-.03.04-.04.02-.03.07-.1.09-.13,0,0,0,0,0,0,.01-.03.02-.05.03-.07,0,0,.01-.03.02-.03h0c.04-.08.06-.14.07-.2.03-.07.04-.12.04-.16,0,0,0-.01,0-.02.01-.04.02-.08.03-.12.02,0,.04.01.05.02.04.02.09.03.14.04.08.03.17.06.25.06,0,0,.01,0,.02,0l.13.03c.13.03.42.06.66-.09,0,0,.02-.01.03-.02.03-.01.05-.03.07-.05l.57-.42c.12.03.3.04.44,0l.09-.03s.05-.01.07-.02c.11-.03.21-.09.29-.17.03-.02.05-.04.07-.06l.19-.2s.07-.06.1-.1l.09-.07s.07-.06.1-.1c0,0,.01-.01.02-.01.06-.03.13-.08.2-.15h0s.08-.07.12-.11h0c.06-.07.11-.14.14-.23.02-.03.04-.06.06-.09.04-.04.07-.08.1-.13.03.02.06.03.09.04.11.05.25.09.35.08.05.04.1.07.16.09.08.08.17.14.26.18.09.07.2.12.31.14,0,0,0,0,0,0,.03.03.07.05.11.08.05.05.12.1.19.13.01,0,.02.01.03.01,0,0,0,0,0,0,0,0,0,0,0,0,.03.05.07.09.1.12,0,.01.02.02.04.04.1.1.22.18.36.21.11.04.23.06.33.06.05.03.1.05.15.06,0,0,0,0,0,0,0,0,0,0,0,0,0,0,.02,0,.02,0,.11.05.22.09.34.09h0s0,.01,0,.02v.04s.11.21.12.22c0,.01.01.02.02.03.01.04.03.07.04.1l.04.08s.03.07.05.1h0s.04.08.06.12c0,.02.01.03.02.05l.07.14s.02.06.04.09l.03.06s.03.06.04.1c.01.02.03.05.05.08,0,.02.01.03.02.05.01.05.03.09.05.12.01.05.04.1.06.14,0,.03.02.06.03.08l.19.41h0s0,.01.01.02l.11.23s.02.06.03.09l.26.55h0s.02.05.03.07l1.11,2.77,2.41,5.82,1.43,3.34.04,7.25s-.02.05-.03.07Z" /><polygon points="15.46 42.56 15.47 42.56 15.47 42.56 15.46 42.56" /><path d="m25.34,42.51s.02.01.03.02c0,0-.01,0-.02,0,0,0-.01,0-.02,0Z" /></svg>