<?xml version="1.0" encoding="utf-8"?>
<!-- Generator: Adobe Illustrator 26.2.1, SVG Export Plug-In . SVG Version: 6.00 Build 0)  -->
<svg version="1.1" id="regi" xmlns="http://www.w3.org/2000/svg" xmlns:xlink="http://www.w3.org/1999/xlink" x="0px" y="0px"
	 viewBox="0 0 275 224" style="enable-background:new 0 0 275 224;" xml:space="preserve">
<style type="text/css">
	#regi .st0{fill:#040B1F;stroke:#040B1F;stroke-width:4;stroke-linejoin:round;stroke-miterlimit:10;}
</style>
<path class="st0" d="M209,190l-1-1l2-2l6-7l1-1l1-1l-3-2h-1v-1h-1v-1h-1v-1h-1v-2h-1v-1h-1v-1h-1v-1h-2v-1h-6v1h-6l-1-1v-1h-1l-1-5
	l-3-14h-1v-1h-1v-1h-1v-2h-1v-2h-1l-1-1v1l-1-1h-1v-3h1h-3v-1h-2l-1-1v-3l-1-1v-1h1v-2h1l1,1h-1v3l1,1h-1v2h2l1,1v-1h1v1h2v2h-1v1h2
	l1,1l1,1v1h1v2h1v1h1v1h1v2l1,3l1,2l2,12l1,1v1h4l1-1h8v1c0.31-0.18,0.69-0.18,1,0h1v1h1v1h1v1l1,1v1h1v2h1l1,1h1l2,2l1,1v1l-1,1h-1
	v1l-8,8V190z"/>
<path class="st0" d="M197,203h-1v-1h-1v-1h-1v-2h-1v-1h-1v-4h-1v-2h1h-1v-2h-1v-2h-1v-1h-1v-1h-1v-1h-2l-1-1h-4v-1h-1v-1h-1v-1h-1
	l-2-1v-1h-1v-4h-1v-1h-1v-1h-1v-2h-1v-1c-0.18-0.31-0.18-0.69,0-1l-1-1h-1v1l-1,1h-1v-1h-2v-1l1-2v-1h1v-2l1,1v1h1l-1,1v1h-2h1l1,1
	v-1h3l1,1v2h1v1l1,1v1h1v1h1v2l1,1h-1v1h1l2,1l1,1l1,1v1h1v1h4l1,1h2v1h1v1h1v1l1,1v1h1v1l1,1v6h1v1h1v2h1v1h1v1l2-3h1l8-10h1
	c1,0,1,0,0,0l-2,3l-1,1l-2,2l-4,5L197,203z"/>
<path class="st0" d="M167,164c-0.31,0.18-0.69,0.18-1,0h-1v-2h-1v-3h1l-1-1v-3h-1v-1h-1v-1h-2v-1h-1v-2h-1v-1h-1h1h-1v-1l-1-1v-1
	l1-2v-1h1v-2h-1v-2h-1v-4h1v-3h1v-1h1l1-1l2-1h2v-1h3v-1h1v-1l1-1h3v-1h1v1h2v1c0.31-0.18,0.69-0.18,1,0v2h1v1h-1l-1-1v-1h-1v-1h-4
	l-1,1l-1,1l-1,1h-2v1h-2l-3,1v1h-1v1h-1v6l1,1v4h-1v1l-1,1l1,1h1v2h1v1l1,1h1l1,1v1h1v1h1v1h1v4l-1,1v1h1v1h1V164z M169,127h-1H169z
	 M180,222l-25-23l-1-2h-1l-5-5h-1v-1l-1,1h-6l-1-1v-2h-1v-1h-2v1l-1-1v1h-1l-1-1h-1v-1c0,1,0,0,0,0h-3v-1v1h-1l-1-1v-1h-1v-1h-1v-1
	h-1v-1h-2v-1h-1v-1h-1v-1h-1v-1l1-1h-1v-2h-1l-1-1v-1h-1v-1h-1l1-1h2v1h1h-1l1,1v1h1v1h1v4h1v1h1v1h1l1,1l1,1h1v1h1v1h1l1,1v-1h1v1
	h1l1,1h5v1h2v3h5c0,0,0-1,0,0l1-1h2v1h1l1,1l4,4l1,1l1,1l2,2l22,20l9-10h1l1-2l4-5l1-1h1v1l-1,1l-6,7l-9,10L180,222z"/>
<path class="st0" d="M116,172h-1v-2l1-1v-1h-4l-1-1h1v-1h1v-1h2l-1-1v-1l1-1h1l1-1l1-1l6-4v-1h1l1-1h11v-1h3l1-1h1l3-1v-1h1l1-2h2
	v-1h7v-1h1l1,1h1v2h1v1l1,1h1l1,1v1h1v1h1v1h1v4l-1,1v1h1v1h1v1l-1,1h-1v-2h-1v-3h1l-1-1v-3h-1v-1h-1v-1c-0.31,0.18-0.69,0.18-1,0
	h-1v-1h-1v-2h-1v-1h-1h1h-1l1-1h-1v-1l-1,1h-6v1h-2l-1,2h-1l-1,1l-3,1l-1,1h-3v1h-12v1h-1l-1,1l-5,4h-1v1h-1v1h-1l-1,1h1v2h-1h1v1h1
	v2h1v1h-1v1h-1l1,1H116z M116,172v-1V172z M146,150v1V150z"/>
<path class="st0" d="M197,203l-1-1h-1v-1h-1v-2h-1v-1h-1v-4h-1v-1h1h-1l1-1h-1v-2h-1v-2h-1v-1h-1v-1h-1v-1h-2l-1-1h-4v-1h-1v-1h-1
	v-1h-1l-2-1v-1h-1v-4h-1v-1h-1v-1h-1v-2h-1v-1c-0.18-0.31-0.18-0.69,0-1l-1-1h-1v1l-1,1h-1v-1h-2v-1l1-2v-1h1v-2h1v2h1l-1,1v1h-2h1
	l1,1v-1h3l1,1v2h1v2h1v1h1v1h1v2l1,1h-1v1h1l2,1l1,1l1,1v1h1v1h4l1,1h2v1h1v1h1v1l1,1v1h1v1l1,1v6h1v1h1v2h1v1h1V203z M174,175h1
	H174z"/>
<path class="st0" d="M197,203h-1v-1h2L197,203z M239,97h-2l-1-1h-1v-2h1c1,0,0,0,0,0v1h2v1v-1l1,1h1l-1-2v-2h-1v-2h-1v-3h1l1-1h1v1
	h2v-1h3v-2l1-1v-1h1v-2h1l9-5l-1-1v-1l1-3l-1-1h-2l-1-1l-1-1h-2v-1l-1,1h-1v-1h-1v1h-1v-1h-1v-1h-2v-1h-1v-1h-1v-1h-2l-1-1v-1h-3v-3
	h-1v-4h1v-4h1v5l-1,1v1h1v3h3v1h1l1,1h1v1l1,1h1v1c0-1,0,0,0,0h1l1,1h2l1,1v-1h2l1,1h1v1h1l1,1h2v1h1v1l-1,3v1h1v2l-10,5v2h-1v1h-1
	h1h-1v2h-1v1h-2v1h-2l-1,1l-1-1v-1l-1,1v2l1,1l1,1v1l2,3v1H239z M236,57h-1H236z M236,57h-1H236z"/>
<path class="st0" d="M235,95h-1v-1h-2l-1-1h-1v-1h-3v-2l-1-1h-1l-1-1h-1v2h1v2l-1,1l-1,1v1h-2v-3l-1-2l-1-1h-1l-1-1h-1v-2l-1-1v-1
	l-1-1v-1l-1-1v-1l-1,1v-1h-1v-1h-2v-1h-2v-1h-1v-1h-2v-1h-1v-1h-1v-2l-1-1v-2h-1v-2l-1-1v-1h-1v-1h-1v-1h-1v-1h-3v-1h-1l-1-1l-1-1
	h-1v-1h-1v-1l-1-1l1-1l2,1l8-1h3l-1,1h-6l-4,1h-1h1v1h1v1h1l1,1h1v1h2v1h1l1,1l1,1l1,1v1l1,1v1l1,1v2h1v2h1v1l1,1h1v1h2v1h2v1h2v1
	l1,1h1v1h1v2h1v1l1,2v1h2v1h1l1,1v1l1,1v2h1v-1h1l-1-1v-2v1v-3h3l1,1h1l1,1h1v1h1v1h1v1h1l1,1c0-1,0,0,0,0h2v1h1v1H235z M210,79h1
	H210z M199,65l-1,1L199,65z M196,62h-1H196z M191,59l-1,1L191,59z M189,58h1H189z"/>
<path class="st0" d="M199,56l-1-1l1-1l-1-3v-2h-1v-1h3l5-1h3v-1h-1v-6l9-1h1v1h1l1,3v2h1v2l1,1h2l1-1h4v-1h2v-1h1l1,1h3l1,1h1v3
	l-1-1v-1h-1l-1-1h-5v1h-4l-1,1h-3v1l-1-1l-1-1v-2h-1v-2l-1-1v-2l-1-1l-8,1v4h1v2l-1,1h-2l-7,1v2l2,4h-1v1H199z M265,216h-1v-1h-1v-1
	v1h-2v-2l-1,1h-2v-1h-2v-1h-1v-1h-1l-1-1h-1v1h-1v-1h-2v-1h-1v-1l1-1v1h1v1h1h-1h2l1-1v1h1l1,1l1,1h1v1h2h-1h1v1h1v-1h1
	c0.31-0.18,0.69-0.18,1,0v1v-1h1v-1l1,1h1v1v-1h1l1,1v-1h1v-1h-1v-1h1v-1h2l1-1v-3l1-1v1l-1-36l-6-14v-2l-12-27l-4-11l-1-2l-1-3v-1
	h-1v-1l-1-1v-2h-1v-2l-1-1v-1h-1v-2l-1-1v-1h-4l-1-1h-1v-1h-1v-1h-2l-1-1h-1v-1h-3v-2l-1-1h-1l-1-1v-1h1v1h2l1,1h1l-1,1h2v1h1v1h2v1
	h2v1h1v1h2v1v-1l1,1h3v2h1v2h1v2l1,1v1l1,1v1l1,2l1,1v1l1,2l1,3l6,14l10,26l7,14v36h-1v4h-1v1h-1v1h-1v-1v2l-1,1h-1v1h-1v-1h-1l1,1
	v2H265z M265,215v-1h-1L265,215z"/>
<path class="st0" d="M249,208h-1v-1l-1-1v-1h-4v-1h-1v-1h-1v-1h-1v-1l-2-1h-1v-1l-1,1v1h-1v-1h-3v-1h-1v-1h-1v-8h-1v-2l-1-1v-1
	l-13-10h-1v-1h-1v-1h-1v-1h-1v-2h-1v-1h-1v-1c0,1,0,1,0,0h-1v-1h-2v-1h-6v1h-6l-1-1v-1h-1v-4c-1,0,0,0,0,0h1v3l1,1v1h4l1-1h8
	c0.55,0,1,0.45,1,1h1v1h1v1h1v1l1,1v1h1v1h1c0,0,0,1,0,0v1h1v1h1l2,2l1,1l9,7h1v2h1v2h1v5l1,1l-1,1v1h1v1h5v1h1l2,1h1v1h1v1h1v1h1v1
	v-1v1h4v2h1V208z"/>
<path class="st0" d="M192,163v-1l-4-15h-1v-1h-1v-1h-1v-2l-1-1v-1h-1v-1h-2l-1-1v-2h1h-3v-1h-2l-1-1v-3l-1-1v-1h1v-3h-1v-1h-4l-1,1
	l-1-1v-1h1v-2h1v-1l1-1h1l1-1h3l2-3h1v-1h1v-1v1v-1h1l1-1l1-1h1v-1h2v-1h1l1-1h1v-1h2v1h1v-1h2l1-1l1,1h-1v1h-2l-1,1h-2v-1v1h-1
	l-2,1h-1v1h-2v1l-2,1l-1,1v-1v1l-1,1v1l-1-1v1l-2,2l-1,1h-3v1h-2v1h-1v2h2v-1h1v1h2v1c0.31-0.18,0.69-0.18,1,0v2h1v1h-1v3l1,1l-1,1
	v1h3v1v-1h1v1h2v2h-1v1h2l1,1h1v1l1,1v2h1v1h1v1h1v1l1,1v3l1,2l2,9L192,163z M180,116h1H180z M181,115v1V115z M183,113h1H183z"/>
<path class="st0" d="M195,109v-1h2v-1h2v-1h1v-1h1v-1h1l1-1v-2l1-1v-1h1v-1h3v1h3l3-2h4v-1l1-1l1-1h1v-1h1v-1h1v-1h-1v-2v1v-3h3v1
	h-2v2h1v2l-1,1l-1,1v1h-1l-1,1l-1,1l-1,1h-3l-3,2l-1,1h-1v-1h-2l-1-1h-2v2l-1,1v2h-1v1h-1v1h-1l-1,1v1h-1l-2,1H195z M221,94h1H221z
	 M202,75v-1h-1v-2l-1-1v-2h-1v-2l-1-1v-1h-1v-1h-1v-1h-1v-1h-3v-1h-1l-1-1l-1-1h-1v-1h-1v-1l-1-1v-4h-1v-3h-1v-2h-1v-2h-1l-1-1h-1
	v-1h-3v1h-4v-1h-2v-1h-2v-1h-1v-5h-1v-7h1v-7h-1v-2l1-1h-1v-3h-1v-1h-1v-1l-1-1l-1-1v-1h-2v-1h-5v1h-1l-1,1h-2l-1-1h3v-1h1V9h6l2,1
	v1h1v1h1v1h1c0.18,0.31,0.18,0.69,0,1h1v1h1v2h1v12l-1,1v4l1,1v5h1v1h2v1h1v1h3v-1h5v1h1v1h2v2h1v2h1v3h1v5h1v1h1v1h1v1h1l1,1h1v1h2
	v1h1l1,1v1h1v1h1v1l1,1v1l1,1v2h1v2h1v1L202,75z M199,65l-1,1L199,65z M196,62h-1H196z M191,59l-1,1L191,59z M189,58h1H189z M183,45
	h1H183z M178,42v1V42z M167,33h1l-1-1V33z M167,15h-1H167z M163,12v-1V12z M164,12h-1H164z M156,10V9V10z"/>
<path class="st0" d="M182,115l-1-1h-1v-3l1-1l1-1l1-1h1v-3h-1v-4h-2l-1-1h-1v-2h1v1h1v1h3v3l1,1v4l-1,1l-1,1h-1v2l-1,1h1v1l1-1l1-1
	h2v-1l2-1h1v-1h2v1h1v-1h3v-1h2v-1h2v-1h1v-1h1v-1h2v-3l1-1v-1h1v-1h3v1h3l3-2h4l1-2h1v-3l-1-2l-1-1h-1l-1-1h-1v-2l-1-1v-1l-1-1v-1
	l-1-1v-1v1l-1-1h-1v-1h-2v-1h-2v-1h-1v-1h-2v-1h-1v-1h1l1,1h1v1h2v1h2v1h2v1l1,1h1v1h1v2h1v1l1,2v1h1l1,1h1l1,1v1l1,1v2h1l-1,1v2h-1
	l-1,2h-4l-3,2v1h-3v-1h-1l-1-1h-1l-1,1v1l-1,1v2h-1v1h-1v1h-1v1h-1v1h-1l-2,1h-2v1h-2v1h-4l-2,1l-1,1h-1l-1,1L182,115z M183,113h1
	H183z M210,79h1H210z"/>
<path class="st0" d="M179,100v-1h-1l-3-2l-9-7l-9-7l-1-1l-7-6h-1l-16-13h-1l-1-1l-11-9l-1-1l-5-4l-3-3l-6-4v-1l1-2l1-1h1v-1l1-1l7-9
	h1l5-5l5-4l1-1l11-9h2V6h2V5l6-3h1v3h1v2h-1v2h1v1h1v1h1v1h-2v-1h-1v-1h-1V7h1V6h-1V3v1l-3,1h-1l-1,1v1h-1l-2,1h-1l-1,1l-13,10l-3,3
	l-6,5l-7,9h-1v1h-1v1v-1v1l-1,1l-1,1l1,1l7,6h1l17,14l1,1l1,1l5,3l2,2l9,7l1,1h1v1l2,1v1h1l4,3l5,4l3,3h1v1l11,8l1-1l1,1v1L179,100z
	 M86,153l-1-1v-1h1v-3l1-1l1-1h1v-2h1l1-1l1-1h1v-2h1v-2l1-1h1l1-1h1l-1-1l5-3l1-1h1l1-1h1l1-1l2-2h1l1-1h-3v-1l1-1h1h-1l1-1l1-1h1
	v-1l3-3l-1-2v-1l5-3h1l2-1v-1l-4,2h-1v-1l-1-1l-1-1l-1-2l-1-2l-2,2l-1-1l-2,1l-1-1v-1h-1v-1h1h-1v-1h-1v-1c-0.08-0.33-0.08-0.67,0-1
	l1-1h1v-1h-4v1v-1h-2v-1h-1l-1-1v-2l1-1v-1h1h-1l-1,1v1h-2v-1h-1l1-1v-2h-1v-1h-1v-1h-1v-2h-1v-3h-1v1l-1,1h-1v-1h-1v-1l-1-1v-2h-1
	v-3h-1v-1v2h-1h1v1h-3v-2h-2v-1h-2v-1h-2v-1h2l1,1h1v1h2l1,1v1h1v-1h-1v-1l1-1h2v2h1v3h1v1l1,1v1h1v1v-3l1-1l1,1l1,2v2h1v2h1v1h1v1
	h1v4v-1l1-1l1-1h1v1h1v2h-1v1h-1v1l1,1l1,1h5v1h1v1l-1,1h-1v1c0.44,0.2,0.8,0.56,1,1h1v2h2c0.31-0.18,0.69-0.18,1,0l2-1h1v1l2,2v1
	l1,1v1l1,1l3-2h1v1l1,1v1l-8,4v1h1v2l-2,2l-2,1v1h-1v1h-1v1h1v1h1v1l-1,1h-1v1l-3,1l-1,1h-1l-1,1h-1v1h-1l-2,1l-2,1l1,1v2h-2l1,1v1
	h-2l-1-1v2h-1v1c1,0,1,0,0,0v1h-2v1l-1,1h-1v2h-1v1h-1l-1,1v3h-1V153z M106,102v1V102z M102,98h-1H102z M97,94h1H97z M100,93l-1-1
	L100,93z M85,77v-1V77z M85,76v1V76z"/>
<path class="st0" d="M59,180h-3l-53-1H2v-2h3v-2h2v1h1v1H7h1v1v-1h1v-1H8v-3h1v1h1v-3h1v1h1v1h-1v1l-1,1H9h1v2l-1,1l49,1v-1h1v-2
	l1-1v-1l1-1v-1h1v-2h1v-1h1v-1h1v-1l1-1l1-1v-1h2v-1h1v-1h1v-1h2v-1h2v-1h1l1-1h2v-1h3l1-1h2l1-1v-1l-1-1l1-1l1,1h1v1h-1v3h-3v1h-4
	v1h-2l-1,1h-2v1h-1l-1,1h-1v1h-1l-1,1h-1v1h-1v1h-1v1h-1v1h-1v1l-1,1v1h-1v1h-1v2h-1v2h-1v2l-1,1V180z M6,177v-1V177z"/>
<path class="st0" d="M11,172h-1v-1h1v-1h2v1v-1h1h-1v-1l1-1v-1h1v-1h1v-1l1-1v-1h-1v-1h2v-2h1h-1v-2l1-1v1h1v-1l1-1l-1-1h1h-1v-3h2
	l1-1v-3v1v-1h2v1l1-1h-1v-4h-1v-6l1-1h1v-1l-1-1v-4h1v-1l1-3l7-11v-8l-1-6v-1l8-4l2-1h1l3-3l5-4l14-11l5-3h1v1h1v-1h2v-1h2v1l1,1h-2
	v-1v1h-2v1h-2v-1h-1l-4,3l-5,4l-9,7l-8,7h-2l-1,1l-2,1l-6,3l1,6v8l-8,14v2h-1v2h1v2h1v2h-2v1h-1h1v2l-1,1h1v2h1v2h-1v1h1v2l-1,1h-2
	v-1v4h-2v5h-1v1h-1v2h-1h1h-1v2l-1,1v2h-1v1h-1h1h-1v1h-1v3h-1v1h-2v-1v1H11z M74,75v1V75z"/>
<path class="st0" d="M78,76h-1c-0.28,0.48-0.89,0.64-1.37,0.37s-0.64-0.89-0.37-1.37s0.89-0.64,1.37-0.37
	c0.15,0.09,0.28,0.21,0.37,0.37h1V76z M87,157l-1-1l1-1l1-1v1h1v2H87z"/>
<path class="st0" d="M114,164l-1-1h-1v-1h-2v-1h-2v-1h-2v-1h-3v-1h-3v-1H88v-1h-1v1h-1l-1-1v-1h1v-1h-1v-3h1v-2h-1h1l1-1v-1l1-1h1
	v-2h1l1-1l1-1h1v-2h1v-2h2v-1l1-1l1,1l-1-1v-1l5-3l1-1h1l1-1h1l1-1l2-1v-1h1v-1h-2v-1l1-1h1h-1l1-1l1-1h1l3-3l-1-3v-1l5-3h1l1-1l2-1
	v1l2,3h1l1,4h1l1,2h1c0,0,0-1,0,0h1v1l1,1l2,3l2,2v3h2l1,1c0-1,0-1,0,0h1v1h-3v-1h-2v-1l-1-1h1l-1-1l-2-4l-1-1l-1-1v-1h-2l-1-2v-1
	h-1l-2-3l-1-3l-8,4l1,1v2l-2,2l-1,1l-1,1l-1,1h-1v1h1v1h1v1l-1,1h-1v1l-3,1l-1,1h-1l-1,1l-1,1h-1l-2,1l-2,1l1,1v2h-1v2h-2l-1-1v2h-1
	v1c1,0,1,0,0,0v1h-1v1h-1l-1,1l-1,1h1l-1,1h-1v1h-1l-1,1v3h-1v1h1v2v-1l1,1h6v1h7v1h3v1h2l1,1h2v1h1c0.44,0.2,0.8,0.56,1,1h1v1h1
	l2,1v1H114z"/>
<path class="st0" d="M114,164v-1l1-1h1l1-1h1v-1l6-4v-1h1l1-1h11v-1h3l1-1h1l3-1l-1-1l-1-1h-1v1h-2v-1h-3v-3l1-1v-1l1-1
	c-1,0-1,0,0,0v-3l1-1v-2h1c-0.55,0-1-0.45-1-1l-1-1v-4h2v1h-1v3h2v1h1v1h-1v1h-1v3l-1,1v2h-1v2h-1v2h2l1,1v-1h4l1,1v1
	c0.18,0.31,0.18,0.69,0,1l-1,1l-3,1l-1,1h-3v1h-12v1h-1l-1,1l-5,4h-1v1h-1v1h-1l-1,1H114z M140,138h1H140z"/>
<path class="st0" d="M146,151h-1l-1-1h-1v-1h-1v1h-2v-1h-3v-3l1-1v-1l1-1c-1,0-1,0,0,0v-3l1-1v-2h1c-0.55,0-1-0.45-1-1l-1-1v-3h-1
	l-1-1h-2v-1l-1-1h1v-1h1l1-1h1v-1l3-2h2v-1l2-1v-1h-1v-1h-1v-1h-1l-1-1v-1h-1v-1h-1l-1-1l-1-1v-1l4-5v-1l2-2h1l1,1h1v1h1l2,2l1-1
	l1,1l-1,1h-1l-3-2h-1v-1h-1v-1l-2,2v1l-1,1l-3,3l1,1l1,1v1h1v1v-1v1h1v1h2v1h1v1h1v1h1v2l-5,2l-3,2v1h-1l-2,1v1h4v1h1v1h-1v3h2v1h1
	v1h-1v1h-1v3l-1,1v2h-1v2h-1v2h2l1,1v-1h4v2h1l1-2h2v-1h7v-1l1-2v-1h1v-2h-1v-2l-1-1v-2l1-1v-3h1v-1h1l1-1l2-1h2v-1h3v-1h1v-2h1v-2
	h1v-1h1v-1h1l1-1h3l2-3h1v-1h1v-1v1v-1h1l1-1h1l-1,1v1l-1-1v2h-1v1l-1-1v1l-2,2l-1,1h-2l-1,1h-2v1h-1v2l-1,1v1l-1,1l-1,1h-2v1h-2
	l-3,1v1h-1v1h-1v6l1,1v4h-1v1l-1,2v1h-6l-1,1h-2l-1,2H146z M146,150v1V150z M140,138h1H140z M169,127h-1H169z M180,116h1H180z
	 M181,115v1V115z"/>
<path class="st0" d="M161,116l-2-2h-1v-1h-1v-1h-1l-1-1l-1-1h-1l-1-1l-1-1v1h-1v-1l1-1l2,1l2,1v1l2,1h1v1h1v1h1l1,1l1-1h1v-1h1l-1-1
	v-1l2-3h1l3-4l6-6v-1h1l2,2l1-1l1,1v1h1v1h3v3l1,1v1h1l-1,1v3h-1l-1,1h-1v2l-1,1h1v2l-1-1h-1v-3l1-1l1-1l1-1h1v-3h-1v-4h-2l-1-1h-1
	v-1h-1l-2-1h-1l-4,4l-1,2l-1,1l-2,2l-1,1l-1,2h-1l1,1v1l-1,1v1h-1l-1,1v1H161z M158,112h-1H158z"/>
<path class="st0" d="M136,129h-1v-1l-3-4l-1-1l-1-1v-1h-2l-1-2v-1h-1l-1-3h-1l-1-3l-1-1v-1l-4,2h-1v-1l-1-1l-1-1l-1-2l-1-2l-2,2
	l-1-1l-2,1l-1-1v-1h-1v-1h1h-1v-1h-1v-1c-0.08-0.33-0.08-0.67,0-1l1-1h1v-1h-3l-1,1l-1-1h-1v-1h-1l-1-1v-2l1-1v-1h1h-1l-1,1v1h-2v-1
	h-1l1-1v-2h-1v-1h-1v-1h-1v-2h-1v-3h-1v1l-1,1h-1v-1h-1v-1l-1-1v-2h-1v-3h-1v-1v2h-1h1v1h-3v-2h-1l1-1h1v2h1v-1h-1v-1l1-1h2v1l1,1v2
	l1,1v1l1,1v1l1,1v-3l1-1l1,1l1,2v2h1v2h1v1h1v1h1v4v-1h1v-1l1-1l1,1h1v2h-1v1h-1v1l1,1h1v1h1h-1h5v1h1v1l-1,1h-1v1h1
	c0.08,0.33,0.08,0.67,0,1h1v2h1v1l1-1c0.31-0.18,0.69-0.18,1,0l2-1h1v1l2,2v1l1,1v1l1,1l3-2h1v1h1v1l2,3h1l1,4h1l1,1v1h1
	c0-1,0-1,0,0h1v1l1,1l2,3l2,2v1l1-1h1v-1l3-2h2v-1l2-1v-1h-1v-1h-1l-1-1l-1-1h-1v-1l-1-1l-1-1l-1-1v-1l4-5l2-3h1l1,1l1,1h1l2,2l1-2
	h1l2,1l2,1v1l2,1l1,1h1v1h1l1,1l1-1h1v-1h1l-1-1v-1l2-3h1l3-4l5-6h1l-9-7l-9-7l-1-1l-7-6h-1l-17-13l-1-1l-11-9l-1-1l-5-4l-3-3l-6-4
	v-1h1l1,1l7,6h1l17,14l1,1l1,1l5,3l2,2l9,7l1,1h1v1l2,1v1h1l4,3l5,4l3,3h1l9,7v1l-1,2l-6,4v2l-2,2l-1,1l-1,1l-1,1l1,1v1l-1,1v1h-1
	l-1,1v1h-1l-2-2h-1v-1h-1v-1h-1l-1-1l-1-1h-1l-1-1l-1-1l-1,2h-1l-3-2h-1v-1h-1v-1l-2,2v1l-1,1l-3,3l1,1l1,1v1h1v1v-1v1h1v1h1l1,1h1
	v1h1v1h1v1l-1,1l-4,2l-3,2v1h-1L136,129z M158,112h-1H158z M106,102v1V102z M102,98h-1H102z M97,94h1H97z M100,93l-1-1L100,93z
	 M85,77v-1V77z M85,76v1V76z"/>
<path class="st0" d="M83,78h-2v-1h-2v-1h-3v-1v1h-2v1h-2v-1h-1v-1l2-2l1-3l2-3l2-3l5-9h1l1-2v-1l7-11h1v-1l2-2l2-4h1l7,6v1h-1l-7-6
	l-1,3l-1,1l-1,2v1h-1l-2,4l-5,8l-1,2h-1v1l-9,14l-3,4l1,1v-1h2v-1h2v1h3l1,1h1l-1,1l1-1v1h1l1,1H83z M74,75v1V75z"/>
</svg>
