<?xml version="1.0" encoding="utf-8"?>
<!-- Generator: Adobe Illustrator 25.0.1, SVG Export Plug-In . SVG Version: 6.00 Build 0)  -->
<svg version="1.1" id="Layer_1" xmlns="http://www.w3.org/2000/svg" xmlns:xlink="http://www.w3.org/1999/xlink" x="0px" y="0px"
	 viewBox="0 0 167.4 18.5" style="enable-background:new 0 0 167.4 18.5;" xml:space="preserve">
<style type="text/css">
	.st0{fill-rule:evenodd;clip-rule:evenodd;fill:#0078AE;}
	.st1{fill:#FFFFFF;}
	.st2{opacity:0.12;fill:#420000;enable-background:new    ;}
	.st3{fill:#0078AE;}
	.st4{fill:none;}
</style>
<g id="icon-111-search">
	<path id="search" class="st0" d="M39.6,13.5c-3.2,2.3-7.7,1.5-10-1.7s-1.5-7.7,1.7-10s7.7-1.5,10,1.7c1.8,2.5,1.8,5.8,0,8.3
		l4.7,4.7c0.5,0.5,0.5,1.2,0,1.7l0,0c-0.5,0.5-1.2,0.5-1.7,0C44.3,18.1,39.6,13.5,39.6,13.5z M35.5,13.1c3,0,5.5-2.4,5.5-5.5
		s-2.4-5.5-5.5-5.5S30,4.6,30,7.6S32.5,13.1,35.5,13.1z"/>
</g>
<path class="st1" d="M76.7,12.8l6.9-3.6l-6.9-3.6C76.7,5.6,76.7,12.8,76.7,12.8z"/>
<path class="st2" d="M76.7,5.6l6.1,4.1l0.8-0.4C83.6,9.2,76.7,5.6,76.7,5.6z"/>
<path class="st3" d="M90.5,4.9c0,0-0.2-1.6-0.9-2.3c-0.9-0.9-1.8-0.9-2.3-1c-3.2-0.2-7.9-0.2-7.9-0.2h0c0,0-4.8,0-8,0.2
	c-0.4,0-1.4,0-2.3,1c-0.7,0.7-0.9,2.3-0.9,2.3S68,6.8,68,8.6v1.7c0,1.8,0.2,3.7,0.2,3.7s0.2,1.6,0.9,2.3c0.9,0.9,2,0.9,2.5,1
	c1.8,0.2,7.7,0.2,7.7,0.2s4.8,0,8-0.2c0.4,0,1.4,0,2.3-1c0.7-0.7,0.9-2.3,0.9-2.3s0.2-1.8,0.2-3.7V8.6C90.7,6.8,90.5,4.9,90.5,4.9z
	 M77,12.4V6.1l6.2,3.2C83.1,9.3,77,12.4,77,12.4z M110.6,5c-0.7,0.3-1.4,0.5-2.1,0.6c0.8-0.5,1.3-1.2,1.6-2
	c-0.7,0.4-1.5,0.7-2.3,0.9c-1.4-1.5-3.7-1.6-5.2-0.2c-1,0.9-1.4,2.3-1.1,3.5c-3-0.1-5.7-1.5-7.6-3.9c-1,1.7-0.5,3.9,1.1,4.9
	c-0.6,0-1.2-0.2-1.7-0.5v0.1c0,1.8,1.2,3.3,3,3.6c-0.5,0.1-1.1,0.2-1.7,0.1c0.5,1.5,1.9,2.5,3.4,2.6c-1.5,1.2-3.5,1.8-5.5,1.5
	c1.7,1.1,3.7,1.7,5.7,1.7c6.8,0,10.5-5.6,10.5-10.5l0-0.5C109.5,6.4,110.2,5.7,110.6,5 M120.4,2.1c2.4,0,2.7,0,3.6,0
	c0.9,0,1.3,0.2,1.7,0.3c0.4,0.2,0.7,0.4,1,0.7s0.5,0.6,0.7,1c0.1,0.3,0.3,0.8,0.3,1.7c0.1,1,0.1,1.3,0.1,3.7s0,2.7-0.1,3.6
	c0,0.6-0.1,1.1-0.3,1.7c-0.2,0.4-0.4,0.7-0.7,1c-0.3,0.3-0.6,0.5-1,0.7c-0.3,0.1-0.8,0.3-1.7,0.3c-0.9,0-1.2,0-3.6,0
	c-2.4,0-2.7,0-3.6,0c-0.6,0-1.1-0.1-1.7-0.3c-0.4-0.1-0.7-0.4-1-0.7c-0.3-0.3-0.5-0.6-0.7-1c-0.2-0.5-0.3-1.1-0.3-1.7
	c0-0.9-0.1-1.2-0.1-3.6s0-2.7,0.1-3.6c0-0.9,0.2-1.3,0.3-1.7c0.2-0.4,0.4-0.7,0.7-1s0.6-0.5,1-0.7c0.3-0.1,0.8-0.3,1.7-0.3
	C117.9,2.1,119.2,2.1,120.4,2.1 M120.4,0.5c-2.4,0-2.8,0-3.7,0.1c-1,0-1.6,0.2-2.2,0.4c-0.6,0.2-1.1,0.5-1.6,1s-0.8,1-1,1.6
	c-0.3,0.7-0.4,1.4-0.4,2.2c-0.1,1-0.1,1.3-0.1,3.7s0,2.8,0.1,3.7s0.2,1.6,0.4,2.2c0.2,0.6,0.5,1.1,1,1.6c0.5,0.5,1,0.8,1.6,1
	c0.6,0.2,1.2,0.4,2.2,0.4c1,0,1.3,0.1,3.7,0.1s2.8,0,3.7,0s1.6-0.2,2.2-0.4c0.6-0.2,1.1-0.6,1.6-1c0.5-0.5,0.8-1,1-1.6
	c0.2-0.6,0.4-1.2,0.4-2.2c0.1-1,0.1-1.3,0.1-3.7s0-2.8-0.1-3.7c0-0.7-0.2-1.5-0.4-2.2c-0.2-0.6-0.5-1.1-1-1.6c-0.5-0.5-1-0.8-1.6-1
	c-0.7-0.3-1.4-0.4-2.2-0.4C123.1,0.5,122.8,0.5,120.4,0.5z M120.4,4.9c-2.6,0-4.6,2.1-4.6,4.6s2.1,4.6,4.6,4.6l0,0
	c2.6,0,4.6-2.1,4.6-4.6S122.9,4.9,120.4,4.9z M120.4,12.5c-1.7,0-3-1.3-3-3s1.3-3,3-3s3,1.3,3,3S122,12.5,120.4,12.5z M126.2,4.7
	c0,0.6-0.5,1.1-1.1,1.1s-1.1-0.5-1.1-1.1s0.5-1.1,1.1-1.1S126.2,4.1,126.2,4.7z M147.4,18.5c0.6,0,1-0.4,1-1v-16c0-0.5-0.4-1-1-1
	h-16c-0.6,0-1,0.4-1,1v16c0,0.5,0.4,1,1,1L147.4,18.5"/>
<path class="st1" d="M142.8,18.5v-7h2.3l0.3-2.7h-2.7V7.1c0-0.8,0.2-1.3,1.4-1.3h1.4V3.3c-0.7-0.1-1.4-0.1-2.1-0.1
	c-2.1,0-3.5,1.3-3.5,3.6v2h-2.4v2.7h2.4v7H142.8"/>
<g>
	<path class="st3" d="M166,0.5h-15.3c-0.7,0-1.3,0.6-1.3,1.3v15.4c0,0.7,0.6,1.3,1.3,1.3H166c0.7,0,1.3-0.6,1.3-1.3V1.8
		C167.4,1.1,166.8,0.5,166,0.5"/>
	<path class="st1" d="M153.4,3c0.9,0,1.6,0.7,1.6,1.5s-0.7,1.6-1.5,1.6c0,0,0,0,0,0c-0.9,0-1.5-0.7-1.5-1.6
		C151.8,3.7,152.5,3,153.4,3z M152,7.2h2.7v8.6H152V7.2z M156.4,7.2h2.6v1.2h0c0.5-0.9,1.5-1.4,2.5-1.4c2.7,0,3.2,1.8,3.2,4.1v4.7
		H162v-4.2c0-1,0-2.3-1.4-2.3c-1.4,0-1.6,1.1-1.6,2.2v4.3h-2.7L156.4,7.2"/>
</g>
<path class="st3" d="M60.2,5.3c-0.5-0.6-1.1-1-1.7-1.3s-1.4-0.4-2.3-0.4c-0.7,0-1.4,0.1-2,0.4c-1.3,0.5-2.3,1.5-2.8,2.8
	C51,7.5,50.9,8.2,50.9,9c0,0.8,0.1,1.5,0.4,2.2c0.3,0.7,0.7,1.2,1.1,1.7c1,1,2.4,1.5,3.8,1.5c0.8,0,1.5-0.1,2-0.3
	c0.5-0.2,1.1-0.5,1.5-0.9c0.3-0.3,0.5-0.6,0.8-0.9c0.2-0.4,0.4-0.8,0.5-1.3h-4.9V8.1h8c0.1,0.2,0.1,0.4,0.1,0.7c0,0.3,0,0.5,0,0.8
	c0,1.1-0.2,2.1-0.5,3c-0.3,0.9-0.8,1.7-1.5,2.4c-0.7,0.8-1.6,1.4-2.6,1.8c-1.1,0.4-2.3,0.7-3.5,0.6c-3.4,0-6.5-2-8-5.1
	c-0.5-1-0.7-2.2-0.7-3.4s0.2-2.4,0.7-3.4c0.4-1,1.1-1.9,1.9-2.7c1.6-1.6,3.8-2.4,6.1-2.4c2.4-0.1,4.6,0.9,6.3,2.6L60.2,5.3z"/>
<g>
	<polygon class="st3" points="24,18 24,18 24,18 	"/>
</g>
<path class="st3" d="M18.7,7.6l-5.6,5.6c-0.4,0.4-0.8,0.7-1.4,0.9c-1.2,0.4-2.5,0-3.4-0.8L0.3,5C0.1,5.3,0,5.7,0,6v10.1
	c0,1,0.8,1.8,1.8,1.8h17.9c1,0,1.8-0.8,1.8-1.8V9.4C20.5,9.2,19.4,8.5,18.7,7.6z"/>
<path class="st3" d="M17.8,4.2H2.1l7.7,7.7c0.5,0.5,1.4,0.5,1.9,0l6.1-6.1c-0.1-0.4-0.1-0.7-0.1-1.1C17.7,4.5,17.7,4.4,17.8,4.2z"/>
<path class="st4" d="M22,0c-2.2,0.2-4,1.9-4.3,4.2c0,0.2-0.1,0.4-0.1,0.6c0,0.4,0.1,0.7,0.1,1.1c0.2,0.7,0.5,1.3,0.9,1.8
	c0.7,0.9,1.7,1.5,2.9,1.7c0.3,0,0.5,0.1,0.8,0.1c2.6,0,4.7-2.1,4.7-4.7C27.2,2.1,24.7-0.2,22,0z"/>
<path class="st3" d="M23.4,0.8C21,0.4,18.8,2.5,19.3,5c0.3,1.4,1.4,2.5,2.8,2.8c2.5,0.5,4.6-1.7,4.2-4.2C26,2.2,24.8,1.1,23.4,0.8z
	 M25.2,4.7h-2v2.3h-0.9V4.7h-2V3.8h2V1.7h0.9v2.1h2V4.7z"/>
</svg>
