
<svg version="1.1" id="Layer_1" xmlns="http://www.w3.org/2000/svg" x="0" y="0" viewBox="0 0 499.3 54.6" xml:space="preserve"><style>.st1{fill:#fff}.st3{fill:#0078ae}.st5{fill:#6d6d6d}</style><g id="icon-111-search"><path id="search" d="M79.2 43.6c-6.4 4.6-15.4 3-20-3.4s-3-15.4 3.4-20 15.4-3 20 3.4c3.6 5 3.6 11.6 0 16.6l9.4 9.4c1 1 1 2.4 0 3.4s-2.4 1-3.4 0c0-.2-9.4-9.4-9.4-9.4zm-8.2-.8c6 0 11-4.8 11-11s-4.8-11-11-11-11 5-11 11 5 11 11 11z" fill-rule="evenodd" clip-rule="evenodd" fill="#0078ae"/></g><path class="st1" d="M153.4 42.2l13.8-7.2-13.8-7.2v14.4z"/><path d="M153.4 27.8l12.2 8.2 1.6-.8c0-.2-13.8-7.4-13.8-7.4z" opacity=".12" fill="#420000"/><path class="st3" d="M181 26.4s-.4-3.2-1.8-4.6c-1.8-1.8-3.6-1.8-4.6-2-6.4-.4-15.8-.4-15.8-.4s-9.6 0-16 .4c-.8 0-2.8 0-4.6 2-1.4 1.4-1.8 4.6-1.8 4.6s-.4 3.8-.4 7.4v3.4c0 3.6.4 7.4.4 7.4s.4 3.2 1.8 4.6c1.8 1.8 4 1.8 5 2 3.6.4 15.4.4 15.4.4s9.6 0 16-.4c.8 0 2.8 0 4.6-2 1.4-1.4 1.8-4.6 1.8-4.6s.4-3.6.4-7.4v-3.4c0-3.6-.4-7.4-.4-7.4zm-27 15V28.8l12.4 6.4c-.2 0-12.4 6.2-12.4 6.2zm67.2-14.8c-1.4.6-2.8 1-4.2 1.2 1.6-1 2.6-2.4 3.2-4-1.4.8-3 1.4-4.6 1.8-2.8-3-7.4-3.2-10.4-.4-2 1.8-2.8 4.6-2.2 7-6-.2-11.4-3-15.2-7.8-2 3.4-1 7.8 2.2 9.8-1.2 0-2.4-.4-3.4-1v.2c0 3.6 2.4 6.6 6 7.2-1 .2-2.2.4-3.4.2 1 3 3.8 5 6.8 5.2-3 2.4-7 3.6-11 3 3.4 2.2 7.4 3.4 11.4 3.4 13.6 0 21-11.2 21-21v-1c1.6-1 3-2.4 3.8-3.8m19.6-5.8h7.2c1.8 0 2.6.4 3.4.6.8.4 1.4.8 2 1.4.6.6 1 1.2 1.4 2 .2.6.6 1.6.6 3.4.2 2 .2 2.6.2 7.4s0 5.4-.2 7.2c0 1.2-.2 2.2-.6 3.4-.4.8-.8 1.4-1.4 2-.6.6-1.2 1-2 1.4-.6.2-1.6.6-3.4.6h-14.4c-1.2 0-2.2-.2-3.4-.6-.8-.2-1.4-.8-2-1.4-.6-.6-1-1.2-1.4-2-.4-1-.6-2.2-.6-3.4 0-1.8-.2-2.4-.2-7.2s0-5.4.2-7.2c0-1.8.4-2.6.6-3.4.4-.8.8-1.4 1.4-2s1.2-1 2-1.4c.6-.2 1.6-.6 3.4-.6 2.2-.2 4.8-.2 7.2-.2m0-3.2c-4.8 0-5.6 0-7.4.2-2 0-3.2.4-4.4.8s-2.2 1-3.2 2-1.6 2-2 3.2c-.6 1.4-.8 2.8-.8 4.4-.2 2-.2 2.6-.2 7.4s0 5.6.2 7.4.4 3.2.8 4.4c.4 1.2 1 2.2 2 3.2s2 1.6 3.2 2 2.4.8 4.4.8 2.6.2 7.4.2h7.4c1.8 0 3.2-.4 4.4-.8 1.2-.4 2.2-1.2 3.2-2 1-1 1.6-2 2-3.2s.8-2.4.8-4.4c.2-2 .2-2.6.2-7.4s0-5.6-.2-7.4c0-1.4-.4-3-.8-4.4-.4-1.2-1-2.2-2-3.2s-2-1.6-3.2-2c-1.4-.6-2.8-.8-4.4-.8-2-.4-2.6-.4-7.4-.4zm0 8.8c-5.2 0-9.2 4.2-9.2 9.2s4.2 9.2 9.2 9.2c5.2 0 9.2-4.2 9.2-9.2s-4.2-9.2-9.2-9.2zm0 15.2c-3.4 0-6-2.6-6-6s2.6-6 6-6 6 2.6 6 6-2.8 6-6 6zM252.4 26c0 1.2-1 2.2-2.2 2.2s-2.2-1-2.2-2.2c0-1.2 1-2.2 2.2-2.2s2.2 1 2.2 2.2zm42.4 27.6c1.2 0 2-.8 2-2v-32c0-1-.8-2-2-2h-32c-1.2 0-2 .8-2 2v32c0 1 .8 2 2 2h32"/><path class="st1" d="M285.6 53.6v-14h4.6l.6-5.4h-5.4v-3.4c0-1.6.4-2.6 2.8-2.6h2.8v-5c-1.4-.2-2.8-.2-4.2-.2-4.2 0-7 2.6-7 7.2v4H275v5.4h4.8v14h5.8"/><path class="st3" d="M332 17.6h-30.6c-1.4 0-2.6 1.2-2.6 2.6V51c0 1.4 1.2 2.6 2.6 2.6H332c1.4 0 2.6-1.2 2.6-2.6V20.2c.2-1.4-1-2.6-2.6-2.6"/><path class="st1" d="M306.8 22.6c1.8 0 3.2 1.4 3.2 3s-1.4 3.2-3 3.2c-1.8 0-3-1.4-3-3.2-.4-1.6 1-3 2.8-3zM304 31h5.4v17.2H304V31zm8.8 0h5.2v2.4c1-1.8 3-2.8 5-2.8 5.4 0 6.4 3.6 6.4 8.2v9.4H324v-8.4c0-2 0-4.6-2.8-4.6s-3.2 2.2-3.2 4.4v8.6h-5.4l.2-17.2"/><path class="st3" d="M120.4 27.2c-1-1.2-2.2-2-3.4-2.6s-2.8-.8-4.6-.8c-1.4 0-2.8.2-4 .8-2.6 1-4.6 3-5.6 5.6-.8 1.4-1 2.8-1 4.4 0 1.6.2 3 .8 4.4.6 1.4 1.4 2.4 2.2 3.4 2 2 4.8 3 7.6 3 1.6 0 3-.2 4-.6 1-.4 2.2-1 3-1.8.6-.6 1-1.2 1.6-1.8.4-.8.8-1.6 1-2.6h-9.8v-5.8h16c.2.4.2.8.2 1.4v1.6c0 2.2-.4 4.2-1 6s-1.6 3.4-3 4.8c-1.4 1.6-3.2 2.8-5.2 3.6-2.2.8-4.6 1.4-7 1.2-6.8 0-13-4-16-10.2-1-2-1.4-4.4-1.4-6.8 0-2.4.4-4.8 1.4-6.8.8-2 2.2-3.8 3.8-5.4 3.2-3.2 7.6-4.8 12.2-4.8 4.8-.2 9.2 1.8 12.6 5.2l-4.4 4.6zM48 52.6zM37.4 31.8L26.2 43c-.8.8-1.6 1.4-2.8 1.8-2.4.8-5 0-6.8-1.6L.6 26.6c-.4.6-.6 1.4-.6 2v20.2c0 2 1.6 3.6 3.6 3.6h35.8c2 0 3.6-1.6 3.6-3.6V35.4c-2-.4-4.2-1.8-5.6-3.6z"/><path class="st3" d="M35.6 25H4.2l15.4 15.4c1 1 2.8 1 3.8 0l12.2-12.2c-.2-.8-.2-1.4-.2-2.2 0-.4 0-.6.2-1z"/><path d="M44 16.6c-4.4.4-8 3.8-8.6 8.4 0 .4-.2.8-.2 1.2 0 .8.2 1.4.2 2.2.4 1.4 1 2.6 1.8 3.6 1.4 1.8 3.4 3 5.8 3.4.6 0 1 .2 1.6.2 5.2 0 9.4-4.2 9.4-9.4.4-5.4-4.6-10-10-9.6z" fill="none"/><path class="st3" d="M46.8 18.2c-4.8-.8-9.2 3.4-8.2 8.4.6 2.8 2.8 5 5.6 5.6 5 1 9.2-3.4 8.4-8.4-.6-2.8-3-5-5.8-5.6zm3.6 7.8h-4v4.6h-1.8V26h-4v-1.8h4V20h1.8v4.2h4V26z"/><path class="st5" d="M362.3 0c-14.8 0-26.8 12.2-26.8 27.3 0 15.1 12 27.3 26.8 27.3s26.8-12.2 26.8-27.3c0-15.1-12-27.3-26.8-27.3m13.5 19.1v21.3c0 2.5-2 4.6-4.5 4.6h-16.6c-2.2 0-4-1.6-4.4-3.6h-1.7c-.6 0-1-.5-1-1 0-.6.4-1 1-1h1.6V37h-1.6c-.6 0-1-.5-1-1 0-.6.4-1 1-1h1.6v-2.3h-1.6c-.6 0-1-.5-1-1 0-.6.4-1 1-1h1.6v-2.3h-1.6c-.6 0-1-.5-1-1 0-.6.4-1 1-1h1.6V24h-1.6c-.6 0-1-.5-1-1 0-.6.4-1 1-1h1.6v-2.3h-1.6c-.6 0-1-.5-1-1 0-.6.4-1 1-1h1.6v-2.3h-1.6c-.6 0-1-.5-1-1s.4-1 1-1h1.7c.4-2.1 2.3-3.7 4.4-3.7h16.6c2.5 0 4.5 2.1 4.5 4.6v4.8z"/><path class="st5" d="M362.4 32.1h9.5v2.5h-9.5zM355.3 32.1h3.5v7.5h-3.5zM362.4 27.1h9.5v2.5h-9.5zM362.4 37.1h9.5v2.5h-9.5zM354.1 22.1h17.8v2.5h-17.8zM354.1 15h17.8v4.5h-17.8zM409.9 35.1c0 .5-.1 1-.3 1.5h19.3c.8 0 1.5-.7 1.5-1.5V17h-20.5v18.1zm18.5-1.8H424V31h4.4v2.3zm-16.6-13.4h16.5v4.2h-16.5v-4.2zm0 6.4h16.5v2.3h-16.5v-2.3zm0 4.7h8.8v2.3h-8.8V31z"/><path class="st5" d="M416.9.1c-15.1 0-27.3 12.2-27.3 27.3 0 15.1 12.2 27.3 27.3 27.3 15.1 0 27.3-12.2 27.3-27.3 0-15.1-12.3-27.3-27.3-27.3M433 35.7c0 2.3-1.9 4.1-4.1 4.1H405c-2.3 0-4.1-1.9-4.1-4.1v-15c0-.7.6-1.3 1.3-1.3h2.7V22h-1.4v13.7c0 .8.7 1.5 1.5 1.5h.8c.8 0 1.5-.7 1.5-1.5V16.2c0-.7.6-1.3 1.3-1.3h23.1c.7 0 1.3.6 1.3 1.3v19.5zM460 36.6h24V23.8h-24v12.8zm16.2-10.1h4.1v3.1h-4.1v-3.1zm0 4.7h4.1v3.1h-4.1v-3.1zm-6.2-4.7h4.1v3.1H470v-3.1zm0 4.7h4.1v3.1H470v-3.1zm-6.3-4.7h4.1v3.1h-4.1v-3.1zm0 4.7h4.1v3.1h-4.1v-3.1z"/><path class="st5" d="M472 0c-15.1 0-27.3 12.2-27.3 27.3 0 15.1 12.2 27.3 27.3 27.3 15.1 0 27.3-12.2 27.3-27.3C499.3 12.2 487.1 0 472 0m4.8 14.9c0-.8.7-1.5 1.5-1.5s1.5.7 1.5 1.5v3.8c0 .8-.7 1.5-1.5 1.5s-1.5-.7-1.5-1.5v-3.8zm-12.5 0c0-.8.7-1.5 1.5-1.5s1.5.7 1.5 1.5v3.8c0 .8-.7 1.5-1.5 1.5s-1.5-.7-1.5-1.5v-3.8zM487 39.8c0 .8-.7 1.5-1.5 1.5h-26.9c-.8 0-1.5-.7-1.5-1.5V18.2c0-.8.7-1.5 1.5-1.5h3.9v1.9c0 1.9 1.5 3.4 3.4 3.4s3.4-1.5 3.4-3.4v-1.9h5.7v1.9c0 1.9 1.5 3.4 3.4 3.4s3.4-1.5 3.4-3.4v-1.9h3.9c.8 0 1.5.7 1.5 1.5v21.6z"/></svg>