<?xml version="1.0" encoding="UTF-8"?><svg id="a" xmlns="http://www.w3.org/2000/svg" viewBox="0 0 64 64"><polygon points="14.04 28.14 18.49 28.14 18.49 40.48 22.14 40.48 22.14 28.14 26.68 28.14 26.68 25.32 14.04 25.32 14.04 28.14" /><rect x="30.15" y="25.32" width="3.64" height="15.16" /><path d="m48.48,25.98c-.89-.43-1.91-.64-3.07-.64h-6.04v15.16h3.65v-5.14h2.33c1.84,0,3.29-.44,4.35-1.33,1.06-.89,1.58-2.07,1.58-3.55,0-1-.24-1.89-.73-2.68-.49-.79-1.18-1.39-2.07-1.82Zm-1.45,6.02c-.37.35-.91.53-1.61.53h-2.39v-4.37h2.43c.66,0,1.18.22,1.56.65.38.42.57.99.57,1.7,0,.65-.19,1.15-.56,1.5Z" /><path d="m32.13,19.24c-1.02,0-1.86.83-1.86,1.85s.83,1.85,1.86,1.85,1.85-.83,1.85-1.85-.83-1.85-1.85-1.85Z" /><path d="m32.13,42.57c-1.02,0-1.86.83-1.86,1.85s.83,1.86,1.86,1.86,1.85-.83,1.85-1.86-.83-1.85-1.85-1.85Z" /><path d="m56.15,16.26H8.12c-1.39,0-2.66.58-3.59,1.5-.92.93-1.5,2.2-1.5,3.59v22.52c0,2.79,2.3,5.1,5.08,5.1h48.03c2.78,0,5.08-2.31,5.08-5.1v-22.52c0-2.79-2.3-5.1-5.08-5.1Zm3.12,27.62c0,1.73-1.39,3.12-3.12,3.12H8.12c-1.73,0-3.12-1.4-3.12-3.13v-22.52c0-.86.35-1.65.91-2.21.56-.56,1.34-.91,2.2-.91h48.03c1.73,0,3.12,1.4,3.12,3.13v22.52Z" /></svg>