<?xml version="1.0" encoding="utf-8"?>
<!-- Generator: Adobe Illustrator 26.0.3, SVG Export Plug-In . SVG Version: 6.00 Build 0)  -->
<svg version="1.1" id="tip" xmlns="http://www.w3.org/2000/svg" xmlns:xlink="http://www.w3.org/1999/xlink" x="0px" y="0px"
	 viewBox="0 0 260.19 146.24" style="enable-background:new 0 0 260.19 146.24;" xml:space="preserve">
<style type="text/css">
	#tip .st0{fill:#040B1F;}
	#tip .st1{fill:#040B1F;stroke:#040B1F;stroke-width:2;stroke-miterlimit:10;}
</style>
<path class="st0" d="M105.71,53.11h-20.3v55.16h-16.3V53.11H49.19V40.49h56.52L105.71,53.11L105.71,53.11z"/>
<path class="st0" d="M137.47,108.28h-16.26V40.5h16.26V108.28z"/>
<path class="st0" d="M178.75,85.35v23h-16.3V40.57h26.99c5.17,0,9.74,0.95,13.72,2.86c3.98,1.91,7.06,4.63,9.24,8.15
	s3.27,7.52,3.27,11.99c0,6.61-2.36,11.9-7.08,15.85c-4.72,3.96-11.2,5.93-19.43,5.93L178.75,85.35L178.75,85.35z M178.75,72.74
	h10.68c3.16,0,5.56-0.79,7.22-2.37s2.49-3.82,2.49-6.7c0-3.17-0.85-5.69-2.55-7.59c-1.7-1.89-4.03-2.86-6.97-2.89h-10.87V72.74z"/>
<circle class="st1" cx="130.09" cy="21.61" r="3.82"/>
<circle class="st1" cx="130.09" cy="125.88" r="3.82"/>
<path class="st0" d="M6.7,6.72C2.58,10.87,0,16.55,0,22.79v100.67c0,12.47,10.28,22.78,22.73,22.78h214.74
	c12.44,0,22.72-10.31,22.72-22.78V22.79C260.19,10.31,249.91,0,237.47,0H22.73C16.5,0,10.82,2.58,6.7,6.72 M12.87,12.91
	c2.51-2.52,5.97-4.09,9.84-4.09h214.74c7.71,0,13.95,6.24,13.95,13.97v100.68c0,7.73-6.21,13.96-13.93,13.96H22.73
	c-7.72,0-13.94-6.24-13.94-13.97V22.79C8.79,18.92,10.35,15.43,12.87,12.91"/>
</svg>
