<?xml version="1.0" encoding="UTF-8"?><svg id="a" xmlns="http://www.w3.org/2000/svg" viewBox="0 0 64 64"><path d="M26.68,28.14h-4.54v12.34h-3.65v-12.34h-4.46v-2.82h12.64v2.82Z" style="fill:#040b1f;"/><path d="M33.78,40.48h-3.64v-15.16h3.64v15.16Z" style="fill:#040b1f;"/><path d="M43.02,35.36v5.14h-3.65v-15.16h6.04c1.16,0,2.18,.21,3.07,.64,.89,.43,1.58,1.03,2.07,1.82s.73,1.68,.73,2.68c0,1.48-.53,2.66-1.58,3.55-1.06,.88-2.51,1.33-4.35,1.33h-2.33Zm0-2.82h2.39c.71,0,1.24-.18,1.61-.53s.56-.85,.56-1.5c0-.71-.19-1.27-.57-1.7-.38-.42-.9-.64-1.56-.65h-2.43v4.37Z" style="fill:#040b1f;"/><circle cx="32.13" cy="21.1" r=".85" style="fill:#040b1f; stroke:#040b1f; stroke-miterlimit:10; stroke-width:1.2px;"/><circle cx="32.13" cy="44.42" r=".85" style="fill:#040b1f; stroke:#040b1f; stroke-miterlimit:10; stroke-width:1.2px;"/><rect x="3.88" y="16.72" width="56.23" height="31.62" rx="3.36" ry="3.36" style="fill:none; stroke:#040b1f; stroke-miterlimit:10; stroke-width:1.6px;"/></svg>