<?xml version="1.0" encoding="utf-8"?>
<!-- Generator: Adobe Illustrator 26.2.1, SVG Export Plug-In . SVG Version: 6.00 Build 0)  -->
<svg version="1.1" id="tip" xmlns="http://www.w3.org/2000/svg" xmlns:xlink="http://www.w3.org/1999/xlink" x="0px" y="0px"
	 viewBox="0 0 260.19 146.24" style="enable-background:new 0 0 260.19 146.24;" xml:space="preserve">
<style type="text/css">
	#tip .st0{fill:#040B1F;}
	#tip .st1{fill:#040B1F;stroke:#040B1F;stroke-width:2;stroke-miterlimit:10;}
</style>
<path class="st0" d="M101.32,53.12H89.8c-2.42,0-4.39,1.97-4.39,4.39v46.38c0,2.42-1.97,4.39-4.39,4.39H73.5
	c-2.42,0-4.39-1.97-4.39-4.39V57.51c0-2.42-1.97-4.39-4.39-4.39H53.58c-2.42,0-4.39-1.97-4.39-4.39v-3.84
	c0-2.42,1.97-4.39,4.39-4.39h47.74c2.42,0,4.39,1.97,4.39,4.39v3.84C105.71,51.15,103.74,53.12,101.32,53.12z"/>
<path class="st0" d="M133.37,108.28h-8.05c-2.27,0-4.1-1.84-4.1-4.1V44.61c0-2.27,1.84-4.1,4.1-4.1h8.05c2.27,0,4.1,1.84,4.1,4.1
	v59.57C137.47,106.45,135.63,108.28,133.37,108.28z"/>
<path class="st0" d="M178.75,89.46v14.79c0,2.27-1.84,4.1-4.1,4.1h-8.09c-2.27,0-4.1-1.84-4.1-4.1V44.68c0-2.27,1.84-4.1,4.1-4.1
	h22.88c5.17,0,9.74,0.95,13.72,2.86c3.98,1.91,7.06,4.63,9.24,8.15c2.18,3.52,3.27,7.52,3.27,11.99c0,6.61-2.36,11.9-7.08,15.85
	c-4.72,3.96-11.2,5.93-19.43,5.93h-6.3C180.59,85.36,178.75,87.2,178.75,89.46z M178.75,68.64c0,2.27,1.84,4.1,4.1,4.1h6.58
	c3.16,0,5.56-0.79,7.22-2.37c1.66-1.58,2.49-3.82,2.49-6.7c0-3.17-0.85-5.69-2.55-7.59c-1.7-1.89-4.03-2.86-6.97-2.89h-6.76
	c-2.27,0-4.1,1.84-4.1,4.1V68.64z"/>
<circle class="st1" cx="130.09" cy="21.62" r="3.82"/>
<circle class="st1" cx="130.09" cy="125.89" r="3.82"/>
<path class="st0" d="M6.7,6.72C2.58,10.87,0,16.56,0,22.79v100.67c0,12.47,10.28,22.78,22.73,22.78h214.74
	c12.44,0,22.72-10.31,22.72-22.78V22.79C260.19,10.31,249.91,0,237.47,0H22.73C16.5,0,10.82,2.59,6.7,6.72 M12.87,12.91
	c2.51-2.52,5.97-4.09,9.84-4.09h214.74c7.71,0,13.95,6.24,13.95,13.97v100.67c0,7.73-6.21,13.96-13.93,13.96H22.73
	c-7.72,0-13.94-6.24-13.94-13.97V22.79C8.79,18.93,10.36,15.43,12.87,12.91"/>
</svg>
