<?xml version="1.0" encoding="UTF-8"?><svg id="a" xmlns="http://www.w3.org/2000/svg" viewBox="0 0 64 64"><path d="m47.37,17.3c-8.99,0-13.36,1.97-13.36,6.01v19.46c0,3.05,2.28,5.54,5.08,5.54h2.68l-3.89,5.44c-.26.36-.17.86.18,1.12.14.1.3.15.46.15.25,0,.5-.12.65-.33l1.58-2.21c.06.01.11.03.17.03h12.93c.05,0,.1-.02.15-.03l1.57,2.2c.16.22.4.33.65.33.16,0,.32-.05.46-.15.36-.26.44-.76.18-1.12l-3.89-5.44h2.68c2.8,0,5.08-2.48,5.08-5.54v-19.46c0-4.05-4.37-6.01-13.36-6.01Zm-11.76,17.93v-10.25h10.96v10.25h-10.96Zm12.56-10.25h10.96v10.25h-10.96v-10.25Zm-.8-6.08c7.81,0,11.76,1.48,11.76,4.41v.06h-23.53v-.06c0-2.93,3.96-4.41,11.76-4.41Zm5.5,32.01h-11l1.86-2.6h7.28l1.86,2.6Zm2.78-4.2h-16.57c-1.92,0-3.48-1.77-3.48-3.94v-5.94h23.53v5.94c0,2.17-1.56,3.94-3.48,3.94Z" /><path d="m40.06,38.46c-1.54,0-2.79,1.35-2.79,3s1.25,3,2.79,3,2.79-1.35,2.79-3-1.25-3-2.79-3Zm0,4.4c-.66,0-1.19-.63-1.19-1.4s.53-1.4,1.19-1.4,1.19.63,1.19,1.4-.53,1.4-1.19,1.4Z" /><path d="m54.67,38.46c-1.54,0-2.79,1.35-2.79,3s1.25,3,2.79,3,2.79-1.35,2.79-3-1.25-3-2.79-3Zm0,4.4c-.65,0-1.19-.63-1.19-1.4s.53-1.4,1.19-1.4,1.19.63,1.19,1.4-.53,1.4-1.19,1.4Z" /><path d="m20.32,27.94c-.54.44-.88,1.06-.94,1.76-.07.69.13,1.37.57,1.91.44.54,1.06.88,1.75.94.09,0,.18.01.27.01,1.32,0,2.45-1,2.59-2.34.15-1.43-.9-2.71-2.33-2.86-.69-.07-1.37.13-1.91.57Zm2.85,2.14c-.07.66-.68,1.14-1.32,1.08-.32-.03-.61-.19-.81-.44-.2-.25-.3-.56-.27-.88.03-.32.19-.61.44-.81.22-.18.48-.27.76-.27.04,0,.08,0,.12,0,.66.07,1.15.66,1.08,1.32Z" /><path d="m32.89,10.56c-.19-.15-.43-.2-.66-.16l-27.74,5.67c-.37.08-.64.4-.64.78v33.71c0,.16.06.29.13.42-.29.43-.46.94-.46,1.5,0,1.47,1.19,2.66,2.66,2.66h23.98c1.47,0,2.66-1.19,2.66-2.66s-1.19-2.66-2.66-2.66h-3.28c.02-.16.02-.33-.02-.49l-.95-5.22-.06-.24-2.35-3.16.36-3.53,1.48,1.22c.13.11.3.17.47.19l3.32.34c.43.04.86-.08,1.19-.36.34-.28.54-.67.58-1.11.07-.87-.59-1.65-1.47-1.74l-2.6-.26-2.4-2c-.41-.34-.91-.55-1.43-.6l-2.39-.24c-.7-.07-1.41.14-1.95.59l-3.21,2.61c-.14.11-.23.26-.28.42l-.97,3.17c-.25.83.17,1.71.96,2.01.42.16.88.13,1.28-.06.4-.2.7-.55.83-.97l.77-2.53.56-.45-.3,2.97s0,0,0,0l-1.23,3.87-3.24,3.41h-.01c-.61.59-.63,1.56-.06,2.17h-5.08v-29.45l6.97-1.41v2.15h-.96c-1.47,0-2.66,1.19-2.66,2.66s1.19,2.66,2.66,2.66h14.88c1.47,0,2.66-1.19,2.66-2.66s-1.19-2.66-2.66-2.66h-.62v-4.48c0-.12-.03-.23-.08-.33l3.82-.77c.38-.08.65-.42.64-.81l-.12-3.55c0-.24-.12-.46-.3-.6Zm-1.67,41.92c0,.59-.48,1.06-1.06,1.06H6.18c-.59,0-1.06-.48-1.06-1.06s.48-1.06,1.06-1.06h23.98c.59,0,1.06.48,1.06,1.06Zm-14.19-15.62c-.14.11-.24.26-.29.43l-.82,2.68c-.02.08-.08.11-.11.13-.04.02-.1.03-.17,0-.1-.04-.15-.17-.12-.29l.92-3.02,3.08-2.51c.26-.21.59-.31.93-.28l2.38.24c.25.03.49.12.68.29l2.52,2.09c.14.11.3.18.48.2l2.76.28c.13.01.23.12.22.23,0,.07-.04.12-.08.15-.02.02-.07.06-.16.05l-3.17-.32-2.09-1.73c-.25-.21-.6-.26-.9-.14-.3.12-.51.41-.55.73l-.47,4.67c-.02.22.04.44.17.62l2.3,3.09.93,5.14c.02.07-.03.14-.1.16-.06.01-.11-.01-.14-.06l-1.49-4.6-.08-.19-2.1-2.45c-.06-.18-.18-.34-.37-.43l-1.49-1.74.4-3.97c.04-.36-.14-.7-.46-.87-.32-.17-.7-.13-.98.09l-1.63,1.32Zm1.13,8.25l.15-.19.95-2.99.8.93-1.02,2.43-4.09,3.58s-.07.04-.09.04c-.02,0-.06,0-.1-.04-.04-.04-.05-.11-.02-.16l3.42-3.6Zm1.88,1.16l.17-.17.86-2.04,1.37,1.6,1.35,4.17h-7.81l4.06-3.55Zm10.57-22.49c0,.59-.48,1.06-1.06,1.06h-14.88c-.59,0-1.06-.48-1.06-1.06s.48-1.06,1.06-1.06h14.88c.59,0,1.06.48,1.06,1.06Zm-3.29-7.15v4.48h-10.1v-2.47l10.11-2.04s0,.02,0,.03Zm-19.62,2.31c-.37.08-.64.4-.64.78v30.05h-1.61V17.5l26.18-5.35.07,1.92-23.99,4.85Z" /></svg>