<?xml version="1.0" encoding="UTF-8"?><svg id="a" xmlns="http://www.w3.org/2000/svg" viewBox="0 0 64 64"><g><path d="M55.39,45.09h-17.6c-2.51,0-4.55-2.25-4.55-5.03V19.38c0-2.78,2.41-5.54,13.35-5.54s13.35,2.76,13.35,5.54v20.68c0,2.78-2.04,5.03-4.55,5.03Z" style="fill:none; stroke:#040b1f; stroke-linecap:round; stroke-miterlimit:10; stroke-width:1.6px;"/><line x1="33.23" y1="20.3" x2="59.93" y2="20.3" style="fill:none; stroke:#040b1f; stroke-linecap:round; stroke-miterlimit:10; stroke-width:1.6px;"/><line x1="33.23" y1="32.89" x2="59.93" y2="32.89" style="fill:none; stroke:#040b1f; stroke-linecap:round; stroke-miterlimit:10; stroke-width:1.6px;"/><line x1="46.58" y1="20.3" x2="46.58" y2="32.89" style="fill:none; stroke:#040b1f; stroke-linecap:round; stroke-miterlimit:10; stroke-width:1.6px;"/><ellipse cx="38.82" cy="38.88" rx="2.11" ry="2.12" style="fill:none; stroke:#040b1f; stroke-linecap:round; stroke-miterlimit:10; stroke-width:1.6px;"/><ellipse cx="54.34" cy="38.88" rx="2.11" ry="2.12" style="fill:none; stroke:#040b1f; stroke-linecap:round; stroke-miterlimit:10; stroke-width:1.6px;"/><line x1="42.28" y1="45.09" x2="37.18" y2="52.22" style="fill:none; stroke:#040b1f; stroke-linecap:round; stroke-miterlimit:10; stroke-width:1.6px;"/><line x1="50.89" y1="45.09" x2="55.99" y2="52.22" style="fill:none; stroke:#040b1f; stroke-linecap:round; stroke-miterlimit:10; stroke-width:1.6px;"/><line x1="39.73" y1="49.55" x2="53.46" y2="49.55" style="fill:none; stroke:#040b1f; stroke-linecap:round; stroke-miterlimit:10; stroke-width:1.6px;"/></g><g><g><path d="M19.36,26.81s.1,0,.15,0c.78,.08,1.36,.78,1.28,1.57-.07,.74-.7,1.28-1.42,1.28-.05,0-.1,0-.15,0-.79-.08-1.36-.78-1.28-1.57,.07-.74,.7-1.28,1.42-1.28m0-1.6h0c-1.56,0-2.85,1.17-3.01,2.72-.08,.8,.16,1.59,.67,2.22,.51,.63,1.24,1.02,2.04,1.1,.1,.01,.21,.02,.31,.02,1.56,0,2.85-1.17,3.01-2.72,.17-1.66-1.05-3.15-2.71-3.32-.1-.01-.21-.02-.31-.02h0Z" style="fill:#040b1f;"/><path d="M18.31,31.45c.06,0,.12,0,.18,0l2.21,.22c.36,.04,.7,.18,.98,.41l1.18,1.56s.63,.62,.66,.62l3.69,.33c.11,.34,.28,.18,.24,.64-.04,.44-.41,.78-.84,.78-.03,0-.06,0-.09,0l-3.08-.31s-.07-.02-.09-.04l-2.05-1.69s-.07-.04-.11-.04c-.08,0-.17,.06-.17,.16l-1.33,4.5s0,0-.01,0c0,0,0,.02,0,.02,0,0,0,0,0-.01l2.77,3.32s.03,.05,.03,.07l1.23,4.44c.1,.42-.16,.83-.58,.93-.06,.01-.12,.02-.17,.02-.35,0-.67-.24-.75-.6,0,0,0,0,0,0h0s-1.35-4.16-1.35-4.16c0-.02-.02-.04-.03-.06l-3.73-4.35s-.05-.08-.04-.13l.39-3.88c.01-.11-.08-.19-.17-.19-.04,0-.08,.01-.11,.04l-1.51,1.23s-.05,.05-.06,.08l-.76,2.49c-.11,.36-.45,.6-.81,.6-.1,0-.2-.02-.3-.06-.42-.16-.33-.56-.2-.99l1.05-2.83s.03-.06,.06-.08l2.52-2.6c.33-.27,.73-.41,1.15-.41m0-1.6c-.79,0-1.55,.27-2.16,.77-.05,.04-.09,.08-.14,.13l-2.49,2.57c-.2,.19-.35,.43-.45,.7l-1.04,2.81s-.02,.06-.03,.09c-.64,2.09,.73,2.79,1.17,2.95,.28,.11,.57,.16,.87,.16,.72,0,1.38-.31,1.83-.82,0,.01,.02,.02,.03,.03l3.54,4.14,1.24,3.83c.26,1.03,1.2,1.77,2.3,1.77,.18,0,.36-.02,.54-.06,.62-.14,1.14-.52,1.48-1.06,.34-.54,.44-1.17,.3-1.79,0-.02-.01-.04-.02-.07l-1.22-4.4c-.06-.23-.16-.44-.3-.63-.02-.02-.04-.05-.05-.07l-2.22-2.66,.48-1.64,.38,.32c.27,.22,.6,.36,.95,.4l3.08,.31c.08,0,.17,.01,.25,.01,1.26,0,2.33-.99,2.44-2.24,.05-.6-.08-1.07-.39-1.48-.24-.5-.73-.84-1.3-.89l-3.15-.28s-.08-.08-.11-.11c-.01-.01-.02-.02-.03-.03l-1.1-1.46c-.07-.1-.16-.19-.25-.27-.53-.44-1.16-.7-1.84-.77l-2.21-.22c-.12-.01-.23-.02-.35-.02h0Z" style="fill:#040b1f;"/><path d="M18.47,42.32h0s-.03,.06-.05,.08l-4.28,4.24c-.34,.37-.93,.3-1.31-.15-.38-.46-.42-1.13-.08-1.5,0,0,0,0,0,0h0s3.39-4.18,3.39-4.18c.02-.02,.03-.05,.04-.09l.26-5.04" style="fill:none; stroke:#040b1f; stroke-linecap:round; stroke-linejoin:round; stroke-width:1.6px;"/></g><rect x="10.82" y="19.24" width="18.99" height="3.8" rx="1.86" ry="1.86" style="fill:none; stroke:#040b1f; stroke-linecap:round; stroke-miterlimit:10; stroke-width:1.6px;"/><rect x="4.19" y="48.54" width="28.27" height="3.8" rx="1.86" ry="1.86" style="fill:none; stroke:#040b1f; stroke-linecap:round; stroke-miterlimit:10; stroke-width:1.6px;"/><line x1="14.51" y1="18.95" x2="14.51" y2="15.56" style="fill:none; stroke:#040b1f; stroke-linecap:round; stroke-miterlimit:10; stroke-width:1.6px;"/><line x1="26.45" y1="18.54" x2="26.45" y2="13.84" style="fill:none; stroke:#040b1f; stroke-linecap:round; stroke-miterlimit:10; stroke-width:1.6px;"/><polyline points="31.95 11.92 6.79 17 6.79 48.48" style="fill:none; stroke:#040b1f; stroke-linecap:round; stroke-linejoin:round; stroke-width:1.6px;"/></g></svg>