<?xml version="1.0" encoding="utf-8"?>
<!-- Generator: Adobe Illustrator 26.2.1, SVG Export Plug-In . SVG Version: 6.00 Build 0)  -->
<svg version="1.1" id="trans" xmlns="http://www.w3.org/2000/svg" xmlns:xlink="http://www.w3.org/1999/xlink" x="0px" y="0px"
	 viewBox="0 0 256.09 199.94" style="enable-background:new 0 0 256.09 199.94;" xml:space="preserve">
<style type="text/css">
	#trans .st0{fill:none;stroke:#040B1F;stroke-width:7;stroke-linecap:round;stroke-miterlimit:10;}
	#trans .st1{fill:none;stroke:#040B1F;stroke-width:5;stroke-linecap:round;stroke-miterlimit:10;}
	#trans .st2{fill:none;stroke:#040B1F;stroke-width:7;stroke-linecap:round;stroke-linejoin:round;stroke-miterlimit:10;}
</style>
<g>
	<g>
		<path class="st0" d="M233.46,165.91h-74.08c-10.57,0-19.13-9.48-19.13-21.18V57.72c0-11.7,10.14-23.3,56.17-23.3
			s56.17,11.6,56.17,23.3v87.01C252.59,156.42,244.03,165.91,233.46,165.91z"/>
		<line class="st0" x1="140.24" y1="61.58" x2="252.59" y2="61.58"/>
		<line class="st0" x1="140.24" y1="114.57" x2="252.59" y2="114.57"/>
		<line class="st0" x1="196.42" y1="61.58" x2="196.42" y2="114.57"/>
		<ellipse class="st0" cx="163.77" cy="138.86" rx="8.89" ry="9.84"/>
		<ellipse class="st0" cx="229.07" cy="138.86" rx="8.89" ry="9.84"/>
		<line class="st0" x1="178.3" y1="165.91" x2="156.85" y2="195.89"/>
		<line class="st0" x1="214.54" y1="165.91" x2="235.98" y2="195.89"/>
		<line class="st0" x1="167.58" y1="184.69" x2="225.38" y2="184.69"/>
	</g>
	<g>
		<g>
			
				<ellipse transform="matrix(0.8453 -0.5343 0.5343 0.8453 -33.985 59.319)" class="st1" cx="85.45" cy="88.35" rx="8.52" ry="8.52"/>
			<path class="st1" d="M118.47,117.19l-12.59-1.28l-11.66-9.69c-1.21-1.01-2.7-1.63-4.27-1.79l-11.27-1.14
				c-2.1-0.21-4.19,0.42-5.82,1.75l-14.78,12.05l-4.4,14.4c-0.63,2.07,0.38,4.37,2.41,5.13c2.22,0.84,4.66-0.38,5.34-2.62
				l3.74-12.23l9.08-7.36l-2.14,21.1l18.3,21.38l6.57,20.21l0,0c0,0.01,0,0.02,0.01,0.04c0.46,2,2.47,3.25,4.47,2.79
				c2-0.46,3.25-2.47,2.79-4.47l-4.27-23.56l-10.92-14.67l2.32-22.8l11.29,9.33l15.12,1.53c2.26,0.23,4.28-1.44,4.47-3.72
				C122.43,119.35,120.7,117.41,118.47,117.19z"/>
			<path class="st1" d="M80.72,145.12l-5.73,13.62l-18.74,16.39c-1.49,1.42-3.85,1.36-5.27-0.13c-1.42-1.49-1.36-3.85,0.13-5.27
				c0.01-0.01,0.02-0.02,0.03-0.02l0,0l15.14-15.91l5.81-18.28"/>
		</g>
		<path class="st0" d="M119.17,68.09H46.91c-3.02,0-5.47-2.45-5.47-5.47V56.9c0-3.02,2.45-5.47,5.47-5.47h72.26
			c3.02,0,5.47,2.45,5.47,5.47v5.73C124.64,65.65,122.19,68.09,119.17,68.09z"/>
		<path class="st0" d="M121.89,196.44H8.97c-3.02,0-5.47-2.45-5.47-5.47v-5.73c0-3.02,2.45-5.47,5.47-5.47h112.92
			c3.02,0,5.47,2.45,5.47,5.47v5.73C127.35,193.99,124.91,196.44,121.89,196.44z"/>
		<line class="st0" x1="57.63" y1="50.17" x2="57.63" y2="35.33"/>
		<line class="st0" x1="109.94" y1="48.38" x2="109.94" y2="27.81"/>
		<polygon class="st2" points="129.55,19.36 19.33,41.62 19.33,179.53 4.98,179.53 4.98,28.83 129.01,3.5 		"/>
	</g>
</g>
</svg>
