<svg version="1.1" id="transit" xmlns="http://www.w3.org/2000/svg" x="0" y="0" viewBox="0 0 260.1 199.9" xml:space="preserve"><path style="fill:none;stroke:#040b1f;stroke-width:7;stroke-linecap:round;stroke-miterlimit:10" d="M237 166h-74c-10 0-19-10-19-21V58c0-12 10-24 56-24s57 12 57 24v87c0 11-9 21-20 21zM144 62h113m-113 53h113m-57-53v53"/><ellipse style="fill:none;stroke:#040b1f;stroke-width:7;stroke-linecap:round;stroke-miterlimit:10" cx="167.8" cy="138.9" rx="8.9" ry="9.8"/><ellipse style="fill:none;stroke:#040b1f;stroke-width:7;stroke-linecap:round;stroke-miterlimit:10" cx="233.1" cy="138.9" rx="8.9" ry="9.8"/><path style="fill:none;stroke:#040b1f;stroke-width:7;stroke-linecap:round;stroke-miterlimit:10" d="m182 166-21 30m58-30 21 30m-68-11h57"/><circle transform="rotate(-32 85 88)" style="fill:none;stroke:#040b1f;stroke-width:7;stroke-linecap:round;stroke-miterlimit:10" cx="85.5" cy="88.3" r="8.5"/><path style="fill:none;stroke:#040b1f;stroke-width:7;stroke-linecap:round;stroke-miterlimit:10" d="m118 117-12-1-12-10-4-2-11-1-6 2-15 12-4 14c-1 3 0 5 2 6 2 0 5-1 5-3l4-12 9-8-2 21 18 22 7 20h0s0 0 0 0a4 4 0 0 0 7-2l-4-23-11-15 2-23 12 10 15 1c2 1 4-1 4-3 0-3-1-5-4-5z"/><path style="fill:none;stroke:#040b1f;stroke-width:7;stroke-linecap:round;stroke-miterlimit:10" d="m81 145-6 14-19 16a4 4 0 0 1-5-5s0 0 0 0h0l15-16 6-18"/><path style="fill:none;stroke:#040b1f;stroke-width:7;stroke-linecap:round;stroke-miterlimit:10" d="M119 68H47c-3 0-6-2-6-5v-6c0-3 3-6 6-6h72c3 0 6 3 6 6v6c0 3-3 5-6 5zm3 128H9c-3 0-6-2-6-5v-6c0-3 3-5 6-5h113c3 0 5 2 5 5v6c0 3-2 5-5 5zM58 50V35m52 13V28"/><path class="st2" fill="none" stroke="#040b1f" stroke-width="7" stroke-linecap="round" stroke-linejoin="round" stroke-miterlimit="10" d="M130 19 19 42v138H5V29L129 4z"/></svg>