<svg id="Layer_1" data-name="Layer 1" xmlns="http://www.w3.org/2000/svg" viewBox="0 0 36.2 29.18"><defs><style>.cls-1{fill:#0078ae;}</style></defs><path class="cls-1" d="M35.2.58a18.34,18.34,0,0,1-4.6,1.8A7.37,7.37,0,0,0,18,9,20,20,0,0,1,2.8,1.18,7.26,7.26,0,0,0,5,11a6.74,6.74,0,0,1-3.4-1v.2a7.13,7.13,0,0,0,6,7.2,9.47,9.47,0,0,1-3.4.2,7.75,7.75,0,0,0,6.8,5.2,14.31,14.31,0,0,1-11,3,21.12,21.12,0,0,0,11.4,3.4c13.6,0,21-11.2,21-21v-1a11.49,11.49,0,0,0,3.8-3.8A16.6,16.6,0,0,1,32,4.58,7.78,7.78,0,0,0,35.2.58Z"/></svg>